<?xml version="1.0" encoding="UTF-8" standalone="no"?>
<!-- Created with Inkscape (http://www.inkscape.org/) -->

<svg
   width="161.31mm"
   height="210.26mm"
   version="1.1"
   viewBox="0 0 161.31 210.26"
   id="svg70"
   sodipodi:docname="侧向4钉.svg"
   inkscape:version="1.2 (dc2aedaf03, 2022-05-15)"
   xmlns:inkscape="http://www.inkscape.org/namespaces/inkscape"
   xmlns:sodipodi="http://sodipodi.sourceforge.net/DTD/sodipodi-0.dtd"
   xmlns:xlink="http://www.w3.org/1999/xlink"
   xmlns="http://www.w3.org/2000/svg"
   xmlns:svg="http://www.w3.org/2000/svg">
  <defs
     id="defs74" />
  <sodipodi:namedview
     id="namedview72"
     pagecolor="#ffffff"
     bordercolor="#000000"
     borderopacity="0.25"
     inkscape:showpageshadow="2"
     inkscape:pageopacity="0.0"
     inkscape:pagecheckerboard="0"
     inkscape:deskcolor="#d1d1d1"
     inkscape:document-units="mm"
     showgrid="false"
     inkscape:zoom="1.4752831"
     inkscape:cx="177.59303"
     inkscape:cy="244.6988"
     inkscape:window-width="1920"
     inkscape:window-height="1009"
     inkscape:window-x="-8"
     inkscape:window-y="-8"
     inkscape:window-maximized="1"
     inkscape:current-layer="svg70" />
  <path
     d="m 80.592,10.132 c -6.6666,-6.6665 -3.3332,-9.9998 3.7e-4,-9.9997 3.3336,1.32e-4 6.6667,3.3332 -3.3e-4,10 -6.666999,6.6668 -23.332999,16.666 -38.332999,45 -15,28.333 -28.333,74.999 -21.666,106.67 6.667,31.671 33.333,48.333 59.999999,48.333 26.667,-1.2e-4 53.332,-16.666 59.999,-48.334 6.6669,-31.667 -6.6656,-78.331 -21.666,-106.67 -15,-28.334 -31.667,-38.334 -38.334,-45.001 z"
     fill="none"
     stroke="#000000"
     stroke-width="0.26458px"
     id="path39"
     style="stroke-width:0.5;stroke-dasharray:none" />
  <path
     id="path457"
     d="M 64.413,24.47 50.175,12.902"
     fill="none"
     stroke="#000000"
     stroke-width="0.26458px"
     style="stroke-width:0.5;stroke-dasharray:none" />
  <path
     id="path459"
     d="M 55.934,34.135 43.476,23.901"
     fill="none"
     stroke="#000000"
     stroke-width="0.26458px"
     style="stroke-width:0.5;stroke-dasharray:none" />
  <path
     id="path461"
     d="M 71.582,18.023 58.679,6.9"
     fill="none"
     stroke="#000000"
     stroke-width="0.26458px"
     style="stroke-width:0.5;stroke-dasharray:none" />
  <use
     transform="matrix(-1,0,0,1,161.264,0)"
     xlink:href="#path461"
     id="use44"
     x="0"
     y="0" />
  <use
     transform="matrix(-1,0,0,1,161.084,0)"
     xlink:href="#path457"
     id="use46"
     x="0"
     y="0" />
  <use
     transform="matrix(-1,0,0,1,161.324,0)"
     xlink:href="#path459"
     id="use48"
     x="0"
     y="0" />
  <g
     fill="none"
     stroke="#000000"
     stroke-width="0.26458px"
     id="g56"
     transform="translate(-19.408,-53.201)"
     style="stroke-width:0.5;stroke-dasharray:none">
    <path
       d="M 100,120 V 220"
       id="path50"
       style="stroke-width:0.5;stroke-dasharray:none" />
    <path
       d="m 70,170 h 60"
       id="path52"
       style="stroke-width:0.5;stroke-dasharray:none" />
    <path
       d="m 60,220 h 80"
       id="path54"
       style="stroke-width:0.5;stroke-dasharray:none" />
  </g>
  <g
     id="g3110"
     transform="translate(-19.408,-53.201)"
     style="stroke-width:0.5;stroke-dasharray:none">
    <path
       d="m 19.541,185.03 v 21.394"
       fill="none"
       stroke="#000000"
       stroke-width="0.26458px"
       id="path61"
       style="stroke-width:0.5;stroke-dasharray:none" />
    <path
       d="M 19.504,195.72 H 48.957"
       fill="none"
       stroke="#000000"
       stroke-width="0.26458px"
       id="path63"
       style="stroke-width:0.5;stroke-dasharray:none" />
  </g>
  <use
     transform="matrix(-1,0,0,1,161.314,0)"
     xlink:href="#g3110"
     id="use66"
     x="0"
     y="0" />
  <path
     style="fill:none;stroke:#000000;stroke-width:0.5;stroke-dasharray:none"
     id="path401"
     sodipodi:type="arc"
     sodipodi:cx="29.554787"
     sodipodi:cy="85.251801"
     sodipodi:rx="20"
     sodipodi:ry="20"
     sodipodi:start="1.8517404"
     sodipodi:end="5.0792012"
     sodipodi:arc-type="arc"
     d="M 24.00953,104.46768 A 20,20 0 0 1 10.011137,89.499833 20,20 0 0 1 16.533163,70.071639 20,20 0 0 1 36.727618,66.582293"
     sodipodi:open="true" />
  <use
     x="0"
     y="0"
     xlink:href="#path401"
     id="use1081"
     transform="matrix(-1,0,0,1,161.31728,0)" />
  <g
     id="use1083"
     transform="rotate(28.8,318.41435,130.344)"
     style="stroke-width:0.5;stroke-dasharray:none">
    <path
       d="m 19.541,185.03 v 21.394"
       fill="none"
       stroke="#000000"
       stroke-width="0.26458px"
       id="path1085"
       style="stroke-width:0.5;stroke-dasharray:none" />
    <path
       d="M 19.504,195.72 H 48.957"
       fill="none"
       stroke="#000000"
       stroke-width="0.26458px"
       id="path1087"
       style="stroke-width:0.5;stroke-dasharray:none" />
  </g>
  <use
     x="0"
     y="0"
     xlink:href="#use1083"
     id="use1091"
     transform="matrix(-1,0,0,1,160.76121,0)" />
</svg>
