<?xml version="1.0" encoding="UTF-8" standalone="no"?>
<!-- Created with Inkscape (http://www.inkscape.org/) -->

<svg
   width="185.57068mm"
   height="210.26758mm"
   version="1.1"
   viewBox="0 0 185.57068 210.26758"
   id="svg7"
   sodipodi:docname="侧向颅钉示意图.svg"
   inkscape:version="1.3.2 (091e20e, 2023-11-25, custom)"
   xmlns:inkscape="http://www.inkscape.org/namespaces/inkscape"
   xmlns:sodipodi="http://sodipodi.sourceforge.net/DTD/sodipodi-0.dtd"
   xmlns:xlink="http://www.w3.org/1999/xlink"
   xmlns="http://www.w3.org/2000/svg"
   xmlns:svg="http://www.w3.org/2000/svg">
  <defs
     id="defs7" />
  <sodipodi:namedview
     id="namedview7"
     pagecolor="#ffffff"
     bordercolor="#000000"
     borderopacity="0.25"
     inkscape:showpageshadow="2"
     inkscape:pageopacity="0.0"
     inkscape:pagecheckerboard="0"
     inkscape:deskcolor="#d1d1d1"
     inkscape:document-units="mm"
     inkscape:zoom="2.0460977"
     inkscape:cx="390.25506"
     inkscape:cy="416.15803"
     inkscape:window-width="1366"
     inkscape:window-height="697"
     inkscape:window-x="261"
     inkscape:window-y="1072"
     inkscape:window-maximized="1"
     inkscape:current-layer="svg7" />
  <path
     d="m 93.753259,10.13199 c -6.6666,-6.6665 -3.3332,-9.99979999 3.7e-4,-9.99969999 3.3336,1.32e-4 6.666701,3.33319999 -3.3e-4,9.99999999 -6.666999,6.6668 -23.332999,16.666 -38.332999,45 -15,28.333 -28.333,74.999 -21.666,106.67 6.667,31.671 33.333,48.333 59.999999,48.333 26.667001,-1.2e-4 53.332001,-16.666 59.999001,-48.334 6.6669,-31.667 -6.6656,-78.331 -21.666,-106.67 -15,-28.334 -31.667,-38.334 -38.334001,-45.001 z"
     fill="none"
     stroke="#000000"
     stroke-width="0.26458px"
     id="path1" />
  <path
     id="path457"
     d="m 77.574259,24.46999 -14.238,-11.568"
     fill="none"
     stroke="#000000"
     stroke-width="0.26458px" />
  <path
     id="path459"
     d="m 69.095259,34.13499 -12.458,-10.234"
     fill="none"
     stroke="#000000"
     stroke-width="0.26458px" />
  <path
     id="path461"
     d="m 84.743259,18.02299 -12.903,-11.123"
     fill="none"
     stroke="#000000"
     stroke-width="0.26458px" />
  <use
     transform="matrix(-1,0,0,1,187.58652,0)"
     xlink:href="#path461"
     id="use1"
     x="0"
     y="0" />
  <use
     transform="matrix(-1,0,0,1,187.40652,0)"
     xlink:href="#path457"
     id="use2"
     x="0"
     y="0" />
  <use
     transform="matrix(-1,0,0,1,187.64652,0)"
     xlink:href="#path459"
     id="use3"
     x="0"
     y="0" />
  <g
     fill="none"
     stroke="#000000"
     stroke-width="0.26458px"
     id="g5"
     transform="translate(-6.2467415,-53.20101)">
    <path
       d="M 100,120 V 220"
       id="path3" />
    <path
       d="m 70,170 h 60"
       id="path4" />
    <path
       d="m 60,220 h 80"
       id="path5" />
  </g>
  <g
     id="g3110"
     transform="translate(-6.2467415,-53.20101)">
    <path
       d="m 19.541,185.03 v 21.394"
       fill="none"
       stroke="#000000"
       stroke-width="0.26458px"
       id="path6" />
    <path
       d="M 19.504,195.72 H 48.957"
       fill="none"
       stroke="#000000"
       stroke-width="0.26458px"
       id="path7" />
  </g>
  <use
     transform="matrix(-1,0,0,1,187.63652,0)"
     xlink:href="#g3110"
     id="use7"
     x="0"
     y="0" />
  <path
     style="fill:none;fill-opacity:0.2;stroke:#000000;stroke-width:0.387391"
     id="path8"
     sodipodi:type="arc"
     sodipodi:cx="52.213238"
     sodipodi:cy="61.81073"
     sodipodi:rx="15.714561"
     sodipodi:ry="15.714561"
     sodipodi:start="2.0057106"
     sodipodi:end="5.19852"
     sodipodi:arc-type="arc"
     d="M 45.59218,76.062363 A 15.714561,15.714561 0 0 1 36.538954,62.935124 15.714561,15.714561 0 0 1 43.625762,48.65008 15.714561,15.714561 0 0 1 59.555217,47.916746"
     sodipodi:open="true" />
  <use
     x="0"
     y="0"
     xlink:href="#path8"
     id="use8"
     transform="matrix(-1,0,0,1,186.96764,0)" />
  <circle
     style="fill:none;fill-opacity:0.2;stroke:#000000;stroke-width:0.31235"
     id="path9"
     cx="111.69638"
     cy="105.51793"
     r="32.821159" />
  <circle
     style="fill:none;fill-opacity:0.2;stroke:#000000;stroke-width:0.3545"
     id="path10"
     cx="81.954803"
     cy="52.241711"
     r="8.4895802" />
  <path
     style="fill:none;fill-opacity:0.2;stroke:#000000;stroke-width:0.3545"
     d="M 76.583853,52.068454 H 86.979256"
     id="path11" />
  <path
     style="fill:none;fill-opacity:0.2;stroke:#000000;stroke-width:0.3545"
     d="M 82.144044,57.959184 V 46.177724"
     id="path12" />
  <path
     style="fill:none;fill-opacity:0.2;stroke:#000000;stroke-width:0.264583"
     d="m 109.83009,82.342794 c 1.43106,0.918056 2.7203,2.047028 4.0609,3.093468 0.0654,0.05103 0.82857,0.503793 0.8378,0.640027 0.0121,0.178446 -0.35417,0.0512 -0.53225,0.06788"
     id="path29" />
  <path
     style="fill:none;fill-opacity:0.2;stroke:#000000;stroke-width:0.264583"
     d="m 100.17068,87.084818 c 1.83019,2.80652 1.51507,1.323702 1.21236,4.383222"
     id="path30" />
  <path
     style="fill:none;fill-opacity:0.2;stroke:#000000;stroke-width:0.264583"
     d="m 100.00312,88.335783 c 0.57825,-0.252134 1.12314,-0.601855 1.73475,-0.756398 7.70074,-1.945849 9.7411,-2.836529 16.57871,-2.521321 0.18125,0.0084 2.74374,0.303845 3.23294,0.979438 0.52024,0.718446 -0.21826,2.513229 -0.39426,3.122559 -0.12363,0.428014 -0.24145,0.858105 -0.38441,1.280054 -0.27976,0.825757 -0.41942,0.951661 -1.05465,0.426686"
     id="path31" />
  <path
     style="fill:none;fill-opacity:0.2;stroke:#000000;stroke-width:0.264583"
     d="m 107.29696,88.820651 c -1.65707,1.391235 -3.18321,2.943987 -4.8987,4.266853"
     id="path32" />
  <path
     style="fill:none;fill-opacity:0.2;stroke:#000000;stroke-width:0.264583"
     d="m 112.91519,86.929661 c 0.32432,0.21785 4.84548,4.245398 5.06626,4.441404"
     id="path33" />
  <path
     style="fill:none;fill-opacity:0.2;stroke:#000000;stroke-width:0.264583"
     d="m 110.75661,90.323749 c -1.62166,1.475756 -3.58439,2.516137 -5.2634,3.917746 -0.13084,0.109225 0.32185,-0.115411 0.47312,-0.19395 1.09463,-0.568315 2.13445,-1.246846 3.26251,-1.74553 1.37657,-0.608537 2.62613,-0.898753 4.07076,-1.086107 0.63252,-0.08203 1.32659,-0.07132 1.18278,0.116369 -0.7089,0.925198 -1.91296,1.611918 -2.84854,2.278885 -1.73693,1.23824 -3.94485,3.152519 -6.2589,2.889824"
     id="path34" />
  <path
     style="fill:none;fill-opacity:0.2;stroke:#000000;stroke-width:0.264583"
     d="m 105.04967,94.823338 c -8.336014,0.760865 1.43053,6.414302 0.13799,9.193132 -0.0648,0.1394 -0.13142,-0.278 -0.19713,-0.41699"
     id="path35" />
  <path
     style="fill:none;fill-opacity:0.2;stroke:#000000;stroke-width:0.264583"
     d="m 103.90631,97.422239 c 1.07108,-0.853371 1.90014,-2.171221 3.21323,-2.560111 2.99312,-0.886455 6.21208,-1.636109 9.29472,-1.144294 1.7869,0.285089 1.56784,7.701926 1.14336,9.154336 -0.49683,1.69997 -0.8271,0.9672 -2.21772,0.42669"
     id="path36" />
  <path
     style="fill:none;fill-opacity:0.2;stroke:#000000;stroke-width:0.264583"
     d="m 111.77183,95.686406 c -5.68001,3.362655 2.01564,-1.295477 -5.8745,3.995324 -0.64958,0.43559 1.1908,-1.01837 1.83332,-1.464304 1.53019,-1.062011 3.46751,-2.077805 5.33239,-2.395257 0.47612,-0.08105 1.11001,-0.344101 1.44891,0 0.29697,0.301522 -0.006,0.883825 -0.21684,1.250963 -1.10748,1.931556 -6.30151,5.388398 -8.58505,4.877788"
     id="path37" />
  <path
     style="fill:none;fill-opacity:0.2;stroke:#000000;stroke-width:0.264583"
     d="m 109.3964,98.372583 c 3.9723,2.447967 3.73085,0.813527 3.44979,3.558937"
     id="path38" />
  <path
     style="fill:none;fill-opacity:0.2;stroke:#000000;stroke-width:0.264583"
     d="m 104.42871,104.6468 c 5.15139,-0.46075 0.8592,-0.001 11.10832,-2.07525 1.38924,-0.28111 0.0294,0.0331 -0.11828,0.0679"
     id="path39" />
  <path
     style="fill:none;fill-opacity:0.2;stroke:#000000;stroke-width:0.264583"
     d="m 92.24909,37.557991 c 4.02772,1.523343 2.611286,1.967613 4.238313,1.367332"
     id="path40" />
  <path
     style="fill:none;fill-opacity:0.2;stroke:#000000;stroke-width:0.264583"
     d="m 98.42914,36.307025 c -3.249393,3.697404 -1.851202,2.559513 -3.676489,3.966233"
     id="path41" />
  <path
     style="fill:none;fill-opacity:0.2;stroke:#000000;stroke-width:0.264583"
     d="m 90.514336,41.659987 c 3.663241,-2.513123 2.022885,-1.633402 9.068019,-3.675311 0.841105,-0.243779 1.717335,-0.463653 2.592275,-0.426685 0.36726,0.0155 -0.65711,0.32971 -0.98566,0.494567"
     id="path42" />
  <path
     style="fill:none;fill-opacity:0.2;stroke:#000000;stroke-width:0.264583"
     d="m 91.864685,41.689078 c 0.855046,5.143582 0.973735,2.777014 0.07885,7.10819"
     id="path43" />
  <path
     style="fill:none;fill-opacity:0.2;stroke:#000000;stroke-width:0.264583"
     d="m 92.574355,47.914803 c 0.492826,0.491337 1.173972,2.099755 1.478481,1.474005 6.011164,-12.352695 1.475627,-7.927909 -2.96682,-5.129919 1.395599,-0.500935 3.437342,-2.013021 5.10569,-1.018227 0.129267,0.07708 -0.249699,0.168088 -0.374548,0.252132"
     id="path44" />
  <path
     style="fill:none;fill-opacity:0.2;stroke:#000000;stroke-width:0.264583"
     d="m 91.608415,45.955932 c 6.388081,-3.017571 4.108561,-2.006315 6.771444,-3.180744"
     id="path45" />
  <path
     style="fill:none;fill-opacity:0.2;stroke:#000000;stroke-width:0.264583"
     d="m 98.892399,41.572709 c 0.819565,-1.075071 -0.669277,6.64944 0.206986,4.838999"
     id="path46" />
  <path
     style="fill:none;fill-opacity:0.2;stroke:#000000;stroke-width:0.264583"
     d="m 101.18897,39.56535 c 0.40327,2.405084 2.18594,7.649916 -0.4534,10.036802 -0.26729,0.241721 -1.814509,-1.934245 -1.941739,-2.560114 -0.09664,-0.475424 -0.03285,-0.969737 -0.04928,-1.454607"
     id="path47" />
  <path
     style="fill:none;fill-opacity:0.2;stroke:#000000;stroke-width:0.264583"
     d="m 107.21132,36.462184 c -1.44399,2.180897 -2.69996,5.706396 -5.09583,7.408807"
     id="path48" />
  <path
     style="fill:none;fill-opacity:0.2;stroke:#000000;stroke-width:0.264583"
     d="m 104.9246,39.08048 c 4.64681,-1.813507 2.67804,-1.817301 5.73651,-1.40612"
     id="path49" />
  <path
     style="fill:none;fill-opacity:0.2;stroke:#000000;stroke-width:0.264583"
     d="m 105.35829,41.45634 c 2.90332,-1.069742 1.60308,-0.793583 3.83419,-1.095803"
     id="path50" />
  <path
     style="fill:none;fill-opacity:0.2;stroke:#000000;stroke-width:0.264583"
     d="m 103.7221,44.763153 c 5.55977,-3.194084 4.16292,-1.539576 5.60838,-3.277719"
     id="path51" />
  <path
     style="fill:none;fill-opacity:0.2;stroke:#000000;stroke-width:0.264583"
     d="m 108.03927,41.204208 c -2.26874,4.032594 -2.26408,2.906043 -2.01074,8.397944 0.0199,0.430636 0.11547,1.325377 0.5224,1.183082 1.01606,-0.355301 2.62134,-6.30422 2.94711,-7.292441"
     id="path52" />
  <path
     style="fill:none;fill-opacity:0.2;stroke:#000000;stroke-width:0.264583"
     d="m 111.80447,38.265899 c 4.28388,0.156583 2.12836,0.23485 6.46589,-0.252132"
     id="path53" />
  <path
     style="fill:none;fill-opacity:0.2;stroke:#000000;stroke-width:0.264583"
     d="m 114.06162,39.361705 c 1.02617,2.96363 1.21267,12.541729 -1.01523,10.647736 -0.19812,-0.168426 -0.26088,-0.449996 -0.3844,-0.678818 -0.76112,-1.409959 -0.92778,-2.301536 -2.38529,-3.112862"
     id="path54" />
  <path
     style="fill:none;fill-opacity:0.2;stroke:#000000;stroke-width:0.264583"
     d="m 2.5388935,122.0734 c -3.42437596,0.89885 10.8849245,-3.54085 6.8700098,-2.14312"
     id="path55" />
  <path
     style="fill:none;fill-opacity:0.2;stroke:#000000;stroke-width:0.264583"
     d="m 6.599789,119.74603 c -2.1362833,3.71855 0.1828268,-0.13921 -6.32789946,7.45729 -0.682292,0.79608 1.28889696,-1.72042 2.18815196,-2.25949 1.2718666,-0.76244 2.7598775,-1.09067 4.1693171,-1.55158 3.196364,-1.04526 3.2395226,-1.39374 2.2670047,-0.0582"
     id="path56" />
  <path
     style="fill:none;fill-opacity:0.2;stroke:#000000;stroke-width:0.264583"
     d="m 7.0039073,124.3135 c -2.1285711,4.92393 -0.5860431,3.76682 -2.7105491,5.11052"
     id="path57" />
  <path
     style="fill:none;fill-opacity:0.2;stroke:#000000;stroke-width:0.264583"
     d="m 2.2037715,129.37554 c 2.5782584,-0.41921 5.2052118,-0.41391 7.8063815,-0.62064 1.593804,-0.12667 1.560493,0.34199 1.399628,-0.49456"
     id="path58" />
  <path
     style="fill:none;fill-opacity:0.2;stroke:#000000;stroke-width:0.264583"
     d="m 15.076415,115.95435 c -0.02228,1.44652 0.107693,1.04543 -0.354836,2.32737 -0.571062,1.58275 -0.863292,2.01308 -1.931882,3.74319 -0.16338,0.26453 -0.36842,0.50174 -0.571679,0.73701 -0.02308,0.0267 -0.101122,0.074 -0.09857,0.0388 0.09412,-1.2964 3.567655,-2.86336 4.553723,-3.42317 0.691101,-0.39236 1.377604,-0.7928 2.069873,-1.18309 0.18502,-0.10431 0.369638,-0.21018 0.561823,-0.30062 0.03615,-0.017 0.141893,-0.0516 0.118279,-0.0194 -0.337862,0.46108 -0.814711,0.80219 -1.232068,1.19278"
     id="path65" />
  <path
     style="fill:none;fill-opacity:0.2;stroke:#000000;stroke-width:0.264583"
     d="m 14.031621,122.87829 c 4.186392,-2.38786 4.649912,-3.50903 3.380794,-1.34794"
     id="path66" />
  <path
     style="fill:none;fill-opacity:0.2;stroke:#000000;stroke-width:0.264583"
     d="m 12.986828,125.63234 c 2.087544,-0.75033 3.705135,-2.20322 5.30282,-3.67531"
     id="path67" />
  <path
     style="fill:none;fill-opacity:0.2;stroke:#000000;stroke-width:0.264583"
     d="m 16.170491,122.35462 c -0.580934,2.79565 -3.84021,12.42245 2.385283,2.84134 0.608431,-0.93638 0.519111,-2.17221 0.778667,-3.25832"
     id="path68" />
  <path
     style="fill:none;fill-opacity:0.2;stroke:#000000;stroke-width:0.264583"
     d="m 20.044112,118.78599 c 0.847917,-0.36645 9.762894,-1.90675 7.017858,-1.23157"
     id="path69" />
  <path
     style="fill:none;fill-opacity:0.2;stroke:#000000;stroke-width:0.264583"
     d="m 24.834392,117.67079 c 0.09528,3.98562 0.336413,7.97043 0.285839,11.95688 -0.0056,0.4435 -0.02742,1.12744 -0.453401,1.25096 -0.146576,0.0425 -0.554571,-1.19506 -0.877232,-2.05585 -0.21449,-0.5722 -0.814412,-2.44768 -1.409486,-2.91891 -0.336442,-0.26642 -0.827949,-0.22627 -1.241924,-0.33941"
     id="path70" />
  <path
     style="fill:none;fill-opacity:0.2;stroke:#000000;stroke-width:0.264583"
     d="m 161.09754,122.18977 c -7.20203,-0.91251 11.89961,-1.56042 8.32878,-2.21101"
     id="path71" />
  <path
     style="fill:none;fill-opacity:0.2;stroke:#000000;stroke-width:0.264583"
     d="m 166.76505,118.26233 c 0.12485,0.17778 0.50035,0.35624 0.37455,0.53335 -1.48715,2.09379 -3.27814,3.95452 -4.94799,5.90571 -2.89989,3.38851 -3.03854,3.62116 -2.20786,2.39526"
     id="path72" />
  <path
     style="fill:none;fill-opacity:0.2;stroke:#000000;stroke-width:0.264583"
     d="m 161.57065,125.72932 c 2.50976,-0.33997 1.87303,-0.70648 2.71055,3.73349 0.19081,1.01154 -1.26885,3.75107 -1.28135,0.13577 -0.01,-2.7524 1.59545,-5.61351 4.35659,-6.42937 1.0034,-0.29649 1.74343,-0.1872 2.45428,0.59154 0.35216,0.38578 0.48728,1.411 0.42383,1.87159 -0.4018,2.91676 -3.16146,4.73781 -6.02234,4.77112 -0.24448,0.003 0.22184,-0.46948 0.43368,-0.59154 0.43272,-0.24932 0.87451,-0.48517 1.33064,-0.68852 1.25578,-0.55983 2.67074,-0.90065 4.00175,-1.21217 0.3705,-0.0867 0.84767,-0.14852 0.84767,-0.13576 0,0.0619 -0.38,0.0849 -0.40412,0.0873"
     id="path73" />
  <path
     style="fill:none;fill-opacity:0.2;stroke:#000000;stroke-width:0.264583"
     d="m 173.53649,117.03076 c 0.30845,1.1364 -0.39886,2.34464 -0.87723,3.3359 -0.17637,0.36548 -0.84704,1.57251 -1.02508,1.89099 -0.0875,0.15653 -0.44216,0.54366 -0.28584,0.45578 0.38565,-0.21681 1.55306,-1.45747 1.67561,-1.55158 0.92,-0.70651 1.86022,-1.38853 2.82883,-2.02676 0.46615,-0.30715 0.97052,-0.55285 1.46863,-0.80488 0.63021,-0.31888 0.88599,-0.30842 0.85751,-0.17455 -0.182,0.85553 -1.14239,1.62965 -1.70518,2.24979"
     id="path79" />
  <path
     style="fill:none;fill-opacity:0.2;stroke:#000000;stroke-width:0.264583"
     d="m 172.72826,124.10985 c 4.69206,-3.2474 5.3468,-4.8186 4.33687,-2.69587"
     id="path80" />
  <path
     style="fill:none;fill-opacity:0.2;stroke:#000000;stroke-width:0.264583"
     d="m 173.14223,125.36082 c 5.33095,-3.11724 5.49136,-1.05531 5.17469,-3.42318"
     id="path81" />
  <path
     style="fill:none;fill-opacity:0.2;stroke:#000000;stroke-width:0.264583"
     d="m 175.43881,122.78131 c -0.66303,3.23441 -0.4526,1.49126 -0.5224,5.06204 -0.0105,0.53842 -0.11725,2.39645 0.069,3.06438 0.0242,0.0866 0.15031,-0.10747 0.19714,-0.18426 0.20169,-0.33072 0.37716,-0.67742 0.54211,-1.02792 0.39054,-0.82987 0.77441,-1.66354 1.12364,-2.51162 0.72561,-1.76209 0.73358,-1.85017 1.12365,-3.15166"
     id="path82" />
  <path
     style="fill:none;fill-opacity:0.2;stroke:#000000;stroke-width:0.264583"
     d="m 178.65204,119.33874 c 2.6043,-1.42782 1.97495,-1.24104 6.7123,-1.891 0.21421,-0.0294 -0.0866,0.47109 -0.26612,0.59155"
     id="path83" />
  <path
     style="fill:none;fill-opacity:0.2;stroke:#000000;stroke-width:0.264583"
     d="m 182.87064,118.44658 c 1.07499,3.66103 0.57949,1.63564 -0.0493,9.92043 -0.0328,0.4325 -0.1892,0.88426 -0.47312,1.21217 -0.10123,0.11692 -0.33303,-0.0474 -0.43369,-0.16485 -1.01237,-1.18086 -0.67189,-2.41166 -2.20786,-3.49106"
     id="path84" />
</svg>
