<?xml version="1.0" encoding="UTF-8" standalone="no"?>
<!-- Created with Inkscape (http://www.inkscape.org/) -->

<svg
   width="580.3363"
   height="377.10254"
   viewBox="0 0 153.54731 99.775048"
   version="1.1"
   id="svg1375"
   inkscape:version="1.2 (dc2aedaf03, 2022-05-15)"
   sodipodi:docname="抗拔颅钉示意图.svg"
   xmlns:inkscape="http://www.inkscape.org/namespaces/inkscape"
   xmlns:sodipodi="http://sodipodi.sourceforge.net/DTD/sodipodi-0.dtd"
   xmlns:xlink="http://www.w3.org/1999/xlink"
   xmlns="http://www.w3.org/2000/svg"
   xmlns:svg="http://www.w3.org/2000/svg">
  <sodipodi:namedview
     id="namedview1377"
     pagecolor="#ffffff"
     bordercolor="#666666"
     borderopacity="1.0"
     inkscape:showpageshadow="2"
     inkscape:pageopacity="0.0"
     inkscape:pagecheckerboard="0"
     inkscape:deskcolor="#d1d1d1"
     inkscape:document-units="px"
     showgrid="false"
     inkscape:zoom="1.6819304"
     inkscape:cx="271.41432"
     inkscape:cy="217.01255"
     inkscape:window-width="1920"
     inkscape:window-height="1017"
     inkscape:window-x="-8"
     inkscape:window-y="-8"
     inkscape:window-maximized="1"
     inkscape:current-layer="layer1" />
  <defs
     id="defs1372">
    <inkscape:path-effect
       effect="bspline"
       id="path-effect1572"
       is_visible="true"
       lpeversion="1"
       weight="33.333333"
       steps="2"
       helper_size="0"
       apply_no_weight="true"
       apply_with_weight="true"
       only_selected="false" />
    <inkscape:path-effect
       effect="bspline"
       id="path-effect1568"
       is_visible="true"
       lpeversion="1"
       weight="33.333333"
       steps="2"
       helper_size="0"
       apply_no_weight="true"
       apply_with_weight="true"
       only_selected="false" />
    <inkscape:path-effect
       effect="bspline"
       id="path-effect1564"
       is_visible="true"
       lpeversion="1"
       weight="33.333333"
       steps="2"
       helper_size="0"
       apply_no_weight="true"
       apply_with_weight="true"
       only_selected="false" />
    <inkscape:path-effect
       effect="bspline"
       id="path-effect1560"
       is_visible="true"
       lpeversion="1"
       weight="33.333333"
       steps="2"
       helper_size="0"
       apply_no_weight="true"
       apply_with_weight="true"
       only_selected="false" />
    <inkscape:path-effect
       effect="bspline"
       id="path-effect1556"
       is_visible="true"
       lpeversion="1"
       weight="33.333333"
       steps="2"
       helper_size="0"
       apply_no_weight="true"
       apply_with_weight="true"
       only_selected="false" />
    <inkscape:path-effect
       effect="bspline"
       id="path-effect1552"
       is_visible="true"
       lpeversion="1"
       weight="33.333333"
       steps="2"
       helper_size="0"
       apply_no_weight="true"
       apply_with_weight="true"
       only_selected="false" />
    <inkscape:path-effect
       effect="bspline"
       id="path-effect1548"
       is_visible="true"
       lpeversion="1"
       weight="33.333333"
       steps="2"
       helper_size="0"
       apply_no_weight="true"
       apply_with_weight="true"
       only_selected="false" />
    <inkscape:path-effect
       effect="bspline"
       id="path-effect1544"
       is_visible="true"
       lpeversion="1"
       weight="33.333333"
       steps="2"
       helper_size="0"
       apply_no_weight="true"
       apply_with_weight="true"
       only_selected="false" />
    <inkscape:path-effect
       effect="bspline"
       id="path-effect1540"
       is_visible="true"
       lpeversion="1"
       weight="33.333333"
       steps="2"
       helper_size="0"
       apply_no_weight="true"
       apply_with_weight="true"
       only_selected="false" />
    <inkscape:path-effect
       effect="bspline"
       id="path-effect1536"
       is_visible="true"
       lpeversion="1"
       weight="33.333333"
       steps="2"
       helper_size="0"
       apply_no_weight="true"
       apply_with_weight="true"
       only_selected="false" />
    <inkscape:path-effect
       effect="bspline"
       id="path-effect1532"
       is_visible="true"
       lpeversion="1"
       weight="33.333333"
       steps="2"
       helper_size="0"
       apply_no_weight="true"
       apply_with_weight="true"
       only_selected="false" />
    <inkscape:path-effect
       effect="bspline"
       id="path-effect1528"
       is_visible="true"
       lpeversion="1"
       weight="33.333333"
       steps="2"
       helper_size="0"
       apply_no_weight="true"
       apply_with_weight="true"
       only_selected="false" />
    <inkscape:path-effect
       effect="bspline"
       id="path-effect1524"
       is_visible="true"
       lpeversion="1"
       weight="33.333333"
       steps="2"
       helper_size="0"
       apply_no_weight="true"
       apply_with_weight="true"
       only_selected="false" />
    <inkscape:path-effect
       effect="bspline"
       id="path-effect1520"
       is_visible="true"
       lpeversion="1"
       weight="33.333333"
       steps="2"
       helper_size="0"
       apply_no_weight="true"
       apply_with_weight="true"
       only_selected="false" />
    <inkscape:path-effect
       effect="bspline"
       id="path-effect1385"
       is_visible="true"
       lpeversion="1"
       weight="33.333333"
       steps="2"
       helper_size="0"
       apply_no_weight="true"
       apply_with_weight="true"
       only_selected="false" />
  </defs>
  <g
     inkscape:label="图层 1"
     inkscape:groupmode="layer"
     id="layer1"
     transform="translate(-15.830506,-64.596984)">
    <path
       style="fill:none;stroke:#000000;stroke-width:0.261671px;stroke-linecap:butt;stroke-linejoin:miter;stroke-opacity:1"
       d="m 15.875,119.19334 c 21.12143,0 42.242146,0 52.802822,2.16142 10.560676,2.16142 10.560676,6.48375 1.3e-5,8.64491 -10.560662,2.16116 -31.681405,2.16116 -52.802835,2.16116"
       id="path1383"
       inkscape:path-effect="#path-effect1385"
       inkscape:original-d="m 15.875,119.19334 c 21.12143,2.5e-4 42.242146,2.5e-4 63.363498,0 2.63e-4,4.32284 2.63e-4,8.64517 0,12.96749 -21.121325,2.7e-4 -42.242068,2.7e-4 -63.363498,0"
       sodipodi:nodetypes="cccc" />
    <path
       style="fill:none;stroke:#000000;stroke-width:0.264583px;stroke-linecap:butt;stroke-linejoin:miter;stroke-opacity:1"
       d="m 52.916667,132.29167 v 13.22916 H 132.29167 V 132.29167 H 105.83333 V 79.375 H 79.375 v 52.91667 z"
       id="path1441"
       sodipodi:nodetypes="ccccccccc" />
    <g
       id="g1490"
       transform="translate(0,0.1322962)">
      <path
         style="fill:none;stroke:#000000;stroke-width:0.264583px;stroke-linecap:butt;stroke-linejoin:miter;stroke-opacity:1"
         d="m 74.083332,129.64583 h 5.291667 L 105.83333,127 111.125,124.35416 h -5.29167 L 79.374999,127 Z"
         id="path1484"
         sodipodi:nodetypes="ccccccc" />
      <path
         style="fill:none;stroke:#000000;stroke-width:0.264583px;stroke-linecap:butt;stroke-linejoin:miter;stroke-opacity:1"
         d="M 74.083332,129.64583 111.125,124.35416"
         id="path1486"
         sodipodi:nodetypes="cc" />
    </g>
    <use
       x="0"
       y="0"
       xlink:href="#g1490"
       id="use1492"
       transform="translate(0,-7.9374999)" />
    <use
       x="0"
       y="0"
       xlink:href="#path1383"
       id="use1502"
       transform="matrix(-1,0,0,1,185.20833,-6.3085901e-6)" />
    <path
       style="fill:none;stroke:#000000;stroke-width:0.264583px;stroke-linecap:butt;stroke-linejoin:miter;stroke-opacity:1"
       d="m 15.875,132.29166 37.041666,13.22917"
       id="path1514"
       sodipodi:nodetypes="cc" />
    <path
       style="fill:none;stroke:#000000;stroke-width:0.264583px;stroke-linecap:butt;stroke-linejoin:miter;stroke-opacity:1"
       d="m 132.29166,145.52083 37.04167,-13.22917"
       id="path1516"
       sodipodi:nodetypes="cc" />
    <g
       id="g1589"
       transform="translate(-2.6458334)">
      <path
         style="fill:none;stroke:#000000;stroke-width:0.264583px;stroke-linecap:butt;stroke-linejoin:miter;stroke-opacity:1"
         d="m 25.299341,120.76112 c -0.03138,0.60296 -0.06264,1.20341 -0.0782,1.52168 -0.01556,0.31827 -0.01556,0.35427 -0.0091,0.40465 0.0064,0.0504 0.01877,0.11483 0.0305,0.17619"
         id="path1518"
         inkscape:path-effect="#path-effect1520"
         inkscape:original-d="m 25.299341,120.76112 c -0.02861,0.6031 -0.05986,1.20355 -0.09376,1.80135 0.0026,0.0386 0.0026,0.0746 0,0.10797 0.01496,0.067 0.02727,0.13145 0.03694,0.1932" />
      <path
         style="fill:none;stroke:#000000;stroke-width:0.264583px;stroke-linecap:butt;stroke-linejoin:miter;stroke-opacity:1"
         d="m 25.665866,121.92035 c 0.118699,0.037 0.234247,0.073 0.386733,0.0766 0.152485,0.004 0.342855,-0.0238 0.527615,-0.0461 0.184761,-0.0222 0.363768,-0.0392 0.511047,-0.0534 0.147279,-0.0142 0.262796,-0.0256 0.312142,-0.0286 0.04935,-0.003 0.03316,0.003 0.01554,0.009"
         id="path1522"
         inkscape:path-effect="#path-effect1524"
         inkscape:original-d="m 25.665866,121.92035 c 0.118192,0.0386 0.233737,0.0746 0.346637,0.10797 0.193012,-0.0248 0.383377,-0.0523 0.571097,-0.0824 0.181647,-0.0144 0.360648,-0.0315 0.537004,-0.0511 0.118192,-0.009 0.233735,-0.0201 0.346636,-0.0341 -0.01347,0.008 -0.02955,0.014 -0.0483,0.017" />
      <path
         style="fill:none;stroke:#000000;stroke-width:0.264583px;stroke-linecap:butt;stroke-linejoin:miter;stroke-opacity:1"
         d="m 24.341828,122.86364 c 0.259438,0.0134 0.516101,0.0267 0.752578,0.0966 0.236476,0.07 0.452413,0.19499 0.661722,0.31622 0.209309,0.12122 0.411983,0.23866 0.529635,0.37426 0.117652,0.1356 0.152695,0.28807 0.07971,0.3947 -0.07299,0.10662 -0.254845,0.17103 -0.471712,0.21007 -0.216867,0.039 -0.469743,0.0523 -0.645092,0.0659 -0.17535,0.0136 -0.272906,0.0278 -0.356065,0.0457 -0.08316,0.0179 -0.151364,0.0397 -0.20638,0.0648 -0.05502,0.0252 -0.09574,0.0536 -0.09016,0.0826 0.0056,0.029 0.05484,0.0565 0.123449,0.0781 0.06861,0.0217 0.156683,0.0387 0.338387,0.0536 0.181704,0.0149 0.457311,0.0282 0.622529,0.0265 0.165218,-0.002 0.221127,-0.0178 0.33574,-0.12171 0.114613,-0.10387 0.28982,-0.29612 0.363934,-0.42529 0.07411,-0.12917 0.04571,-0.19829 0.01598,-0.27063"
         id="path1526"
         inkscape:path-effect="#path-effect1528"
         inkscape:original-d="m 24.341828,122.86364 c 0.259309,0.0159 0.515971,0.0292 0.769988,0.0398 0.218583,0.12766 0.434521,0.25267 0.647812,0.37504 0.205325,0.12009 0.408003,0.23752 0.608035,0.35232 0.03769,0.15512 0.07273,0.3076 0.105127,0.45743 -0.179196,0.067 -0.361038,0.13145 -0.545526,0.19321 -0.250228,0.0159 -0.503102,0.0292 -0.758622,0.0398 -0.0949,0.0168 -0.192456,0.031 -0.292653,0.0426 -0.06554,0.0244 -0.133735,0.0462 -0.204572,0.0653 -0.03808,0.0311 -0.0788,0.0595 -0.122175,0.0852 0.0519,0.0301 0.101144,0.0576 0.147747,0.0824 0.09073,0.0197 0.178805,0.0367 0.264239,0.0511 0.27825,0.0159 0.553855,0.0292 0.826814,0.0398 0.05852,-0.0134 0.114402,-0.0296 0.167635,-0.0483 0.177859,-0.18962 0.353071,-0.38187 0.525638,-0.57678 -0.02577,-0.0665 -0.05418,-0.13562 -0.08524,-0.20741" />
      <path
         style="fill:none;stroke:#000000;stroke-width:0.264583px;stroke-linecap:butt;stroke-linejoin:miter;stroke-opacity:1"
         d="m 24.45548,123.67908 c 0.0088,0.0919 0.01732,0.18092 0.03604,0.28285 0.01872,0.10193 0.04713,0.21652 0.0643,0.41521 0.01717,0.19868 0.0238,0.48186 0.02087,0.76116 -0.0029,0.2793 -0.01524,0.5549 -0.09541,1.08456 -0.08017,0.52967 -0.227915,1.31385 -0.382841,1.88735 -0.154926,0.57351 -0.31688,0.93719 -0.425591,1.13475 -0.108711,0.19756 -0.165521,0.23068 -0.223176,0.2643"
         id="path1530"
         inkscape:path-effect="#path-effect1532"
         inkscape:original-d="m 24.45548,123.67908 c 0.01117,0.0917 0.01969,0.18069 0.02557,0.26707 0.03106,0.11725 0.05947,0.23184 0.08524,0.34379 0.0093,0.28582 0.0159,0.569 0.01989,0.84953 -0.0097,0.27825 -0.02198,0.55385 -0.03694,0.8268 -0.145101,0.78683 -0.292848,1.57101 -0.44324,2.35255 -0.159307,0.36632 -0.321261,0.73 -0.48586,1.09104 -0.05418,0.0358 -0.111005,0.0689 -0.170477,0.0994" />
      <path
         style="fill:none;stroke:#000000;stroke-width:0.264583px;stroke-linecap:butt;stroke-linejoin:miter;stroke-opacity:1"
         d="m 27.916163,121.41177 c 0.03231,0.0969 0.06356,0.19069 0.252145,0.2112 0.188582,0.0205 0.533316,-0.0287 0.860274,-0.10081 0.326958,-0.0721 0.636647,-0.16678 0.886466,-0.25583 0.249819,-0.089 0.440183,-0.17238 0.580791,-0.23489 0.140608,-0.0625 0.231539,-0.10417 0.298314,-0.14284 0.06678,-0.0387 0.110349,-0.0746 0.153658,-0.11043"
         id="path1534"
         inkscape:path-effect="#path-effect1536"
         inkscape:original-d="m 27.916163,121.41177 c 0.0339,0.0964 0.06515,0.19016 0.09376,0.28128 0.34739,-0.0466 0.692131,-0.0958 1.034227,-0.14774 0.312346,-0.0921 0.622046,-0.18677 0.9291,-0.28413 0.193014,-0.0807 0.383379,-0.16404 0.571098,-0.25003 0.09357,-0.039 0.184489,-0.0807 0.272764,-0.12501 0.04621,-0.0333 0.08978,-0.0693 0.130699,-0.10797" />
      <path
         style="fill:none;stroke:#000000;stroke-width:0.264583px;stroke-linecap:butt;stroke-linejoin:miter;stroke-opacity:1"
         d="m 29.652187,121.45155 c -0.209755,0.33788 -0.419063,0.67504 -0.606534,0.95714 -0.187472,0.2821 -0.353215,0.5094 -0.580014,0.80673 -0.226799,0.29733 -0.514712,0.66479 -0.713047,0.90807 -0.198335,0.24329 -0.307249,0.36262 -0.374428,0.435 -0.06718,0.0724 -0.09278,0.098 -0.103811,0.11892 -0.01103,0.0209 -0.0082,0.0342 0.0078,0.0731 0.01599,0.0389 0.04442,0.10331 0.116373,0.27141 0.07195,0.16811 0.1875,0.43992 0.254307,0.63444 0.06681,0.19453 0.08575,0.31197 0.09997,0.39817 0.01422,0.0862 0.02369,0.14112 0.0295,0.14887 0.0058,0.008 0.0086,-0.031 0.02564,-0.19068 0.017,-0.15965 0.04826,-0.43999 0.143773,-0.75169 0.09552,-0.3117 0.255575,-0.6536 0.605312,-0.97265 0.349736,-0.31905 0.887681,-0.61358 1.311978,-0.80014 0.424297,-0.18656 0.733988,-0.26517 1.019817,-0.0176 0.285829,0.24759 0.548173,0.81773 0.626724,1.21736 0.07855,0.39963 -0.02468,0.63072 -0.139041,0.76199 -0.114357,0.13126 -0.242206,0.16439 -0.338247,0.15724 -0.09604,-0.007 -0.161396,-0.0573 -0.300823,-0.19634 -0.139428,-0.13899 -0.352525,-0.36724 -0.480926,-0.50733 -0.1284,-0.14009 -0.171988,-0.19221 -0.207621,-0.22727 -0.03563,-0.0351 -0.06403,-0.0521 -0.211244,0.25071 -0.147215,0.30278 -0.409557,0.92596 -0.650593,1.49752 -0.241037,0.57156 -0.460761,1.0915 -0.687532,1.533 -0.226772,0.4415 -0.460704,0.80518 -0.592747,0.91625 -0.132044,0.11106 -0.163297,-0.0329 -0.195218,-0.17993"
         id="path1538"
         inkscape:path-effect="#path-effect1540"
         inkscape:original-d="m 29.652187,121.45155 c -0.206663,0.3398 -0.41597,0.67696 -0.627925,1.01148 -0.163094,0.22994 -0.328837,0.45724 -0.497223,0.68189 -0.285271,0.37012 -0.573188,0.73758 -0.863751,1.1024 -0.10627,0.12198 -0.215186,0.24131 -0.326747,0.358 -0.02291,0.0282 -0.0485,0.0538 -0.07671,0.0767 0.0055,0.0159 0.0083,0.0292 0.0085,0.0398 0.03106,0.067 0.05947,0.13145 0.08524,0.19321 0.118192,0.27445 0.233738,0.54626 0.346639,0.81543 0.02159,0.12008 0.04053,0.23752 0.05682,0.35231 0.01212,0.0576 0.02159,0.11251 0.02841,0.1648 0.0055,-0.0362 0.0083,-0.075 0.0085,-0.1165 0.0339,-0.27768 0.06515,-0.55802 0.09376,-0.841 0.162706,-0.33925 0.322763,-0.68115 0.480177,-1.02569 0.540597,-0.2919 1.078545,-0.58643 1.61385,-0.88362 0.312346,-0.076 0.622046,-0.15457 0.9291,-0.23583 0.264991,0.57279 0.527336,1.14293 0.787035,1.71043 -0.100587,0.23373 -0.203822,0.46482 -0.3097,0.69326 -0.125212,0.0358 -0.253069,0.0689 -0.383575,0.0994 -0.0627,-0.0475 -0.128053,-0.0977 -0.196048,-0.15058 -0.21045,-0.2256 -0.423545,-0.45385 -0.639289,-0.68474 -0.04092,-0.0494 -0.08449,-0.10153 -0.130699,-0.15627 -0.02577,-0.0144 -0.05418,-0.0314 -0.08524,-0.0511 -0.259699,0.62583 -0.522044,1.249 -0.787035,1.86954 -0.21708,0.52259 -0.436806,1.04253 -0.659177,1.55983 -0.231286,0.36633 -0.46522,0.73001 -0.701797,1.09104 -0.02861,-0.14131 -0.05986,-0.28527 -0.09376,-0.43187" />
      <path
         style="fill:none;stroke:#000000;stroke-width:0.264583px;stroke-linecap:butt;stroke-linejoin:miter;stroke-opacity:1"
         d="m 28.02129,127.44088 c 0.134024,-0.2218 0.268508,-0.44436 0.659556,-0.47323 0.391048,-0.0289 1.035072,0.13591 1.454114,0.28668 0.419041,0.15077 0.613193,0.2862 0.843281,0.4601 0.230088,0.17389 0.49622,0.38603 0.699366,0.54894 0.203145,0.16292 0.343314,0.27657 0.484042,0.37915 0.140729,0.10258 0.281849,0.19445 0.382873,0.22776 0.101024,0.0333 0.163524,0.0106 0.195416,-0.0461 0.03189,-0.0567 0.03472,-0.15046 0.03764,-0.24679"
         id="path1542"
         inkscape:path-effect="#path-effect1544"
         inkscape:original-d="m 28.02129,127.44088 c 0.137134,-0.21992 0.271621,-0.44248 0.403463,-0.6677 0.646668,0.16744 1.290693,0.33223 1.932072,0.49438 0.1968,0.13808 0.390954,0.27351 0.582462,0.4063 0.26878,0.21479 0.534914,0.42693 0.798402,0.63643 0.142816,0.1163 0.282985,0.22995 0.42051,0.34095 0.143764,0.0945 0.284879,0.18638 0.423352,0.27561 0.06515,-0.0201 0.127661,-0.0428 0.187523,-0.0682 0.0055,-0.0911 0.0083,-0.18487 0.0085,-0.28128" />
      <path
         style="fill:none;stroke:#000000;stroke-width:0.264583px;stroke-linecap:butt;stroke-linejoin:miter;stroke-opacity:1"
         d="m 33.914111,121.12765 c 0.06977,0.33643 0.138911,0.6698 0.176025,1.01293 0.03711,0.34313 0.04279,0.69639 0.04262,0.89362 -1.73e-4,0.19723 -0.0059,0.23894 -0.01033,0.23494 -0.0045,-0.004 -0.0083,-0.0542 -0.01027,-0.12528 -0.002,-0.0711 -0.002,-0.16298 -0.01133,-0.30303 -0.0093,-0.14004 -0.02827,-0.32851 -0.04391,-0.48953 -0.01564,-0.16101 -0.02795,-0.29455 -0.0403,-0.45321 -0.01235,-0.15867 -0.02466,-0.3424 -0.04139,-0.47437 -0.01672,-0.13198 -0.0385,-0.21244 0.235036,-0.459 0.273534,-0.24656 0.842737,-0.6557 1.226495,-0.88638 0.383758,-0.23068 0.580763,-0.28277 0.865793,-0.30619 0.28503,-0.0234 0.657243,-0.0187 0.91788,0.19267 0.260638,0.21135 0.411225,0.62617 0.43879,0.96486 0.02757,0.33869 -0.0662,0.60293 -0.217903,0.83417 -0.151705,0.23125 -0.361958,0.43108 -0.565815,0.53804 -0.203856,0.10697 -0.4037,0.12117 -0.605979,0.13554"
         id="path1546"
         inkscape:path-effect="#path-effect1548"
         inkscape:original-d="m 33.914111,121.12765 c 0.07178,0.33601 0.140923,0.66938 0.207415,1.00011 0.0083,0.35591 0.01402,0.70917 0.01704,1.05978 -0.003,0.0443 -0.0087,0.086 -0.01704,0.12502 -0.0011,-0.0476 -0.0049,-0.0978 -0.01138,-0.15059 0.0026,-0.0892 0.0026,-0.18109 0,-0.2756 -0.0163,-0.18582 -0.03524,-0.37429 -0.05682,-0.56541 -0.0097,-0.13089 -0.02199,-0.26443 -0.03694,-0.40061 -0.0097,-0.18109 -0.02199,-0.36482 -0.03694,-0.5512 -0.01913,-0.0779 -0.04092,-0.15836 -0.06535,-0.2415 0.571849,-0.4065 1.141052,-0.81564 1.707613,-1.22742 0.199641,-0.0494 0.396636,-0.10153 0.590986,-0.15627 0.374854,0.007 0.747062,0.0121 1.116624,0.0142 0.153233,0.41747 0.303821,0.83229 0.451763,1.24446 -0.09112,0.26688 -0.184878,0.53112 -0.281287,0.79271 -0.207608,0.20248 -0.417864,0.40231 -0.630764,0.5995 -0.197191,0.0168 -0.397028,0.0311 -0.599511,0.0426" />
      <path
         style="fill:none;stroke:#000000;stroke-width:0.264583px;stroke-linecap:butt;stroke-linejoin:miter;stroke-opacity:1"
         d="m 34.30905,122.08514 c 0.04871,-0.13677 0.09796,-0.27503 0.27677,-0.42616 0.178812,-0.15113 0.485675,-0.31308 0.732539,-0.36104 0.246864,-0.048 0.431564,0.0164 0.544893,0.0928 0.113328,0.0763 0.156911,0.16253 0.14499,0.34421 -0.01192,0.18168 -0.07727,0.46013 -0.171711,0.62986 -0.09444,0.16972 -0.219453,0.23317 -0.317245,0.2679 -0.09779,0.0347 -0.1698,0.0404 -0.362657,0.0682 -0.192857,0.0279 -0.506352,0.0781 -0.822007,0.12859"
         id="path1550"
         inkscape:path-effect="#path-effect1552"
         inkscape:original-d="m 34.30905,122.08514 c 0.0519,-0.13563 0.101144,-0.2739 0.147746,-0.41482 0.309506,-0.1593 0.616365,-0.32126 0.920578,-0.48585 0.187327,0.067 0.372012,0.13145 0.554048,0.1932 0.04621,0.0888 0.08978,0.17502 0.130701,0.25855 -0.06271,0.28109 -0.128056,0.55954 -0.196051,0.83533 -0.12237,0.0661 -0.247385,0.12955 -0.375049,0.19036 -0.06933,0.008 -0.141312,0.014 -0.215937,0.017 -0.310841,0.0528 -0.62433,0.10304 -0.940464,0.15059" />
      <path
         style="fill:none;stroke:#000000;stroke-width:0.264583px;stroke-linecap:butt;stroke-linejoin:miter;stroke-opacity:1"
         d="m 32.533248,123.64498 c -0.0096,0.2952 -0.01902,0.58785 -0.01197,0.78038 0.0071,0.19252 0.02979,0.28441 0.05133,0.33491 0.02155,0.0505 0.03952,0.0609 0.05764,0.0179 0.01812,-0.043 0.03989,-0.1396 0.102351,-0.2944 0.06246,-0.1548 0.165692,-0.36694 0.302642,-0.53059 0.13695,-0.16365 0.306479,-0.2773 0.770022,-0.47863 0.463544,-0.20132 1.220274,-0.49018 2.10304,-0.65665 0.882766,-0.16646 1.890475,-0.21098 2.484157,-0.007 0.593681,0.20433 0.774574,0.65419 0.8519,0.95817 0.07733,0.30398 0.0527,0.46309 -0.02402,0.63082 -0.07672,0.16773 -0.205524,0.34578 -0.309669,0.46039 -0.104145,0.11461 -0.184661,0.16671 -0.418595,0.25664 -0.233935,0.0899 -0.622243,0.21778 -1.012155,0.34616"
         id="path1554"
         inkscape:path-effect="#path-effect1556"
         inkscape:original-d="m 32.533248,123.64498 c -0.0068,0.29529 -0.0163,0.58794 -0.02841,0.87794 0.02537,0.0945 0.04811,0.18638 0.06819,0.2756 0.02064,0.0131 0.03863,0.0235 0.05399,0.0313 0.02442,-0.094 0.04621,-0.19056 0.06535,-0.28981 0.105878,-0.2095 0.209111,-0.42164 0.3097,-0.63644 0.172175,-0.111 0.341704,-0.22465 0.508587,-0.34095 0.759376,-0.28621 1.516105,-0.57507 2.270186,-0.86657 1.010354,-0.0419 2.018064,-0.0864 3.023127,-0.13354 0.183541,0.45251 0.364434,0.90237 0.542684,1.34959 -0.02199,0.16175 -0.0466,0.32086 -0.07387,0.47733 -0.126161,0.18069 -0.254966,0.35874 -0.386416,0.53415 -0.07786,0.0547 -0.158361,0.10682 -0.241509,0.15627 -0.385662,0.1305 -0.773972,0.25835 -1.164926,0.38357" />
      <path
         style="fill:none;stroke:#000000;stroke-width:0.264583px;stroke-linecap:butt;stroke-linejoin:miter;stroke-opacity:1"
         d="m 34.607386,124.10526 c 0.03856,0.17545 0.07644,0.34782 0.118575,0.54386 0.04213,0.19604 0.08854,0.41576 0.119542,0.67843 0.031,0.26267 0.0471,0.56857 0.0095,1.05084 -0.03764,0.48227 -0.12856,1.14144 -0.263163,1.6637 -0.134604,0.52225 -0.312658,0.90866 -0.439484,1.10402 -0.126826,0.19536 -0.205462,0.20103 -0.286513,0.20687"
         id="path1558"
         inkscape:path-effect="#path-effect1560"
         inkscape:original-d="m 34.607386,124.10526 c 0.04053,0.17502 0.07841,0.34739 0.113649,0.51711 0.04905,0.22237 0.09546,0.44209 0.139224,0.65916 0.01873,0.30856 0.03485,0.61446 0.0483,0.91773 -0.08828,0.66181 -0.179197,1.32098 -0.272764,1.9775 -0.175408,0.38905 -0.35346,0.77546 -0.53416,1.15922 -0.07596,0.008 -0.154572,0.014 -0.235828,0.017" />
      <path
         style="fill:none;stroke:#000000;stroke-width:0.264583px;stroke-linecap:butt;stroke-linejoin:miter;stroke-opacity:1"
         d="m 34.11016,125.05708 c 0.222521,-0.23104 0.445084,-0.46213 0.630541,-0.60449 0.185458,-0.14236 0.332253,-0.19539 0.454449,-0.22455 0.122196,-0.0291 0.218819,-0.0348 0.428912,0.004 0.210093,0.0393 0.533049,0.12266 0.770492,0.24626 0.237442,0.12361 0.389923,0.28556 0.502964,0.64888 0.113041,0.36331 0.18881,0.92777 0.204143,1.48913 0.01533,0.56135 -0.02918,1.12012 -0.139213,1.5769 -0.110032,0.45677 -0.285249,0.81287 -0.477082,0.93534 -0.191833,0.12246 -0.403978,0.0107 -0.60189,-0.26271 -0.197913,-0.27341 -0.379757,-0.71002 -0.509909,-1.14955 -0.130151,-0.43953 -0.207814,-0.88182 -0.25483,-1.19207 -0.04702,-0.31024 -0.06312,-0.48829 -0.06949,-0.60355 -0.0064,-0.11526 -0.0026,-0.16739 0.0835,-0.20043 0.08609,-0.033 0.251811,-0.0444 0.36114,-0.053 0.109328,-0.009 0.162404,-0.0142 0.353276,-0.0293 0.190873,-0.0151 0.519511,-0.0397 0.724002,-0.0578 0.20449,-0.0181 0.284956,-0.0294 0.328928,-0.0393 0.04397,-0.01 0.05338,-0.0184 0.05464,-0.0226 0.0013,-0.004 -0.0082,-0.004 -0.04952,0.008 -0.04128,0.0125 -0.113277,0.0381 -0.288653,0.1148 -0.175375,0.0767 -0.453821,0.20456 -0.733447,0.33296"
         id="path1562"
         inkscape:path-effect="#path-effect1564"
         inkscape:original-d="m 34.11016,125.05708 c 0.225213,-0.22845 0.44778,-0.45953 0.667702,-0.69327 0.149445,-0.0504 0.296246,-0.10342 0.440399,-0.15911 0.09925,-0.003 0.195853,-0.009 0.289811,-0.017 0.325605,0.086 0.648563,0.16933 0.968878,0.25002 0.155128,0.1646 0.30761,0.32655 0.457446,0.48586 0.07841,0.5671 0.154181,1.13156 0.227304,1.69337 -0.04187,0.56143 -0.08638,1.1202 -0.133541,1.67634 -0.172566,0.35874 -0.347779,0.71485 -0.52564,1.0683 -0.209502,-0.10911 -0.42165,-0.22086 -0.636447,-0.33527 -0.179194,-0.43395 -0.361037,-0.87056 -0.545526,-1.30981 -0.07501,-0.43963 -0.152677,-0.88192 -0.232984,-1.32685 -0.01344,-0.17541 -0.02956,-0.35346 -0.0483,-0.53416 0.0064,-0.0494 0.01021,-0.10153 0.01135,-0.15627 0.168389,-0.009 0.33413,-0.0201 0.497227,-0.0341 0.05568,-0.003 0.10872,-0.009 0.159112,-0.017 0.331288,-0.022 0.659929,-0.0466 0.985925,-0.0739 0.08315,-0.009 0.163653,-0.0201 0.241509,-0.0341 0.01212,-0.006 0.02159,-0.0144 0.02841,-0.0256 -0.0068,0.003 -0.0163,0.003 -0.02841,0 -0.06933,0.0282 -0.141314,0.0538 -0.215937,0.0767 -0.275802,0.1305 -0.554247,0.25836 -0.835337,0.38357" />
      <path
         style="fill:none;stroke:#000000;stroke-width:0.264583px;stroke-linecap:butt;stroke-linejoin:miter;stroke-opacity:1"
         d="m 35.087562,127.19085 c 0.477868,-0.0362 0.953312,-0.0722 1.253987,-0.13617 0.300676,-0.064 0.428544,-0.15589 0.527944,-0.2914 0.0994,-0.13552 0.171377,-0.31641 0.243904,-0.49868"
         id="path1566"
         inkscape:path-effect="#path-effect1568"
         inkscape:original-d="m 35.087562,127.19085 c 0.478086,-0.0333 0.953529,-0.0693 1.426324,-0.10797 0.130503,-0.0892 0.25836,-0.18109 0.383574,-0.2756 0.07462,-0.17825 0.146603,-0.35914 0.215937,-0.54268" />
    </g>
    <path
       style="fill:none;stroke:#000000;stroke-width:0.264583px;stroke-linecap:butt;stroke-linejoin:miter;stroke-opacity:1"
       d="m 74.415871,124.69386 c -0.648889,0.79721 -1.297762,1.59439 -2.085544,1.474 -0.787781,-0.12039 -1.714719,-1.15856 -2.614014,-1.05669 -0.899295,0.10186 -1.770618,1.34396 -2.697465,1.19576 -0.926847,-0.14821 -1.909398,-1.68692 -2.9848,-1.26987 -1.075403,0.41705 -2.243343,2.79001 -3.559526,2.56762 -1.316182,-0.2224 -2.780739,-3.04028 -4.004437,-3.02179 -1.223697,0.0185 -2.206248,2.87345 -3.596578,2.77153 -1.390329,-0.10191 -3.188586,-3.1608 -4.931394,-3.07745 -1.742809,0.0833 -3.429828,3.30909 -4.810923,3.30916 -1.381094,8e-5 -2.456341,-3.22566 -3.401918,-3.21642 -0.945578,0.009 -1.761281,3.25351 -2.576954,6.49766"
       id="path1570"
       inkscape:path-effect="#path-effect1572"
       inkscape:original-d="m 74.415871,124.69386 c -0.648602,0.79744 -1.297471,1.59463 -1.946603,2.39154 -0.926708,-1.03794 -1.853644,-2.07611 -2.780861,-3.11456 -0.87109,1.2424 -1.74241,2.4845 -2.614011,3.72635 -0.982327,-1.53851 -1.964878,-3.07722 -2.947715,-4.61623 -1.16772,2.37331 -2.33566,4.74627 -3.503885,7.11901 -1.464353,-2.81774 -2.928911,-5.63562 -4.393764,-8.45382 -0.982326,2.85534 -1.964877,5.7103 -2.947712,8.56505 -1.798063,-3.05874 -3.596317,-6.11763 -5.394873,-9.17684 -1.686827,3.22613 -3.373847,6.45186 -5.061169,9.6774 -1.075023,-3.2256 -2.150269,-6.45134 -3.2258,-9.6774 -0.815472,3.24467 -1.631175,6.48894 -2.44716,9.73301" />
    <use
       x="0"
       y="0"
       xlink:href="#path1570"
       id="use1574"
       transform="matrix(-1,0,0,1,185.62618,0)" />
    <use
       x="0"
       y="0"
       xlink:href="#g1589"
       id="use1591"
       transform="translate(129.11691)" />
    <path
       style="fill:none;stroke:#000000;stroke-width:0.264583px;stroke-linecap:butt;stroke-linejoin:miter;stroke-opacity:1"
       d="m 72.821696,75.739264 c -0.04956,-0.243766 -0.128072,-0.483399 -0.148672,-0.731298 -0.01987,-0.239106 0.01193,-0.479858 0.02813,-0.719243 0.02209,-0.32685 0.07364,-0.776798 0.120544,-1.121055 0.06427,-0.471647 0.112972,-0.945827 0.196892,-1.414375 0.093,-0.519245 0.222213,-1.031346 0.33351,-1.546977 0.117126,-0.542647 0.150932,-0.727757 0.329491,-1.334016 0.08987,-0.305138 0.1822,-0.610039 0.293325,-0.908095 0.10708,-0.2872 0.204428,-0.597641 0.5304,-0.707189 0.188994,-0.06351 0.464261,0.383292 0.50629,0.530392 0.133956,0.468834 0.250527,0.942708 0.357619,1.418397 0.06578,0.292179 0.107268,0.589304 0.160729,0.883986 0.05637,0.310713 0.113782,0.621242 0.168762,0.932204 0.112445,0.635976 0.22824,1.271399 0.33351,1.908606 0.0461,0.279014 0.07794,0.560216 0.120544,0.839785 0.05517,0.362008 0.10871,0.724352 0.172784,1.084892 0.015,0.08444 0.01251,0.18075 0.06429,0.249124 0.0306,0.04042 0.123899,0.07638 0.148672,0.03214 0.07176,-0.128148 0.05792,-0.288242 0.07634,-0.433956 0.02379,-0.188151 0.129741,-1.506157 0.132599,-1.534922 0.113964,-1.146178 0.208238,-1.852742 0.454057,-3.053768 0.07276,-0.355513 0.1608,-0.70906 0.277254,-1.052748 0.131858,-0.389157 0.296423,-0.766929 0.466108,-1.141145 0.01955,-0.04313 0.33862,-0.675318 0.490218,-0.755407 0.192812,-0.101862 0.254211,0.08496 0.277254,0.200906 0.0715,0.359807 0.139041,0.720921 0.184838,1.084892 0.08285,0.658506 0.14056,1.319983 0.200909,1.980933 0.283728,3.107462 -0.340498,-2.87351 0.172781,2.266217 0.04878,0.488492 0.110381,0.975656 0.172783,1.462596 0.0083,0.06441 0.100841,0.704381 0.237072,0.658971 0.0099,-0.0033 -0.09435,-0.486442 -0.116528,-0.590664"
       id="path1645" />
    <path
       style="fill:none;stroke:#000000;stroke-width:0.264583px;stroke-linecap:butt;stroke-linejoin:miter;stroke-opacity:1"
       d="m 82.839022,74.087817 c -0.158046,-0.02813 -0.331925,-0.0099 -0.474144,-0.08438 -0.09491,-0.04969 -0.486669,-0.558371 -0.546473,-0.646917 -0.447905,-0.663167 -0.624388,-1.319593 -0.675055,-2.133618 -0.0172,-0.276209 -0.0019,-0.55902 0.06429,-0.827733 0.0894,-0.363035 0.232706,-0.713275 0.397801,-1.048729 0.416597,-0.846476 1.198321,-0.967716 1.619326,0.237069 0.407752,1.166858 0.531876,2.585675 0.33351,3.833283 -0.01807,0.113602 -0.113326,1.103157 -0.610764,1.000512 -0.113244,-0.02336 -0.06476,-0.222443 -0.108492,-0.329486 -0.365154,-0.893858 -0.221739,-0.298347 -0.357616,-1.072838"
       id="path1647" />
    <path
       style="fill:none;stroke:#000000;stroke-width:0.264583px;stroke-linecap:butt;stroke-linejoin:miter;stroke-opacity:1"
       d="m 85.772296,74.513738 c -0.119917,0.377764 -0.15176,-0.562255 -0.369673,-0.542446 -0.07067,0.0064 -0.02772,0.214786 -0.06831,0.03214"
       id="path1649" />
    <path
       style="fill:none;stroke:#000000;stroke-width:0.264583px;stroke-linecap:butt;stroke-linejoin:miter;stroke-opacity:1"
       d="m 87.074186,68.353963 c -0.0199,0.677079 -0.09577,1.35269 -0.120544,2.02915 -0.0049,0.133954 -0.06102,0.292156 0.01606,0.401812 0.298828,0.425051 0.508,0.21417 0.875964,0.188852 0.149712,-0.01029 0.325472,-0.07163 0.450038,0.01207 0.555625,0.37328 0.928198,0.688912 0.928198,1.309905 0,0.338484 -0.06284,0.964816 -0.253146,1.297852 -0.13862,0.242583 -0.318862,0.460261 -0.502271,0.671026 -0.06102,0.07013 -0.13394,0.146129 -0.225018,0.164743 -0.28675,0.05861 -0.629362,0.217905 -0.875964,0.06027 -0.518538,-0.331457 -0.726178,-0.970661 -0.932217,-1.510813"
       id="path1651" />
    <path
       style="fill:none;stroke:#000000;stroke-width:0.264583px;stroke-linecap:butt;stroke-linejoin:miter;stroke-opacity:1"
       d="m 86.210276,68.932572 c 1.450719,-0.598797 0.428549,-0.313796 2.073384,-0.401812 0.425752,-0.02278 0.84922,-0.0772 1.273762,-0.116525 0.0031,-2.65e-4 0.896668,-0.141258 1.032672,-0.01207 0.02614,0.02484 0.01876,0.06965 0.02813,0.104471"
       id="path1653" />
    <path
       style="fill:none;stroke:#000000;stroke-width:0.264583px;stroke-linecap:butt;stroke-linejoin:miter;stroke-opacity:1"
       d="m 93.246113,70.431331 c -0.03616,0.290642 -0.07003,0.581581 -0.108492,0.871932 -0.01511,0.114173 -0.03694,0.227391 -0.05224,0.34154 -0.0021,0.01593 -0.0021,0.06414 0,0.04822 0.0075,-0.05466 0.0093,-0.109989 0.01606,-0.164742 0.02,-0.160912 0.04309,-0.321419 0.06429,-0.482174 0.02702,-0.204896 -0.02342,-0.43605 0.08036,-0.614773 0.281895,-0.485479 0.95073,-1.006083 1.49878,-1.169273 0.388356,-0.115636 0.942255,-0.125026 1.326002,0.07233 0.182242,0.09372 0.33909,0.23176 0.494236,0.365649 0.04247,0.03665 0.07365,0.08777 0.09242,0.140634 0.04761,0.134081 0.131535,0.27418 0.104474,0.413867 -0.08785,0.453498 -0.810948,0.590164 -1.153218,0.68308 -0.174848,0.04747 -1.512073,0.379129 -1.555036,0.389758 -0.08294,0.0205 -0.166521,0.03846 -0.249126,0.06027 -0.155835,0.04115 -0.320339,0.05982 -0.466111,0.128579 -0.02495,0.01177 0.01437,0.06264 0.04018,0.07233 0.03781,0.01418 0.08141,-0.0021 0.120547,-0.01206 0.209163,-0.05314 0.420436,-0.101865 0.622818,-0.176798 0.404088,-0.149616 1.248511,-0.489426 1.510835,-0.908094 0.366985,-0.585711 0.296947,-0.904632 0.200908,-1.522868"
       id="path1655" />
    <path
       style="fill:none;stroke:#000000;stroke-width:0.264583px;stroke-linecap:butt;stroke-linejoin:miter;stroke-opacity:1"
       d="m 94.79713,66.288652 c 0.02679,0.31877 0.07318,0.636497 0.08037,0.95631 0.01159,0.515591 -0.0053,1.0316 -0.0241,1.546976 -0.05239,1.435002 -0.103865,2.084838 -0.212963,3.407365 -0.02929,0.355061 -0.05383,0.710629 -0.09242,1.0648 -0.03644,0.334441 -0.08033,0.668176 -0.132601,1.000511 -0.01879,0.119404 -0.03721,0.240692 -0.08036,0.353595 -0.05539,0.144925 -0.141976,0.275913 -0.212963,0.413866"
       id="path1657" />
    <path
       style="fill:none;stroke:#000000;stroke-width:0.264583px;stroke-linecap:butt;stroke-linejoin:miter;stroke-opacity:1"
       d="m 93.193877,75.811591 c 1.739405,-1.348822 1.459219,-0.89313 2.455108,-2.290329 0.216408,-0.303612 0.398071,-0.599054 0.5304,-0.944255 0.01254,-0.03273 0.0038,-0.07042 0.01207,-0.104474 0.03518,-0.144224 0.06411,-0.07326 0.120547,0.01207 0.03588,0.05423 0.07498,0.106791 0.10447,0.164743 0.124704,0.245065 0.242221,0.493773 0.357619,0.743352 0.04521,0.09778 0.147431,0.460314 0.305382,0.542446 0.0406,0.02111 0.06296,-0.08174 0.09644,-0.188851"
       id="path1659" />
    <path
       style="fill:none;stroke:#000000;stroke-width:0.264583px;stroke-linecap:butt;stroke-linejoin:miter;stroke-opacity:1"
       d="m 98.433584,65.99533 c -0.02143,0.133934 -0.05953,0.266252 -0.06429,0.401809 -0.0087,0.247764 0.01873,0.495498 0.0241,0.743352 0.01826,0.839894 -0.06046,-0.01953 0.01606,1.542958 0.01296,0.264895 0.05083,0.528007 0.08037,0.791569 0.01894,0.168945 0.0707,0.301427 0.07634,0.285287 0.02492,-0.0712 -0.01344,-0.150339 -0.0241,-0.225015 -0.01479,-0.103539 -0.04056,-0.205456 -0.05224,-0.309395 -0.02853,-0.2539 -0.03573,-0.51003 -0.06831,-0.763442 -0.08264,-0.642893 -0.180248,-1.283796 -0.277254,-1.92468 -0.03712,-0.245269 -0.148342,-0.835631 -0.253146,-1.02462 -0.06756,-0.121833 -0.250936,-0.418349 -0.385746,-0.249121 -0.04653,0.05841 -0.110408,0.114861 -0.120545,0.188851 -0.02072,0.15121 0.196991,0.111112 0.321456,0.07232 0.212077,-0.06609 0.412562,-0.165391 0.622816,-0.237066 0.32036,-0.109212 0.644715,-0.206399 0.968383,-0.30538 0.114361,-0.03497 0.228068,-0.07416 0.345564,-0.09643 0.314487,-0.05963 1.083318,-0.254392 1.486728,-0.09242 0.47371,0.190196 0.58371,0.385408 0.80766,0.787551 0.0441,0.07913 0.0862,0.161327 0.10849,0.249121 0.0719,0.283385 0.16666,0.567587 0.17278,0.859877 0.0157,0.748668 -0.26733,1.804554 -0.67907,2.430963 -0.12036,0.183107 -0.31154,0.311137 -0.49022,0.437975 -0.13399,0.09511 -0.42477,-0.07245 -0.49022,-0.108489 -0.22822,-0.125656 -0.44466,-0.271741 -0.663002,-0.413867 -0.06578,-0.04282 -0.144929,-0.07559 -0.188855,-0.140634 -0.237577,-0.351793 -0.427077,-0.733814 -0.646927,-1.096947 -0.04945,-0.08167 -0.109683,-0.156387 -0.160729,-0.237069 -0.07356,-0.116274 -0.134258,-0.240736 -0.212963,-0.353594 -0.06366,-0.09129 -0.194054,-0.147479 -0.212963,-0.257159 -0.0099,-0.05731 0.115691,0.01304 0.17278,0.0241 0.288571,0.05593 0.573792,0.129569 0.86391,0.176797 0.281779,0.04587 1.460439,0.167788 1.739879,0.200906 0.07,0.0083 0.14058,0.01505 0.20894,0.03214 0.009,0.0024 0.0244,0.01923 0.0161,0.0241 -0.0626,0.03677 -0.13394,0.05626 -0.20091,0.08438 -0.16743,0.117867 -0.32609,0.249283 -0.50227,0.353595 -0.19587,0.115961 -0.41038,0.197424 -0.61077,0.305376 -0.544478,0.293325 -0.495122,0.282856 -0.968382,0.638882"
       id="path1667" />
    <path
       style="fill:none;stroke:#000000;stroke-width:0.264583px;stroke-linecap:butt;stroke-linejoin:miter;stroke-opacity:1"
       d="m 98.461712,69.852722 c 0.982755,-0.179475 1.734708,-0.163023 2.547528,-0.671026 0.20142,-0.125889 0.37449,-0.294127 0.54245,-0.462084 0.15354,-0.153535 0.28021,-0.325604 0.20091,-0.554501 -0.0439,-0.126772 -0.14197,-0.227692 -0.21296,-0.34154"
       id="path1669" />
    <path
       style="fill:none;stroke:#000000;stroke-width:0.264583px;stroke-linecap:butt;stroke-linejoin:miter;stroke-opacity:1"
       d="m 100.43866,65.714059 c -0.009,-0.129918 0.10179,-0.399132 -0.0281,-0.389758 -0.12992,0.0094 0.0421,0.260255 0.0281,0.389758 -0.0386,0.356846 -0.1306,0.705985 -0.18484,1.060783 -0.0744,0.486461 -0.13412,0.97504 -0.20091,1.462596 -0.0279,0.20393 -0.0965,0.631563 -0.10447,0.883986 -0.0049,0.156628 -0.01109,0.313806 0,0.47012 0.0024,0.03474 0.01556,0.07181 0.04018,0.09643 0.08561,0.08561 0.13449,0.04074 0.22502,0 0.0426,-0.01916 0.097,-0.07438 0.0804,-0.03616 -0.04,0.09184 -0.0988,0.174273 -0.14867,0.261178 -0.0654,0.114001 -0.13122,0.227716 -0.19689,0.34154 -0.187227,0.324519 -0.39153,0.639268 -0.570581,0.968367 -0.08303,0.152606 -0.14971,0.313558 -0.225021,0.470119 -0.03856,0.08016 -0.120523,0.216408 -0.08036,0.225015 0.265937,0.05699 0.522739,-0.172357 0.715234,-0.285287 0.140092,-0.08219 0.273388,-0.175651 0.413878,-0.257159 0.17266,-0.100179 0.81507,-0.43815 0.96838,-0.506283 0.16316,-0.07252 0.32553,-0.18297 0.24912,0.008 -0.0156,0.03903 -0.038,0.07571 -0.0643,0.108489 -0.13205,0.1645 -0.26492,0.328909 -0.40985,0.482174 -0.32982,0.348766 -0.56336,0.563759 -0.89204,0.85184 -0.251286,0.22025 -0.512268,0.429768 -0.755415,0.658971 -0.17785,0.167653 -0.337526,0.353594 -0.506291,0.530392 -0.01267,0.01328 -0.2227,0.209835 -0.237072,0.285287 -0.0036,0.01884 0.0359,-0.01408 0.05224,-0.0241 0.112374,-0.06906 0.219136,-0.147256 0.333507,-0.21296 0.07091,-0.04073 0.641363,-0.351433 0.847836,-0.450028 0.685815,-0.327493 0.514715,-0.234775 1.446545,-0.566554 0.20752,-0.07389 0.41512,-0.147572 0.62282,-0.220999 0.0613,-0.02167 0.17332,-0.07232 0.25314,-0.07232 0.004,0 0.003,0.0094 0,0.01206 -0.0249,0.02241 -0.0543,0.03923 -0.0804,0.06027 -0.009,0.0071 -0.0135,0.02825 -0.0241,0.0241 -0.0283,-0.01106 -0.0587,-0.03146 -0.0683,-0.06027 -8e-4,-0.0024 0.0252,-0.169543 0.0402,-0.176797 0.0788,-0.03803 0.21438,0.149172 0.28127,0.225012 0.1934,0.219278 0.5606,0.583485 0.63487,0.908095 0.0576,0.251544 -0.59269,0.25881 -0.67505,0.269213"
       id="path1671" />
    <path
       style="fill:none;stroke:#000000;stroke-width:0.264583px;stroke-linecap:butt;stroke-linejoin:miter;stroke-opacity:1"
       d="m 100.06898,72.709603 c -0.07292,0.464534 0.0304,0.837715 0.0643,1.293833 0.0577,0.776251 0.0608,1.160793 0.0924,1.852353 0.008,0.184878 0.0238,0.36948 0.0281,0.554501 0.005,0.216919 0,0.433956 0,0.650936 0,0.08572 0,0.171439 0,0.257159 0,0.05893 0.0136,0.119467 0,0.176797 -0.003,0.01328 -0.0313,0.0024 -0.0402,-0.008 -0.14139,-0.164008 -0.13763,-0.21068 -0.253145,-0.357614 -0.361635,-0.459991 -0.739582,-0.904311 -1.153218,-1.317942 -0.102468,-0.102465 -0.208905,-0.201274 -0.305382,-0.309396 -0.05921,-0.06636 -0.07412,-0.192752 -0.160727,-0.212961 -0.05717,-0.01333 -0.06221,0.100881 -0.08036,0.156708 -0.07054,0.216956 -0.105715,0.444997 -0.184838,0.658971 -0.04406,0.119166 -0.257043,0.581385 -0.385744,0.779516 -0.06234,0.09597 -0.10508,0.212944 -0.196893,0.281268 -0.04027,0.02997 -0.115752,0.01378 -0.148672,-0.0241 -0.02832,-0.03261 0.0053,-0.08674 0.01609,-0.12858 0.06973,-0.27196 0.150011,-0.541107 0.225018,-0.811659"
       id="path1673" />
    <path
       style="fill:none;stroke:#000000;stroke-width:0.264583px;stroke-linecap:butt;stroke-linejoin:miter;stroke-opacity:1"
       d="m 100.6918,73.898965 c 0.12859,0.02008 0.27821,-0.01302 0.38575,0.06027 0.69441,0.473336 0.60718,0.597482 0.98043,1.177308 0.10763,0.167185 0.22768,0.32608 0.34557,0.486193 0.44889,0.609677 0.4917,0.570349 0.80765,1.249635 0.0326,0.0701 0.0375,0.150008 0.0563,0.225015"
       id="path1675" />
    <path
       style="fill:none;stroke:#000000;stroke-width:0.264583px;stroke-linecap:butt;stroke-linejoin:miter;stroke-opacity:1"
       d="m 107.03651,68.000368 c 0.0121,-0.227692 -1.7e-4,-0.45798 0.0362,-0.68308 0.0127,-0.07865 0.0662,-0.145444 0.1085,-0.21296 0.11738,-0.187399 0.31944,-0.369684 0.54245,-0.413867 0.0539,-0.01066 0.15238,-0.01812 0.16073,0.03616 0.0318,0.2067 -0.26397,0.564126 -0.35762,0.68308 -0.15827,0.201041 -0.34892,0.377359 -0.49022,0.590663 -0.20964,0.316474 -0.37398,0.660742 -0.55853,0.992476 -0.3646,0.655389 -0.73979,1.305116 -1.08892,1.968879 -0.0852,0.162036 -0.1783,0.326511 -0.21297,0.506283 -0.13504,0.70032 0.29242,0.316828 0.69113,0.07233 0.30362,-0.186193 1.15893,-0.967764 1.31395,-1.096947 0.23879,-0.198995 0.48405,-0.390228 0.73131,-0.578609 0.0775,-0.05907 0.41183,-0.271753 0.49021,-0.261178 0.2576,0.03476 0.22704,0.221374 0.18484,0.365649 -0.0421,0.143907 -0.078,0.291639 -0.14465,0.425921 -0.56819,1.143677 -1.43507,2.09605 -2.18991,3.11404 -0.14125,0.190479 -0.27949,0.383238 -0.41388,0.578609 -0.0508,0.07387 -0.15395,0.261178 -0.0643,0.261178 0.13733,0 0.26097,-0.0873 0.38575,-0.144653 0.32969,-0.151521 0.59751,-0.340103 0.90007,-0.542446 0.26217,-0.175326 0.52511,-0.349604 0.78355,-0.530389 0.61009,-0.426781 0.85958,-0.541806 1.27376,-1.000514 0.10903,-0.120748 0.16914,-0.325898 0.25315,-0.474136"
       id="path1679" />
    <path
       style="fill:none;stroke:#000000;stroke-width:0.264583px;stroke-linecap:butt;stroke-linejoin:miter;stroke-opacity:1"
       d="m 112.449,66.573936 c 0.20277,-0.30776 0.23094,-0.493892 0.67907,-0.518337 0.27322,-0.0149 0.24724,0.340675 0.19689,0.47012 -0.10383,0.266999 -0.26117,0.510532 -0.40985,0.755406 -0.14768,0.243237 -0.31668,0.47289 -0.47816,0.707189 -0.49177,0.713531 -1.00207,1.412558 -1.4586,2.149695 -0.0579,0.09355 -0.13304,0.178665 -0.17279,0.281268 -0.0198,0.0512 -0.0511,0.144732 0,0.164742 0.0641,0.02511 0.12813,-0.05332 0.18484,-0.09242 0.1209,-0.08335 0.23206,-0.180062 0.34556,-0.273232 0.63881,-0.524386 1.2734,-1.083295 2.04124,-1.414378 0.0132,-0.0057 0.3978,-0.165928 0.3978,0.05625 0,0.353226 -0.22107,0.736081 -0.3978,1.016585 -0.51003,0.809524 -1.06605,1.506413 -1.65951,2.254162 -0.15825,0.199403 -0.32356,0.393444 -0.47414,0.598702 -0.0747,0.101878 -0.18564,0.196017 -0.20091,0.321448 -0.008,0.06676 0.0818,0.11666 0.14465,0.140634 0.0506,0.01931 0.10906,-0.0078 0.16073,-0.0241 0.14876,-0.04692 0.29216,-0.109381 0.43798,-0.164743 0.28814,-0.109384 0.57186,-0.231018 0.86391,-0.329485 0.60807,-0.20501 0.83158,-0.239747 1.37824,-0.389755 0.26315,-0.07221 0.55738,-0.142362 0.7956,-0.285287 0.0153,-0.0092 -0.0348,0.008 -0.0522,0.01207"
       id="path1681" />
    <path
       style="fill:none;stroke:#000000;stroke-width:0.264583px;stroke-linecap:butt;stroke-linejoin:miter;stroke-opacity:1"
       d="m 104.83053,75.160655 c 0.35307,-0.202864 0.19599,0.59809 0.45405,0.638881 0.36676,0.05797 0.74216,0.06194 1.11304,0.0442 0.22092,-0.01056 0.43585,-0.07706 0.65095,-0.12858 1.10964,-0.26575 1.22476,-0.332869 2.2542,-0.602718 0.33931,-0.08894 1.82646,-0.456104 2.1658,-0.530391 0.42758,-0.0936 1.94373,-0.424763 2.652,-0.518338 0.35407,-0.04678 1.29436,-0.135623 1.71174,-0.164743 0.10697,-0.0075 0.21423,-0.01207 0.32145,-0.01207 0.0965,0 0.20168,0.0525 0.28931,0.01207 0.0476,-0.02196 -0.0842,-0.06431 -0.1326,-0.08438 -0.32435,-0.134543 -0.31197,-0.124322 -0.5545,-0.164743"
       id="path1683" />
    <path
       style="fill:none;stroke:#000000;stroke-width:0.264583px;stroke-linecap:butt;stroke-linejoin:miter;stroke-opacity:1"
       d="m 70.195794,162.76969 c 0.172784,-0.16475 0.386258,-0.29537 0.518348,-0.49423 0.76889,-1.15758 1.124043,-3.01381 1.366181,-4.24715 0.305856,-1.5579 0.375105,-2.68012 0.454055,-4.24715 0.01011,-0.20065 0.0021,-0.40183 0,-0.60272 -0.0072,-0.64159 -0.01228,-1.28325 -0.02813,-1.92468 -0.01209,-0.48984 -0.0959,-1.03198 -0.253146,-1.49474 -0.03141,-0.0924 -0.08559,-0.17558 -0.132598,-0.26118 -0.0055,-0.01 -0.01272,-0.0241 -0.0241,-0.0241 -0.202446,0 -0.137946,0.3207 -0.160726,0.43797 0.163406,-0.18081 0.278576,-0.4216 0.490218,-0.54244 0.242046,-0.1382 0.53981,-0.13945 0.811673,-0.20091 0.07797,-0.0176 0.157298,-0.031 0.237072,-0.0362 0.517935,-0.0332 0.792025,-0.0987 1.249655,0.16474 0.196406,0.11305 0.459933,0.53992 0.5304,0.71924 0.491499,1.25077 0.47803,1.97797 0.582636,3.49175 0.03038,0.43971 0.03246,2.95116 0.04018,3.35111 0.01436,0.74352 0.0412,1.48675 0.06429,2.23006 0.01173,0.37775 0.03576,0.75519 0.04018,1.1331 0.0053,0.45043 0.09209,1.8113 -0.305381,2.2622 -0.199114,0.22589 -0.702894,0.17459 -0.888018,-0.0563 -0.898741,-1.12068 -0.861281,-1.20274 -1.338055,-2.66803 -0.259889,-0.79873 -0.346513,-1.30224 -0.518345,-2.10951"
       id="path1687" />
    <path
       style="fill:none;stroke:#000000;stroke-width:0.264583px;stroke-linecap:butt;stroke-linejoin:miter;stroke-opacity:1"
       d="m 72.851824,152.92932 c 0.119205,0.0951 0.259641,0.16844 0.357619,0.28529 0.26738,0.31889 -0.124463,0.17931 0.253145,0.34154 0.303218,0.13027 0.527272,0.17107 0.859891,0.22501 0.08367,0.0136 0.170791,0.004 0.253145,0.0241 0.111191,0.0271 0.314346,0.0873 0.281271,0.19688 -0.01561,0.0518 -0.07585,0.0781 -0.120544,0.10849 -1.522381,1.03593 0.540924,-0.45135 -1.233583,0.84783"
       id="path1689" />
    <path
       style="fill:none;stroke:#000000;stroke-width:0.264583px;stroke-linecap:butt;stroke-linejoin:miter;stroke-opacity:1"
       d="m 72.269188,156.83493 c 0.220998,0.0201 0.442722,0.0871 0.662998,0.0603 0.299379,-0.0365 1.553321,-0.58093 1.683618,-0.63888 0.250581,-0.11145 0.447751,-0.23804 0.679074,-0.3777 0.14333,-0.0865 0.11629,-0.0314 0.144653,-0.11653"
       id="path1691" />
    <path
       style="fill:none;stroke:#000000;stroke-width:0.264583px;stroke-linecap:butt;stroke-linejoin:miter;stroke-opacity:1"
       d="m 80.217149,149.15631 c -0.05358,0.17278 -0.154032,0.33756 -0.160726,0.51833 -0.0071,0.19295 0.06133,0.38278 0.120544,0.56656 0.163039,0.50603 0.291409,0.70098 0.478166,1.13311 0.0067,0.0156 0.236995,0.48003 0.200908,0.62281 -0.01667,0.066 -0.07179,0.11727 -0.120547,0.16474 -0.232343,0.22623 -0.447746,0.19314 -0.795599,0.27323"
       id="path1693" />
    <path
       style="fill:none;stroke:#000000;stroke-width:0.264583px;stroke-linecap:butt;stroke-linejoin:miter;stroke-opacity:1"
       d="m 76.966441,154.15887 c 0.132599,0.0429 0.259522,0.14586 0.397799,0.12858 0.545023,-0.0681 2.263116,-0.73783 2.627892,-0.87194 0.770151,-0.28394 1.540303,-0.56789 2.310455,-0.85184 0.476824,-0.16876 0.955143,-0.33335 1.430473,-0.50628 0.227906,-0.0829 0.450924,-0.17892 0.679071,-0.26118 0.165756,-0.0598 0.326298,-0.17361 0.502272,-0.16474 0.06338,0.003 0.01958,0.14282 -0.0241,0.18885 -0.265681,0.27991 -1.190984,0.89769 -1.462616,1.09695 -1.123154,0.82387 0.654195,-0.36106 -1.418418,0.96836"
       id="path1695" />
    <path
       style="fill:none;stroke:#000000;stroke-width:0.264583px;stroke-linecap:butt;stroke-linejoin:miter;stroke-opacity:1"
       d="m 77.894642,155.25581 c 0.105812,0.0897 0.301226,0.13142 0.317437,0.26921 0.05621,0.47777 -0.05873,0.96091 -0.116528,1.43849 -0.0441,0.36441 -0.125905,0.72326 -0.188855,1.08489 -0.06563,0.36967 -0.151524,0.73631 -0.196892,1.109 -0.03919,0.32194 -0.241303,1.68833 -0.01606,2.21801 0.105354,0.24775 0.262099,0.49031 0.478165,0.65093 0.161383,0.11997 0.385607,0.14481 0.586653,0.14063 0.747012,-0.0155 1.337691,-0.21391 2.017128,-0.47012 1.191667,-0.44935 1.171189,-0.54093 2.547527,-1.45054 0.203417,-0.13443 0.395661,-0.28507 0.594691,-0.42592 0.06216,-0.044 0.139237,-0.0708 0.188854,-0.12858 0.412991,-0.48087 0.356796,-0.4236 0.502272,-0.888"
       id="path1697" />
    <path
       style="fill:none;stroke:#000000;stroke-width:0.264583px;stroke-linecap:butt;stroke-linejoin:miter;stroke-opacity:1"
       d="m 84.130858,155.76209 c 0.124563,-0.2826 0.07272,-0.77853 0.373692,-0.84782 0.241229,-0.0555 0.167545,0.47231 0.184835,0.71924 0.06362,0.90854 -0.142951,3.02841 -0.212963,3.76096 -0.0385,0.40286 -0.07575,0.80665 -0.144655,1.20544 -0.0199,0.11524 -0.0117,0.37225 -0.120545,0.32948 -0.187409,-0.0736 -0.219659,-0.33752 -0.32949,-0.50628"
       id="path1699" />
    <path
       style="fill:none;stroke:#000000;stroke-width:0.264583px;stroke-linecap:butt;stroke-linejoin:miter;stroke-opacity:1"
       d="m 82.009259,153.745 c 0.0884,0.19287 0.229095,0.36954 0.2652,0.57861 0.0245,0.14187 -0.04099,0.28743 -0.09242,0.4219 -0.206449,0.53977 -0.416732,1.08026 -0.679071,1.59519 -0.238139,0.46743 -0.929384,1.48557 -1.297874,1.95683 -0.215085,0.27507 -1.098598,1.38202 -1.502799,1.37018 -0.255659,-0.007 -0.271796,-0.44103 -0.341545,-0.6871 -0.250608,-0.88413 -0.175155,-1.39704 0,-2.29837 0.04178,-0.21498 0.09132,-0.43494 0.196889,-0.62682 0.140491,-0.25537 0.269388,-0.56544 0.5304,-0.69514 0.230748,-0.11466 0.578387,-0.12237 0.77149,0.0482 0.811144,0.71658 1.504038,2.24174 1.936766,3.29084 0.121203,0.29384 0.175678,0.62334 0.357616,0.88398 0.285227,0.40861 0.350841,0.15459 0.425929,0"
       id="path1701" />
    <path
       style="fill:none;stroke:#000000;stroke-width:0.264583px;stroke-linecap:butt;stroke-linejoin:miter;stroke-opacity:1"
       d="m 95.305421,150.46621 c 0.182158,-0.19688 0.335269,-0.42531 0.546473,-0.59066 0.201501,-0.15775 0.447448,-0.24867 0.675053,-0.36565 0.384741,-0.19773 0.75756,-0.27176 1.169291,-0.3777 0.124011,-0.0319 0.246364,-0.07 0.369674,-0.10447 0.04412,-0.0124 0.08686,-0.0336 0.132601,-0.0362 0.04011,-0.002 0.130394,0.0597 0.172781,0.0362 0.06946,-0.0386 -0.01688,-0.17051 -0.196893,-0.21296 -0.208195,-0.0491 -0.424989,-0.0623 -0.638889,-0.0603 -0.222303,0.002 -0.444397,0.0319 -0.663001,0.0723 -0.928809,0.17179 -1.479867,0.33473 -2.362689,0.58665 -0.844318,0.24093 -1.25077,0.38262 -2.230091,0.77951 -0.406294,0.16466 -1.606182,0.77982 -1.964891,0.95631 -0.450244,0.22153 -0.341921,0.17783 -0.663001,0.29333 -0.123185,0.0443 -0.246885,0.0872 -0.369671,0.1326 -0.03663,0.0135 -0.0765,0.0218 -0.108492,0.0442 -0.0084,0.006 0.01871,0.008 0.02813,0.0121 0.04818,0.0202 0.100335,0.0326 0.144653,0.0603 0.102515,0.0639 0.213728,0.12206 0.293327,0.21296 0.156205,0.17838 0.396669,0.53133 0.466109,0.80363 0.09524,0.37346 0.205224,0.74618 0.249129,1.12909 0.156038,1.36088 0.03707,3.0094 -0.15671,4.34358 -0.112996,0.77799 -0.390234,1.81792 -0.759436,2.52338 -0.717889,1.37172 -1.12476,1.81817 -2.149727,2.91313 -0.262366,0.28029 -0.817864,0.67831 -1.1934,0.61478 -0.580562,-0.0982 -0.578885,-1.19153 -0.622819,-1.47465"
       id="path1703" />
    <path
       style="fill:none;stroke:#000000;stroke-width:0.264583px;stroke-linecap:butt;stroke-linejoin:miter;stroke-opacity:1"
       d="m 90.065713,152.68422 c -0.113059,0.29846 -0.143629,0.58564 -0.425929,0.76746 -0.02389,0.0154 -0.03445,-0.0669 -0.01207,-0.0844 0.166794,-0.13015 0.34244,-0.26056 0.542454,-0.32949 0.320363,-0.11041 0.664806,-0.13167 0.996511,-0.20091 0.496054,-0.10354 0.989256,-0.22092 1.486726,-0.31743 0.351917,-0.0683 0.706236,-0.12398 1.060802,-0.17679 0.490683,-0.0731 0.983371,-0.13208 1.474671,-0.20091 0.891709,-0.12493 1.568698,-0.18834 2.306436,-0.77952 0.163407,-0.13094 0.350017,-0.28231 0.397801,-0.48619 0.06863,-0.29281 -0.151728,-0.53585 -0.305382,-0.73933"
       id="path1705" />
    <path
       style="fill:none;stroke:#000000;stroke-width:0.264583px;stroke-linecap:butt;stroke-linejoin:miter;stroke-opacity:1"
       d="m 95.345603,148.97951 c -0.02679,0.24778 -0.03403,0.49847 -0.08036,0.74335 -0.02905,0.15357 -0.09368,0.29826 -0.144653,0.44601 -0.05486,0.15902 -0.09489,0.32505 -0.172784,0.47414 -0.598328,1.14527 -0.785055,1.23901 -1.643435,2.34658 -0.20266,0.26149 -0.39991,0.52713 -0.59871,0.79157 -0.08515,0.11327 -0.166092,0.22972 -0.253145,0.34154 -0.01775,0.0228 -0.251738,0.24254 -0.237072,0.34154 0.0024,0.0155 0.02719,0.0155 0.04018,0.0241 0.03926,0.0262 0.09107,0.0406 0.116528,0.0804 0.06567,0.10248 0.121168,0.21494 0.148672,0.3335 0.159046,0.68565 0.257347,1.40408 0.277254,2.10951 0.03182,1.12747 0.03289,1.20895 -0.08037,2.13764 -0.01003,0.0822 -0.0048,0.17025 -0.04018,0.24511 -0.02553,0.054 -0.106749,0.17439 -0.132598,0.12054 -0.133337,-0.27778 -0.198795,-1.0985 -0.225018,-1.40634 -0.0864,-1.01427 -0.08329,-2.09003 0.241091,-3.06583 0.02421,-0.0728 0.150495,-0.0664 0.225018,-0.0482 0.161229,0.0394 0.292385,0.1611 0.450035,0.21296 0.05104,0.0168 0.108799,0.002 0.160729,-0.0121 0.231761,-0.0615 0.459406,-0.1378 0.687107,-0.21296 0.439221,-0.14497 0.869505,-0.31793 1.313947,-0.44601 0.811183,-0.23376 2.156198,-0.78629 2.362689,0.51834 0.05941,0.37535 -0.03036,0.96818 -0.15671,1.37821 -0.213005,0.69126 -0.232394,1.01535 -0.679071,1.51082 -0.07061,0.0783 -0.375537,0.006 -0.397801,0 -0.129284,-0.0346 -0.680699,-0.17842 -0.807654,-0.36565 -0.293444,-0.43278 -0.380722,-1.04946 -0.478163,-1.53493 -0.01461,-0.0728 -0.02429,-0.14683 -0.02813,-0.22099 -0.0056,-0.10701 0.07018,-0.24048 0,-0.32145 -0.05815,-0.0671 -0.03554,0.17398 -0.05224,0.26118 -0.03152,0.1646 -0.05883,0.33003 -0.09242,0.49423 -0.128479,0.6281 -0.417983,1.24678 -0.703183,1.81619 -0.660313,1.31833 -1.375071,2.60194 -2.201963,3.82524 -0.280678,0.41524 -0.593103,0.80837 -0.904092,1.20142 -0.07523,0.0951 -0.157268,0.18697 -0.253145,0.26118 -0.278837,0.21583 -0.555699,0.58561 -0.888016,0.25716 -0.05138,-0.0508 -0.02679,-0.14197 -0.04018,-0.21296"
       id="path1707" />
    <path
       style="fill:none;stroke:#000000;stroke-width:0.264583px;stroke-linecap:butt;stroke-linejoin:miter;stroke-opacity:1"
       d="m 93.436965,158.34574 c 0.336191,0.0549 0.722569,-0.0203 1.008566,0.16475 0.224792,0.14545 0.247046,0.47539 0.357618,0.71924 0.456317,1.00635 0.304271,0.86582 0.847836,1.85235 0.27744,0.50354 0.603335,1.00784 0.944272,1.47465 0.128455,0.17588 0.249441,0.35889 0.397801,0.51834 0.162047,0.17417 0.876088,0.80421 1.100981,1.00453"
       id="path1709" />
    <use
       x="0"
       y="0"
       xlink:href="#g1490"
       id="use255"
       transform="translate(0,-15.874977)" />
    <use
       x="0"
       y="0"
       xlink:href="#g1490"
       id="use257"
       transform="translate(0,-23.812477)" />
    <use
       x="0"
       y="0"
       xlink:href="#g1490"
       id="use259"
       transform="translate(0,-31.749977)" />
    <use
       x="0"
       y="0"
       xlink:href="#g1490"
       id="use261"
       transform="translate(0,-39.687477)" />
  </g>
</svg>
