<?xml version="1.0" encoding="UTF-8" standalone="no"?>
<!-- Created with Inkscape (http://www.inkscape.org/) -->

<svg
   width="709.75543"
   height="495.30902"
   viewBox="0 0 187.78946 131.05051"
   version="1.1"
   id="svg731"
   inkscape:version="1.3.2 (091e20e, 2023-11-25, custom)"
   sodipodi:docname="窗周坐标示意图.svg"
   xmlns:inkscape="http://www.inkscape.org/namespaces/inkscape"
   xmlns:sodipodi="http://sodipodi.sourceforge.net/DTD/sodipodi-0.dtd"
   xmlns="http://www.w3.org/2000/svg"
   xmlns:svg="http://www.w3.org/2000/svg">
  <sodipodi:namedview
     id="namedview733"
     pagecolor="#ffffff"
     bordercolor="#666666"
     borderopacity="1.0"
     inkscape:showpageshadow="2"
     inkscape:pageopacity="0.0"
     inkscape:pagecheckerboard="0"
     inkscape:deskcolor="#d1d1d1"
     inkscape:document-units="px"
     showgrid="false"
     inkscape:zoom="1.1893044"
     inkscape:cx="380.89492"
     inkscape:cy="144.20194"
     inkscape:window-width="1366"
     inkscape:window-height="697"
     inkscape:window-x="1912"
     inkscape:window-y="-8"
     inkscape:window-maximized="1"
     inkscape:current-layer="layer1" />
  <defs
     id="defs728">
    <inkscape:path-effect
       effect="powerstroke"
       id="path-effect493"
       is_visible="true"
       lpeversion="1"
       offset_points="1.9417372,0.29495498"
       not_jump="true"
       sort_points="true"
       interpolator_type="CentripetalCatmullRom"
       interpolator_beta="0.75"
       start_linecap_type="round"
       linejoin_type="spiro"
       miter_limit="4"
       scale_width="1"
       end_linecap_type="round"
       message="&lt;b&gt;Ctrl + click&lt;/b&gt; on existing node and move it" />
    <inkscape:path-effect
       effect="simplify"
       id="path-effect491"
       is_visible="true"
       lpeversion="1"
       steps="1"
       threshold="0.0047745358"
       smooth_angles="0"
       helper_size="0"
       simplify_individual_paths="false"
       simplify_just_coalesce="false"
       step="1" />
  </defs>
  <g
     inkscape:label="图层 1"
     inkscape:groupmode="layer"
     id="layer1"
     transform="translate(-15.323634,-66.871688)">
    <ellipse
       style="fill:none;stroke:#000000;stroke-width:0.242432"
       id="path735"
       cx="105.83333"
       cy="132.29166"
       rx="52.795452"
       ry="52.795448" />
    <path
       style="fill:none;stroke:#000000;stroke-width:0.253556px;stroke-linecap:butt;stroke-linejoin:miter;stroke-opacity:1"
       d="M 52.916666,132.42396 H 158.75"
       id="path883" />
    <path
       style="fill:none;stroke:#000000;stroke-width:0.253556px;stroke-linecap:butt;stroke-linejoin:miter;stroke-opacity:1"
       d="M 105.83333,79.507296 V 185.34063"
       id="use885" />
    <g
       id="g1"
       transform="translate(0.44493796,5.7841934)">
      <path
         style="fill:none;stroke:#000000;stroke-width:0.264583px;stroke-linecap:butt;stroke-linejoin:miter;stroke-opacity:1"
         d="m 120.85692,118.84929 c 0.006,0.0777 0.004,0.15627 0.017,0.23298 0.005,0.028 0.0232,0.0519 0.0369,0.0767 0.14251,0.25652 0.27971,0.51622 0.43187,0.76714 0.0384,0.0633 0.23392,0.27458 0.25288,0.37504 0.009,0.0454 -0.0246,0.089 -0.0369,0.13354"
         id="path893" />
      <path
         style="fill:none;stroke:#000000;stroke-width:0.264583px;stroke-linecap:butt;stroke-linejoin:miter;stroke-opacity:1"
         d="m 120.29151,121.3922 c 0.36058,0.21721 0.10938,0.10644 0.56541,0.1932 0.0851,0.0162 0.17001,0.0345 0.25288,0.0597 0.0455,0.0138 0.0922,0.0289 0.1307,0.0568 0.0662,0.048 0.11933,0.11175 0.179,0.16763"
         id="path895" />
      <path
         style="fill:none;stroke:#000000;stroke-width:0.264583px;stroke-linecap:butt;stroke-linejoin:miter;stroke-opacity:1"
         d="m 120.31992,124.21355 c 0.13165,-0.089 0.27423,-0.16371 0.39494,-0.26708 0.0727,-0.0623 0.12139,-0.14804 0.179,-0.22446 0.1773,-0.23521 0.36603,-0.46275 0.52564,-0.71031 0.42304,-0.65614 0.43284,-0.76066 0.69327,-1.41778"
         id="path897" />
      <path
         style="fill:none;stroke:#000000;stroke-width:0.264583px;stroke-linecap:butt;stroke-linejoin:miter;stroke-opacity:1"
         d="m 123.06176,117.84917 c 0.17267,0.25537 0.20351,0.27805 0.46029,0.36652 0.0677,0.0233 0.14019,0.034 0.20457,0.0653 0.0406,0.0197 0.0701,0.0568 0.10513,0.0852"
         id="path899" />
      <path
         style="fill:none;stroke:#000000;stroke-width:0.264583px;stroke-linecap:butt;stroke-linejoin:miter;stroke-opacity:1"
         d="m 122.05594,120.25002 c 0.79846,-0.0491 0.37555,0.0118 1.39791,-0.2756 0.0914,-0.0257 0.18237,-0.0533 0.27277,-0.0824 1.4729,-0.47481 1.13412,-0.0784 1.50304,-0.53415"
         id="path901" />
      <path
         style="fill:none;stroke:#000000;stroke-width:0.264583px;stroke-linecap:butt;stroke-linejoin:miter;stroke-opacity:1"
         d="m 122.70376,121.18479 c 0.0597,0.0862 0.0843,0.21351 0.179,0.25855 0.15989,0.0761 0.3486,0.08 0.52563,0.0767 0.57426,-0.0107 1.05156,-0.10712 1.52862,-0.40914 0.0397,-0.0251 0.0701,-0.0625 0.10512,-0.0938"
         id="path903" />
      <path
         style="fill:none;stroke:#000000;stroke-width:0.264583px;stroke-linecap:butt;stroke-linejoin:miter;stroke-opacity:1"
         d="m 122.55317,123.57143 c 1.03762,0.11194 0.57073,0.12714 1.91502,-0.15059 0.13815,-0.0285 0.91409,-0.20053 1.14504,-0.32674 0.1245,-0.068 0.22541,-0.17237 0.33811,-0.25856"
         id="path905" />
      <path
         style="fill:none;stroke:#000000;stroke-width:0.264583px;stroke-linecap:butt;stroke-linejoin:miter;stroke-opacity:1"
         d="m 123.74651,120.34378 c 0.0436,0.26613 0.11069,0.52946 0.1307,0.79839 0.0143,0.19196 -0.0225,0.38437 -0.0284,0.57677 -0.0167,0.53993 -0.005,1.08006 -0.0284,1.6195"
         id="path907" />
      <path
         style="fill:none;stroke:#000000;stroke-width:0.264583px;stroke-linecap:butt;stroke-linejoin:miter;stroke-opacity:1"
         d="m 127.98854,117.08204 c -0.0909,0.13827 -0.16647,0.28798 -0.27276,0.41482 -0.12045,0.14373 -0.27289,0.25748 -0.40346,0.39209 -0.14514,0.14963 -0.28188,0.30718 -0.42335,0.46028 -0.12973,0.14039 -0.39572,0.35104 -0.34664,0.59098 0.0219,0.10721 0.0889,0.20004 0.1307,0.30117 0.11371,0.27491 0.16323,0.43708 0.24435,0.75861 0.0936,0.37112 0.12672,0.67425 0.14206,1.0683 0.007,0.17228 0.0231,0.34817 -0.0114,0.51711 -0.0251,0.12291 -0.11705,0.0808 -0.17616,0.0653"
         id="path909" />
      <path
         style="fill:none;stroke:#000000;stroke-width:0.264583px;stroke-linecap:butt;stroke-linejoin:miter;stroke-opacity:1"
         d="m 125.85758,121.55983 c 0.72922,0.0158 0.75418,0.0517 1.43485,-0.0568 0.26877,-0.0429 0.52734,-0.10113 0.74157,-0.28412 0.0874,-0.0747 0.13828,-0.18373 0.20742,-0.2756"
         id="path911" />
      <path
         style="fill:none;stroke:#000000;stroke-width:0.264583px;stroke-linecap:butt;stroke-linejoin:miter;stroke-opacity:1"
         d="m 126.73838,118.70722 c 0.11933,0.0114 0.23813,0.0341 0.358,0.0341 0.0944,0 0.18704,-0.0279 0.28129,-0.0341 0.43721,-0.0287 0.94522,-0.12971 1.27573,0.3097 0.1528,0.20314 0.0792,1.03283 0.0568,1.25867 -0.0554,0.55975 -0.14505,1.22366 -0.23583,1.79282 -0.0501,0.3143 -0.12512,0.92497 -0.2614,1.28424 -0.0443,0.11682 -0.0707,0.2564 -0.16763,0.33527 -0.0632,0.0514 -0.18211,0.0525 -0.24435,0 -0.24156,-0.20385 -0.34467,-0.50724 -0.46029,-0.78419"
         id="path913" />
      <path
         style="fill:none;stroke:#000000;stroke-width:0.264583px;stroke-linecap:butt;stroke-linejoin:miter;stroke-opacity:1"
         d="m 126.65598,119.49141 c 0.42865,0.0413 0.8535,0.13695 1.28426,0.1591 0.0577,0.003 0.13064,-0.0355 0.0767,-0.009"
         id="path915" />
      <path
         style="fill:none;stroke:#000000;stroke-width:0.264583px;stroke-linecap:butt;stroke-linejoin:miter;stroke-opacity:1"
         d="m 126.96568,120.09943 c 0.12218,0.089 0.22438,0.21563 0.36653,0.26708 0.0829,0.03 0.17537,-0.0206 0.26139,-0.0398 0.16655,-0.0371 0.47255,-0.15218 0.6194,-0.1932 0.049,-0.0137 0.1004,-0.017 0.15059,-0.0256"
         id="path917" />
      <path
         style="fill:none;stroke:#000000;stroke-width:0.264583px;stroke-linecap:butt;stroke-linejoin:miter;stroke-opacity:1"
         d="m 128.42042,120.85236 c -0.13449,0.2273 -0.2505,0.4666 -0.40346,0.6819 -0.0994,0.13986 -0.23122,0.25358 -0.34948,0.37788 -0.34017,0.35755 -0.47403,0.49462 -0.83534,0.81544 -0.21411,0.19011 -0.51965,0.44463 -0.76714,0.58529 -0.13319,0.0757 -0.11191,0.0464 -0.12218,-0.0426"
         id="path919" />
      <path
         style="fill:none;stroke:#000000;stroke-width:0.264583px;stroke-linecap:butt;stroke-linejoin:miter;stroke-opacity:1"
         d="m 129.69616,119.50845 c 0.10039,-0.0502 0.19547,-0.11283 0.30117,-0.15058 0.1509,-0.0539 0.59447,-0.0411 0.67338,-0.0426 0.0909,-0.002 0.18316,0.01 0.27277,-0.006 0.48727,-0.0845 0.40816,0.009 0.53416,-0.18468"
         id="path921" />
      <path
         style="fill:none;stroke:#000000;stroke-width:0.264583px;stroke-linecap:butt;stroke-linejoin:miter;stroke-opacity:1"
         d="m 130.84971,117.81508 c -0.0152,0.18941 -0.0418,0.37826 -0.0455,0.56824 -0.006,0.29739 0.017,0.59472 0.017,0.89215 0,0.74765 -0.0449,1.30823 -0.0852,2.08547 -0.0185,0.35608 -0.0248,0.71295 -0.054,1.06831 -0.0267,0.32595 -0.061,0.65176 -0.11365,0.97454 -0.0195,0.1198 -0.0465,0.24169 -0.10229,0.34948 -0.0179,0.0346 -0.0712,0.0703 -0.10513,0.0511 -0.38059,-0.21538 -0.53366,-0.8393 -0.65633,-1.23594"
         id="path923" />
      <path
         style="fill:none;stroke:#000000;stroke-width:0.264583px;stroke-linecap:butt;stroke-linejoin:miter;stroke-opacity:1"
         d="m 129.33815,120.66768 c 0.004,-0.11081 -0.0532,-0.24227 0.0114,-0.33243 0.0363,-0.0506 0.11688,0.0463 0.16764,0.0824 0.0582,0.0414 0.56671,0.47437 0.80692,0.59098 0.0356,0.0173 0.0758,0.0227 0.11365,0.0341"
         id="path925" />
      <path
         style="fill:none;stroke:#000000;stroke-width:0.264583px;stroke-linecap:butt;stroke-linejoin:miter;stroke-opacity:1"
         d="m 132.80168,118.04806 c 0.0341,0.19225 0.0938,0.3817 0.10228,0.57677 0.02,0.45798 -0.023,0.91677 -0.017,1.37516 8e-4,0.0572 0.0121,0.11608 0.0369,0.16763 0.0131,0.0273 0,-0.0606 0,-0.0909 0,-0.18006 -0.0374,-0.53433 0.1307,-0.66769 0.15854,-0.12581 0.33878,-0.2225 0.51711,-0.31822 0.18936,-0.10164 0.47326,-0.21611 0.69328,-0.31538 0.21745,-0.0981 0.5756,-0.21132 0.72452,-0.4347"
         id="path927" />
      <path
         style="fill:none;stroke:#000000;stroke-width:0.264583px;stroke-linecap:butt;stroke-linejoin:miter;stroke-opacity:1"
         d="m 132.12545,120.76712 c 0.1161,0.17353 0.10822,0.38884 0.179,0.57677 0.006,0.0157 0.0252,0.0461 0.0369,0.0341 0.13129,-0.13435 0.16515,-0.5699 0.21594,-0.71883 0.0443,-0.12998 0.0942,-0.26087 0.17047,-0.37505 0.1218,-0.18228 0.39031,-0.38155 0.59099,-0.45744 0.38053,-0.14389 0.72383,-0.26971 1.11662,-0.11933 0.11947,0.0457 0.0273,0.23734 -0.009,0.2756 -0.23626,0.25274 -0.74954,0.49828 -0.99729,0.62791 -0.15262,0.0799 -0.56837,0.18872 -0.59951,0.39778 -0.002,0.0148 0.0222,0.023 0.0369,0.0256 0.0995,0.0176 0.20017,0.0365 0.30118,0.0341 0.25626,-0.006 0.72525,-0.0927 0.96603,-0.21593 0.24272,-0.12418 0.22159,-0.0737 0.24435,-0.21025"
         id="path929" />
      <path
         style="fill:none;stroke:#000000;stroke-width:0.264583px;stroke-linecap:butt;stroke-linejoin:miter;stroke-opacity:1"
         d="m 131.89247,121.87805 c -0.18728,0.40711 -0.37157,0.81739 -0.63077,1.18479 -0.13495,0.19129 -0.0854,0.13936 -0.23298,0.25003"
         id="path931" />
      <path
         style="fill:none;stroke:#000000;stroke-width:0.264583px;stroke-linecap:butt;stroke-linejoin:miter;stroke-opacity:1"
         d="m 131.82712,122.66223 c 0.46173,-0.34352 0.74849,0.37242 1.15356,0.38357 0.0832,0.002 0.13352,-0.13055 0.15911,-0.17616"
         id="path933" />
      <path
         style="fill:none;stroke:#000000;stroke-width:0.264583px;stroke-linecap:butt;stroke-linejoin:miter;stroke-opacity:1"
         d="m 133.40119,121.49448 c 0.40959,0.41778 0.2173,0.16053 0.50859,0.75009 0.0706,0.1429 0.14022,0.29011 0.22446,0.42618"
         id="path935" />
      <path
         style="fill:none;stroke:#000000;stroke-width:0.264583px;stroke-linecap:butt;stroke-linejoin:miter;stroke-opacity:1"
         d="m 134.46383,121.34389 c 0.0966,0.0502 0.21022,0.0763 0.28981,0.15059 0.22515,0.21013 0.36061,0.52054 0.42335,0.81544"
         id="path937" />
      <path
         style="fill:none;stroke:#000000;stroke-width:0.264583px;stroke-linecap:butt;stroke-linejoin:miter;stroke-opacity:1"
         d="m 138.49845,117.28945 c -0.35404,0.38775 -0.46702,0.46879 -0.73305,0.96886 -0.24377,0.45823 -0.35583,1.05557 -0.4404,1.54279 -0.14725,0.84833 -0.12239,1.58096 0.0938,2.41789 0.12876,0.49853 0.2954,0.66193 0.70464,1.02569 0.0307,0.0273 0.0814,0.0114 0.12218,0.017"
         id="path939" />
      <path
         style="fill:none;stroke:#000000;stroke-width:0.264583px;stroke-linecap:butt;stroke-linejoin:miter;stroke-opacity:1"
         d="m 140.78853,121.95192 c -0.0976,0.0199 -0.19314,0.0626 -0.29266,0.0597 -0.0971,-0.003 -0.18827,-0.0485 -0.28128,-0.0767 -0.13108,-0.0397 -0.2835,-0.0896 -0.38358,-0.19036 -0.0915,-0.0921 -0.18028,-0.19243 -0.23582,-0.3097 -0.13034,-0.27514 -0.2031,-0.64634 -0.13923,-0.95181 0.0571,-0.27325 0.13325,-0.54616 0.25288,-0.79839 0.0922,-0.19448 0.23377,-0.36324 0.37505,-0.52563 0.12624,-0.14511 0.25506,-0.29894 0.42335,-0.39209 0.1972,-0.10916 0.91758,-0.40328 1.15356,-0.0341 0.17074,0.26712 0.22874,0.60947 0.21594,0.92624 -0.0308,0.76235 -0.57335,1.44794 -1.26722,1.71042 -0.15453,0.0585 -0.31523,0.10159 -0.47733,0.13354 -0.0376,0.007 -0.0842,0.007 -0.11365,-0.017 -0.0767,-0.0637 -0.14069,-0.14497 -0.18753,-0.23298 -0.0187,-0.0351 0,-0.0795 0,-0.11933"
         id="path941" />
      <path
         style="fill:none;stroke:#000000;stroke-width:0.264583px;stroke-linecap:butt;stroke-linejoin:miter;stroke-opacity:1"
         d="m 142.9479,121.33537 c 0.003,0.0862 0.0435,0.17972 0.009,0.25855 -0.0559,0.12605 -0.17198,0.21577 -0.26424,0.31822 -0.18794,0.2087 -0.4079,0.38211 -0.6194,0.56541"
         id="path943" />
      <path
         style="fill:none;stroke:#000000;stroke-width:0.264583px;stroke-linecap:butt;stroke-linejoin:miter;stroke-opacity:1"
         d="m 145.57325,121.40924 c -0.17522,0.0559 -0.34266,0.14917 -0.52564,0.16763 -0.33066,0.0334 -0.59434,-0.13783 -0.68475,-0.44891 -0.11137,-0.3832 -0.18386,-0.84229 -0.12218,-1.24446 0.0401,-0.26112 0.0584,-0.54344 0.19889,-0.76714 0.15974,-0.25431 0.40173,-0.46327 0.66486,-0.60802 0.1805,-0.0993 0.40494,-0.0883 0.61088,-0.0938 0.35746,-0.009 0.59299,0.15359 0.68475,0.5512 0.10245,0.44396 -0.22265,0.96003 -0.43188,1.29276 -0.3031,0.482 -0.50658,0.6954 -0.88079,1.09388 -0.0776,0.0826 -0.14967,0.15412 -0.27277,0.16763 -0.0258,0.003 -0.0436,-0.0284 -0.0653,-0.0426"
         id="path945" />
      <path
         style="fill:none;stroke:#000000;stroke-width:0.264583px;stroke-linecap:butt;stroke-linejoin:miter;stroke-opacity:1"
         d="m 147.45986,117.80655 c 0.21511,0.63948 0.47665,1.27237 0.58246,1.94341 0.0309,0.19575 0.0525,0.39712 0.0284,0.59382 -0.0361,0.29481 -0.0991,0.59 -0.20741,0.86658 -0.15545,0.39708 -0.34425,0.57478 -0.59951,0.85805"
         id="path947" />
    </g>
    <path
       style="fill:none;stroke:#000000;stroke-width:0.253556px;stroke-linecap:butt;stroke-linejoin:miter;stroke-opacity:1"
       d="M 143.25106,95.006229 68.415596,169.8417"
       id="path469" />
    <path
       style="fill:none;stroke:#000000;stroke-width:0.253556px;stroke-linecap:butt;stroke-linejoin:miter;stroke-opacity:1"
       d="M 68.415592,95.006233 143.25106,169.8417"
       id="path471" />
    <path
       style="fill:none;fill-opacity:0.2;stroke:#000000;stroke-width:0.264583"
       d="m 162.57226,126.14876 c -0.42393,0.51163 -0.97439,0.94072 -1.2718,1.53489 -1.036,2.06965 -1.57335,5.02856 -0.74613,7.30739 0.0526,0.14484 0.68196,2.20292 0.81396,2.06876 0.18369,-0.18671 -0.37304,-0.36899 -0.57655,-0.53388"
       id="path1" />
    <path
       style="fill:none;fill-opacity:0.2;stroke:#000000;stroke-width:0.264583"
       d="m 162.69096,130.8702 c 0.70241,-0.33642 3.45544,0.35007 2.28924,-0.36704"
       id="path2" />
    <path
       style="fill:none;fill-opacity:0.2;stroke:#000000;stroke-width:0.264583"
       d="m 167.43902,126.78273 c 0.0509,0.39485 0.18938,0.78813 0.15261,1.18454 -0.22391,2.41406 -1.1531,4.84797 -1.1531,7.2907 0,0.0389 -0.006,-0.0784 0,-0.11678 0.0504,-0.31247 0.11305,-0.62285 0.16958,-0.93428"
       id="path3" />
    <path
       style="fill:none;fill-opacity:0.2;stroke:#000000;stroke-width:0.264583"
       d="m 169.55869,134.75747 c -0.26596,-1.67983 -0.23611,-1.9579 0,0 z"
       id="path6" />
    <path
       style="fill:none;fill-opacity:0.2;stroke:#000000;stroke-width:0.264583"
       d="m 173.03494,129.16848 c -0.12256,-0.71574 1.54933,-2.96202 2.13663,-1.36805 0.53748,1.45877 -0.81789,3.42318 -1.71269,4.43782 -0.3072,0.34834 -0.69334,0.69832 -1.08527,0.95096 -0.0511,0.033 -0.21119,0.0836 -0.15262,0.1001 0.18373,0.0516 3.5915,-0.19104 3.71366,-0.3003 0.24467,-0.21884 -0.20905,-0.62802 -0.30523,-0.71739"
       id="path7" />
    <path
       style="fill:none;fill-opacity:0.2;stroke:#000000;stroke-width:0.264583"
       d="m 178.39347,132.07142 c -0.42376,1.49708 -1.17513,2.23718 -2.57752,2.86957"
       id="path8" />
    <path
       style="fill:none;fill-opacity:0.2;stroke:#000000;stroke-width:0.264583"
       d="m 182.66672,133.53957 c -1.22458,-0.82908 -1.57306,-1.88704 -1.40746,-3.35339 0.38093,-3.37306 4.7816,-3.48506 3.96802,0.51719 -0.0315,0.15483 -0.59241,2.01715 -0.81396,2.16886 -2.35212,1.61064 -4.26037,-0.10541 -3.91714,-2.46917"
       id="path9" />
    <path
       style="fill:none;fill-opacity:0.2;stroke:#000000;stroke-width:0.264583"
       d="m 188.58483,125.88182 c 3.48546,4.56439 -0.40352,7.1024 -3.96802,10.12691"
       id="path10" />
    <path
       style="fill:none;fill-opacity:0.2;stroke:#000000;stroke-width:0.264583"
       d="m 147.29369,86.825644 c -1.4586,1.774794 -2.88663,3.873277 -2.25533,6.273013 0.18792,0.714326 0.68834,1.434167 0.83091,2.135493 0.0283,0.139441 -0.28507,-0.019 -0.42393,-0.05005"
       id="path11" />
    <path
       style="fill:none;fill-opacity:0.2;stroke:#000000;stroke-width:0.264583"
       d="m 147.34456,91.463669 c 0.11917,0.268798 4.63201,0.02388 2.73013,-0.350354"
       id="path12" />
    <path
       style="fill:none;fill-opacity:0.2;stroke:#000000;stroke-width:0.264583"
       d="m 154.0088,92.431315 c -2.81832,-0.148171 -0.50329,-5.013152 0.98352,-4.888279 1.45302,0.122035 1.36056,2.982124 0.66134,3.753798 -0.44723,0.493571 -1.09657,0.756321 -1.64486,1.134481 z"
       id="path13" />
    <path
       style="fill:none;fill-opacity:0.2;stroke:#000000;stroke-width:0.264583"
       d="m 158.29901,92.331214 c 0,-1.22346 0,-1.22346 0,0 z"
       id="path15" />
    <path
       style="fill:none;fill-opacity:0.2;stroke:#000000;stroke-width:0.264583"
       d="m 159.19775,91.697237 c 0.38411,2.267461 2.82202,4.460365 3.78148,1.368051 0.42015,-1.354113 0.51495,-3.404209 -1.3905,-3.169874 -0.14481,0.01781 -1.16621,0.456449 -1.18701,0.08342 -0.0424,-0.76062 0.20972,-1.382904 0.44089,-2.085443 0.14315,-0.435045 0.29393,-0.867544 0.44089,-1.301317 0.7513,-0.170694 5.40428,-1.050225 3.47625,-0.734076"
       id="path16" />
    <path
       style="fill:none;fill-opacity:0.2;stroke:#000000;stroke-width:0.264583"
       d="m 168.45646,87.059214 c 1.24576,-4.109935 -2.68646,-1.396157 -2.62839,0.917595 0.022,0.878562 2.40803,-1.130783 2.62839,-0.917595 0.36943,0.35741 -2.60903,5.609752 -2.81492,6.006076"
       id="path17" />
    <path
       style="fill:none;fill-opacity:0.2;stroke:#000000;stroke-width:0.264583"
       d="m 174.22196,87.543036 c 1.31379,-2.825912 -2.24608,-2.588115 -2.89971,-0.750759 -0.46651,1.311372 2.85712,-0.998473 2.89971,0.750759 0.006,0.255119 -2.8053,5.310911 -3.03537,5.772507 -0.47856,0.960125 -0.81486,1.728147 -0.84787,1.718405 -0.0835,-0.02466 0.26285,-1.408598 0.35611,-1.801823"
       id="path18" />
    <path
       style="fill:none;fill-opacity:0.2;stroke:#000000;stroke-width:0.264583"
       d="m 175.32419,92.431315 c -0.20775,1.377384 -1.08605,2.786153 -2.61144,2.786153"
       id="path19" />
    <path
       style="fill:none;fill-opacity:0.2;stroke:#000000;stroke-width:0.264583"
       d="m 178.59695,85.741214 c 0.27455,2.050469 0.2407,5.18307 0.10175,6.823569"
       id="path20" />
    <path
       style="fill:none;fill-opacity:0.2;stroke:#000000;stroke-width:0.264583"
       d="m 180.73358,91.897442 c 0.33915,-0.211325 0.62173,-0.578358 1.01744,-0.633975 0.17592,-0.02473 0.26909,0.998714 0.1187,0.984329 -0.39451,-0.03774 -0.75743,-0.23357 -1.13614,-0.350354 z"
       id="path21" />
    <path
       style="fill:none;fill-opacity:0.2;stroke:#000000;stroke-width:0.264583"
       d="m 186.12601,85.340809 c -1.15284,1.648746 -1.67804,3.506221 -1.57703,5.522253 0.0122,0.243743 0.42464,1.937268 0.84787,1.584936 0.70898,-0.590219 1.19903,-1.737746 0.86482,-2.669367 -0.39435,-1.099304 -2.83336,-0.216398 -1.81443,-0.550556"
       id="path22" />
    <path
       style="fill:none;fill-opacity:0.2;stroke:#000000;stroke-width:0.264583"
       d="m 188.02524,86.792277 c 0.61046,-0.194641 1.20287,-0.45936 1.83139,-0.583924 0.89841,-0.178052 1.49187,1.032253 1.30572,1.751772 -0.22532,0.870867 -0.68571,1.609887 -1.22093,2.319013 -0.29317,0.388419 -1.12661,1.029163 -1.10223,1.101114 0.0341,0.100588 2.46392,-0.484939 2.91667,-0.583924"
       id="path23" />
    <path
       style="fill:none;fill-opacity:0.2;stroke:#000000;stroke-width:0.264583"
       d="m 194.97775,85.574378 c -0.69731,1.089617 -1.12477,1.679749 -1.6279,3.069772 -0.28903,0.798512 -0.48785,1.631503 -0.62743,2.469165 -0.29553,1.773611 3.36029,0.713785 2.57752,-0.80081 -0.38899,-0.752653 -3.42854,0.362771 -3.30668,-0.116785"
       id="path24" />
    <path
       style="fill:none;fill-opacity:0.2;stroke:#000000;stroke-width:0.264583"
       d="m 197.55527,85.073872 c 0.40697,0.467139 0.89194,0.876428 1.22093,1.401418 1.23868,1.976645 -1.88053,6.416491 -3.01841,7.62438"
       id="path25" />
    <path
       style="fill:none;fill-opacity:0.2;stroke:#000000;stroke-width:0.264583"
       d="m 78.887749,69.725011 c -1.214999,2.94829 -1.657887,4.076068 -0.203489,7.057139 0.400688,0.821292 0.504688,1.473572 1.2718,1.885241"
       id="path26" />
    <path
       style="fill:none;fill-opacity:0.2;stroke:#000000;stroke-width:0.264583"
       d="m 83.551017,74.94696 c -0.786231,-0.177704 -1.2261,-0.198428 -1.882265,-0.550556 -2.224259,-1.193644 2.181551,-5.043136 2.865793,-2.369064 0.143809,0.562021 0.32086,1.185317 0.135657,1.735089 -0.595239,1.766983 -2.906848,1.527843 -3.069278,-0.150152"
       id="path27" />
    <path
       style="fill:none;fill-opacity:0.2;stroke:#000000;stroke-width:0.264583"
       d="m 85.721558,75.364049 c -0.09044,1.201215 -0.09044,1.201215 0,0 z"
       id="path28" />
    <path
       style="fill:none;fill-opacity:0.2;stroke:#000000;stroke-width:0.264583"
       d="m 92.521456,72.110758 c -0.241287,-1.670533 -1.129118,-2.754982 -2.865792,-2.002025 -0.309436,0.134159 -0.44976,0.338567 -0.406977,0.717392 0.193304,1.711653 3.231888,3.04921 3.815403,4.771494 0.361217,1.066155 -2.762065,0.144239 -3.120152,-0.100102 -0.721855,-0.492557 -0.541637,-1.936735 0.13566,-2.40243 0.723148,-0.497223 1.814359,-0.370798 2.441858,-0.984329 0.407445,-0.398378 0.121623,-1.140112 0.288274,-1.685038 0.04091,-0.133771 0.564195,-0.266937 0.169574,-0.266937"
       id="path29" />
    <path
       style="fill:none;fill-opacity:0.2;stroke:#000000;stroke-width:0.264583"
       d="m 94.725911,67.706302 c 1.390656,1.34779 -0.984062,3.100567 -0.322191,4.487874 0.265364,0.556212 2.297129,0.423363 3.035366,1.418101 0.439624,0.592372 -0.173733,1.29586 -0.695251,1.518202 -1.432507,0.61073 -3.227818,-0.305576 -4.29021,-1.251266"
       id="path30" />
    <path
       style="fill:none;fill-opacity:0.2;stroke:#000000;stroke-width:0.264583"
       d="m 93.725426,69.825112 c 2.045129,-0.749188 1.05895,-0.50623 3.103195,-0.817493 0.446358,-0.06796 0.892601,-0.136807 1.339631,-0.200203 0.238191,-0.03378 0.712208,-0.357358 0.712208,-0.116785 0,0.02199 -0.32358,0.239533 -0.339146,0.250253"
       id="path31" />
    <path
       style="fill:none;fill-opacity:0.2;stroke:#000000;stroke-width:0.264583"
       d="m 101.37319,72.494479 c -0.39759,1.612029 -1.974234,2.604518 -3.12015,3.703747"
       id="path32" />
    <path
       style="fill:none;fill-opacity:0.2;stroke:#000000;stroke-width:0.264583"
       d="m 104.12028,69.057669 c 1.34726,-2.530563 3.73945,-1.292878 3.54409,1.318 -0.077,1.028677 -0.97432,2.689229 -1.37355,3.38676 -0.532,0.929502 -1.34872,1.81077 -2.10271,2.552582 -0.13699,0.134776 -0.60209,0.477333 -0.45785,0.350354 1.22881,-1.081705 2.73048,-1.772222 4.1376,-2.585949 1.12051,-0.64799 1.43746,-0.834177 1.28875,-0.834177 -0.23588,0 -0.30132,0.0483 -0.49176,0.133468"
       id="path33" />
    <path
       style="fill:none;fill-opacity:0.2;stroke:#000000;stroke-width:0.264583"
       d="m 110.90322,73.478809 c -0.13566,-0.311427 -0.0956,-1.069938 -0.40697,-0.934279 -0.31143,0.135659 0.27131,0.622852 0.40697,0.934279 z"
       id="path34" />
    <path
       style="fill:none;fill-opacity:0.2;stroke:#000000;stroke-width:0.264583"
       d="m 112.90419,68.740682 c 0.3448,-0.05561 0.68528,-0.156928 1.0344,-0.166836 2.97756,-0.0845 0.41054,2.245478 0.16957,2.986355 -0.002,0.0068 1.9751,1.285905 1.45833,2.235595 -0.23366,0.429423 -0.50556,0.852967 -0.86483,1.184532 -0.58237,0.537482 -2.71006,1.632332 -3.34059,0.667341"
       id="path35" />
    <path
       style="fill:none;fill-opacity:0.2;stroke:#000000;stroke-width:0.264583"
       d="m 117.94052,66.972226 c 1.7455,1.492816 2.89407,4.309871 1.96705,6.59 -0.67606,1.662869 -1.45148,2.095564 -2.69622,3.136507"
       id="path36" />
    <path
       style="fill:none;fill-opacity:0.2;stroke:#000000;stroke-width:0.264583"
       d="m 26.591288,83.60572 c -0.365048,0.950564 -0.862052,1.842693 -1.203973,2.802835 -0.674855,1.895044 -1.080895,3.905121 -0.847868,5.922659 0.113342,0.981307 0.318436,1.725762 0.695251,2.619316 0.0045,0.01074 0.607176,1.040278 0.406977,0.383722"
       id="path37" />
    <path
       style="fill:none;fill-opacity:0.2;stroke:#000000;stroke-width:0.264583"
       d="m 27.116965,87.926758 c 2.912157,-3.589289 3.161935,-0.05608 2.323155,2.519215 -0.320048,0.982649 -0.910928,1.893257 -1.492245,2.736101 -0.09124,0.132281 0.328354,-0.01728 0.474806,-0.08342 0.409204,-0.184799 3.771969,-1.62401 3.391469,-2.185545"
       id="path38" />
    <path
       style="fill:none;fill-opacity:0.2;stroke:#000000;stroke-width:0.264583"
       d="m 34.154265,89.928783 c -0.906706,-2.307138 -0.346742,-1.256837 0,0 z"
       id="path39" />
    <path
       style="fill:none;fill-opacity:0.2;stroke:#000000;stroke-width:0.264583"
       d="m 36.002615,85.607745 c 3.715486,-1.411326 1.076915,4.538299 0.288274,5.822557 -0.257169,0.418789 -0.540676,0.821306 -0.83091,1.217899 -0.117293,0.160279 -0.336053,0.259315 -0.390017,0.450456 -0.08768,0.310539 0.567287,-0.307772 0.847865,-0.46714 0.888973,-0.504934 1.782328,-0.968533 2.69622,-1.418101"
       id="path40" />
    <path
       style="fill:none;fill-opacity:0.2;stroke:#000000;stroke-width:0.264583"
       d="m 43.379061,86.909062 c -0.243969,-5.080953 -4.918885,-0.5798 -4.069763,1.334683 0.583944,1.316598 3.780314,-4.437232 4.069763,-1.334683 0.09394,1.006929 -0.583179,1.936723 -0.881782,2.902937 -0.289462,0.936636 -1.616887,5.118547 -1.390502,3.336709"
       id="path41" />
    <path
       style="fill:none;fill-opacity:0.2;stroke:#000000;stroke-width:0.264583"
       d="m 47.058807,86.124935 c 0.806397,-2.213601 -4.065532,-0.73462 -3.238855,0 0.52128,0.46323 3.115731,-0.732576 3.238855,0 0.120756,0.718497 -0.686078,1.289417 -0.949614,1.968659 -0.571701,1.473516 -0.556929,3.339213 -1.644861,4.587974"
       id="path42" />
    <path
       style="fill:none;fill-opacity:0.2;stroke:#000000;stroke-width:0.264583"
       d="m 48.127118,92.247796 c -0.07348,-0.311426 -0.144394,-0.62347 -0.220446,-0.934278 -0.07605,-0.310809 0.326702,0.632458 0.220446,0.934278 -0.635344,1.804685 -2.158384,3.096114 -3.561043,4.270988"
       id="path43" />
    <path
       style="fill:none;fill-opacity:0.2;stroke:#000000;stroke-width:0.264583"
       d="m 50.975953,84.439897 c 0.460578,2.412426 0.184422,4.601535 -0.152617,6.973722 -0.184402,1.297883 -0.169572,1.392244 -0.169572,0.784127"
       id="path44" />
    <path
       style="fill:none;fill-opacity:0.2;stroke:#000000;stroke-width:0.264583"
       d="m 57.402788,83.305416 c -0.697688,1.353235 -1.262105,2.302701 -1.763565,3.67038 -0.276502,0.754129 -0.552582,1.510498 -0.763079,2.285646 -0.185904,0.684572 -0.309176,1.385422 -0.423934,2.085443 -0.0598,0.364774 -0.338799,1.711196 0.25436,1.968658 0.324046,0.140653 0.596109,-0.415796 0.780036,-0.717393 0.175988,-0.288573 0.499269,-1.144436 0.610466,-1.451468 0.323561,-0.893394 0.430143,-1.060759 -0.576549,-1.017696 -0.546319,0.02337 -0.955532,0.02123 -1.47529,0.200202"
       id="path45" />
    <path
       style="fill:none;fill-opacity:0.2;stroke:#000000;stroke-width:0.264583"
       d="m 51.399887,91.430302 c 0.09609,-0.305865 0.59414,-0.821503 0.288274,-0.917595 -0.305864,-0.09609 -0.192183,0.61173 -0.288274,0.917595 z"
       id="path46" />
    <path
       style="fill:none;fill-opacity:0.2;stroke:#000000;stroke-width:0.264583"
       d="m 57.572362,87.259416 c 0.192183,-0.316987 0.326176,-0.677596 0.576548,-0.950962 0.372713,-0.406942 2.987503,-1.994358 2.662304,-0.333671 -0.281202,1.436008 -1.222767,2.677382 -2.085753,3.803848 -0.327903,0.428015 -0.836395,0.708778 -1.119185,1.167849 -0.107085,0.173835 0.407586,0.07299 0.610465,0.05005 0.645549,-0.073 4.106244,-0.544928 3.204938,-1.685038"
       id="path47" />
    <path
       style="fill:none;fill-opacity:0.2;stroke:#000000;stroke-width:0.264583"
       d="m 63.59222,83.488935 c -0.961982,2.644493 -0.23496,0.537024 -0.949611,2.86957 -0.225504,0.736019 -0.490127,1.460271 -0.695253,2.202228 -0.179528,0.649373 -0.316873,1.30984 -0.457848,1.968658 -0.581933,2.71955 0.844671,1.251137 1.678778,0 1.051753,-1.577601 2.589337,-3.296055 -0.356105,-2.886253 -0.342352,0.04763 -0.683104,0.112486 -1.017439,0.200202 -0.353404,0.09272 -0.669865,0.29646 -0.983528,0.483823"
       id="path48" />
    <path
       style="fill:none;fill-opacity:0.2;stroke:#000000;stroke-width:0.264583"
       d="m 65.677973,83.188631 c 3.418388,4.226858 1.178729,7.676174 -3.103195,10.110228"
       id="path49" />
    <path
       style="fill:none;fill-opacity:0.2;stroke:#000000;stroke-width:0.264583"
       d="m 19.130054,126.34896 c -0.878245,2.25564 -1.754511,4.51361 -2.577518,6.7902 -0.165891,0.4589 -0.426715,0.89916 -0.474806,1.38474 -0.182777,1.84559 0.699739,3.79401 2.764049,3.40344"
       id="path50" />
    <path
       style="fill:none;fill-opacity:0.2;stroke:#000000;stroke-width:0.264583"
       d="m 19.757476,130.82015 c -0.03293,-0.54967 2.376017,-3.77316 3.272769,-2.26896 1.07483,1.80291 -0.786924,4.37584 -1.763565,5.75582 -0.605819,0.85601 -1.204087,1.37522 -1.034399,1.35137 1.031841,-0.14503 2.169507,-0.88011 3.086238,-1.33468 0.586441,-0.2908 2.188715,-0.80081 0.966568,-0.80081"
       id="path51" />
    <path
       style="fill:none;fill-opacity:0.2;stroke:#000000;stroke-width:0.264583"
       d="m 26.794774,133.65635 c -0.421556,-2.35817 -0.253196,-1.99286 0,0 z"
       id="path52" />
    <path
       style="fill:none;fill-opacity:0.2;stroke:#000000;stroke-width:0.264583"
       d="m 32.526358,128.35099 c -0.02681,-5.34841 -4.559649,1.15569 -3.883232,2.78615 0.152826,0.36838 0.879306,0.10357 1.187014,-0.15015 2.100075,-1.73165 3.24499,-4.4709 2.560561,-0.95097 -0.400579,2.06012 -1.199105,4.39488 -2.153584,6.27302 -0.0941,0.18515 -0.06478,-0.41057 -0.08479,-0.6173"
       id="path53" />
    <path
       style="fill:none;fill-opacity:0.2;stroke:#000000;stroke-width:0.264583"
       d="m 34.442539,133.80651 c -1.4297,-2.8044 0.02347,-1.70773 0,0 -0.02998,2.18263 -0.616759,2.75417 -2.323158,3.57027"
       id="path54" />
    <path
       style="fill:none;fill-opacity:0.2;stroke:#000000;stroke-width:0.264583"
       d="m 40.903289,131.72106 c -1.142865,0.10933 -2.145478,0.1002 -2.272284,-1.28463 -0.153004,-1.67089 0.944753,-4.15617 2.289241,-5.18858 1.133665,-0.87053 2.724145,0.0377 2.611432,1.48483 -0.08198,1.05259 -0.287885,2.13572 -0.780039,3.06978 -0.521052,0.98889 -4.865947,5.44448 -4.22238,1.50151 0.106381,-0.65177 0.292378,-1.28813 0.423934,-1.93529"
       id="path55" />
    <path
       style="fill:none;fill-opacity:0.2;stroke:#000000;stroke-width:0.264583"
       d="m 45.447857,123.61286 c 0.3448,0.28362 0.779174,0.48454 1.034399,0.85086 0.244689,0.3512 0.284379,0.8078 0.406977,1.2179 0.768569,2.57094 1.300863,5.52247 -0.610465,7.77453 -1.170589,1.37927 -2.025733,1.8938 -3.391469,2.86957"
       id="path56" />
    <path
       style="fill:none;fill-opacity:0.2;stroke:#000000;stroke-width:0.264583"
       d="m 18.977437,169.34767 c -0.440891,0.42821 -0.908296,0.83071 -1.322674,1.28463 -1.184301,1.29732 -2.874391,9.85083 -1.916178,10.94441 0.173246,0.19772 0.239895,-0.47569 0.288274,-0.73408"
       id="path57" />
    <path
       style="fill:none;fill-opacity:0.2;stroke:#000000;stroke-width:0.264583"
       d="m 17.586935,174.86992 c 0.0513,-0.77652 1.965693,-3.58007 2.848835,-2.03539 0.887717,1.55268 -0.31699,3.80506 -1.085271,5.10516 -0.368736,0.62399 -0.800431,1.04825 -0.796996,1.05107 0.163774,0.13427 0.389017,-0.16854 0.576551,-0.26694 0.259241,-0.13603 5.1787,-3.13534 3.527128,-2.05207"
       id="path58" />
    <path
       style="fill:none;fill-opacity:0.2;stroke:#000000;stroke-width:0.264583"
       d="m 24.709021,176.78853 c -0.339283,-1.31623 -0.114149,-2.02152 0,0 z"
       id="path59" />
    <path
       style="fill:none;fill-opacity:0.2;stroke:#000000;stroke-width:0.264583"
       d="m 27.557856,172.21724 c 0.401322,0.26137 0.911087,0.40518 1.20397,0.78412 0.166786,0.2158 0.07103,0.5473 0.03392,0.8175 -0.255956,1.86349 -1.055526,3.1637 -2.136624,4.67139 -0.277832,0.38746 -0.746726,0.6454 -0.932654,1.08443 -0.04616,0.10899 0.167571,-0.12227 0.864825,-0.56724 1.055322,-0.67348 2.488076,-1.72196 3.628872,-2.05207"
       id="path60" />
    <path
       style="fill:none;fill-opacity:0.2;stroke:#000000;stroke-width:0.264583"
       d="m 34.205137,174.13585 c 0.08617,-3.12471 -1.786623,-4.36443 -3.187984,-0.9176 -0.180604,0.44423 -0.362013,0.90602 -0.390017,1.38473 -0.173685,2.96905 2.673051,-2.58879 3.578001,-0.46713 0.228237,0.5351 -0.439873,1.07881 -0.610466,1.63498 -0.357126,1.16431 -0.28658,3.22711 -1.695735,3.6537"
       id="path61" />
    <path
       style="fill:none;fill-opacity:0.2;stroke:#000000;stroke-width:0.264583"
       d="m 38.003582,173.73544 c 0.188966,-0.69431 0.914935,-4.15826 -0.746125,-3.80385 -0.88048,0.18787 -3.030233,3.74383 -2.000964,3.954 1.251318,0.25552 2.469512,-2.15218 3.120152,-2.15218 0.2253,0 0.01976,0.61237 -0.373063,2.00203 -0.05487,0.19413 -1.960779,7.05316 -2.611432,5.38878"
       id="path62" />
    <path
       style="fill:none;fill-opacity:0.2;stroke:#000000;stroke-width:0.264583"
       d="m 39.309298,177.45587 c -0.464944,-3.53538 0.173509,0.85066 -0.118702,1.58494 -0.577165,1.45031 -2.059964,2.50961 -3.323641,3.28666"
       id="path63" />
    <path
       style="fill:none;fill-opacity:0.2;stroke:#000000;stroke-width:0.264583"
       d="m 41.310266,174.95334 c 1.251164,0.0521 2.522675,-0.0359 3.6967,-0.51719 0.607229,-0.24893 0.01452,-0.33653 -0.169572,-0.3003"
       id="path64" />
    <path
       style="fill:none;fill-opacity:0.2;stroke:#000000;stroke-width:0.264583"
       d="m 47.007933,170.16516 c 0.384839,2.6496 0.812869,6.56835 -0.695251,8.94238"
       id="path65" />
    <path
       style="fill:none;fill-opacity:0.2;stroke:#000000;stroke-width:0.264583"
       d="m 48.228863,178.69045 c 0.971008,-1.54509 0.105363,-2.20522 0.89874,-1.03438"
       id="path66" />
    <path
       style="fill:none;fill-opacity:0.2;stroke:#000000;stroke-width:0.264583"
       d="m 53.485639,170.86587 c -0.356102,0.18908 -0.783746,0.28161 -1.06831,0.56724 -1.094394,1.09848 -2.377901,6.07813 -2.017925,7.64107 0.112012,0.48633 0.477301,0.94603 0.915697,1.18453 0.585896,0.31873 1.634741,-2.56119 1.475287,-3.2533 -0.09291,-0.40328 -1.593307,-0.5271 -2.017924,-0.8008"
       id="path67" />
    <path
       style="fill:none;fill-opacity:0.2;stroke:#000000;stroke-width:0.264583"
       d="m 54.45221,173.43514 c 0.37306,-0.40597 0.703292,-0.85594 1.119185,-1.2179 0.755377,-0.65743 1.638707,-0.27381 1.475287,0.76744 -0.263678,1.68007 -1.074779,3.10651 -2.051838,4.47119 -0.24996,0.34913 -0.537824,0.67053 -0.830911,0.98433 -0.119285,0.12772 -0.558255,0.30306 -0.390017,0.35036 0.143656,0.0404 2.499241,-0.98122 2.865792,-1.13449 0.427559,-0.17878 0.81094,-0.33968 1.170057,-0.61729"
       id="path68" />
    <path
       style="fill:none;fill-opacity:0.2;stroke:#000000;stroke-width:0.264583"
       d="m 61.506465,170.86587 c -1.075621,1.31686 -4.095197,6.54348 -2.374027,8.04147 0.846749,0.73695 2.416556,-2.4986 2.085753,-3.13651 -0.674061,-1.29982 -2.541056,2.11884 -2.74709,-0.58392"
       id="path69" />
    <path
       style="fill:none;fill-opacity:0.2;stroke:#000000;stroke-width:0.264583"
       d="m 62.863055,169.81481 c 2.807452,2.76663 1.843646,7.65215 -0.254362,10.6441 -0.410226,0.58502 -1.19832,0.77857 -1.797479,1.16785"
       id="path70" />
    <path
       style="fill:none;fill-opacity:0.2;stroke:#000000;stroke-width:0.264583"
       d="m 83.174306,187.43263 c -0.625123,0.48084 -0.930593,0.56423 -1.254842,1.18453 -0.69858,1.33642 -1.93779,8.26876 -0.610465,9.05917 0.41666,0.24811 0.647416,-0.64404 0.729165,-0.85086"
       id="path91" />
    <path
       style="fill:none;fill-opacity:0.2;stroke:#000000;stroke-width:0.264583"
       d="m 85.344847,194.03931 c -0.423934,0.11679 -0.885066,0.55963 -1.271802,0.35036 -1.47261,-0.79686 -0.760465,-6.24064 0.542637,-2.636 0.27188,0.75208 0.486111,1.52376 0.729165,2.28564 z"
       id="path92" />
    <path
       style="fill:none;fill-opacity:0.2;stroke:#000000;stroke-width:0.264583"
       d="m 92.11083,190.61919 c 0.971855,-0.79386 -0.789201,-3.03651 -1.678778,-1.58494 -1.334284,2.17723 3.567282,3.65756 1.916181,5.70577 -0.313378,0.38875 -0.857496,0.8234 -1.356588,0.93428 -0.530203,0.11779 -0.468921,-1.69718 -0.288276,-2.11881 0.427453,-0.99768 0.938307,-1.95753 1.407461,-2.9363 z"
       id="path93" />
    <path
       style="fill:none;fill-opacity:0.2;stroke:#000000;stroke-width:0.264583"
       d="m 86.260543,195.12375 c 0.599298,1.42761 0.33468,-2.34283 0.78004,-2.00203 0.136755,0.10465 0.147132,0.50786 0.101743,0.60061 -0.242605,0.49573 -0.587854,0.93428 -0.881783,1.40142 z"
       id="path94" />
    <path
       style="fill:none;fill-opacity:0.2;stroke:#000000;stroke-width:0.264583"
       d="m 95.502299,187.98319 c 0.05652,0.62841 0.133104,1.25534 0.169574,1.88524 0.02418,0.41748 -0.239339,1.36002 -0.01696,1.73509 0.405254,0.6835 1.721053,0.7762 1.390504,1.95197 -0.399862,1.42231 -1.893382,2.54805 -3.374512,2.08544 -0.564859,-0.17642 -1.252405,-0.94856 -1.644864,-1.33468"
       id="path95" />
    <path
       style="fill:none;fill-opacity:0.2;stroke:#000000;stroke-width:0.264583"
       d="m 93.976138,189.15104 c -1.082892,-0.0776 5.215731,-1.76862 4.256294,-0.66735"
       id="path96" />
    <path
       style="fill:none;fill-opacity:0.2;stroke:#000000;stroke-width:0.264583"
       d="m 100.57255,193.27187 c 0.56548,0.9024 -0.728586,1.54516 -0.576554,1.1178 0.737324,-2.07261 0.627454,-0.92347 0.746124,0.43377 0.001,0.0165 -0.11294,-0.10094 -0.1187,-0.16683 -0.0402,-0.46014 0.3831,-1.54287 -0.0509,-1.38474 -0.50238,0.18306 -0.19379,1.06122 -0.40698,1.55157 -0.491699,1.13095 -1.441468,2.16187 -2.323158,3.00304"
       id="path97" />
    <path
       style="fill:none;fill-opacity:0.2;stroke:#000000;stroke-width:0.264583"
       d="m 103.31964,192.27086 c 0.30593,-0.0643 2.93934,0.61207 2.781,-0.16684"
       id="path98" />
    <path
       style="fill:none;fill-opacity:0.2;stroke:#000000;stroke-width:0.264583"
       d="m 109.37341,188.65053 c 2.3884,-0.92297 2.48916,1.71489 1.56007,3.28666 -0.82497,1.39565 -1.53098,1.46693 -2.22141,2.48585 -0.0254,0.0374 0.28495,0.006 1.18702,-0.16684 0.84212,-0.1611 1.76095,-0.26212 2.59447,-0.46714 0.1705,-0.0419 -0.35415,0.004 -0.52568,-0.0334"
       id="path99" />
    <path
       style="fill:none;fill-opacity:0.2;stroke:#000000;stroke-width:0.264583"
       d="m 114.08755,194.10605 c 0.21961,-1.98913 0.46227,-1.8671 0,0 z"
       id="path100" />
    <path
       style="fill:none;fill-opacity:0.2;stroke:#000000;stroke-width:0.264583"
       d="m 118.42863,187.89977 c 0.53133,-0.15571 1.05042,-0.36186 1.59399,-0.46714 1.35637,-0.26269 0.47652,1.29463 0.0848,1.73509 -0.63631,0.71547 -1.29896,1.08714 -1.20397,1.16785 1.31809,1.11997 -1.36634,-2.43144 1.61095,1.33468 1.46922,1.85851 -2.19973,5.39809 -4.01889,1.81851"
       id="path101" />
    <path
       style="fill:none;fill-opacity:0.2;stroke:#000000;stroke-width:0.264583"
       d="m 123.34626,186.79866 c 0.40698,0.45045 1.00804,0.78284 1.22093,1.35136 1.06582,2.84622 -0.50789,6.94562 -3.10319,8.47524 -0.66274,0.39061 -1.44703,0.52275 -2.17054,0.78413"
       id="path102" />
    <path
       style="fill:none;fill-opacity:0.2;stroke:#000000;stroke-width:0.264583"
       d="m 146.37434,169.49782 c -0.59314,2.76845 -2.00673,5.85039 -1.33963,8.67544 0.15099,0.63941 0.78021,1.74205 1.42442,1.0177"
       id="path103" />
    <path
       style="fill:none;fill-opacity:0.2;stroke:#000000;stroke-width:0.264583"
       d="m 147.47657,173.65202 c 1.44617,-0.39151 2.95207,-0.55099 4.39195,-0.96764 0.78104,-0.22601 -0.19448,-0.0669 -0.37306,-0.0167"
       id="path104" />
    <path
       style="fill:none;fill-opacity:0.2;stroke:#000000;stroke-width:0.264583"
       d="m 155.70088,174.8866 c -4.55747,1.5789 -2.95079,-4.98481 0.30524,-4.32103 1.23441,0.25164 1.55572,2.88175 0.84786,3.65369 -0.30014,0.32732 -0.76873,0.4449 -1.1531,0.66734 z"
       id="path105" />
    <path
       style="fill:none;fill-opacity:0.2;stroke:#000000;stroke-width:0.264583"
       d="m 159.95718,174.33605 c -0.3335,-0.23913 -0.72199,-0.41599 -1.00049,-0.71739 -0.01,-0.0104 -0.0328,-0.5312 0,-0.6173 0.19803,-0.51955 0.65773,0.89689 1.00049,1.33469 z"
       id="path106" />
    <path
       style="fill:none;fill-opacity:0.2;stroke:#000000;stroke-width:0.264583"
       d="m 159.95721,175.27033 c 0.73021,0.53499 0.83489,0.75227 1.78052,0.86754 1.42036,0.17313 3.64075,-1.05683 2.781,-2.78615 -0.83334,-1.67622 -2.92678,0.32741 -2.74709,-0.95096 0.0532,-0.37864 0.13668,-0.75354 0.16958,-1.13448 0.0464,-0.53791 0.0452,-1.07887 0.0678,-1.61831 1.49359,0.007 2.91536,0.48739 4.39195,0.55056"
       id="path107" />
    <path
       style="fill:none;fill-opacity:0.2;stroke:#000000;stroke-width:0.264583"
       d="m 169.18198,171.06607 c 0.0616,-3.8902 -2.60729,-0.71556 -2.69622,1.03438 -0.0241,0.47478 0.9708,-0.0937 1.3905,-0.31698 1.79756,-0.95633 1.5695,-1.36901 1.05136,1.43478 -0.13032,0.70517 -2.22068,6.94463 -2.00097,3.26998"
       id="path108" />
    <path
       style="fill:none;fill-opacity:0.2;stroke:#000000;stroke-width:0.264583"
       d="m 173.31957,171.14949 c 0.174,-1.78206 -1.29448,-3.23834 -2.4249,-1.38473 -0.0989,0.16217 -0.36949,0.79506 -0.32219,1.03438 0.0996,0.50407 4.18701,-1.93738 3.62887,-0.80081 -0.21306,0.43386 -0.76166,0.68297 -0.88178,1.15116 -0.18934,0.73798 0.10897,1.5316 0,2.28565 -0.17796,1.23146 -1.15247,2.57183 -1.84835,3.57027 -0.14552,0.2088 -0.50336,0.74425 -0.57655,0.50051 -0.0752,-0.25056 0.0226,-0.52275 0.0339,-0.78413"
       id="path109" />
    <path
       style="fill:none;fill-opacity:0.2;stroke:#000000;stroke-width:0.264583"
       d="m 175.23575,176.45486 c -1.51973,-2.90767 0.025,-0.24869 0,0 -0.23582,2.34909 -0.65973,2.57313 -1.83139,3.88727"
       id="path110" />
    <path
       style="fill:none;fill-opacity:0.2;stroke:#000000;stroke-width:0.264583"
       d="m 177.03323,173.21825 c 1.35039,0.26043 2.59119,-0.0886 3.88323,-0.41709 0.19085,-0.0485 0.73932,-0.22389 0.54263,-0.23357 -0.26778,-0.0132 -0.51503,0.12658 -0.74612,0.23357"
       id="path111" />
    <path
       style="fill:none;fill-opacity:0.2;stroke:#000000;stroke-width:0.264583"
       d="m 183.83312,168.74706 c 0.0687,2.69782 0.0931,6.88794 -1.1531,9.37615 -0.12629,0.25216 -0.30222,-0.49062 -0.3561,-0.76744"
       id="path112" />
    <path
       style="fill:none;fill-opacity:0.2;stroke:#000000;stroke-width:0.264583"
       d="m 185.59669,175.77083 c -0.34428,-1.6491 -0.36948,-1.74485 0,0 z"
       id="path113" />
    <path
       style="fill:none;fill-opacity:0.2;stroke:#000000;stroke-width:0.264583"
       d="m 190.54823,169.03068 c -1.51137,1.84031 -1.71778,1.62273 -2.25532,3.57028 -0.21666,0.78497 -0.40972,1.57972 -0.52568,2.38575 -0.13807,0.95962 0.62938,4.20551 1.76356,1.93529 1.50368,-3.00981 -0.18439,-3.80845 -2.4249,-2.48585"
       id="path114" />
    <path
       style="fill:none;fill-opacity:0.2;stroke:#000000;stroke-width:0.264583"
       d="m 192.09135,171.5499 c 0.007,0.8001 1.46779,-1.27321 1.98401,-0.78413 1.84243,1.74554 -2.83968,6.84955 -4.35804,7.44086 -0.19389,0.0755 0.19959,-0.3856 0.37307,-0.50051 0.41855,-0.27725 0.85321,-0.53327 1.30571,-0.75075 0.97575,-0.46897 4.05122,-1.19601 4.10368,-1.36806 0.0336,-0.1101 -0.16818,-0.15725 -0.25436,-0.23356"
       id="path115" />
    <path
       style="fill:none;fill-opacity:0.2;stroke:#000000;stroke-width:0.264583"
       d="m 197.95859,170.04838 c -0.72351,1.10111 -1.63177,2.10099 -2.17054,3.30334 -0.57023,1.27258 -1.09953,4.17257 -0.0339,4.53792 0.94302,0.32333 2.56056,-2.96463 2.56056,-3.75379 0,-1.58929 -4.82088,0.98986 -3.05232,-0.43378"
       id="path116" />
    <path
       style="fill:none;fill-opacity:0.2;stroke:#000000;stroke-width:0.264583"
       d="m 200.60394,167.37901 c 0.32784,0.10566 0.67206,0.1699 0.98353,0.31699 1.70729,0.80626 1.63654,5.59528 0.89874,6.87362 -0.41384,0.71702 -0.92213,1.38506 -1.49225,1.98534 -1.09747,1.15552 -1.98127,1.29636 -3.4593,1.88524"
       id="path117" />
  </g>
</svg>
