<?xml version="1.0" encoding="UTF-8" standalone="no"?>
<!-- Created with Inkscape (http://www.inkscape.org/) -->

<svg
   width="784.48358"
   height="571.28284"
   viewBox="0 0 207.56128 151.15192"
   version="1.1"
   id="svg731"
   inkscape:version="1.2 (dc2aedaf03, 2022-05-15)"
   sodipodi:docname="窗周坐标示意图.svg"
   xmlns:inkscape="http://www.inkscape.org/namespaces/inkscape"
   xmlns:sodipodi="http://sodipodi.sourceforge.net/DTD/sodipodi-0.dtd"
   xmlns="http://www.w3.org/2000/svg"
   xmlns:svg="http://www.w3.org/2000/svg">
  <sodipodi:namedview
     id="namedview733"
     pagecolor="#ffffff"
     bordercolor="#666666"
     borderopacity="1.0"
     inkscape:showpageshadow="2"
     inkscape:pageopacity="0.0"
     inkscape:pagecheckerboard="0"
     inkscape:deskcolor="#d1d1d1"
     inkscape:document-units="px"
     showgrid="false"
     inkscape:zoom="1.1893044"
     inkscape:cx="415.36885"
     inkscape:cy="174.47173"
     inkscape:window-width="1620"
     inkscape:window-height="1010"
     inkscape:window-x="-6"
     inkscape:window-y="-6"
     inkscape:window-maximized="1"
     inkscape:current-layer="layer1" />
  <defs
     id="defs728" />
  <g
     inkscape:label="图层 1"
     inkscape:groupmode="layer"
     id="layer1"
     transform="translate(14.09669,-67.326947)">
    <ellipse
       style="fill:none;stroke:#000000;stroke-width:0.242432"
       id="path735"
       cx="105.83333"
       cy="132.29166"
       rx="52.795452"
       ry="52.795448" />
    <path
       style="fill:none;stroke:#000000;stroke-width:0.253556px;stroke-linecap:butt;stroke-linejoin:miter;stroke-opacity:1"
       d="M 52.916666,132.42396 H 158.75"
       id="path883" />
    <path
       style="fill:none;stroke:#000000;stroke-width:0.253556px;stroke-linecap:butt;stroke-linejoin:miter;stroke-opacity:1"
       d="M 105.83333,79.507296 V 185.34063"
       id="use885" />
    <path
       style="fill:none;stroke:#000000;stroke-width:0.264583px;stroke-linecap:butt;stroke-linejoin:miter;stroke-opacity:1"
       d="m 120.85692,118.84929 c 0.006,0.0777 0.004,0.15627 0.017,0.23298 0.005,0.028 0.0232,0.0519 0.0369,0.0767 0.14251,0.25652 0.27971,0.51622 0.43187,0.76714 0.0384,0.0633 0.23392,0.27458 0.25288,0.37504 0.009,0.0454 -0.0246,0.089 -0.0369,0.13354"
       id="path893" />
    <path
       style="fill:none;stroke:#000000;stroke-width:0.264583px;stroke-linecap:butt;stroke-linejoin:miter;stroke-opacity:1"
       d="m 120.29151,121.3922 c 0.36058,0.21721 0.10938,0.10644 0.56541,0.1932 0.0851,0.0162 0.17001,0.0345 0.25288,0.0597 0.0455,0.0138 0.0922,0.0289 0.1307,0.0568 0.0662,0.048 0.11933,0.11175 0.179,0.16763"
       id="path895" />
    <path
       style="fill:none;stroke:#000000;stroke-width:0.264583px;stroke-linecap:butt;stroke-linejoin:miter;stroke-opacity:1"
       d="m 120.31992,124.21355 c 0.13165,-0.089 0.27423,-0.16371 0.39494,-0.26708 0.0727,-0.0623 0.12139,-0.14804 0.179,-0.22446 0.1773,-0.23521 0.36603,-0.46275 0.52564,-0.71031 0.42304,-0.65614 0.43284,-0.76066 0.69327,-1.41778"
       id="path897" />
    <path
       style="fill:none;stroke:#000000;stroke-width:0.264583px;stroke-linecap:butt;stroke-linejoin:miter;stroke-opacity:1"
       d="m 123.06176,117.84917 c 0.17267,0.25537 0.20351,0.27805 0.46029,0.36652 0.0677,0.0233 0.14019,0.034 0.20457,0.0653 0.0406,0.0197 0.0701,0.0568 0.10513,0.0852"
       id="path899" />
    <path
       style="fill:none;stroke:#000000;stroke-width:0.264583px;stroke-linecap:butt;stroke-linejoin:miter;stroke-opacity:1"
       d="m 122.05594,120.25002 c 0.79846,-0.0491 0.37555,0.0118 1.39791,-0.2756 0.0914,-0.0257 0.18237,-0.0533 0.27277,-0.0824 1.4729,-0.47481 1.13412,-0.0784 1.50304,-0.53415"
       id="path901" />
    <path
       style="fill:none;stroke:#000000;stroke-width:0.264583px;stroke-linecap:butt;stroke-linejoin:miter;stroke-opacity:1"
       d="m 122.70376,121.18479 c 0.0597,0.0862 0.0843,0.21351 0.179,0.25855 0.15989,0.0761 0.3486,0.08 0.52563,0.0767 0.57426,-0.0107 1.05156,-0.10712 1.52862,-0.40914 0.0397,-0.0251 0.0701,-0.0625 0.10512,-0.0938"
       id="path903" />
    <path
       style="fill:none;stroke:#000000;stroke-width:0.264583px;stroke-linecap:butt;stroke-linejoin:miter;stroke-opacity:1"
       d="m 122.55317,123.57143 c 1.03762,0.11194 0.57073,0.12714 1.91502,-0.15059 0.13815,-0.0285 0.91409,-0.20053 1.14504,-0.32674 0.1245,-0.068 0.22541,-0.17237 0.33811,-0.25856"
       id="path905" />
    <path
       style="fill:none;stroke:#000000;stroke-width:0.264583px;stroke-linecap:butt;stroke-linejoin:miter;stroke-opacity:1"
       d="m 123.74651,120.34378 c 0.0436,0.26613 0.11069,0.52946 0.1307,0.79839 0.0143,0.19196 -0.0225,0.38437 -0.0284,0.57677 -0.0167,0.53993 -0.005,1.08006 -0.0284,1.6195"
       id="path907" />
    <path
       style="fill:none;stroke:#000000;stroke-width:0.264583px;stroke-linecap:butt;stroke-linejoin:miter;stroke-opacity:1"
       d="m 127.98854,117.08204 c -0.0909,0.13827 -0.16647,0.28798 -0.27276,0.41482 -0.12045,0.14373 -0.27289,0.25748 -0.40346,0.39209 -0.14514,0.14963 -0.28188,0.30718 -0.42335,0.46028 -0.12973,0.14039 -0.39572,0.35104 -0.34664,0.59098 0.0219,0.10721 0.0889,0.20004 0.1307,0.30117 0.11371,0.27491 0.16323,0.43708 0.24435,0.75861 0.0936,0.37112 0.12672,0.67425 0.14206,1.0683 0.007,0.17228 0.0231,0.34817 -0.0114,0.51711 -0.0251,0.12291 -0.11705,0.0808 -0.17616,0.0653"
       id="path909" />
    <path
       style="fill:none;stroke:#000000;stroke-width:0.264583px;stroke-linecap:butt;stroke-linejoin:miter;stroke-opacity:1"
       d="m 125.85758,121.55983 c 0.72922,0.0158 0.75418,0.0517 1.43485,-0.0568 0.26877,-0.0429 0.52734,-0.10113 0.74157,-0.28412 0.0874,-0.0747 0.13828,-0.18373 0.20742,-0.2756"
       id="path911" />
    <path
       style="fill:none;stroke:#000000;stroke-width:0.264583px;stroke-linecap:butt;stroke-linejoin:miter;stroke-opacity:1"
       d="m 126.73838,118.70722 c 0.11933,0.0114 0.23813,0.0341 0.358,0.0341 0.0944,0 0.18704,-0.0279 0.28129,-0.0341 0.43721,-0.0287 0.94522,-0.12971 1.27573,0.3097 0.1528,0.20314 0.0792,1.03283 0.0568,1.25867 -0.0554,0.55975 -0.14505,1.22366 -0.23583,1.79282 -0.0501,0.3143 -0.12512,0.92497 -0.2614,1.28424 -0.0443,0.11682 -0.0707,0.2564 -0.16763,0.33527 -0.0632,0.0514 -0.18211,0.0525 -0.24435,0 -0.24156,-0.20385 -0.34467,-0.50724 -0.46029,-0.78419"
       id="path913" />
    <path
       style="fill:none;stroke:#000000;stroke-width:0.264583px;stroke-linecap:butt;stroke-linejoin:miter;stroke-opacity:1"
       d="m 126.65598,119.49141 c 0.42865,0.0413 0.8535,0.13695 1.28426,0.1591 0.0577,0.003 0.13064,-0.0355 0.0767,-0.009"
       id="path915" />
    <path
       style="fill:none;stroke:#000000;stroke-width:0.264583px;stroke-linecap:butt;stroke-linejoin:miter;stroke-opacity:1"
       d="m 126.96568,120.09943 c 0.12218,0.089 0.22438,0.21563 0.36653,0.26708 0.0829,0.03 0.17537,-0.0206 0.26139,-0.0398 0.16655,-0.0371 0.47255,-0.15218 0.6194,-0.1932 0.049,-0.0137 0.1004,-0.017 0.15059,-0.0256"
       id="path917" />
    <path
       style="fill:none;stroke:#000000;stroke-width:0.264583px;stroke-linecap:butt;stroke-linejoin:miter;stroke-opacity:1"
       d="m 128.42042,120.85236 c -0.13449,0.2273 -0.2505,0.4666 -0.40346,0.6819 -0.0994,0.13986 -0.23122,0.25358 -0.34948,0.37788 -0.34017,0.35755 -0.47403,0.49462 -0.83534,0.81544 -0.21411,0.19011 -0.51965,0.44463 -0.76714,0.58529 -0.13319,0.0757 -0.11191,0.0464 -0.12218,-0.0426"
       id="path919" />
    <path
       style="fill:none;stroke:#000000;stroke-width:0.264583px;stroke-linecap:butt;stroke-linejoin:miter;stroke-opacity:1"
       d="m 129.69616,119.50845 c 0.10039,-0.0502 0.19547,-0.11283 0.30117,-0.15058 0.1509,-0.0539 0.59447,-0.0411 0.67338,-0.0426 0.0909,-0.002 0.18316,0.01 0.27277,-0.006 0.48727,-0.0845 0.40816,0.009 0.53416,-0.18468"
       id="path921" />
    <path
       style="fill:none;stroke:#000000;stroke-width:0.264583px;stroke-linecap:butt;stroke-linejoin:miter;stroke-opacity:1"
       d="m 130.84971,117.81508 c -0.0152,0.18941 -0.0418,0.37826 -0.0455,0.56824 -0.006,0.29739 0.017,0.59472 0.017,0.89215 0,0.74765 -0.0449,1.30823 -0.0852,2.08547 -0.0185,0.35608 -0.0248,0.71295 -0.054,1.06831 -0.0267,0.32595 -0.061,0.65176 -0.11365,0.97454 -0.0195,0.1198 -0.0465,0.24169 -0.10229,0.34948 -0.0179,0.0346 -0.0712,0.0703 -0.10513,0.0511 -0.38059,-0.21538 -0.53366,-0.8393 -0.65633,-1.23594"
       id="path923" />
    <path
       style="fill:none;stroke:#000000;stroke-width:0.264583px;stroke-linecap:butt;stroke-linejoin:miter;stroke-opacity:1"
       d="m 129.33815,120.66768 c 0.004,-0.11081 -0.0532,-0.24227 0.0114,-0.33243 0.0363,-0.0506 0.11688,0.0463 0.16764,0.0824 0.0582,0.0414 0.56671,0.47437 0.80692,0.59098 0.0356,0.0173 0.0758,0.0227 0.11365,0.0341"
       id="path925" />
    <path
       style="fill:none;stroke:#000000;stroke-width:0.264583px;stroke-linecap:butt;stroke-linejoin:miter;stroke-opacity:1"
       d="m 132.80168,118.04806 c 0.0341,0.19225 0.0938,0.3817 0.10228,0.57677 0.02,0.45798 -0.023,0.91677 -0.017,1.37516 8e-4,0.0572 0.0121,0.11608 0.0369,0.16763 0.0131,0.0273 0,-0.0606 0,-0.0909 0,-0.18006 -0.0374,-0.53433 0.1307,-0.66769 0.15854,-0.12581 0.33878,-0.2225 0.51711,-0.31822 0.18936,-0.10164 0.47326,-0.21611 0.69328,-0.31538 0.21745,-0.0981 0.5756,-0.21132 0.72452,-0.4347"
       id="path927" />
    <path
       style="fill:none;stroke:#000000;stroke-width:0.264583px;stroke-linecap:butt;stroke-linejoin:miter;stroke-opacity:1"
       d="m 132.12545,120.76712 c 0.1161,0.17353 0.10822,0.38884 0.179,0.57677 0.006,0.0157 0.0252,0.0461 0.0369,0.0341 0.13129,-0.13435 0.16515,-0.5699 0.21594,-0.71883 0.0443,-0.12998 0.0942,-0.26087 0.17047,-0.37505 0.1218,-0.18228 0.39031,-0.38155 0.59099,-0.45744 0.38053,-0.14389 0.72383,-0.26971 1.11662,-0.11933 0.11947,0.0457 0.0273,0.23734 -0.009,0.2756 -0.23626,0.25274 -0.74954,0.49828 -0.99729,0.62791 -0.15262,0.0799 -0.56837,0.18872 -0.59951,0.39778 -0.002,0.0148 0.0222,0.023 0.0369,0.0256 0.0995,0.0176 0.20017,0.0365 0.30118,0.0341 0.25626,-0.006 0.72525,-0.0927 0.96603,-0.21593 0.24272,-0.12418 0.22159,-0.0737 0.24435,-0.21025"
       id="path929" />
    <path
       style="fill:none;stroke:#000000;stroke-width:0.264583px;stroke-linecap:butt;stroke-linejoin:miter;stroke-opacity:1"
       d="m 131.89247,121.87805 c -0.18728,0.40711 -0.37157,0.81739 -0.63077,1.18479 -0.13495,0.19129 -0.0854,0.13936 -0.23298,0.25003"
       id="path931" />
    <path
       style="fill:none;stroke:#000000;stroke-width:0.264583px;stroke-linecap:butt;stroke-linejoin:miter;stroke-opacity:1"
       d="m 131.82712,122.66223 c 0.46173,-0.34352 0.74849,0.37242 1.15356,0.38357 0.0832,0.002 0.13352,-0.13055 0.15911,-0.17616"
       id="path933" />
    <path
       style="fill:none;stroke:#000000;stroke-width:0.264583px;stroke-linecap:butt;stroke-linejoin:miter;stroke-opacity:1"
       d="m 133.40119,121.49448 c 0.40959,0.41778 0.2173,0.16053 0.50859,0.75009 0.0706,0.1429 0.14022,0.29011 0.22446,0.42618"
       id="path935" />
    <path
       style="fill:none;stroke:#000000;stroke-width:0.264583px;stroke-linecap:butt;stroke-linejoin:miter;stroke-opacity:1"
       d="m 134.46383,121.34389 c 0.0966,0.0502 0.21022,0.0763 0.28981,0.15059 0.22515,0.21013 0.36061,0.52054 0.42335,0.81544"
       id="path937" />
    <path
       style="fill:none;stroke:#000000;stroke-width:0.264583px;stroke-linecap:butt;stroke-linejoin:miter;stroke-opacity:1"
       d="m 138.49845,117.28945 c -0.35404,0.38775 -0.46702,0.46879 -0.73305,0.96886 -0.24377,0.45823 -0.35583,1.05557 -0.4404,1.54279 -0.14725,0.84833 -0.12239,1.58096 0.0938,2.41789 0.12876,0.49853 0.2954,0.66193 0.70464,1.02569 0.0307,0.0273 0.0814,0.0114 0.12218,0.017"
       id="path939" />
    <path
       style="fill:none;stroke:#000000;stroke-width:0.264583px;stroke-linecap:butt;stroke-linejoin:miter;stroke-opacity:1"
       d="m 140.78853,121.95192 c -0.0976,0.0199 -0.19314,0.0626 -0.29266,0.0597 -0.0971,-0.003 -0.18827,-0.0485 -0.28128,-0.0767 -0.13108,-0.0397 -0.2835,-0.0896 -0.38358,-0.19036 -0.0915,-0.0921 -0.18028,-0.19243 -0.23582,-0.3097 -0.13034,-0.27514 -0.2031,-0.64634 -0.13923,-0.95181 0.0571,-0.27325 0.13325,-0.54616 0.25288,-0.79839 0.0922,-0.19448 0.23377,-0.36324 0.37505,-0.52563 0.12624,-0.14511 0.25506,-0.29894 0.42335,-0.39209 0.1972,-0.10916 0.91758,-0.40328 1.15356,-0.0341 0.17074,0.26712 0.22874,0.60947 0.21594,0.92624 -0.0308,0.76235 -0.57335,1.44794 -1.26722,1.71042 -0.15453,0.0585 -0.31523,0.10159 -0.47733,0.13354 -0.0376,0.007 -0.0842,0.007 -0.11365,-0.017 -0.0767,-0.0637 -0.14069,-0.14497 -0.18753,-0.23298 -0.0187,-0.0351 0,-0.0795 0,-0.11933"
       id="path941" />
    <path
       style="fill:none;stroke:#000000;stroke-width:0.264583px;stroke-linecap:butt;stroke-linejoin:miter;stroke-opacity:1"
       d="m 142.9479,121.33537 c 0.003,0.0862 0.0435,0.17972 0.009,0.25855 -0.0559,0.12605 -0.17198,0.21577 -0.26424,0.31822 -0.18794,0.2087 -0.4079,0.38211 -0.6194,0.56541"
       id="path943" />
    <path
       style="fill:none;stroke:#000000;stroke-width:0.264583px;stroke-linecap:butt;stroke-linejoin:miter;stroke-opacity:1"
       d="m 145.57325,121.40924 c -0.17522,0.0559 -0.34266,0.14917 -0.52564,0.16763 -0.33066,0.0334 -0.59434,-0.13783 -0.68475,-0.44891 -0.11137,-0.3832 -0.18386,-0.84229 -0.12218,-1.24446 0.0401,-0.26112 0.0584,-0.54344 0.19889,-0.76714 0.15974,-0.25431 0.40173,-0.46327 0.66486,-0.60802 0.1805,-0.0993 0.40494,-0.0883 0.61088,-0.0938 0.35746,-0.009 0.59299,0.15359 0.68475,0.5512 0.10245,0.44396 -0.22265,0.96003 -0.43188,1.29276 -0.3031,0.482 -0.50658,0.6954 -0.88079,1.09388 -0.0776,0.0826 -0.14967,0.15412 -0.27277,0.16763 -0.0258,0.003 -0.0436,-0.0284 -0.0653,-0.0426"
       id="path945" />
    <path
       style="fill:none;stroke:#000000;stroke-width:0.264583px;stroke-linecap:butt;stroke-linejoin:miter;stroke-opacity:1"
       d="m 147.45986,117.80655 c 0.21511,0.63948 0.47665,1.27237 0.58246,1.94341 0.0309,0.19575 0.0525,0.39712 0.0284,0.59382 -0.0361,0.29481 -0.0991,0.59 -0.20741,0.86658 -0.15545,0.39708 -0.34425,0.57478 -0.59951,0.85805"
       id="path947" />
    <path
       style="fill:none;stroke:#000000;stroke-width:0.264583px;stroke-linecap:butt;stroke-linejoin:miter;stroke-opacity:1"
       d="m 162.41721,128.74273 c 0.11518,-0.10739 0.40034,-0.30156 0.33527,-0.5171 -0.0226,-0.075 -0.15589,-0.044 -0.18752,-0.0341 -0.15852,0.0497 -0.36762,0.28155 -0.4404,0.36652 -0.0819,0.0956 -0.14681,0.20454 -0.21594,0.3097 -0.19988,0.30403 -0.41848,0.59736 -0.59099,0.91772 -0.16586,0.30802 -0.47904,1.10234 -0.59098,1.50017 -0.12681,0.45063 -0.25661,0.90156 -0.34664,1.36095 -0.076,0.38792 -0.12212,0.78201 -0.15059,1.17628 -0.0221,0.30687 -0.0497,1.10938 0.009,1.55983 0.0651,0.50376 0.17623,1.19488 0.37505,1.65077 0.15003,0.34402 0.27542,0.56116 0.63076,0.49153 0.056,-0.011 0.0928,-0.0663 0.13923,-0.0994"
       id="path949" />
    <path
       style="fill:none;stroke:#000000;stroke-width:0.264583px;stroke-linecap:butt;stroke-linejoin:miter;stroke-opacity:1"
       d="m 162.78089,132.75456 c 0.15722,0.0634 0.30714,0.14939 0.47166,0.19036 0.0392,0.01 0.58242,-0.022 0.59098,-0.0227 0.22196,-0.0192 0.44431,-0.0368 0.66486,-0.0682 0.18362,-0.0262 0.71223,-0.14741 0.89217,-0.19889 0.19582,-0.056 0.39002,-0.11795 0.58246,-0.18468 0.21031,-0.0729 0.3424,-0.12246 0.46029,-0.3097"
       id="path951" />
    <path
       style="fill:none;stroke:#000000;stroke-width:0.264583px;stroke-linecap:butt;stroke-linejoin:miter;stroke-opacity:1"
       d="m 168.77884,128.04947 c 0.003,0.12786 0.006,0.25571 0.009,0.38357 0.0149,0.65396 0.0194,0.47332 -0.009,1.25867 -0.0391,1.10079 -0.18084,2.19846 -0.26424,3.29583 -0.0748,0.98431 -0.054,1.09838 -0.054,2.12809 0,0.28521 -0.004,0.69535 0.009,0.99159 0.0115,0.2779 -0.0579,0.22813 0.0852,0.28413"
       id="path953" />
    <path
       style="fill:none;stroke:#000000;stroke-width:0.264583px;stroke-linecap:butt;stroke-linejoin:miter;stroke-opacity:1"
       d="m 171.13427,134.29735 c 0.12203,0.0308 0.11418,0.93125 -0.23583,0.79271 -0.0518,-0.0205 -0.0739,-0.0833 -0.11081,-0.12502"
       id="path955" />
    <path
       style="fill:none;stroke:#000000;stroke-width:0.264583px;stroke-linecap:butt;stroke-linejoin:miter;stroke-opacity:1"
       d="m 174.01533,129.00981 c -0.0508,0.13944 0.009,0.28253 0,0.42334 -0.0644,0.97655 -0.12537,1.9514 -0.17048,2.92932 -0.0536,1.16187 -0.0891,2.32457 -0.14775,3.4862 -0.008,0.15851 -0.0225,0.31671 -0.0398,0.47449 -0.0255,0.2329 0.0389,0.22729 -0.054,0.22729"
       id="path957" />
    <path
       style="fill:none;stroke:#000000;stroke-width:0.264583px;stroke-linecap:butt;stroke-linejoin:miter;stroke-opacity:1"
       d="m 176.84809,134.82298 c -0.018,0.10892 -0.006,0.22757 -0.054,0.32674 -0.0585,0.11962 -0.16602,0.20846 -0.25571,0.30686 -0.17374,0.1906 -0.34913,0.38007 -0.53416,0.55972 -0.36827,0.35754 -0.7501,0.70084 -1.12515,1.05126"
       id="path959" />
    <path
       style="fill:none;stroke:#000000;stroke-width:0.264583px;stroke-linecap:butt;stroke-linejoin:miter;stroke-opacity:1"
       d="m 178.43637,132.43634 c 0.0938,0.009 0.18713,0.0256 0.28128,0.0256 0.14043,0 0.28011,-0.0281 0.42051,-0.0256 0.36508,0.007 0.56749,0.0636 0.92058,0.0852 0.28792,0.0176 0.52909,0.009 0.81545,-0.009 0.32346,-0.0194 0.66682,-0.0338 0.9774,-0.14206 0.0841,-0.0293 0.1629,-0.072 0.24435,-0.10797"
       id="path961" />
    <path
       style="fill:none;stroke:#000000;stroke-width:0.264583px;stroke-linecap:butt;stroke-linejoin:miter;stroke-opacity:1"
       d="m 184.40306,134.49908 c -0.11839,0.0275 -0.23376,0.0881 -0.35516,0.0824 -0.12806,-0.006 -0.24549,-0.0742 -0.36652,-0.11649 -0.24864,-0.0868 -0.43165,-0.29557 -0.54553,-0.52563 -0.37162,-0.75073 -0.18461,-1.75813 0.11365,-2.50314 0.18179,-0.45409 0.64061,-1.63907 1.30415,-1.74451 0.50236,-0.0798 0.83378,0.25868 1.01434,0.66769 0.41608,0.94253 0.37479,1.47662 0.21593,2.5287 -0.0485,0.3209 -0.23854,0.88702 -0.45176,1.20184 -0.0844,0.12456 -0.35584,0.44173 -0.56257,0.37505 -0.3401,-0.10971 -0.35178,-0.29332 -0.41199,-0.53416"
       id="path963" />
    <path
       style="fill:none;stroke:#000000;stroke-width:0.264583px;stroke-linecap:butt;stroke-linejoin:miter;stroke-opacity:1"
       d="m 186.90055,134.68092 c 0.15372,0.18414 0.25648,0.26023 0.33811,0.45176 0.006,0.015 0.006,0.0322 0.009,0.0483 0.009,0.0502 0.006,0.10464 0.0284,0.15058 0.008,0.0165 0.017,-0.0331 0.0199,-0.0511 0.004,-0.0243 0,-0.0493 0,-0.0739"
       id="path965" />
    <path
       style="fill:none;stroke:#000000;stroke-width:0.264583px;stroke-linecap:butt;stroke-linejoin:miter;stroke-opacity:1"
       d="m 189.73331,128.66602 c 0.0946,0.57986 0.10192,0.50819 0.0852,1.28424 -0.0234,1.08852 -0.10042,2.04688 -0.18753,3.1282 -0.026,0.32316 -0.062,0.6455 -0.0852,0.96886 -0.0269,0.37471 -0.0451,0.75001 -0.0653,1.12513 -0.008,0.15052 -0.008,0.30152 -0.0199,0.45176 -0.0252,0.3112 -0.009,0.31704 -0.0653,0.18184"
       id="path967" />
    <path
       style="fill:none;stroke:#000000;stroke-width:0.264583px;stroke-linecap:butt;stroke-linejoin:miter;stroke-opacity:1"
       d="m 190.87731,127.51532 c 0.12502,0.0227 0.26093,0.0123 0.37505,0.0682 0.0783,0.0383 0.25541,0.32874 0.30118,0.40061 0.19215,0.30176 0.41028,0.63716 0.56257,0.9575 0.15629,0.32873 0.30266,0.66267 0.43187,1.00296 0.37496,0.9874 0.4235,2.23438 0.4887,3.19355 0.0361,0.53072 -0.19038,1.93795 -0.29265,2.31845 -0.0466,0.17332 -0.29456,0.55023 -0.44039,0.72735 -0.52173,0.63367 -0.42596,0.51767 -0.92058,1.00864"
       id="path969" />
    <path
       style="fill:none;stroke:#000000;stroke-width:0.264583px;stroke-linecap:butt;stroke-linejoin:miter;stroke-opacity:1"
       d="m 147.04861,168.14076 c -0.072,0.14112 -0.12359,0.29464 -0.21594,0.42335 -0.11881,0.16558 -0.28627,0.29135 -0.41199,0.45176 -0.0845,0.10778 -0.14245,0.23392 -0.21593,0.34947 -0.32012,0.50342 -0.5562,0.80645 -0.78704,1.3439 -0.28016,0.6523 -0.37664,1.17883 -0.44324,1.91784 -0.0919,1.01932 -0.0564,2.13425 0.18753,3.13673 0.11281,0.4636 0.25392,0.89916 0.6194,1.23594 0.13464,0.12407 0.28612,0.0649 0.42335,0.0312"
       id="path971" />
    <path
       style="fill:none;stroke:#000000;stroke-width:0.264583px;stroke-linecap:butt;stroke-linejoin:miter;stroke-opacity:1"
       d="m 147.11396,172.83733 c 0.6817,0.0494 1.36804,-0.0128 2.04856,-0.0511 0.33025,-0.0186 0.72902,-0.0123 1.03139,-0.16763 0.0441,-0.0226 0.0682,-0.072 0.10229,-0.10797"
       id="path973" />
    <path
       style="fill:none;stroke:#000000;stroke-width:0.264583px;stroke-linecap:butt;stroke-linejoin:miter;stroke-opacity:1"
       d="m 153.97566,174.86314 c -0.0625,0.0805 -0.0959,0.19697 -0.18753,0.2415 -0.1458,0.0708 -0.59224,-0.0655 -0.69611,-0.0994 -0.31311,-0.10229 -0.52656,-0.21898 -0.75863,-0.48301 -0.39345,-0.44766 -0.39803,-1.44662 -0.32958,-1.94341 0.0943,-0.68409 0.51312,-1.32369 0.94898,-1.82692 0.15143,-0.17482 0.35188,-0.30534 0.55406,-0.41766 0.39391,-0.21884 0.76741,-0.23392 1.1081,0.18184 0.2125,0.25933 0.28025,0.61018 0.39209,0.92625 0.13971,0.39482 0.0505,1.34621 0.0199,1.52858 -0.0434,0.2588 -0.28474,1.0795 -0.4887,1.46608 -0.21774,0.41268 -0.4598,0.863 -0.86375,1.13365 -0.38706,0.25934 -0.34679,-0.10491 -0.33811,-0.28128"
       id="path975" />
    <path
       style="fill:none;stroke:#000000;stroke-width:0.264583px;stroke-linecap:butt;stroke-linejoin:miter;stroke-opacity:1"
       d="m 156.24584,174.15283 c 0.12336,0.0442 -0.1663,0.46841 -0.0369,0.55972 0.0114,0.008 0.0198,-0.0731 0.0284,-0.14206"
       id="path977" />
    <path
       style="fill:none;stroke:#000000;stroke-width:0.264583px;stroke-linecap:butt;stroke-linejoin:miter;stroke-opacity:1"
       d="m 159.14679,169.64094 c -0.0915,0.3643 -0.238,0.57831 -0.43187,0.91772 -0.34103,0.59706 -0.61587,1.00326 -0.85523,1.60246 -0.0699,0.17502 -0.24689,0.55376 -0.19605,0.80123 0.0122,0.0595 0.0376,0.13322 0.0938,0.15626 0.25947,0.10642 0.56521,0.0434 0.81544,-0.0398 0.45072,-0.14986 0.81484,-0.30288 1.21039,-0.5512 0.2256,-0.14163 0.45848,-0.27662 0.65918,-0.45176 0.15944,-0.13914 0.27465,-0.32201 0.41198,-0.48301"
       id="path979" />
    <path
       style="fill:none;stroke:#000000;stroke-width:0.264583px;stroke-linecap:butt;stroke-linejoin:miter;stroke-opacity:1"
       d="m 159.89689,170.46774 c -0.0815,0.20267 -0.18941,0.39662 -0.24435,0.60803 -0.0901,0.34677 -0.23014,1.36304 -0.25287,1.76725 -0.0347,0.61768 -0.13118,1.62255 0,2.34402"
       id="path981" />
    <path
       style="fill:none;stroke:#000000;stroke-width:0.264583px;stroke-linecap:butt;stroke-linejoin:miter;stroke-opacity:1"
       d="m 164.11051,168.51581 c -0.0786,0.23014 -0.1274,0.47273 -0.23582,0.69042 -0.25851,0.51902 -0.58354,1.00235 -0.86091,1.51154 -0.37564,0.68959 -0.96793,1.96902 -1.19334,2.59405 -0.20915,0.57995 -0.39846,1.17079 -0.51711,1.77577 -0.0552,0.2816 -0.15422,0.61889 0,0.8609 0.10306,0.16173 0.40346,0.12761 0.57394,0.0398 0.24394,-0.12569 0.37869,-0.39868 0.54552,-0.61655 0.16316,-0.21308 0.52926,-0.83411 0.62793,-1.09956 0.0774,-0.20821 0.18271,-0.42335 0.16763,-0.64496 -0.045,-0.66125 -0.62393,-0.10867 -0.82397,0.0256 -0.0638,0.0428 -0.12725,0.0887 -0.19889,0.1165 -0.0527,0.0204 -0.11176,0.017 -0.16764,0.0256"
       id="path983" />
    <path
       style="fill:none;stroke:#000000;stroke-width:0.264583px;stroke-linecap:butt;stroke-linejoin:miter;stroke-opacity:1"
       d="m 166.42048,174.73812 c -0.0284,0.12786 -0.0377,0.26153 -0.0852,0.38357 -0.174,0.44652 -0.34136,0.68391 -0.61088,1.05978 -0.42752,0.59623 -0.87443,1.16058 -1.4178,1.65928"
       id="path985" />
    <path
       style="fill:none;stroke:#000000;stroke-width:0.264583px;stroke-linecap:butt;stroke-linejoin:miter;stroke-opacity:1"
       d="m 167.29275,173.35444 c 0.50931,-0.2641 1.04146,-0.47887 1.58544,-0.65917 0.16775,-0.0556 0.33342,-0.11989 0.50575,-0.15911 0.2611,-0.0594 0.90567,-0.25468 1.31551,-0.1932"
       id="path987" />
    <path
       style="fill:none;stroke:#000000;stroke-width:0.264583px;stroke-linecap:butt;stroke-linejoin:miter;stroke-opacity:1"
       d="m 173.07192,168.24021 c -0.0311,0.89654 -0.026,0.79548 -0.0653,1.72747 -0.0545,1.29076 -0.0677,1.27212 -0.0852,3.0174 -0.003,0.28902 0.0148,1.78583 0.0199,2.29572 0.003,0.30306 0.0127,0.60614 0.009,0.90919 -0.003,0.18586 -0.0177,0.37132 -0.0284,0.55689 -0.004,0.0626 -0.0172,0.13753 0,0.0341"
       id="path989" />
    <path
       style="fill:none;stroke:#000000;stroke-width:0.264583px;stroke-linecap:butt;stroke-linejoin:miter;stroke-opacity:1"
       d="m 174.19991,175.47968 c 0.15128,-0.0384 0.26065,-0.0972 0.40346,-0.017 0.017,0.01 0.0284,0.0317 0.0284,0.0512 0,0.0765 -0.18115,0.22329 -0.19037,0.21593 -0.0906,-0.0723 -0.161,-0.16668 -0.24151,-0.25003 z"
       id="path991" />
    <path
       style="fill:none;stroke:#000000;stroke-width:0.264583px;stroke-linecap:butt;stroke-linejoin:miter;stroke-opacity:1"
       d="m 179.97056,171.51047 c 0.0312,-0.13922 0.0878,-0.2751 0.0938,-0.41766 0.004,-0.10652 -0.14893,-0.49478 -0.19605,-0.55972 -0.11333,-0.15621 -0.22954,-0.32391 -0.39494,-0.42335 -0.28516,-0.17143 -0.66826,-0.21153 -0.9774,-0.0852 -0.12232,0.05 -0.23162,0.13274 -0.32675,0.22445 -0.0922,0.0889 -0.1868,0.18822 -0.2273,0.3097 -0.0603,0.18088 -0.0822,0.37833 -0.0653,0.56825 0.0192,0.21603 0.30227,0.65875 0.40346,0.81543 0.3622,0.56082 0.53279,0.77623 0.92058,1.31834 0.27669,0.38679 0.72915,0.83541 0.36653,1.33538 -0.0539,0.0743 -0.1474,0.11753 -0.23583,0.14206 -0.26127,0.0725 -0.50833,0.0855 -0.76999,0.0653 -0.46848,-0.0362 -0.61985,0.006 -0.99445,-0.22446 -0.0289,-0.0178 -0.0455,-0.057 -0.0455,-0.0909 0,-0.14004 -0.006,-0.28734 0.0455,-0.41766 0.12823,-0.32595 0.37618,-0.69291 0.60235,-0.98307 0.13875,-0.178 0.79339,-1.06573 1.10526,-1.27003 0.21213,-0.13896 0.51017,-0.13444 0.69612,-0.30686 0.10419,-0.0966 0.0236,-0.28965 0.0852,-0.41766 0.0433,-0.0899 0.14467,-0.13754 0.21594,-0.20741 0.0253,-0.0248 0.0492,-0.0511 0.0739,-0.0767"
       id="path993" />
    <path
       style="fill:none;stroke:#000000;stroke-width:0.264583px;stroke-linecap:butt;stroke-linejoin:miter;stroke-opacity:1"
       d="m 181.51906,169.67504 c 0.1468,-0.0303 0.29412,-0.0582 0.4404,-0.0909 0.15399,-0.0345 0.3046,-0.085 0.46028,-0.1108 0.4166,-0.0691 0.81201,-0.0921 1.23028,-0.11649 0.7428,-0.0433 0.66972,-0.0463 1.3695,-0.0398 0.1745,0.002 0.40184,-0.0227 0.54268,0.12501 0.10516,0.11026 -0.0187,0.45451 -0.0369,0.51711 -0.0787,0.27066 -0.17201,0.53689 -0.25288,0.80691 -0.13129,0.43843 -0.26279,0.87689 -0.38357,1.31834 -0.0724,0.26455 -0.43101,1.64522 -0.57394,2.22752 -0.10711,0.43636 -0.19866,0.87671 -0.31822,1.30982 -0.0587,0.21249 -0.0886,0.44511 -0.21594,0.62507 -0.0473,0.0668 -0.1629,0.017 -0.24435,0.0256"
       id="path995" />
    <path
       style="fill:none;stroke:#000000;stroke-width:0.264583px;stroke-linecap:butt;stroke-linejoin:miter;stroke-opacity:1"
       d="m 187.4204,167.52137 c 0.24538,0.25386 0.60451,0.33762 0.87512,0.55121 0.0979,0.0773 0.16752,0.18652 0.23298,0.29264 0.27399,0.44416 0.40338,0.9568 0.51712,1.4604 0.0669,0.29633 0.11326,0.59799 0.13922,0.90067 0.11614,1.35389 0.15644,1.84475 -0.19605,3.15946 -0.10083,0.37609 -0.26774,0.73226 -0.43187,1.08535 -0.18679,0.40184 -0.34928,0.825 -0.6194,1.17628 -0.58044,0.75481 -1.27669,1.41304 -1.91503,2.11956"
       id="path997" />
    <path
       style="fill:none;stroke:#000000;stroke-width:0.264583px;stroke-linecap:butt;stroke-linejoin:miter;stroke-opacity:1"
       d="m 19.283642,127.67927 c -0.167424,0.075 -0.349756,0.12305 -0.502273,0.22501 -0.180375,0.12058 -0.316079,0.43136 -0.413873,0.60272 -0.315511,0.55286 -0.277011,0.43033 -0.59469,1.12105 -0.03806,0.0828 -0.06644,0.16986 -0.09242,0.25716 -0.08525,0.28656 -0.172129,0.57299 -0.24109,0.8639 -0.308771,1.30252 -0.511598,2.7879 -0.28931,4.11455 0.06307,0.37639 0.275553,0.71334 0.450037,1.05275 0.137615,0.26769 0.555073,0.8414 0.875963,0.92818 0.199382,0.0539 0.407176,-0.0697 0.610764,-0.10447"
       id="path999" />
    <path
       style="fill:none;stroke:#000000;stroke-width:0.264583px;stroke-linecap:butt;stroke-linejoin:miter;stroke-opacity:1"
       d="m 20.014951,130.15845 c 0.384406,-0.12992 0.763063,-0.27829 1.153218,-0.38976 0.314019,-0.0897 0.63244,-0.17108 0.956327,-0.21296 0.259055,-0.0335 0.523784,-0.0396 0.783545,-0.0121 0.610068,0.0646 0.457918,0.72697 0.305382,1.109 -0.08219,0.20585 -0.201522,0.39486 -0.305382,0.59066 -0.188137,0.3547 -0.399621,0.6975 -0.570581,1.06079 -0.08694,0.18473 -0.253052,0.38121 -0.200909,0.57861 0.08935,0.33825 0.93103,0.3239 1.076872,0.34154 0.225682,0.0273 0.532435,0.10797 0.715236,0.18885 0.0651,0.0288 0.156403,0.0696 0.160728,0.14063 0.007,0.1157 -0.07133,0.22306 -0.1326,0.32145 -0.02974,0.0478 -0.08501,0.0744 -0.1326,0.10447 -0.213906,0.13493 -0.426575,0.27307 -0.650945,0.38976 -0.217786,0.11327 -1.322857,0.66476 -1.683619,0.64692 -0.352911,-0.0175 0.01,-0.47823 0.01205,-0.48218"
       id="path1001" />
    <path
       style="fill:none;stroke:#000000;stroke-width:0.264583px;stroke-linecap:butt;stroke-linejoin:miter;stroke-opacity:1"
       d="m 26.251168,133.8752 c -0.145994,0.13662 -0.278024,0.28989 -0.437981,0.40985 -0.110903,0.0832 -0.369673,0.0449 -0.369673,-0.12858 0,-0.004 -5.56e-4,0.008 0,0.0121 0.0027,0.0186 0.01552,0.15241 0.04018,0.16474 0.008,0.004 0.008,-0.0161 0.01205,-0.0241"
       id="path1003" />
    <path
       style="fill:none;stroke:#000000;stroke-width:0.264583px;stroke-linecap:butt;stroke-linejoin:miter;stroke-opacity:1"
       d="m 28.191949,128.76416 c 0.3199,0.0217 0.634058,-0.0683 0.95231,-0.0683 0.213788,0 0.428847,0.0164 0.638892,0.0563 0.102047,0.0193 0.446296,0.12882 0.409852,0.33351 -0.149465,0.83954 -0.42273,0.92862 -0.835781,1.65144 -0.146823,0.25694 -0.336931,0.50773 -0.385744,0.79961 -0.05715,0.3417 0.330565,0.45379 0.534418,0.53039 0.324372,0.12189 0.685025,0.16443 0.980435,0.34556 0.0997,0.0611 0.10132,0.21413 0.120547,0.32948 0.0087,0.0519 -0.01929,0.10439 -0.04018,0.15269 -0.08656,0.20016 -0.158348,0.41054 -0.281274,0.59067 -0.22307,0.32687 -0.781095,0.9467 -1.257691,0.96836 -0.07489,0.003 -0.141976,-0.0482 -0.212963,-0.0723"
       id="path1005" />
    <path
       style="fill:none;stroke:#000000;stroke-width:0.264583px;stroke-linecap:butt;stroke-linejoin:miter;stroke-opacity:1"
       d="m 33.857586,133.33276 c -0.30344,0.98811 -0.734087,1.7066 -1.354127,2.54749 -0.547534,0.74255 -1.116068,1.43746 -1.751928,2.09745"
       id="path1007" />
    <path
       style="fill:none;stroke:#000000;stroke-width:0.264583px;stroke-linecap:butt;stroke-linejoin:miter;stroke-opacity:1"
       d="m 35.356368,131.84605 c 0.19957,0.0228 0.398058,0.0776 0.598707,0.0683 0.238027,-0.011 0.467382,-0.0943 0.703183,-0.12858 0.758778,-0.1103 1.530165,-0.12865 2.282328,-0.28127"
       id="path1009" />
    <path
       style="fill:none;stroke:#000000;stroke-width:0.264583px;stroke-linecap:butt;stroke-linejoin:miter;stroke-opacity:1"
       d="m 43.240039,133.35285 c -0.07501,0.13795 -0.09975,0.31918 -0.225018,0.41386 -0.221588,0.16748 -0.788514,0.10587 -1.008562,0.0482 -0.237694,-0.0623 -0.710655,-0.25642 -0.875964,-0.49423 -0.152826,-0.21985 -0.289444,-0.46032 -0.357619,-0.71924 -0.136779,-0.51947 -0.0049,-1.25023 0.184835,-1.72377 0.196504,-0.49041 0.395867,-0.99353 0.715238,-1.41438 0.102396,-0.13493 0.746053,-0.61008 1.048745,-0.34154 0.509822,0.4523 0.501022,1.1603 0.558527,1.76797 0.01376,0.1454 -0.0016,0.2923 -0.01206,0.43798 -0.06152,0.86389 -0.06441,1.07849 -0.425926,1.94477 -0.09952,0.23847 -0.382622,0.62619 -0.663001,0.70718 -0.06466,0.0187 -0.115189,-0.0696 -0.172781,-0.10447"
       id="path1011" />
    <path
       style="fill:none;stroke:#000000;stroke-width:0.264583px;stroke-linecap:butt;stroke-linejoin:miter;stroke-opacity:1"
       d="m 45.671038,133.74261 c -0.128582,0.071 -0.239019,0.20634 -0.385744,0.21296 -0.15005,0.007 -0.187211,-0.37917 -0.188854,-0.43396 -0.0058,-0.1941 0.119864,-0.27544 0.120544,-0.27323 0.04192,0.13623 -0.02164,0.51895 -0.09242,0.65897 -0.125772,0.24881 -0.115625,-0.0132 -0.120544,-0.0563"
       id="path1013" />
    <path
       style="fill:none;stroke:#000000;stroke-width:0.264583px;stroke-linecap:butt;stroke-linejoin:miter;stroke-opacity:1"
       d="m 48.045785,128.22171 c 0,0.20091 0.01281,0.40222 0,0.60272 -0.03678,0.57555 -0.110879,1.14829 -0.148675,1.72377 -0.03321,0.50565 -0.04353,1.01254 -0.06429,1.51885 -0.01408,0.34285 -0.03381,0.68556 -0.04018,1.02864 -0.007,0.37764 -0.01659,0.75577 0,1.13311 0.0176,0.40041 -0.01233,0.37737 0.160727,0.26921"
       id="path1015" />
    <path
       style="fill:none;stroke:#000000;stroke-width:0.264583px;stroke-linecap:butt;stroke-linejoin:miter;stroke-opacity:1"
       d="m 48.881566,125.61797 c 0.167424,0.27055 0.342533,0.5365 0.502272,0.81166 0.04814,0.0829 0.08819,0.17092 0.120547,0.26118 0.184777,0.51554 0.384037,1.02727 0.5304,1.55501 0.176884,0.63781 0.350977,1.2806 0.43798,1.93673 0.21907,1.65213 0.55244,3.72777 0.144656,5.47268 -0.225176,0.96353 -0.565224,1.89655 -0.847836,2.84483"
       id="path1017" />
    <path
       style="fill:none;stroke:#000000;stroke-width:0.264583px;stroke-linecap:butt;stroke-linejoin:miter;stroke-opacity:1"
       d="M 9.1239405,125.69015 H 134.49947 v 79.28389"
       id="path1019" />
    <path
       style="fill:none;stroke:#000000;stroke-width:0.264583px;stroke-linecap:butt;stroke-linejoin:miter;stroke-opacity:1"
       d="m -12.684126,122.37061 c -0.23329,0.45126 -0.465175,0.90314 -0.695146,1.35611 -0.09205,0.1813 -0.22354,0.41575 -0.273236,0.59669 -0.117427,0.42755 -0.251457,0.85627 -0.291318,1.29785 -0.06855,0.75942 0.03662,1.29017 0.245109,1.97491 0.0699,0.22956 0.138891,0.461 0.239082,0.67906 0.227491,0.49512 0.426093,0.83255 0.769482,1.22151 0.10123,0.11466 0.191292,0.25003 0.325472,0.32345 0.186941,0.1023 0.407176,0.12591 0.610764,0.18886"
       id="path1082" />
    <path
       style="fill:none;stroke:#000000;stroke-width:0.264583px;stroke-linecap:butt;stroke-linejoin:miter;stroke-opacity:1"
       d="m -9.6242811,123.30883 c -0.2231747,0.50721 -0.1899248,0.36479 -0.2792634,1.1733 -0.00814,0.0737 0.026651,0.34505 0.1265727,0.38975 0.2083175,0.0932 0.4369194,0.13965 0.6629997,0.17077 0.9599936,0.13217 -0.1444064,-0.30562 1.1753181,0.0944 0.1549392,0.047 0.2959764,0.13786 0.423918,0.23707 0.1313757,0.10187 0.2503176,0.22336 0.3455639,0.35962 0.2888771,0.41326 0.3813013,1.02253 0.3194452,1.49675 -0.04332,0.33211 -0.187483,0.65092 -0.3596272,0.93823 -0.1870284,0.31215 -0.6323595,0.68893 -1.0487454,0.62482 -0.2091341,-0.0322 -0.4044519,-0.15824 -0.556518,-0.30538 -0.4534124,-0.43872 -0.5259659,-0.78944 -0.7292998,-1.33402"
       id="path1084" />
    <path
       style="fill:none;stroke:#000000;stroke-width:0.264583px;stroke-linecap:butt;stroke-linejoin:miter;stroke-opacity:1"
       d="m -9.1139721,122.86081 c 0.1352789,0.073 0.2554865,0.187 0.4058365,0.21899 0.2464617,0.0524 0.5034759,0.0237 0.7554179,0.0281 0.4736336,0.008 0.8407681,-0.0181 1.3280091,-0.0824 0.4081439,-0.0538 1.2999408,-0.2896 1.573118,-0.3536 0.4930479,-0.11551 0.2046071,-0.023 0.5303999,-0.13661"
       id="path1086" />
    <path
       style="fill:none;stroke:#000000;stroke-width:0.264583px;stroke-linecap:butt;stroke-linejoin:miter;stroke-opacity:1"
       d="m -3.1087999,127.37919 c 0.0067,0.0609 0.021884,0.12154 0.02009,0.18282 -0.00722,0.24649 -0.080627,0.40341 -0.2451092,0.61276 -0.9068059,1.15423 -0.8183956,1.04017 -1.5650815,1.72177"
       id="path1088" />
    <path
       style="fill:none;stroke:#000000;stroke-width:0.264583px;stroke-linecap:butt;stroke-linejoin:miter;stroke-opacity:1"
       d="m 2.4121812,128.0683 c -0.1366181,0.077 -0.264615,0.17187 -0.4098545,0.23104 -0.057799,0.0236 -0.1246005,0.0166 -0.1868454,0.0121 -0.2130888,-0.0156 -0.4278969,-0.0279 -0.6368817,-0.0723 -0.17368,-0.0369 -0.40131087,-0.21285 -0.51030907,-0.33552 -0.20253844,-0.22793 -0.49831299,-0.59936 -0.5384363,-0.9322 -0.06998825,-0.58058 -0.11191537,-1.16745 -0.09241817,-1.7519 0.01896991,-0.56865 0.43990383,-1.5972 0.67103629,-2.01709 0.16105288,-0.29259 0.64454625,-1.04345 1.09495445,-1.19138 0.2020951,-0.0664 0.4269729,-0.0746 0.6368817,-0.0402 0.4093894,0.0672 0.9436673,0.75158 1.0547727,0.97239 0.3278931,0.65164 0.3816292,1.46674 0.245109,2.17581 -0.00994,0.0516 -0.2354665,1.05099 -0.3857453,1.35209 -0.344228,0.6897 -0.3520808,0.77636 -0.9020818,1.2195 -0.044647,0.036 -0.1015764,0.0616 -0.1587182,0.0663 -0.3900016,0.0322 -0.3376346,-0.10624 -0.5966999,-0.444"
       id="path1090" />
    <path
       style="fill:none;stroke:#000000;stroke-width:0.264583px;stroke-linecap:butt;stroke-linejoin:miter;stroke-opacity:1"
       d="m 4.4293083,122.0592 c 0.068979,-0.0241 0.1338659,-0.0723 0.2069364,-0.0723 0.1153938,0 0.3350088,0.20918 0.3837364,0.25516 0.3104128,0.29288 0.4539419,0.49221 0.7232726,0.87192 0.215414,0.30371 0.4618252,0.76207 0.598709,1.07887 0.075011,0.1736 0.1414912,0.35303 0.1788091,0.53843 0.088978,0.44204 0.1667219,0.88827 0.1989,1.33803 0.027627,0.38615 0.037633,0.77843 -0.020093,1.16124 -0.077764,0.51571 -0.1431782,1.05409 -0.3837363,1.51684 -0.5229365,1.00595 -0.7635311,1.14657 -1.3882814,1.5972"
       id="path1092" />
    <path
       style="fill:none;stroke:#000000;stroke-width:0.264583px;stroke-linecap:butt;stroke-linejoin:miter;stroke-opacity:1"
       d="m 117.50381,206.44452 c -0.1634,0.0121 -0.32981,0.003 -0.49021,0.0362 -0.0693,0.0144 -0.12848,0.0617 -0.18484,0.10447 -0.22288,0.1693 -0.45642,0.32915 -0.65094,0.53039 -0.25366,0.2624 -0.48554,0.70564 -0.66301,1.02864 -0.099,0.18016 -0.20553,0.35658 -0.29332,0.54245 -0.15217,0.32218 -0.30966,0.64361 -0.42593,0.98041 -0.0921,0.26686 -0.15426,0.54465 -0.19689,0.82372 -0.199,1.30274 -0.17563,1.61451 -0.0683,2.93724 0.0414,0.51076 0.36679,1.55617 0.45405,1.82825 0.24878,0.77567 0.35123,1.06092 0.74337,1.67555 0.11892,0.1864 0.23926,0.37337 0.38173,0.54245 0.12389,0.14704 0.27591,0.26787 0.41387,0.40181"
       id="path1094" />
    <path
       style="fill:none;stroke:#000000;stroke-width:0.264583px;stroke-linecap:butt;stroke-linejoin:miter;stroke-opacity:1"
       d="m 123.1574,215.54155 c -0.12323,0.0589 -0.24141,0.12984 -0.36968,0.17679 -0.0254,0.009 -0.0551,-0.002 -0.0804,-0.0121 -0.15764,-0.0614 -0.31695,-0.12106 -0.46611,-0.20091 -0.24949,-0.13356 -0.50631,-0.26119 -0.72729,-0.43797 -0.52755,-0.42203 -0.77299,-0.86141 -0.98446,-1.51082 -0.0937,-0.28788 -0.40191,-1.60784 -0.27725,-2.02915 0.26907,-0.90938 0.60645,-1.80747 1.0608,-2.6399 0.1344,-0.24623 0.41151,-0.39406 0.663,-0.51834 0.93092,-0.46004 1.95807,0.12398 2.53547,0.85988 0.39631,0.50509 0.83202,1.59144 0.82373,2.28631 -0.006,0.52239 -0.0772,1.04331 -0.16073,1.55903 -0.023,0.14192 -0.0818,0.2791 -0.15671,0.40181 -0.57772,0.94652 -0.59947,0.96575 -1.28983,1.57912 -0.1868,0.16597 -0.35343,0.36256 -0.57058,0.48619 -0.24262,0.13813 -0.87215,0.19552 -1.12911,0.15269 -0.0733,-0.0122 -0.11519,-0.0937 -0.17279,-0.14063"
       id="path1096" />
    <path
       style="fill:none;stroke:#000000;stroke-width:0.264583px;stroke-linecap:butt;stroke-linejoin:miter;stroke-opacity:1"
       d="m 128.55783,215.34064 c 0,0.12992 0.004,0.25989 0,0.38976 -5.3e-4,0.0153 -0.005,0.0306 -0.0121,0.0442 -0.0723,0.14337 -0.13051,0.29611 -0.22502,0.42592 -0.25105,0.34481 -0.53674,0.66303 -0.80766,0.99247 -0.33048,0.40187 -0.66434,0.80095 -0.99651,1.20142"
       id="path1098" />
    <path
       style="fill:none;stroke:#000000;stroke-width:0.264583px;stroke-linecap:butt;stroke-linejoin:miter;stroke-opacity:1"
       d="m 131.0933,212.33107 c 1.15024,-0.20835 2.31736,-0.29341 3.47975,-0.40181 0.52929,-0.0494 0.58258,-0.0186 1.11303,-0.25716 0.0359,-0.0162 0.0455,-0.0643 0.0683,-0.0964"
       id="path1100" />
    <path
       style="fill:none;stroke:#000000;stroke-width:0.264583px;stroke-linecap:butt;stroke-linejoin:miter;stroke-opacity:1"
       d="m 138.43452,207.19993 c -0.11796,1.5924 0.0598,-0.87838 -0.0804,1.43849 -0.0399,0.65943 -0.11215,1.17291 -0.0924,1.81619 0.0162,0.52963 0.0455,0.87683 0.42593,1.32196 0.089,0.10418 0.24661,0.12979 0.38172,0.15269 0.43008,0.0729 0.87232,0.0568 1.30189,0.13259 0.26456,0.0467 0.52457,0.12723 0.7715,0.23305 0.1417,0.0607 0.27358,0.15129 0.38172,0.26118 0.31913,0.3243 0.49679,0.62242 0.43798,1.09695 -0.0679,0.54809 -0.26841,0.93311 -0.663,1.29785 -0.16179,0.14956 -0.33594,0.3009 -0.54245,0.3777 -0.29082,0.10816 -0.60596,0.17223 -0.91615,0.16475 -0.52208,-0.0126 -0.79506,-0.39347 -1.14116,-0.70719"
       id="path1102" />
    <path
       style="fill:none;stroke:#000000;stroke-width:0.264583px;stroke-linecap:butt;stroke-linejoin:miter;stroke-opacity:1"
       d="m 138.24968,208.01561 c 0.2652,-0.0121 0.53148,-0.009 0.7956,-0.0362 0.33263,-0.0336 0.66083,-0.10256 0.9925,-0.14466 0.1012,-0.0128 0.20343,-0.0164 0.30538,-0.0201 0.41243,-0.015 0.82524,-0.0191 1.2376,-0.0362 0.30978,-0.0128 0.61866,-0.0424 0.9282,-0.0603 0.45085,-0.026 0.28678,0.0164 0.50227,-0.0482"
       id="path1104" />
    <path
       style="fill:none;stroke:#000000;stroke-width:0.264583px;stroke-linecap:butt;stroke-linejoin:miter;stroke-opacity:1"
       d="m 145.69136,204.80513 c 0.12456,0.083 0.26002,0.1517 0.37369,0.24913 0.54831,0.46997 0.93647,1.29338 1.23358,1.85235 0.71244,1.34033 0.97801,2.49379 1.10098,4.02213 0.0352,0.43792 0.0615,0.88482 -0.0121,1.31795 -0.32074,1.88827 -0.51329,1.9604 -1.36619,3.48371"
       id="path1106" />
    <path
       style="fill:none;stroke:#000000;stroke-width:0.264583px;stroke-linecap:butt;stroke-linejoin:miter;stroke-opacity:1"
       d="m 93.535361,186.61511 c -0.194212,0.26788 -0.407352,0.523 -0.582636,0.80363 -0.09114,0.14591 -0.153649,0.30863 -0.212963,0.47012 -0.3677,1.00107 -0.459952,1.40149 -0.743363,2.4189 -0.118068,0.42385 -0.358108,1.20841 -0.385747,1.65145 -0.06987,1.12011 0.04818,2.34526 0.904092,3.17431 0.112038,0.10853 0.291989,0.10983 0.437981,0.16475"
       id="path1108" />
    <path
       style="fill:none;stroke:#000000;stroke-width:0.264583px;stroke-linecap:butt;stroke-linejoin:miter;stroke-opacity:1"
       d="m 95.845817,187.29819 c 0.02387,1.09741 -0.04637,0.12393 0.104473,0.8639 0.120576,0.5915 0.239853,1.18367 0.333507,1.78002 0.08858,0.56408 0.142531,1.13304 0.212966,1.69967 0.117729,0.94712 0.193321,1.64411 0.345562,2.60374 0.044,0.27734 0.09568,0.55363 0.15671,0.82773 0.01812,0.0814 0.03065,0.17006 0.08036,0.23707 0.09176,0.12367 0.180745,-0.11379 0.184836,-0.12054"
       id="path1110" />
    <path
       style="fill:none;stroke:#000000;stroke-width:0.264583px;stroke-linecap:butt;stroke-linejoin:miter;stroke-opacity:1"
       d="m 98.831325,193.67896 c -0.01339,0.11117 -0.05312,0.22229 -0.04018,0.33351 0.0042,0.0361 0.112694,0.0241 0.108493,-0.0121 -0.01265,-0.10881 -0.04554,-0.2143 -0.06831,-0.32145 z"
       id="path1116" />
    <path
       style="fill:none;stroke:#000000;stroke-width:0.264583px;stroke-linecap:butt;stroke-linejoin:miter;stroke-opacity:1"
       d="m 102.295,186.70753 c 0.28389,1.18374 0.23246,0.51719 0.14465,1.46259 -0.16619,1.78939 -0.23002,3.58595 -0.31744,5.38026 -0.0203,0.41661 -0.0384,0.83335 -0.0643,1.24964 -0.0143,0.22935 0.005,0.46568 -0.0563,0.6871 -0.0484,0.17429 0.0107,-0.36163 0.0161,-0.54245"
       id="path1118" />
    <path
       style="fill:none;stroke:#000000;stroke-width:0.264583px;stroke-linecap:butt;stroke-linejoin:miter;stroke-opacity:1"
       d="m 105.41311,193.83567 c -0.075,0.21162 -0.11794,0.43752 -0.22502,0.63486 -0.15098,0.27824 -0.36179,0.51958 -0.54246,0.77952 -0.21311,0.30661 -0.41183,0.62371 -0.63889,0.92015 -0.22352,0.29181 -0.74841,0.83392 -1.00856,1.109"
       id="path1120" />
    <path
       style="fill:none;stroke:#000000;stroke-width:0.264583px;stroke-linecap:butt;stroke-linejoin:miter;stroke-opacity:1"
       d="m 107.03243,191.3806 c 1.1074,0.0805 0.24339,0.0639 1.53897,-0.0723 0.22958,-0.0241 0.46074,-0.0295 0.69113,-0.0442 0.31817,-0.0203 0.71364,0.005 1.00856,-0.16474 0.0312,-0.018 0.0536,-0.0482 0.0804,-0.0723"
       id="path1122" />
    <path
       style="fill:none;stroke:#000000;stroke-width:0.264583px;stroke-linecap:butt;stroke-linejoin:miter;stroke-opacity:1"
       d="m 113.07176,188.72462 c 0.36851,-0.5925 0.46633,-0.86243 1.0608,-1.30588 0.1772,-0.13219 0.38687,-0.22209 0.59871,-0.28529 0.34568,-0.10312 0.80008,0.1096 0.9282,0.45003 0.19874,0.52806 0.23233,0.96115 0.14465,1.50679 -0.10724,0.66745 -0.29317,1.4504 -0.58263,2.07737 -0.28481,0.61688 -0.8139,1.52457 -1.1934,2.12558 -0.10909,0.17277 -0.22649,0.34024 -0.34557,0.50629 -0.042,0.0586 -0.20594,0.20007 -0.18483,0.28127 0.0123,0.0473 0.0963,0.0314 0.14465,0.0241 0.10515,-0.016 0.20433,-0.0593 0.30538,-0.0924 0.5612,-0.18418 0.62529,-0.2228 1.26171,-0.47414 0.49439,-0.19524 1.03264,-0.36459 1.48673,-0.65897 0.0874,-0.0567 0.16608,-0.1259 0.24913,-0.18885"
       id="path1124" />
    <path
       style="fill:none;stroke:#000000;stroke-width:0.264583px;stroke-linecap:butt;stroke-linejoin:miter;stroke-opacity:1"
       d="m 119.80222,192.87936 c -0.0268,0.11786 -0.19823,0.3268 -0.0804,0.35359 0.11786,0.0268 0.0272,-0.46216 0.0804,-0.35359 0.0795,0.16245 0.008,0.36162 0.0121,0.54244 5.3e-4,0.0201 0,0.0804 0,0.0603 0,-0.0241 0,-0.0482 0,-0.0723"
       id="path1126" />
    <path
       style="fill:none;stroke:#000000;stroke-width:0.264583px;stroke-linecap:butt;stroke-linejoin:miter;stroke-opacity:1"
       d="m 123.96907,186.90843 c -0.1902,0.13796 -0.42331,0.2308 -0.57058,0.41387 -0.45012,0.55951 -0.7704,1.42356 -0.96839,2.10148 -0.55437,1.89821 -0.70476,2.6517 -0.81167,4.75343 -0.0244,0.47962 0.0284,0.96106 0.0804,1.43849 0.0193,0.17729 0.0562,0.35718 0.13259,0.51834 0.0378,0.0797 0.11066,0.19531 0.1969,0.17679 0.31657,-0.068 0.61088,-0.59545 0.71925,-0.82371 0.48026,-1.0116 0.46239,-1.10274 0.663,-2.1939 0.0195,-0.1062 0.0316,-0.2138 0.0402,-0.32145 0.0198,-0.24775 0.10935,-0.63321 -0.16072,-0.82371 -0.0725,-0.0512 -0.18383,-0.0113 -0.2652,0.0241 -0.18573,0.081 -0.34501,0.21254 -0.51835,0.31744 -0.29003,0.17551 -0.59504,0.37946 -0.91615,0.50628 -0.0418,0.0165 -0.0884,0.0161 -0.13259,0.0241"
       id="path1128" />
    <path
       style="fill:none;stroke:#000000;stroke-width:0.264583px;stroke-linecap:butt;stroke-linejoin:miter;stroke-opacity:1"
       d="m 126.21121,186.06061 c 0.18618,0.1259 0.39637,0.22209 0.55853,0.37771 0.17453,0.16748 0.31292,0.37155 0.43798,0.5786 0.58452,0.96772 0.67439,1.31646 0.88802,2.49927 0.0379,0.20972 0.0404,0.4264 0.0241,0.63888 -0.12199,1.59212 -0.25895,3.84374 -0.76747,5.48474 -0.29697,0.95831 -0.7072,1.8778 -1.0608,2.8167"
       id="path1130" />
    <path
       style="fill:none;stroke:#000000;stroke-width:0.264583px;stroke-linecap:butt;stroke-linejoin:miter;stroke-opacity:1"
       d="m 24.754291,170.84651 c -0.182157,0.21296 -0.390262,0.40622 -0.546472,0.63888 -0.225961,0.33655 -0.405057,0.70251 -0.594691,1.06078 -0.999489,1.88835 -1.35531,3.93882 -1.141164,6.06334 0.112404,1.11515 0.230067,1.55002 0.663,2.52338 0.110923,0.24939 0.635239,0.76457 0.715237,0.85185"
       id="path1132" />
    <path
       style="fill:none;stroke:#000000;stroke-width:0.264583px;stroke-linecap:butt;stroke-linejoin:miter;stroke-opacity:1"
       d="m 25.417292,175.1901 c -0.09778,-0.13394 -0.253543,-0.24083 -0.293328,-0.40181 -0.03091,-0.12508 0.268183,-0.51093 0.321455,-0.57861 0.416616,-0.5293 1.03838,-1.14758 1.763981,-1.18133 0.410901,-0.0191 0.384387,0.88792 0.385747,0.95631 0.0036,0.18175 -0.01968,0.36438 -0.05626,0.54245 -0.0655,0.31886 -0.136332,0.6389 -0.249126,0.94426 -0.13661,0.36982 -0.584036,1.25468 -0.823727,1.66349 -0.02483,0.0423 -0.617349,0.88567 -0.703183,1.23758 -0.0043,0.0175 0.0222,0.035 0.04018,0.0362 0.105648,0.007 0.213039,0.006 0.317436,-0.0121 0.196976,-0.0334 0.388578,-0.0931 0.582637,-0.14063 1.479161,-0.36979 -0.637834,0.15177 0.743362,-0.16474 0.139015,-0.0319 0.275561,-0.0737 0.413875,-0.10849 0.0961,-0.0242 0.193042,-0.0448 0.289308,-0.0683 0.01357,-0.003 0.02899,-0.004 0.04018,-0.0121 0.01675,-0.0125 0.05138,-0.0305 0.04018,-0.0482 -0.03316,-0.0523 -0.09643,-0.0777 -0.144653,-0.11653"
       id="path1134" />
    <path
       style="fill:none;stroke:#000000;stroke-width:0.264583px;stroke-linecap:butt;stroke-linejoin:miter;stroke-opacity:1"
       d="m 30.564582,178.09118 c -0.534379,-5.3e-4 -0.475089,0.0332 -0.767472,-0.28529 -0.07352,-0.0801 -0.129175,-0.13209 -0.144656,-0.0924 -0.0085,0.0218 -0.01876,0.27261 0.05224,0.30538 0.01032,0.005 0.01606,-0.0161 0.0241,-0.0241"
       id="path1136" />
    <path
       style="fill:none;stroke:#000000;stroke-width:0.264583px;stroke-linecap:butt;stroke-linejoin:miter;stroke-opacity:1"
       d="m 32.850928,171.80282 c -0.524113,1.20519 -0.903978,2.50029 -0.956328,3.82123 -0.02117,0.53442 0.02214,1.07006 0.06429,1.60323 0.04484,0.56732 0.196125,1.60006 0.610764,2.05326 0.04913,0.0537 0.15998,0.0981 0.212963,0.0482 0.391329,-0.3686 0.466791,-0.75682 0.542454,-1.24964 0.03436,-0.22377 0.06291,-0.5642 -0.19689,-0.70719 -0.138453,-0.0762 -0.331052,0.08 -0.425928,0.16475 -0.309894,0.27686 -0.505183,0.48919 -0.847837,0.74335 -0.07753,0.0575 -0.156802,0.13461 -0.253145,0.14063 -0.05873,0.004 -0.0884,-0.0777 -0.132599,-0.11652"
       id="path1138" />
    <path
       style="fill:none;stroke:#000000;stroke-width:0.264583px;stroke-linecap:butt;stroke-linejoin:miter;stroke-opacity:1"
       d="m 35.635528,171.85104 c -0.06563,0.20358 -0.121153,0.41071 -0.196893,0.61075 -0.488225,1.28954 0.305959,-1.33686 -0.546473,1.34607 -0.103383,0.32539 -0.188031,0.65733 -0.253145,0.99248 -0.185103,0.95276 -0.322287,1.6827 -0.289309,2.61579 0.01125,0.31809 -0.01299,1.12881 0.329491,1.44251 0.154937,0.14191 0.470691,-0.19018 0.506291,-0.23707 0.301053,-0.39655 0.400502,-0.70758 0.502274,-1.19338 0.03264,-0.15581 0.06233,-0.45216 -0.04018,-0.61076 -0.128365,-0.19859 -0.399918,0.009 -0.514329,0.0563 -0.126182,0.0525 -0.245176,0.12223 -0.373689,0.16876 -0.03501,0.0127 -0.136253,-0.007 -0.172781,-0.0121"
       id="path1140" />
    <path
       style="fill:none;stroke:#000000;stroke-width:0.264583px;stroke-linecap:butt;stroke-linejoin:miter;stroke-opacity:1"
       d="m 39.139381,177.84205 c -0.247433,0.56778 -0.384355,1.17719 -0.622819,1.74789 -0.171426,0.41026 -0.331404,0.62581 -0.558527,0.96434"
       id="path1142" />
    <path
       style="fill:none;stroke:#000000;stroke-width:0.264583px;stroke-linecap:butt;stroke-linejoin:miter;stroke-opacity:1"
       d="m 41.847635,174.64765 c -0.03616,0.10581 -0.100603,0.20589 -0.10849,0.31743 -0.0043,0.0607 0.176858,0.12368 0.200908,0.12858 0.27849,0.0568 0.553168,0.0456 0.835782,0 0.23767,-0.0383 0.467805,-0.11421 0.703181,-0.16474 0.220104,-0.0473 0.441023,-0.0911 0.663001,-0.12858 0.198731,-0.0335 0.398565,-0.0607 0.598709,-0.0844 0.105381,-0.0125 0.215212,0.004 0.317437,-0.0241 0.170116,-0.0474 0.32681,-0.13394 0.490217,-0.20091"
       id="path1144" />
    <path
       style="fill:none;stroke:#000000;stroke-width:0.264583px;stroke-linecap:butt;stroke-linejoin:miter;stroke-opacity:1"
       d="m 47.420852,169.65715 c 0.115398,0.40175 0.156776,0.48889 0.200909,0.95229 0.01651,0.17338 0.01381,0.3482 0.01206,0.52236 -0.0084,0.82888 -0.03687,1.17505 -0.06831,1.98093 -0.03495,0.89589 -0.06168,1.79208 -0.09242,2.68812 -0.01741,0.5036 -0.03482,1.00721 -0.05224,1.51081 -0.01741,0.40047 -0.03757,0.80084 -0.05224,1.20142 -0.02859,0.78091 0.03135,0.31146 -0.09242,1.00453"
       id="path1146" />
    <path
       style="fill:none;stroke:#000000;stroke-width:0.264583px;stroke-linecap:butt;stroke-linejoin:miter;stroke-opacity:1"
       d="m 49.108489,177.77375 c -0.03187,-0.29302 -0.09635,-0.56523 0.05224,-0.82774 0.01167,-0.0206 0.02866,-0.0459 0.05224,-0.0482 0.201446,-0.0201 0.01762,0.60878 0.172781,0.32948"
       id="path1148" />
    <path
       style="fill:none;stroke:#000000;stroke-width:0.264583px;stroke-linecap:butt;stroke-linejoin:miter;stroke-opacity:1"
       d="m 54.733943,172.65065 c -0.0442,-0.23975 -0.03018,-0.49802 -0.132601,-0.71925 -0.202567,-0.43754 -0.484195,-0.81989 -0.916143,-1.02462 -0.496946,-0.23552 -1.425131,-0.33832 -1.486729,0.44601 -0.0762,0.97025 0.271008,1.65182 0.703181,2.46713 0.181848,0.34306 0.933426,1.71137 1.117055,2.08942 0.130781,0.26925 0.266086,0.53872 0.357619,0.82371 0.1379,0.42937 0.374943,1.03162 -0.148672,1.32196 -0.253582,0.14061 -0.737177,0.16229 -1.02062,0.0924 -0.140888,-0.0347 -0.315685,-0.0572 -0.397798,-0.1768 -0.230103,-0.33525 -0.360995,-0.73149 -0.49022,-1.11703 -0.03661,-0.10922 -0.01918,-0.23198 0,-0.34556 0.06555,-0.38806 0.131098,-0.77905 0.253145,-1.1532 0.115419,-0.35383 0.471903,-1.20109 0.743365,-1.6635 0.37845,-0.64466 0.440778,-0.71773 0.95231,-1.33402 0.029,-0.0349 0.207513,-0.17189 0.229036,-0.18885"
       id="path1150" />
    <path
       style="fill:none;stroke:#000000;stroke-width:0.264583px;stroke-linecap:butt;stroke-linejoin:miter;stroke-opacity:1"
       d="m 56.61847,171.89524 c 0.862666,0.0437 1.701474,-0.19051 2.559582,-0.20894 0.257527,-0.006 0.51476,0.0232 0.77149,0.0442 0.460521,0.0376 0.828675,0.24162 0.904092,0.71924 0.07923,0.50178 -0.09327,1.16843 -0.160729,1.60725 -0.10501,0.68313 -0.215336,1.47581 -0.345562,2.16978 -0.153474,0.81783 -0.232494,0.99721 -0.369673,1.90057 -0.05283,0.34789 -0.09793,0.69758 -0.120547,1.04873 -0.0011,0.0178 0.03904,0.0241 0.05224,0.0121 0.02572,-0.0235 0.02679,-0.0643 0.04018,-0.0964"
       id="path1152" />
    <path
       style="fill:none;stroke:#000000;stroke-width:0.264583px;stroke-linecap:butt;stroke-linejoin:miter;stroke-opacity:1"
       d="m 63.188196,169.09059 c 0.205946,0.20363 0.44678,0.42387 0.622818,0.65898 0.343223,0.45838 0.258067,0.36273 0.450038,0.71924 0.796827,1.4798 0.304562,0.53811 0.851852,1.59519 0.342183,0.66091 0.562904,1.00936 0.703184,1.85235 0.08762,0.52658 0.0118,1.70811 -0.132602,2.2622 -0.520784,1.99828 -0.649409,2.34885 -1.56709,3.99803 -0.08494,0.15265 -0.203589,0.28395 -0.305382,0.42592"
       id="path1154" />
    <path
       style="fill:none;stroke:#000000;stroke-width:0.264583px;stroke-linecap:butt;stroke-linejoin:miter;stroke-opacity:1"
       d="m 44.452659,88.924692 c -0.0817,0.06898 -0.172072,0.128839 -0.24511,0.206934 -0.565635,0.604805 -0.640668,1.592836 -0.662999,2.366671 -0.01416,0.490654 0.02283,0.924732 0.09242,1.402324 0.04881,0.335049 0.280857,1.082974 0.319447,1.203428 0.07111,0.22199 0.163542,0.436583 0.245107,0.654952 0.08711,0.233206 0.08985,0.299559 0.305382,0.51231 0.01873,0.01849 0.05224,-0.0067 0.07835,-0.01005"
       id="path1156" />
    <path
       style="fill:none;stroke:#000000;stroke-width:0.264583px;stroke-linecap:butt;stroke-linejoin:miter;stroke-opacity:1"
       d="m 46.164404,90.027666 c 0.374997,-0.322709 0.429062,-0.406529 0.863907,-0.63687 0.169384,-0.08972 0.524634,-0.227259 0.723273,-0.17077 0.272772,0.07757 0.299746,0.309649 0.271227,0.536419 -0.08269,0.657542 -0.330496,1.198245 -0.622816,1.782034 -0.138665,0.276924 -0.280096,0.552506 -0.425929,0.825723 -0.03464,0.06491 -0.512773,0.882576 -0.50428,0.950285 0.01453,0.115745 0.20922,0.118954 0.325472,0.12858 0.104569,0.0087 0.20429,-0.04824 0.305382,-0.07634 0.173538,-0.04825 0.345382,-0.10241 0.518345,-0.152689 0.227534,-0.06614 0.349806,-0.09262 0.616792,-0.158715 0.122118,-0.03023 0.200747,-0.05607 0.325472,-0.06027 0.0096,-2.65e-4 0.02183,0.0035 0.02611,0.01207 0.0069,0.01386 -0.05384,0.01929 -0.08036,0.0241"
       id="path1158" />
    <path
       style="fill:none;stroke:#000000;stroke-width:0.264583px;stroke-linecap:butt;stroke-linejoin:miter;stroke-opacity:1"
       d="m 49.264429,92.689671 c 0.0288,-0.06094 0.147333,-0.154027 0.08639,-0.182825 -0.06094,-0.0288 -0.0576,0.121883 -0.08639,0.182825 z"
       id="path1160" />
    <path
       style="fill:none;stroke:#000000;stroke-width:0.264583px;stroke-linecap:butt;stroke-linejoin:miter;stroke-opacity:1"
       d="m 51.693421,89.290341 c -0.314153,0.597178 -0.562798,1.018077 -0.789573,1.657475 -0.188777,0.532265 -0.313253,1.00304 -0.391774,1.546976 -0.02,0.138501 -0.03231,0.278167 -0.04018,0.417883 -0.0055,0.09829 -0.01474,0.197998 0,0.295333 0.01241,0.08187 0.03166,0.168093 0.08036,0.235059 0.08238,0.113265 0.246695,-0.05975 0.271227,-0.09443 0.154837,-0.21885 0.330541,-0.61165 0.437983,-0.865904 0.0867,-0.205187 0.307398,-0.633849 0.245107,-0.902068 -0.01069,-0.04606 -0.09261,-0.04104 -0.138625,-0.03014 -0.0528,0.01252 -0.09171,0.05876 -0.132602,0.09442 -0.0746,0.06506 -0.140964,0.139012 -0.212963,0.206934 -0.03451,0.03255 -0.06686,0.06834 -0.106481,0.09443 -0.06342,0.04174 -0.05224,0.0088 -0.05224,-0.0241"
       id="path1162" />
    <path
       style="fill:none;stroke:#000000;stroke-width:0.264583px;stroke-linecap:butt;stroke-linejoin:miter;stroke-opacity:1"
       d="m 53.610094,89.003046 c -0.09242,0.212291 -0.177229,0.428059 -0.277254,0.636873 -0.08361,0.174546 -0.186209,0.33944 -0.273238,0.51231 -0.296712,0.589381 -0.525222,1.103792 -0.755417,1.739845 -0.07178,0.198339 -0.135681,0.401103 -0.172781,0.608745 -0.04962,0.277675 -0.08399,0.559734 -0.08639,0.841796 -2.64e-4,0.04246 0.03648,0.1075 0.07835,0.100452 0.261744,-0.04404 0.412901,-0.221261 0.538437,-0.429938 0.17461,-0.290256 0.388009,-0.714668 0.423919,-1.060783 0.01826,-0.17603 -0.119854,-0.168405 -0.204928,-0.118536 -0.06406,0.03755 -0.119036,0.08939 -0.172781,0.140634 -0.133332,0.12713 -0.254442,0.266568 -0.385747,0.395785"
       id="path1164" />
    <path
       style="fill:none;stroke:#000000;stroke-width:0.264583px;stroke-linecap:butt;stroke-linejoin:miter;stroke-opacity:1"
       d="m 54.958194,92.772041 c 0.05491,0.02143 0.123687,0.02199 0.164745,0.06429 0.195519,0.201441 -0.508923,0.973828 -0.550492,1.026628"
       id="path1168" />
    <path
       style="fill:none;stroke:#000000;stroke-width:0.264583px;stroke-linecap:butt;stroke-linejoin:miter;stroke-opacity:1"
       d="m 58.208901,89.191898 c -0.0021,-0.05558 0.04956,-0.168759 -0.006,-0.166751 -0.05558,0.0021 0.009,0.111209 0.006,0.166751 -0.04177,0.495001 -0.04165,0.442963 -0.0663,0.930195 -0.0098,0.192818 -0.01741,0.385739 -0.02611,0.57861 -0.0288,0.505613 -0.05932,1.011129 -0.08639,1.516837 -0.01082,0.20237 -0.02558,0.670015 -0.04018,0.883987 -0.01074,0.15758 -0.02588,0.314833 -0.04018,0.47213 -0.03433,0.377635 -0.03214,0.208542 -0.03214,0.389758"
       id="path1170" />
    <path
       style="fill:none;stroke:#000000;stroke-width:0.264583px;stroke-linecap:butt;stroke-linejoin:miter;stroke-opacity:1"
       d="m 59.329975,92.872495 c -0.01355,-0.04394 -0.133188,-0.234132 0.01405,-0.261178 0.01974,-0.0036 0.0272,0.03421 0.02611,0.05424 -0.0038,0.07017 -0.02679,0.137954 -0.04018,0.206933 z"
       id="path1172" />
    <path
       style="fill:none;stroke:#000000;stroke-width:0.264583px;stroke-linecap:butt;stroke-linejoin:miter;stroke-opacity:1"
       d="m 61.758964,89.191898 c -0.244652,0.412694 -0.279553,0.443661 -0.490217,0.978413 -0.09414,0.238974 -0.253363,0.845675 -0.305382,1.072838 -0.114255,0.498933 -0.199597,0.97537 -0.206936,1.492729 -0.0056,0.396107 -0.03925,0.789524 0.538437,0.719243 0.104963,-0.01278 0.153398,-0.151664 0.198898,-0.247113 0.106926,-0.224306 0.189119,-0.461065 0.253146,-0.701162 0.03173,-0.118983 -0.0451,-0.304588 -0.212963,-0.277251 -0.154909,0.02524 -0.290762,0.121841 -0.423918,0.204925 -0.861725,0.537689 -0.05957,0.128228 -0.405837,0.301358"
       id="path1174" />
    <path
       style="fill:none;stroke:#000000;stroke-width:0.264583px;stroke-linecap:butt;stroke-linejoin:miter;stroke-opacity:1"
       d="m 63.093001,89.609783 c 0.412232,0.01043 0.820949,0.06429 1.233583,0.06429 0.168106,0 0.336248,-0.01101 0.50428,-0.006 0.243604,0.0072 0.558758,-0.0487 0.723273,0.194879 0.09002,0.133287 0.02989,0.503497 0.01408,0.602718 -0.04445,0.278731 -0.105175,0.554623 -0.158719,0.83175 -0.05696,0.294788 -0.11613,0.589142 -0.172783,0.883986 -0.128294,0.667708 -0.04915,0.309443 -0.186844,0.932204 -0.0409,0.184973 -0.09089,0.368077 -0.124565,0.5545 -0.01265,0.07001 -0.08373,0.198546 -0.01408,0.212961 0.0697,0.01442 0.0463,-0.13466 0.07233,-0.200906 0.0182,-0.04633 0.04018,-0.09108 0.06027,-0.136615"
       id="path1176" />
    <path
       style="fill:none;stroke:#000000;stroke-width:0.264583px;stroke-linecap:butt;stroke-linejoin:miter;stroke-opacity:1"
       d="m 66.948446,88.659498 c 0.0596,0.07902 0.126833,0.152834 0.178811,0.237069 0.09557,0.154898 0.267155,0.629261 0.293325,0.725271 0.215132,0.789231 0.215056,1.189733 0.17881,2.087411 -0.01095,0.271323 -0.04689,0.542716 -0.106481,0.807641 -0.189669,0.843246 -0.326313,1.325409 -0.815692,2.013077 -0.09915,0.139324 -0.247788,0.235731 -0.371681,0.353594"
       id="path1178" />
    <path
       style="fill:none;stroke:#000000;stroke-width:0.264583px;stroke-linecap:butt;stroke-linejoin:miter;stroke-opacity:1"
       d="m 88.366083,68.234123 c -0.107151,0.137956 -0.214302,0.27591 -0.321453,0.413866 -0.140637,0.133937 -0.297624,0.252577 -0.42191,0.401812 -0.230584,0.276871 -0.447921,0.566386 -0.638892,0.871932 -0.1251,0.20016 -0.20711,0.424273 -0.305379,0.638881 -0.251331,0.548873 -0.528585,1.087266 -0.743366,1.651445 -0.245337,0.644451 -0.502216,1.29219 -0.634873,1.968878 -0.244562,1.247545 0.134795,2.49595 0.450038,3.680598 0.227174,0.853694 0.41547,1.726946 0.771491,2.53543 0.589666,1.339075 0.450641,1.316601 1.060799,1.096947"
       id="path1180" />
    <path
       style="fill:none;stroke:#000000;stroke-width:0.264583px;stroke-linecap:butt;stroke-linejoin:miter;stroke-opacity:1"
       d="m 90.965847,69.122128 c -0.04822,0.136615 -0.118806,0.267295 -0.144656,0.409847 -0.01913,0.105505 0.0045,0.21449 0.01207,0.32145 0.02326,0.329753 0.07632,0.657908 0.08037,0.988457 0.0053,0.436949 -0.0181,0.874258 -0.05224,1.309907 -0.04628,0.590865 -0.128,1.178425 -0.188854,1.76797 -0.08811,0.853646 -0.212447,1.932289 -0.249126,2.832775 -0.01347,0.330594 -0.02223,0.661664 -0.01606,0.992476 0.0074,0.400595 -0.0093,0.358497 0.148672,0.188851"
       id="path1182" />
    <path
       style="fill:none;stroke:#000000;stroke-width:0.264583px;stroke-linecap:butt;stroke-linejoin:miter;stroke-opacity:1"
       d="m 96.26181,68.824786 c 0,0.283949 0.0073,0.567989 0,0.851842 -0.01011,0.392692 -0.03662,0.784797 -0.05224,1.177309 -0.05795,1.456309 -0.132019,2.9182 -0.08037,4.375729 0.01635,0.461232 0.05226,0.921568 0.08037,1.382234 0.0093,0.151807 0.04311,1.319244 0.15671,1.603229"
       id="path1186" />
    <path
       style="fill:none;stroke:#000000;stroke-width:0.264583px;stroke-linecap:butt;stroke-linejoin:miter;stroke-opacity:1"
       d="m 102.34132,74.534532 c 0.0255,0.251801 0.11686,0.505584 0.0763,0.755406 -0.0465,0.286682 -0.55583,1.173441 -0.70318,1.414378 -0.27489,0.449487 -0.568,0.887587 -0.84783,1.334016 -0.18362,0.292928 -0.36164,0.589322 -0.54246,0.883986"
       id="path1188" />
    <path
       style="fill:none;stroke:#000000;stroke-width:0.264583px;stroke-linecap:butt;stroke-linejoin:miter;stroke-opacity:1"
       d="m 104.60757,69.556084 c 0.65703,-0.3575 1.07944,-1.011888 1.68764,-1.438487 0.27865,-0.195447 0.59254,-0.336335 0.90007,-0.482174 0.084,-0.03981 0.17754,-0.08744 0.26922,-0.07233 0.71973,0.118689 0.98389,0.102674 1.08491,0.803624 0.10432,0.723863 -0.21789,1.964071 -0.35762,2.511325 -0.26392,1.033658 -0.57624,1.743974 -1.03267,2.712227 -0.29372,0.623084 -0.60287,1.23887 -0.91615,1.852354 -0.20112,0.393853 -0.42109,0.777814 -0.62683,1.169273 -0.0433,0.08241 -0.27407,0.512696 -0.14466,0.602718 0.11422,0.07945 0.59934,-0.05581 0.75542,-0.120544 0.99617,-0.413195 0.9945,-0.431472 1.94078,-0.956313 0.19347,-0.107304 0.6479,-0.354478 0.84784,-0.518337 0.2049,-0.167926 0.2975,-0.386017 0.42592,-0.610754"
       id="path1190" />
    <path
       style="fill:none;stroke:#000000;stroke-width:0.264583px;stroke-linecap:butt;stroke-linejoin:miter;stroke-opacity:1"
       d="m 111.96084,75.314047 c -0.37315,-0.394843 -0.33311,-0.207116 -0.36967,-0.566555 -0.001,-0.01199 0,-0.04822 0,-0.03616 0,0.145801 -0.0122,0.294584 -0.0402,0.437975 -0.0108,0.05548 -0.0297,0.109199 -0.0402,0.164743 -0.003,0.0158 -0.002,0.06416 0,0.04822 0.0154,-0.121645 0.0268,-0.243766 0.0402,-0.365649"
       id="path1192" />
    <path
       style="fill:none;stroke:#000000;stroke-width:0.264583px;stroke-linecap:butt;stroke-linejoin:miter;stroke-opacity:1"
       d="m 116.91124,68.51941 c -0.10983,0.113847 -0.23633,0.21369 -0.32949,0.34154 -0.10273,0.140993 -0.17336,0.302921 -0.25314,0.458065 -0.18682,0.363294 -0.35979,0.733589 -0.54647,1.096946 -0.44766,0.871287 -1.14956,2.149663 -1.56308,3.00957 -0.0523,0.108706 -0.40347,0.86842 -0.24109,1.072837 0.16937,0.213225 0.95832,-0.03356 1.0608,-0.06831 0.51547,-0.174749 1.03089,-0.354531 1.52691,-0.578609 0.79436,-0.358852 1.58109,-0.853477 2.27027,-1.394286 0.14021,-0.110021 0.75312,-0.602358 0.83579,-0.835768 0.0845,-0.238697 0.0536,-0.503606 0.0804,-0.755407"
       id="path1194" />
    <path
       style="fill:none;stroke:#000000;stroke-width:0.264583px;stroke-linecap:butt;stroke-linejoin:miter;stroke-opacity:1"
       d="m 116.48532,68.977475 c 0.067,0.31877 0.13728,0.636857 0.20091,0.956312 0.13262,0.665893 0.22568,1.151576 0.30538,1.81619 0.0904,0.753851 0.22323,2.435916 0.2652,2.985461 0.27273,3.57143 -0.11294,-1.017911 0.22501,2.9493 0.0549,0.644387 0.0298,0.419912 0.0924,0.89604"
       id="path1196" />
    <path
       style="fill:none;stroke:#000000;stroke-width:0.264583px;stroke-linecap:butt;stroke-linejoin:miter;stroke-opacity:1"
       d="m 121.97013,67.374245 c 0.0964,0.251804 0.20638,0.49884 0.28931,0.755407 0.17847,0.552132 0.29702,1.141735 0.3978,1.711719 0.10759,0.60842 0.21298,1.217335 0.30539,1.828242 0.21387,1.413909 0.33138,2.550747 0.34556,4.034192 0.0145,1.516337 -0.13173,2.198494 -0.72729,3.656486 -0.0668,0.163539 -0.23038,0.267875 -0.34557,0.401812"
       id="path1198" />
    <path
       style="fill:none;stroke:#000000;stroke-width:0.264583px;stroke-linecap:butt;stroke-linejoin:miter;stroke-opacity:1"
       d="m 93.726337,76.989603 c -0.302805,0.06417 -0.569192,0.315624 -0.888018,0.329486 -0.05352,0.0024 -0.107492,0.006 -0.160726,0 -0.0039,-5.3e-4 -0.139285,-0.05681 -0.104474,-0.01207 0.0096,0.01233 0.02679,0.01606 0.04018,0.0241 0.01339,0.01606 0.02793,0.03126 0.04018,0.04822 0.02172,0.03008 0.01664,0.07971 0.06429,0.09242 0.08291,0.02212 0.110217,-0.134358 0.144653,-0.21296 0.03585,-0.08184 0.0762,-0.161798 0.108492,-0.245105 0.01389,-0.03582 0.08917,-0.342715 0.156708,-0.401812 0.05061,-0.04428 0.02813,0.272335 0.02813,0.317431 0,0.008 -0.0013,-0.01619 0,-0.0241 0.0079,-0.04315 0.01336,-0.08726 0.02813,-0.12858 0.01299,-0.03635 0.160306,-0.281038 0.237072,-0.212961 0.130707,0.115906 0.203589,0.283946 0.305382,0.425921 z"
       id="path1202" />
    <path
       style="fill:none;stroke:#000000;stroke-width:0.264583px;stroke-linecap:butt;stroke-linejoin:miter;stroke-opacity:1"
       d="m 147.70257,84.716444 c -0.11117,0.09777 -0.24844,0.172157 -0.33351,0.293323 -0.13974,0.199019 -0.57881,1.204309 -0.663,1.394285 -0.0936,0.211119 -0.19777,0.418052 -0.27726,0.634862 -0.19637,0.535681 -0.41089,1.213091 -0.53039,1.792082 -0.12458,0.603535 -0.25699,1.20633 -0.34557,1.816189 -0.0403,0.277339 -0.0435,0.559557 -0.0402,0.839788 0.008,0.666112 0.0306,1.262949 0.18484,1.900568 0.16614,0.687089 0.34011,1.446559 0.96838,1.872443 0.20316,0.137724 0.35259,0.120544 0.55852,0.120544"
       id="path1204" />
    <path
       style="fill:none;stroke:#000000;stroke-width:0.264583px;stroke-linecap:butt;stroke-linejoin:miter;stroke-opacity:1"
       d="m 147.66239,90.494497 c 0.12322,-0.008 0.24706,-0.0094 0.36967,-0.0241 0.6651,-0.07957 1.32524,-0.204547 1.99302,-0.25716 0.53499,-0.04215 0.65991,-0.03616 1.11303,-0.03616 0.19271,0 0.37881,0.04768 0.46611,-0.176797"
       id="path1206" />
    <path
       style="fill:none;stroke:#000000;stroke-width:0.264583px;stroke-linecap:butt;stroke-linejoin:miter;stroke-opacity:1"
       d="m 155.81126,92.322741 c -0.20761,0.0442 -0.41075,0.141534 -0.62282,0.132596 -0.25577,-0.01077 -0.64104,-0.316071 -0.7956,-0.48619 -0.21722,-0.239091 -0.33872,-0.705771 -0.38574,-0.976402 -0.0317,-0.182182 -0.0377,-0.370856 -0.0161,-0.554501 0.11501,-0.977593 0.32467,-1.574874 1.02463,-2.26622 0.15254,-0.150667 0.30136,-0.326951 0.50227,-0.401812 0.59753,-0.222639 1.08166,-0.0951 1.39431,0.518337 0.26951,0.528781 0.41739,1.117024 0.5304,1.699665 0.12194,0.628637 0.0344,1.510811 -0.32949,2.065314 -0.22496,0.342842 -0.99452,0.45902 -1.30189,0.269213 -0.17587,-0.108603 -0.13308,-0.391392 -0.20091,-0.586644 -0.0206,-0.05924 -0.0429,-0.117867 -0.0643,-0.176798"
       id="path1208" />
    <path
       style="fill:none;stroke:#000000;stroke-width:0.264583px;stroke-linecap:butt;stroke-linejoin:miter;stroke-opacity:1"
       d="m 158.76864,93.114309 c -0.0884,-0.109829 -0.18957,-0.210503 -0.2652,-0.329486 -0.0357,-0.05612 -0.043,-0.125857 -0.0643,-0.188849 -0.01,-0.02809 -0.0281,-0.05473 -0.0281,-0.08438 0,-0.02577 0.06,0.01177 0.0683,0.03616 0.0182,0.05351 0.0202,0.111858 0.0402,0.164743 0.047,0.124569 0.0595,-0.0085 0.0522,-0.03616 -0.009,-0.03249 -0.0268,-0.06161 -0.0402,-0.09242"
       id="path1210" />
    <path
       style="fill:none;stroke:#000000;stroke-width:0.264583px;stroke-linecap:butt;stroke-linejoin:miter;stroke-opacity:1"
       d="m 161.89077,86.934444 c -0.0188,0.105812 -0.0134,0.218884 -0.0563,0.317431 -0.053,0.121968 -0.15747,0.214916 -0.22502,0.329486 -0.11351,0.19255 -0.21201,0.393567 -0.31743,0.590663 -0.20507,0.383387 -0.40849,0.765816 -0.59871,1.157219 -0.0927,0.190823 -0.18291,0.383053 -0.2652,0.578609 -0.0285,0.06769 -0.15063,0.293855 -0.0121,0.373685 0.4054,0.233539 1.39115,-0.166526 1.64746,-0.245105 0.32477,-0.09957 0.64553,-0.211804 0.96838,-0.317431 0.18478,-0.06046 0.37073,-0.117407 0.55451,-0.180817 0.0454,-0.01566 0.093,-0.02914 0.1326,-0.05625 0.0634,-0.0434 0.11519,-0.101793 0.17278,-0.152688"
       id="path1212" />
    <path
       style="fill:none;stroke:#000000;stroke-width:0.264583px;stroke-linecap:butt;stroke-linejoin:miter;stroke-opacity:1"
       d="m 162.8712,87.605469 c 0,0.286626 0.0206,0.573993 0,0.859878 -0.0197,0.274137 -0.0838,0.543306 -0.12054,0.815678 -0.14187,1.05065 -0.27241,2.104271 -0.34557,3.162258 -0.0895,1.294754 -0.11718,0.882682 -0.0522,1.542957"
       id="path1214" />
    <path
       style="fill:none;stroke:#000000;stroke-width:0.264583px;stroke-linecap:butt;stroke-linejoin:miter;stroke-opacity:1"
       d="m 167.06618,86.379943 c -0.067,0.172781 -0.0984,0.36395 -0.20091,0.518337 -0.82554,1.243727 0.0112,-0.771747 -0.92819,1.177309 -0.65648,1.362051 -1.10334,2.904662 -1.24564,4.411895 -0.0233,0.246687 -0.0136,0.495938 0,0.743352 0.0218,0.398214 0.0405,0.886812 0.38173,1.181325 0.0712,0.06148 0.20501,0.03103 0.28127,-0.0241 0.19969,-0.144389 0.35826,-0.342477 0.50227,-0.542446 0.1408,-0.195517 0.24297,-0.416857 0.34557,-0.634863 0.3843,-0.816628 0.47023,-1.043186 0.65094,-1.888514 0.0159,-0.07425 0.0243,-0.459996 -0.0281,-0.506282 -0.15023,-0.132766 -0.4356,-0.243002 -0.63487,-0.132599 -0.1524,0.08444 -0.29575,0.184653 -0.43798,0.285287 -0.14193,0.10042 -0.26633,0.225467 -0.41387,0.317431 -0.0507,0.03163 -0.11538,0.06496 -0.17278,0.04822 -0.12823,-0.0374 -0.16457,-0.304972 -0.18484,-0.377703"
       id="path1216" />
    <path
       style="fill:none;stroke:#000000;stroke-width:0.264583px;stroke-linecap:butt;stroke-linejoin:miter;stroke-opacity:1"
       d="m 169.04313,92.298633 c -0.24235,0.708747 -0.44,1.317032 -0.83578,1.972894 -0.0652,0.107998 -0.16877,0.187513 -0.25315,0.281268"
       id="path1218" />
    <path
       style="fill:none;stroke:#000000;stroke-width:0.264583px;stroke-linecap:butt;stroke-linejoin:miter;stroke-opacity:1"
       d="m 173.61584,86.106713 c -0.0134,0.10581 -0.0361,0.210855 -0.0402,0.317431 -0.005,0.137912 0.011,0.275855 0.0121,0.413864 0.003,0.385728 0.004,0.771504 0,1.157219 -0.008,0.726488 -0.0443,1.39129 -0.0643,2.121567 -0.0202,0.739264 -0.0373,1.478613 -0.0522,2.218002 -0.002,0.07414 -0.0125,1.529911 -0.0402,1.828242 -0.0912,0.982196 -0.0143,0.736205 -0.24109,1.273743"
       id="path1220" />
    <path
       style="fill:none;stroke:#000000;stroke-width:0.264583px;stroke-linecap:butt;stroke-linejoin:miter;stroke-opacity:1"
       d="m 176.84244,94.118839 c -0.0226,-0.02622 -0.34297,-0.487008 -0.32146,-0.626827 0.003,-0.02204 0.0436,0.01781 0.0563,0.03616 0.02,0.02902 0.0362,0.148021 0.0362,0.176797 0,0.269058 -0.13446,-0.05261 0.22904,0.413867 z"
       id="path1222" />
    <path
       style="fill:none;stroke:#000000;stroke-width:0.264583px;stroke-linecap:butt;stroke-linejoin:miter;stroke-opacity:1"
       d="m 183.31573,84.941457 c -0.146,0.29868 -0.27924,0.603937 -0.43798,0.89604 -0.16836,0.309803 -0.37041,0.600329 -0.54246,0.908095 -0.24415,0.43674 -0.82892,1.606008 -0.99651,2.017096 -0.3381,0.829339 -0.73677,1.848414 -0.85989,2.772503 -0.0635,0.476361 -0.093,0.957926 -0.0964,1.438484 -0.005,0.756742 0.24402,2.132303 1.22152,2.254165 0.60314,0.07519 1.20196,-0.89159 1.40636,-1.205436 0.13596,-0.208743 0.52607,-1.066721 0.59871,-1.334014 0.0128,-0.04716 0.22781,-0.862761 0.14466,-1.153199 -0.0738,-0.257869 -0.0854,-0.568 -0.27726,-0.755407 -0.1896,-0.185169 -0.59821,-0.10282 -0.82372,-0.01207 -0.68299,0.274889 -0.78853,0.356706 -1.4586,0.671026 -0.0212,0.0099 -0.54202,0.254455 -0.63889,0.249123 -0.0679,-0.0037 -0.11519,-0.07233 -0.17278,-0.108489"
       id="path1224" />
    <path
       style="fill:none;stroke:#000000;stroke-width:0.264583px;stroke-linecap:butt;stroke-linejoin:miter;stroke-opacity:1"
       d="m 185.41322,87.416618 c 0.1326,0 0.26697,0.02159 0.3978,0 0.15633,-0.0258 0.3024,-0.09475 0.45405,-0.140634 0.10954,-0.03314 0.21928,-0.06563 0.32949,-0.09644 0.64011,-0.178924 1.27906,-0.356655 1.93677,-0.458065 0.39371,-0.0607 0.53539,-0.100332 0.94427,-0.01207 0.0738,0.01593 0.15072,0.04809 0.20091,0.104471 0.22395,0.251555 0.0256,1.020606 0.0121,1.096947 -0.0914,0.516424 -0.23089,1.023164 -0.34556,1.534922 -0.11972,0.534294 -0.24585,1.067215 -0.35762,1.603229 -0.0785,0.376224 -0.14128,0.755536 -0.21296,1.13311 -0.0837,0.440785 -0.17119,0.880848 -0.25315,1.321959 -0.0547,0.294222 -0.0973,0.590687 -0.15671,0.883986 -0.0137,0.06783 -0.0993,0.475861 -0.20091,0.566555 -0.03,0.02676 -0.0804,0 -0.12054,0"
       id="path1226" />
    <path
       style="fill:none;stroke:#000000;stroke-width:0.264583px;stroke-linecap:butt;stroke-linejoin:miter;stroke-opacity:1"
       d="m 192.31645,85.150401 c 0.11921,0.216977 0.25799,0.424301 0.35762,0.650933 0.22269,0.506531 0.37326,1.347581 0.45004,1.828244 0.06,0.375521 0.10925,0.753547 0.1326,1.13311 0.0683,1.110694 0.17753,2.55755 -0.14466,3.680595 -0.18718,0.652449 -0.51432,1.256332 -0.77149,1.884497"
       id="path1228" />
    <path
       style="fill:none;stroke:#000000;stroke-width:0.253556px;stroke-linecap:butt;stroke-linejoin:miter;stroke-opacity:1"
       d="M 143.25106,95.006229 68.415596,169.8417"
       id="path469" />
    <path
       style="fill:none;stroke:#000000;stroke-width:0.253556px;stroke-linecap:butt;stroke-linejoin:miter;stroke-opacity:1"
       d="M 68.415592,95.006233 143.25106,169.8417"
       id="path471" />
  </g>
</svg>
