<?xml version="1.0" encoding="UTF-8" standalone="no"?>
<!-- Created with Inkscape (http://www.inkscape.org/) -->

<svg
   width="721.67755"
   height="1094.6637"
   viewBox="0 0 190.94385 289.62977"
   version="1.1"
   id="svg5"
   sodipodi:docname="脚趾号示意图.svg"
   inkscape:version="1.3.2 (091e20e, 2023-11-25, custom)"
   xmlns:inkscape="http://www.inkscape.org/namespaces/inkscape"
   xmlns:sodipodi="http://sodipodi.sourceforge.net/DTD/sodipodi-0.dtd"
   xmlns:xlink="http://www.w3.org/1999/xlink"
   xmlns="http://www.w3.org/2000/svg"
   xmlns:svg="http://www.w3.org/2000/svg">
  <sodipodi:namedview
     id="namedview7"
     pagecolor="#ffffff"
     bordercolor="#666666"
     borderopacity="1.0"
     inkscape:showpageshadow="2"
     inkscape:pageopacity="0.0"
     inkscape:pagecheckerboard="0"
     inkscape:deskcolor="#d1d1d1"
     inkscape:document-units="px"
     showgrid="false"
     inkscape:zoom="1.1893044"
     inkscape:cx="282.09767"
     inkscape:cy="342.63726"
     inkscape:window-width="1920"
     inkscape:window-height="1009"
     inkscape:window-x="-8"
     inkscape:window-y="-8"
     inkscape:window-maximized="1"
     inkscape:current-layer="layer1" />
  <defs
     id="defs2">
    <inkscape:path-effect
       effect="bspline"
       id="path-effect19"
       is_visible="true"
       lpeversion="1.3"
       weight="33.333333"
       steps="2"
       helper_size="0"
       apply_no_weight="true"
       apply_with_weight="true"
       only_selected="false"
       uniform="false" />
    <inkscape:path-effect
       effect="bspline"
       id="path-effect9"
       is_visible="true"
       lpeversion="1.3"
       weight="33.333333"
       steps="2"
       helper_size="0"
       apply_no_weight="true"
       apply_with_weight="true"
       only_selected="false"
       uniform="false" />
    <inkscape:path-effect
       effect="bspline"
       id="path-effect8"
       is_visible="true"
       lpeversion="1.3"
       weight="33.333333"
       steps="2"
       helper_size="0"
       apply_no_weight="true"
       apply_with_weight="true"
       only_selected="false"
       uniform="false" />
    <inkscape:path-effect
       effect="bspline"
       id="path-effect7"
       is_visible="true"
       lpeversion="1.3"
       weight="33.333333"
       steps="2"
       helper_size="0"
       apply_no_weight="true"
       apply_with_weight="true"
       only_selected="false"
       uniform="false" />
    <inkscape:path-effect
       effect="bspline"
       id="path-effect6"
       is_visible="true"
       lpeversion="1.3"
       weight="33.333333"
       steps="2"
       helper_size="0"
       apply_no_weight="true"
       apply_with_weight="true"
       only_selected="false"
       uniform="false" />
    <inkscape:path-effect
       effect="bspline"
       id="path-effect5"
       is_visible="true"
       lpeversion="1"
       weight="33.333333"
       steps="2"
       helper_size="0"
       apply_no_weight="true"
       apply_with_weight="true"
       only_selected="false"
       uniform="false" />
    <inkscape:path-effect
       effect="bspline"
       id="path-effect3"
       is_visible="true"
       lpeversion="1"
       weight="33.333333"
       steps="2"
       helper_size="0"
       apply_no_weight="true"
       apply_with_weight="true"
       only_selected="false"
       uniform="false" />
    <inkscape:path-effect
       effect="bspline"
       id="path-effect553"
       is_visible="true"
       lpeversion="1"
       weight="33.333333"
       steps="2"
       helper_size="0"
       apply_no_weight="true"
       apply_with_weight="true"
       only_selected="false"
       uniform="false" />
    <inkscape:path-effect
       effect="bspline"
       id="path-effect543"
       is_visible="true"
       lpeversion="1"
       weight="33.333333"
       steps="2"
       helper_size="0"
       apply_no_weight="true"
       apply_with_weight="true"
       only_selected="false"
       uniform="false" />
    <inkscape:path-effect
       effect="bspline"
       id="path-effect535"
       is_visible="true"
       lpeversion="1"
       weight="33.333333"
       steps="2"
       helper_size="0"
       apply_no_weight="true"
       apply_with_weight="true"
       only_selected="false"
       uniform="false" />
    <inkscape:path-effect
       effect="bspline"
       id="path-effect521"
       is_visible="true"
       lpeversion="1"
       weight="33.333333"
       steps="2"
       helper_size="0"
       apply_no_weight="true"
       apply_with_weight="true"
       only_selected="false"
       uniform="false" />
    <inkscape:path-effect
       effect="bspline"
       id="path-effect517"
       is_visible="true"
       lpeversion="1"
       weight="33.333333"
       steps="2"
       helper_size="0"
       apply_no_weight="true"
       apply_with_weight="true"
       only_selected="false"
       uniform="false" />
    <inkscape:path-effect
       effect="bspline"
       id="path-effect513"
       is_visible="true"
       lpeversion="1"
       weight="33.333333"
       steps="2"
       helper_size="0"
       apply_no_weight="true"
       apply_with_weight="true"
       only_selected="false"
       uniform="false" />
    <inkscape:path-effect
       effect="bspline"
       id="path-effect195"
       is_visible="true"
       lpeversion="1"
       weight="33.333333"
       steps="2"
       helper_size="0"
       apply_no_weight="true"
       apply_with_weight="true"
       only_selected="false"
       uniform="false" />
  </defs>
  <g
     inkscape:label="图层 1"
     inkscape:groupmode="layer"
     id="layer1"
     transform="translate(-11.722726,1.1896721)">
    <path
       style="fill:none;stroke:#000000;stroke-width:0.264583px;stroke-linecap:butt;stroke-linejoin:miter;stroke-opacity:1"
       d="M 105.83338,8.819661 C 88.194388,8.8195538 70.555853,44.096624 79.375633,61.735812 88.195412,79.374999 123.47178,79.374999 132.29135,61.735916 141.11092,44.096832 123.47238,8.8197681 105.83338,8.819661 Z"
       id="path193"
       inkscape:path-effect="#path-effect195"
       inkscape:original-d="M 105.83333,-26.458333 C 88.194705,8.8197125 70.556171,44.096783 52.916667,79.374999 c 35.278745,2.64e-4 70.555113,2.64e-4 105.833333,0 C 141.11102,44.09678 123.47249,8.8197141 105.83333,-26.458333 Z"
       sodipodi:nodetypes="cccc" />
    <path
       style="fill:none;stroke:#000000;stroke-width:0.321269"
       id="path503"
       sodipodi:type="arc"
       sodipodi:cx="77.196732"
       sodipodi:cy="63.756027"
       sodipodi:rx="13.987203"
       sodipodi:ry="14.65461"
       sodipodi:start="0.54371133"
       sodipodi:end="4.7103189"
       sodipodi:arc-type="arc"
       d="M 89.166905,71.337087 A 13.987203,14.65461 0 0 1 72.246052,77.461997 13.987203,14.65461 0 0 1 63.435153,61.13448 13.987203,14.65461 0 0 1 77.167777,49.101449"
       sodipodi:open="true" />
    <use
       x="0"
       y="0"
       xlink:href="#path503"
       id="use505"
       transform="matrix(-1,0,0,1,211.62058,4.4216667e-6)" />
    <path
       style="fill:none;stroke:#000000;stroke-width:0.233767"
       id="path507"
       sodipodi:type="arc"
       sodipodi:cx="105.71188"
       sodipodi:cy="132.61174"
       sodipodi:rx="37.612331"
       sodipodi:ry="67.186485"
       sodipodi:start="5.1475349"
       sodipodi:end="4.280914"
       sodipodi:open="true"
       sodipodi:arc-type="arc"
       d="M 121.56709,71.686461 A 37.612331,67.186485 0 0 1 142.43001,147.17484 37.612331,67.186485 0 0 1 105.64285,199.79811 37.612331,67.186485 0 0 1 68.964078,146.93397 37.612331,67.186485 0 0 1 89.981991,71.582904" />
    <g
       id="g525">
      <path
         style="fill:none;stroke:#000000;stroke-width:0.264583px;stroke-linecap:butt;stroke-linejoin:miter;stroke-opacity:1"
         d="M 72.287584,101.91736 C 60.042653,92.695129 47.797429,83.472676 42.670958,77.288248 37.544486,71.10382 39.537033,67.957695 46.60698,70.141623 c 7.069947,2.183928 19.216421,9.697547 31.362826,17.211124"
         id="path511"
         inkscape:path-effect="#path-effect513"
         inkscape:original-d="M 72.287584,101.91736 C 60.042623,92.695169 47.797398,83.472717 35.551906,74.249999 c 1.992889,-3.145983 3.985435,-6.292109 5.977755,-9.438558 12.147221,7.514183 24.293695,15.027802 36.440145,22.541306"
         sodipodi:nodetypes="cccc" />
      <path
         style="fill:none;stroke:#000000;stroke-width:0.264583px;stroke-linecap:butt;stroke-linejoin:miter;stroke-opacity:1"
         d="m 40.016607,73.108867 c -12.058313,0.108322 -24.11664,0.216644 -24.172263,0.04978 -0.05562,-0.16686 11.891483,-0.60888 17.883582,-0.843811 5.992099,-0.234931 6.029173,-0.262739 0.786187,-3.413612 -5.242987,-3.150873 -15.765661,-9.424638 -15.751755,-9.623943 0.01391,-0.199304 10.564599,5.676005 15.872336,8.576567 5.307738,2.900562 5.372627,2.826403 2.666405,-3.025548 -2.706221,-5.851952 -8.183387,-17.481295 -8.030431,-17.615707 0.152956,-0.134411 5.935279,11.224703 8.938589,16.868757 3.003309,5.644055 3.225743,5.569911 3.708862,-0.658365 0.48312,-6.228275 1.227017,-18.610254 1.38924,-18.638059 0.162224,-0.02781 -0.25726,12.298787 -0.676743,24.625379"
         id="path519"
         inkscape:path-effect="#path-effect521"
         inkscape:original-d="M 40.016607,73.108867 C 27.958296,73.217456 15.899969,73.325778 3.8408881,73.43384 15.788732,72.992067 27.735837,72.550046 39.682904,72.107752 c 0.03734,-0.02755 0.07442,-0.05535 0.111233,-0.08343 C 29.271079,65.750435 18.748405,59.476669 8.2248277,53.202259 18.776214,59.078071 29.326907,64.95338 39.877563,70.828551 c 0.06515,-0.07389 0.13004,-0.148048 0.194662,-0.22247 C 34.594992,58.976299 29.117826,47.346956 23.640065,35.716646 29.423727,47.078134 35.20605,58.437248 40.989907,69.79963 c 0.222766,-0.0739 0.445199,-0.148046 0.667407,-0.222469 0.744204,-12.382429 1.488101,-24.764408 2.231778,-37.147383 -0.419236,12.327357 -0.838719,24.653949 -1.258476,36.980532"
         sodipodi:nodetypes="cccccccccccc" />
    </g>
    <use
       x="0"
       y="0"
       xlink:href="#g525"
       id="use527"
       transform="matrix(-1,0,0,1,211.3894,0)" />
    <path
       style="fill:none;stroke:#000000;stroke-width:0.264583px;stroke-linecap:butt;stroke-linejoin:miter;stroke-opacity:1"
       d="m 102.56567,185.93962 c -0.73412,22.33818 -1.46822,44.6761 -1.73034,55.79247 -0.26213,11.11637 -0.0524,11.0115 -20.293194,12.74196 -20.240806,1.73045 -60.929855,5.29599 -60.405477,5.76793 0.524378,0.47194 42.262952,-2.14983 63.185008,-3.25083 20.922053,-1.101 21.026923,-0.68153 21.761003,-12.21781 0.73408,-11.53628 2.0974,-35.02733 3.46076,-58.51911"
       id="path551"
       inkscape:path-effect="#path-effect553"
       inkscape:original-d="m 102.56567,185.93962 c -0.73384,22.33819 -1.46795,44.67611 -2.20232,67.01377 0.21001,-0.10461 0.41975,-0.20948 0.62924,-0.31462 -40.691236,3.56601 -81.380284,7.13155 -122.072038,10.69704 41.740503,-2.62161 83.479077,-5.24338 125.218218,-7.86547 0.10514,0.41976 0.21001,0.83923 0.31462,1.25847 1.36364,-23.49173 2.72696,-46.98278 4.09004,-70.47458"
       sodipodi:nodetypes="ccccccc" />
    <path
       style="fill:none;stroke:#000000;stroke-width:0.264583px;stroke-linecap:butt;stroke-linejoin:miter;stroke-opacity:1"
       d="m 12.074699,71.110593 c -0.12473,-0.119613 0.109918,-0.375081 0.04018,-0.542446 -0.01347,-0.03233 -0.06781,0.03978 -0.1326,0.10849 -0.135042,0.143224 0.113454,-0.03889 0.09242,0.433956 -0.02502,0.562457 -0.175396,1.113798 -0.212963,1.675556 -0.02737,0.409303 0.03905,0.819539 0.05224,1.229543 0.0094,0.309395 0.01875,0.618791 0.02813,0.928187 0.004,0.296 0.0031,0.592108 0.01205,0.888003 0.0045,0.148899 0.02097,0.297217 0.02813,0.44601 0.0217,0.451342 6.35e-4,0.426062 0.03616,0.932204 0.01413,0.201285 0.03587,0.401971 0.05625,0.602718 0.0064,0.06314 0.01341,0.126299 0.02411,0.188852 0.03286,0.19208 0.07242,0.132413 0.1326,0.01207"
       id="path555" />
    <path
       style="fill:none;stroke:#000000;stroke-width:0.264583px;stroke-linecap:butt;stroke-linejoin:miter;stroke-opacity:1"
       d="m 13.083263,56.565006 c 0.150012,-0.188852 0.261376,-0.416301 0.450036,-0.566555 0.301231,-0.239903 1.268607,-0.551532 1.5912,-0.586645 0.09767,-0.01064 0.220793,0.04095 0.2652,0.128579 0.337994,0.667004 0.160387,1.240595 -0.05224,1.932716 -0.290776,0.94652 -0.55685,1.450347 -1.048746,2.254165 -0.128007,0.209179 -0.269802,0.41035 -0.421909,0.602718 -0.09498,0.120123 -0.197043,0.234505 -0.293327,0.353594 -0.0056,0.007 -0.01887,0.02995 -0.01205,0.0241 0.01588,-0.01363 0.02679,-0.03214 0.04018,-0.04821 0.0884,-0.06697 0.170369,-0.143404 0.2652,-0.200906 0.48562,-0.294468 0.82636,-0.376645 1.366181,-0.506283 0.180691,-0.04339 0.359428,-0.09643 0.542455,-0.12858 0.290296,-0.05099 0.583076,-0.08756 0.875963,-0.120544 0.194874,-0.02196 0.391989,-0.02048 0.586655,-0.0442 0.348258,-0.04244 0.638711,-0.14718 0.9282,-0.353595 0.04913,-0.03503 0.09103,-0.16552 0.116527,-0.225015"
       id="path557" />
    <path
       style="fill:none;stroke:#000000;stroke-width:0.264583px;stroke-linecap:butt;stroke-linejoin:miter;stroke-opacity:1"
       d="m 23.831898,41.750204 c 0.64558,0.01778 0.907043,0.033 1.514855,0.0241 0.336247,-0.0049 0.67419,-0.0599 1.008563,-0.0241 0.186607,0.01998 0.419469,0.03747 0.530401,0.188852 0.404122,0.551474 0.148783,0.898297 0.0241,1.426432 -0.04701,0.199152 -0.125048,0.39827 -0.116528,0.602718 0.0021,0.05386 0.09085,0.06905 0.144653,0.07233 0.15022,0.0091 0.299643,-0.03062 0.450038,-0.03616 0.298502,-0.01101 0.820613,-0.0607 1.048744,0.23305 0.107707,0.138689 0.08678,0.347729 0.06831,0.522356 -0.0751,0.710018 -0.44812,1.213837 -0.892038,1.767973 -0.136998,0.171013 -0.320929,0.298844 -0.490217,0.437972 -0.314542,0.258506 -0.790729,0.638032 -1.221528,0.658971 -0.16394,0.008 -0.291988,-0.150008 -0.437981,-0.225012"
       id="path559" />
    <path
       style="fill:none;stroke:#000000;stroke-width:0.264583px;stroke-linecap:butt;stroke-linejoin:miter;stroke-opacity:1"
       d="m 45.996187,40.038488 c -0.150013,0.117864 -0.28925,0.250915 -0.450037,0.353594 -0.111641,0.07129 -0.241147,0.109704 -0.361635,0.164743 -0.352343,0.160943 -0.459397,0.222639 -0.900073,0.345556 -0.24447,0.06819 -0.494305,0.115909 -0.743363,0.164743 -0.380079,0.07453 -0.772163,0.06289 -1.157237,0.104471 -0.279662,0.0302 -0.558903,0.06691 -0.835782,0.116525 -0.213201,0.0382 -0.806804,0.198565 -1.032674,0.261178 -0.08291,0.02299 -0.489244,0.170662 -0.610761,0.10849 -0.251744,-0.128796 0.264059,-0.837385 0.305382,-0.900057 0.381949,-0.579329 0.802825,-1.131046 1.261708,-1.651447 0.156188,-0.177128 0.594936,-0.505957 0.715234,-0.542446 0.104728,-0.03177 0.21013,0.06666 0.305383,0.120544 0.04047,0.02289 0.06986,0.06381 0.09242,0.104471 0.36697,0.661387 0.306568,0.657463 0.397802,1.57912 0.01714,0.173318 0.0186,0.348314 0.01206,0.522354 -0.08443,2.242772 -0.08373,1.379516 -0.208947,3.254677 -0.06891,1.031859 -0.0703,1.050115 -0.02813,2.041204 0.01288,0.302604 0.05509,0.507186 0.01206,0.281268"
       id="path563" />
    <path
       style="fill:none;stroke:#000000;stroke-width:0.264583px;stroke-linecap:butt;stroke-linejoin:miter;stroke-opacity:1"
       d="m 166.52367,36.819974 c 0.0948,1.451547 0.5963,2.829711 0.80765,4.259205 0.1091,0.73788 0.13799,1.485627 0.18484,2.230056 0.0148,0.235265 0.0607,0.479399 0,0.707189 -0.0171,0.06426 -0.1359,0.05863 -0.19689,0.03214 -0.0603,-0.02619 -0.0723,-0.109828 -0.10849,-0.164742"
       id="path565" />
    <path
       style="fill:none;stroke:#000000;stroke-width:0.264583px;stroke-linecap:butt;stroke-linejoin:miter;stroke-opacity:1"
       d="m 180.8967,41.822531 c 0.16929,-0.12378 1.92713,-1.62796 2.53548,-1.394285 0.40954,0.15731 0.6116,0.673756 0.72728,1.096943 0.10425,0.381323 -0.003,0.799354 -0.10447,1.181328 -0.28522,1.069919 -0.64544,1.908469 -1.24965,2.784557 -0.18194,0.263811 -0.41732,0.488503 -0.59469,0.755404 -0.009,0.01291 0.26283,-0.188484 0.28931,-0.200903 0.21782,-0.102172 0.44026,-0.194334 0.663,-0.285287 0.4466,-0.182372 1.12392,-0.426816 1.55503,-0.530392 0.67026,-0.161034 1.33401,-0.164743 2.01713,-0.164743"
       id="path567" />
    <path
       style="fill:none;stroke:#000000;stroke-width:0.264583px;stroke-linecap:butt;stroke-linejoin:miter;stroke-opacity:1"
       d="m 192.90705,55.279207 c 0.68116,-0.205359 1.86075,-0.614299 2.5877,-0.245104 0.13067,0.06636 0.22911,0.231211 0.22502,0.377703 -0.0102,0.364336 -0.13109,0.721873 -0.2652,1.060783 -0.0849,0.214659 -0.67819,0.836015 -0.54245,1.189363 0.0238,0.0619 0.42981,0.07681 0.55451,0.10849 0.86196,0.218982 1.29725,0.369509 1.47467,1.390269 0.14048,0.808196 -0.4259,1.537999 -1.04874,1.96084 -0.26213,0.177956 -0.58965,0.254569 -0.9041,0.293323 -0.271,0.0334 -0.57052,-0.135713 -0.80765,-0.249122"
       id="path569" />
    <path
       style="fill:none;stroke:#000000;stroke-width:0.264583px;stroke-linecap:butt;stroke-linejoin:miter;stroke-opacity:1"
       d="m 202.60694,71.902163 c -0.1326,-0.06697 -0.25272,-0.169011 -0.3978,-0.200906 -0.72725,-0.159875 -1.70406,-0.159208 -2.42699,-0.104471 -0.49813,0.03771 -0.99237,0.116965 -1.48672,0.188852 -0.17832,0.02593 -0.35714,0.05497 -0.5304,0.104471 -0.20914,0.05975 -0.50299,0.257291 -0.47817,0.140634 0.0115,-0.05402 0.0421,-0.102135 0.0643,-0.152689 0.11439,-0.260188 0.22532,-0.521975 0.34556,-0.779515 0.0874,-0.187249 0.18528,-0.369443 0.27725,-0.554501 0.23619,-0.475252 0.46513,-0.954151 0.7072,-1.426432 0.0862,-0.168098 0.16738,-0.340577 0.27726,-0.494228 0.0634,-0.08862 0.15077,-0.29151 0.23707,-0.225015 0.17261,0.132995 0.19445,0.392864 0.25315,0.602718 0.12711,0.454496 0.1631,0.869659 0.22502,1.321961 0.0607,0.443458 0.13606,0.885069 0.18483,1.329997 0.0641,0.584907 0.10879,1.172184 0.13662,1.759937 0.0149,0.314629 0.0111,0.630269 0.0362,0.944256 0.0139,0.174291 0.052,0.345818 0.0804,0.518337 0.0251,0.152389 0.0661,0.174845 -0.0121,0.104473"
       id="path571" />
    <path
       style="fill:none;stroke:#000000;stroke-width:0.264583px;stroke-linecap:butt;stroke-linejoin:miter;stroke-opacity:1"
       d="m 27.605049,175.00403 c 0.02037,0.23834 0.09631,1.13403 0.116528,1.33401 0.273889,2.70877 0.184261,2.02288 0.534419,4.38779 0.121571,0.82107 0.217262,1.52094 0.369673,2.31041 0.01627,0.0842 0.07848,0.39751 0.144653,0.49423 0.0099,0.0144 0.02455,-0.0271 0.02813,-0.0442 0.01545,-0.074 0.01876,-0.15001 0.02813,-0.22501"
       id="path573" />
    <path
       style="fill:none;stroke:#000000;stroke-width:0.264583px;stroke-linecap:butt;stroke-linejoin:miter;stroke-opacity:1"
       d="m 24.598802,165.38903 c 0.28076,-0.70858 0.221329,-0.79183 0.916146,-1.33402 0.21684,-0.16921 0.452417,-0.38001 0.72729,-0.38976 0.814475,-0.0289 1.188262,0.35814 1.237602,1.09695 0.03516,0.52644 -0.02037,1.05892 -0.108493,1.57912 -0.132479,0.782 -0.465563,1.11571 -0.956326,1.72377 -0.110738,0.13721 -0.234918,0.26314 -0.357618,0.38976 -0.0449,0.0463 -0.180441,0.0749 -0.144656,0.12858 0.03545,0.0532 0.104965,-0.0733 0.160729,-0.10447 0.169415,-0.0948 0.339669,-0.18849 0.514326,-0.27323 0.143039,-0.0694 0.290142,-0.13037 0.437983,-0.18885 0.401434,-0.15881 1.236576,-0.51944 1.751926,-0.57861 0.106751,-0.0122 0.215812,0.004 0.321455,0.0241 0.05488,0.0102 0.144653,0.0286 0.144653,0.0844"
       id="path575" />
    <path
       style="fill:none;stroke:#000000;stroke-width:0.264583px;stroke-linecap:butt;stroke-linejoin:miter;stroke-opacity:1"
       d="m 25.764119,150.8924 c 0.259842,-0.0777 0.517284,-0.16391 0.779526,-0.23305 0.423754,-0.11173 0.842838,-0.25579 1.277784,-0.3094 1.016233,-0.12525 0.504928,1.34384 0.409853,1.80816 -0.06008,0.2934 -0.154451,0.58455 -0.160727,0.88398 -0.0033,0.15892 0.01651,0.3495 0.132599,0.45807 0.159512,0.14916 0.40295,0.16994 0.610764,0.23706 0.510757,0.16499 0.750702,0.0766 1.157237,0.54245 0.295027,0.33805 0.15104,0.70357 0.0241,1.06078 -0.109016,0.3068 -0.781955,0.80588 -0.835782,0.83979 -0.225642,0.14217 -0.948412,0.46842 -1.354127,0.53039 -0.338492,0.0517 -0.680413,0.0777 -1.020619,0.11653"
       id="path577" />
    <path
       style="fill:none;stroke:#000000;stroke-width:0.264583px;stroke-linecap:butt;stroke-linejoin:miter;stroke-opacity:1"
       d="m 33.337268,136.60966 c -0.167425,0.15269 -0.290308,0.37797 -0.502274,0.45806 -0.333343,0.12597 -0.705615,0.10377 -1.060799,0.1326 -0.321913,0.0261 -0.645541,0.023 -0.96838,0.0322 -0.744374,0.0212 -1.682462,0.0129 -2.443054,0.12054 -0.414338,0.0587 -0.823519,0.14962 -1.233583,0.23305 -0.129879,0.0264 -0.275709,0.17032 -0.385747,0.0964 -0.08408,-0.0564 0.05165,-0.19889 0.104474,-0.28529 0.293237,-0.47963 0.64848,-0.80394 0.996508,-1.24963 0.230669,-0.2954 0.420949,-0.62196 0.663001,-0.9081 0.146663,-0.17338 0.407289,-0.42946 0.530399,-0.29332 0.239668,0.26504 0.335288,0.99293 0.373692,1.21347 0.04352,0.24992 0.06791,0.50291 0.09242,0.75541 0.120253,1.23885 0.172127,2.48588 0.22502,3.72881 0.01402,0.32946 0.03513,0.65874 0.04018,0.98846 0.0024,0.15004 0.03107,0.30629 -0.01206,0.45003 -0.01138,0.0379 -0.07233,-0.0322 -0.10849,-0.0482"
       id="path579" />
    <path
       style="fill:none;stroke:#000000;stroke-width:0.264583px;stroke-linecap:butt;stroke-linejoin:miter;stroke-opacity:1"
       d="m 45.671314,124.78933 c -0.818973,0.45253 -1.74125,0.53192 -2.639947,0.70719 -0.358642,0.0699 -0.713605,0.15825 -1.072853,0.22501 -0.739461,0.13741 -1.096045,0.10303 -1.751928,0.41386 -0.230828,0.1094 -0.167836,0.71605 -0.160727,0.89604 0.01172,0.29649 0.03448,0.59565 0.104474,0.88399 0.0415,0.17095 0.133183,0.89325 0.494236,1.03668 0.168794,0.067 0.600371,-0.26847 0.675053,-0.30538 0.09108,-0.045 0.631534,-0.22387 0.703183,-0.23707 0.496006,-0.0914 0.954989,-0.12194 1.418418,0.12054 0.385307,0.20162 0.772088,0.67737 0.932217,1.07284 0.09729,0.24028 0.136467,0.50073 0.184838,0.75541 0.07859,0.41379 -0.101868,1.34648 -0.212963,1.67555 -0.189111,0.56016 -0.286478,0.69027 -0.675056,1.02462 -0.05773,0.0497 -0.11616,0.10588 -0.188854,0.12858 -1.033301,0.32269 -1.065361,0.32534 -2.149726,0.0603 -0.297707,-0.0728 -0.879494,-0.62459 -0.980438,-0.70718"
       id="path581" />
    <path
       style="fill:none;stroke:#000000;stroke-width:0.264583px;stroke-linecap:butt;stroke-linejoin:miter;stroke-opacity:1"
       d="m 165.56484,124.18072 c -0.0255,0.51164 -0.0763,1.02265 -0.0763,1.53492 0,0.74006 0.2833,3.0979 0.3295,3.43148 0.0587,0.42384 0.23919,1.32317 0.45405,1.74788 0.0166,0.0328 0.0813,-0.0252 0.0924,-0.0603 0.031,-0.0973 0.0161,-0.20359 0.0241,-0.30538"
       id="path583" />
    <path
       style="fill:none;stroke:#000000;stroke-width:0.264583px;stroke-linecap:butt;stroke-linejoin:miter;stroke-opacity:1"
       d="m 180.43776,138.27985 c 0.33379,-0.39549 0.89754,-1.12121 1.34207,-1.32196 0.7866,-0.35523 1.14587,0.42404 1.45861,0.94426 0.0839,0.13954 0.12897,0.30734 0.1326,0.47012 0.01,0.44562 0.0142,0.90122 -0.0924,1.33401 -0.17108,0.69422 -0.92939,1.88736 -1.30189,2.44302 -0.13116,0.19564 -0.28865,0.37235 -0.43799,0.5545 -0.0276,0.0337 -0.12256,0.12387 -0.0924,0.0924 0.0609,-0.0636 0.11103,-0.14076 0.18483,-0.18885 0.61021,-0.39759 0.84377,-0.47944 1.57915,-0.61075 0.78702,-0.14054 0.96099,-0.12966 1.65951,-0.10849 0.19027,0.006 0.38055,0.0128 0.57058,0.0241 0.21319,0.0128 0.42597,0.0316 0.63889,0.0482 0.0443,0.003 0.0885,0.0171 0.1326,0.0121 0.0633,-0.007 0.12322,-0.0322 0.18484,-0.0482"
       id="path585" />
    <path
       style="fill:none;stroke:#000000;stroke-width:0.264583px;stroke-linecap:butt;stroke-linejoin:miter;stroke-opacity:1"
       d="m 181.19647,150.33349 c 0.5304,-0.0161 1.06056,-0.0456 1.5912,-0.0482 0.29223,-0.001 0.59949,-0.0585 0.87596,0.0362 0.55694,0.19076 0.50146,0.44328 0.28127,0.79157 -0.14973,0.23684 -0.34268,0.44356 -0.50629,0.67103 -0.14186,0.19723 -0.29666,0.38774 -0.40985,0.60271 -0.0486,0.0923 -0.12795,0.21981 -0.0683,0.30538 0.0682,0.0978 0.22969,0.0643 0.34556,0.0924 0.7535,0.18275 0.99755,0.0474 1.31395,0.99247 0.22056,0.65883 -0.0208,1.47045 -0.30538,2.05326 -0.30205,0.61871 -0.83203,1.48465 -1.60326,1.65145 -0.65572,0.14182 -0.95358,-0.91188 -1.105,-1.32196"
       id="path587" />
    <path
       style="fill:none;stroke:#000000;stroke-width:0.264583px;stroke-linecap:butt;stroke-linejoin:miter;stroke-opacity:1"
       d="m 190.60973,162.70534 c -0.14064,0.0563 -0.27425,0.135 -0.42191,0.16876 -0.3411,0.078 -0.69281,0.10015 -1.03669,0.16474 -0.47625,0.0895 -1.77178,0.37371 -2.27028,0.51834 -0.60169,0.17458 -1.20049,0.36038 -1.79211,0.56656 -0.53622,0.18687 -0.9949,0.55684 -1.5269,0.7554 -0.0472,0.0176 -0.13338,-0.0489 -0.11653,-0.0964 0.12912,-0.36413 0.34761,-0.6901 0.51834,-1.03668 0.14269,-0.28964 0.27525,-0.58428 0.42191,-0.87193 0.27488,-0.53911 0.55174,-0.96812 0.91615,-1.47465 0.0333,-0.0463 0.47704,-0.6579 0.69113,-0.62682 0.17968,0.0261 0.3346,0.81015 0.40985,1.15721 0.39299,1.81262 0.2633,1.2599 0.5304,2.7484 0.31197,1.73857 0.1118,0.48248 0.42593,2.49927 0.0287,0.18406 0.10475,0.76474 0.1326,0.89604 0.038,0.17926 0.0932,0.3545 0.14465,0.53039 0.006,0.0213 0.007,0.0677 0.0281,0.0603 0.0461,-0.0163 0.0906,-0.34984 0.10447,-0.42592"
       id="path589" />
    <path
       style="fill:none;stroke:#000000;stroke-width:0.264583px;stroke-linecap:butt;stroke-linejoin:miter;stroke-opacity:1"
       d="m 187.0237,172.60791 c -0.10581,-0.0201 -0.21018,-0.0505 -0.31744,-0.0603 -0.15878,-0.0144 -0.3188,-0.007 -0.47816,-0.0121 -0.46027,-0.0139 -0.94875,-0.0622 -1.40636,0.0362 -0.41946,0.0902 -0.83123,0.216 -1.23761,0.35359 -0.26968,0.0913 -0.88363,0.40323 -1.07285,0.61478 -0.30853,0.34491 -0.20947,1.17755 -0.20091,1.47465 0.0115,0.39719 0.0458,0.7935 0.0804,1.18936 0.071,0.81411 0.0626,0.58051 0.16072,1.16927 0.004,0.0246 -0.001,0.0959 0.0241,0.12858 0.0373,0.0479 0.0539,-0.0848 0.0804,-0.11653 0.053,-0.0634 0.0998,-0.13299 0.16073,-0.18885 0.22781,-0.20882 0.52697,-0.31365 0.80765,-0.42592 0.19885,-0.0795 0.55987,-0.18164 0.77149,-0.18885 0.51339,-0.0175 1.02859,0.0737 1.49878,0.28127 0.35407,0.15629 0.72117,0.29213 1.04875,0.49825 0.18725,0.11782 0.62072,0.58461 0.75542,0.82371 0.10152,0.18022 0.20207,0.36611 0.25314,0.56655 0.20376,0.79973 -0.0575,1.6245 -0.50227,2.29033 -0.15309,0.2292 -0.49215,0.55603 -0.74336,0.68308 -0.39942,0.202 -0.73358,0.28331 -1.1693,0.29332 -0.95011,0.0218 -1.83868,-0.40883 -2.69619,-0.76344"
       id="path591" />
    <path
       style="fill:none;stroke:#000000;stroke-width:0.264583px;stroke-linecap:butt;stroke-linejoin:miter;stroke-opacity:1"
       d="m 49.019581,81.804797 c 0.827064,-1.775444 1.17412,-3.725907 1.693405,-5.602922 0.562298,-2.032492 0.485518,-2.190726 1.545656,-3.89818 0.08414,-0.13552 0.399124,-0.547288 0.670544,-0.375045 0.296717,0.188299 0.612799,1.083599 0.670544,1.238782 0.594043,1.59647 0.71193,1.977253 1.091052,3.466312 0.43217,1.697416 0.825757,3.389775 1.284261,5.080132 0.22447,0.827558 0.418968,1.373195 0.55689,2.159341 0.03474,0.198014 0.263665,1.30697 -0.227301,1.30697"
       id="path593" />
    <path
       style="fill:none;stroke:#000000;stroke-width:0.264583px;stroke-linecap:butt;stroke-linejoin:miter;stroke-opacity:1"
       d="m 51.883595,76.338254 c -0.439452,-0.07956 -0.873511,-0.278148 -1.318358,-0.238664 -0.09974,0.0089 -0.921414,0.500057 -0.488698,0.500057 0.203057,0 0.401383,-0.06185 0.60235,-0.09092 0.401391,-0.05806 0.815732,-0.05565 1.204706,-0.170474 2.846557,-1.121354 0.957358,-0.45472 2.579883,-0.931926 0.217247,-0.0639 0.426509,-0.156577 0.647814,-0.20457 0.09626,-0.02088 0.198583,-0.01762 0.295492,0 0.03436,0.0062 0.07956,0.103116 0.07956,0.06819 0,-0.09108 -0.05304,-0.174263 -0.07956,-0.261395"
       id="path595" />
    <path
       style="fill:none;stroke:#000000;stroke-width:0.264583px;stroke-linecap:butt;stroke-linejoin:miter;stroke-opacity:1"
       d="m 161.94354,70.996724 c 0.0985,-0.333369 0.62887,-0.901618 0.2955,-1.000114 -0.33338,-0.0985 -0.24546,0.656116 -0.2955,1.000114 -0.16277,1.119082 -0.2602,2.247424 -0.34095,3.375393 -0.0444,0.619802 -0.0592,1.24297 -0.0341,1.863852 0.0356,0.881113 0.0857,1.764512 0.21594,2.636668 0.0834,0.558126 0.32544,1.220132 1.02286,1.272876 0.23485,0.01775 0.43113,-0.191481 0.63645,-0.306853 0.84544,-0.475049 1.26124,-0.97872 1.84115,-1.932043 0.0386,-0.06348 0.35126,-0.880986 0.14775,-1.170591 -0.44905,-0.639024 -0.56838,-0.707067 -1.38655,-0.636436 -0.24729,0.02135 -0.48723,0.108249 -0.716,0.20457 -0.56532,0.238025 -1.10708,0.52854 -1.65931,0.795547 -0.13728,0.06637 -0.38942,0.355766 -0.40915,0.204568 -0.0258,-0.197708 0.25951,-0.303475 0.37505,-0.465963 0.24844,-0.349356 0.47821,-0.711621 0.71601,-1.068306 0.088,-0.132011 0.18867,-0.256762 0.2614,-0.397774 0.23844,-0.462349 0.44262,-0.941626 0.67054,-1.409253 0.47675,-0.978154 0.62759,-1.151951 0.94331,-2.034329 0.0444,-0.12402 0.32568,-0.818115 0.0341,-0.96602 -0.98056,-0.497377 -0.37851,0.216019 -0.93194,0.204571 -0.46556,-0.0096 -0.92437,-0.113652 -1.38655,-0.170477 z"
       id="path597" />
    <path
       style="fill:none;stroke:#000000;stroke-width:0.264583px;stroke-linecap:butt;stroke-linejoin:miter;stroke-opacity:1"
       d="m 85.878785,168.24067 c -0.435666,-0.42429 -0.822449,-0.90539 -1.306991,-1.27288 -0.202438,-0.15353 -0.462772,-0.2407 -0.716003,-0.26139 -0.54796,-0.0448 -1.117782,-0.0774 -1.647944,0.0682 -1.476353,0.40538 -2.404268,2.49732 -2.738998,3.60269 -0.187195,0.61817 0.03413,1.29622 0.147746,1.93204 0.186463,1.04346 0.808061,2.27049 1.500198,3.03444 0.376457,0.41552 0.795351,0.93678 1.352452,1.00012 2.257944,0.25673 2.548178,-0.55948 3.750493,-1.86385"
       id="path599" />
    <path
       style="fill:none;stroke:#000000;stroke-width:0.264583px;stroke-linecap:butt;stroke-linejoin:miter;stroke-opacity:1"
       d="m 120.50799,170.03832 c 0.46839,1.07171 0.88651,2.1667 1.15924,3.3072 0.17524,0.73278 0.40222,2.09212 0.45461,2.89806 0.0486,0.74783 0,1.52127 0,2.27299 0,0.13843 -0.0928,0.58855 0.11365,0.27276 0.0427,-0.0653 0.0655,-0.14323 0.11365,-0.20457 0.33422,-0.42536 0.28287,-0.20196 0.7842,-0.63643 0.46587,-0.40376 0.95492,-0.79031 1.35245,-1.26151 1.23209,-1.46046 1.97173,-3.19112 0.89784,-4.94376 -0.44774,-0.73073 -1.67041,-1.63436 -2.59125,-1.53427 -0.31879,0.0346 -0.61216,0.26253 -0.93194,0.23866 -0.46969,-0.035 -0.90163,-0.27275 -1.35245,-0.40913 z"
       id="path601" />
    <path
       style="fill:none;stroke:#000000;stroke-width:0.264583px;stroke-linecap:butt;stroke-linejoin:miter;stroke-opacity:1"
       d="m 54.115075,262.37659 c -0.575834,-0.10988 -1.141902,-0.30263 -1.727499,-0.32959 -1.633408,-0.0752 -3.138345,0.55129 -4.534689,1.3638 -0.241593,0.14057 -0.382823,0.43447 -0.454607,0.70461 -0.28489,1.07217 -0.486584,2.16982 -0.60235,3.27311 -0.128193,1.22176 0.09461,2.91298 0.488701,4.06865 0.117428,0.34439 0.35373,0.63807 0.568256,0.93195 0.06524,0.0893 0.159663,0.16105 0.261398,0.20454 0.451758,0.19318 0.909894,0.38093 1.386546,0.50007 0.663351,0.16584 1.668278,0.0759 2.295756,-0.0341 1.781743,-0.31234 3.406359,-1.03571 5.057486,-1.73884 0.774496,-0.32983 2.250691,-0.88625 3.01176,-1.3979 0.138118,-0.0928 0.219726,-0.25003 0.329589,-0.37505"
       id="path603" />
    <path
       style="fill:none;stroke:#000000;stroke-width:0.264583px;stroke-linecap:butt;stroke-linejoin:miter;stroke-opacity:1"
       d="m 54.796983,266.18384 c 0.883912,-1.72045 0.510714,-1.3794 2.511695,-2.84123 2.006735,-1.46605 2.301623,-2.12444 4.580149,-1.26153 0.280977,0.10642 0.49902,0.38841 0.60235,0.67053 0.84487,2.30675 0.258995,4.80079 -1.170606,6.73944 -0.790702,1.07226 -1.575766,1.22283 -2.738999,1.72747"
       id="path605" />
    <path
       style="fill:none;stroke:#000000;stroke-width:0.264583px;stroke-linecap:butt;stroke-linejoin:miter;stroke-opacity:1"
       d="m 48.932575,267.28623 c 2.697253,1.12686 1.976607,1.3816 4.477861,0.69329 1.164561,-0.49723 0.652661,-0.35677 1.500199,-0.53417"
       id="path607" />
    <path
       style="fill:none;stroke:#000000;stroke-width:0.264583px;stroke-linecap:butt;stroke-linejoin:miter;stroke-opacity:1"
       d="m 57.717821,267.42262 c 1.892964,0.43768 2.831981,-0.95858 4.398307,-1.34107 0.07443,-0.0183 0.151537,0.0228 0.227303,0.0341"
       id="path609" />
    <path
       style="fill:none;stroke:#000000;stroke-width:0.264583px;stroke-linecap:butt;stroke-linejoin:miter;stroke-opacity:1"
       d="m 47.39828,274.95758 c 0.0644,0.53417 0.171516,1.06487 0.19321,1.60245 0.06553,1.62404 0.06129,3.25025 0.06819,4.87559 0.0073,1.71659 -0.147413,4.52112 0.147746,6.23935 0.04362,0.25392 0.209174,0.70342 0.454604,0.62508 1.863685,-0.59503 2.551531,-3.96415 2.818553,-5.10286 0.278234,-1.18653 0.250034,-2.42454 0.37505,-3.63681"
       id="path611" />
    <path
       style="fill:none;stroke:#000000;stroke-width:0.264583px;stroke-linecap:butt;stroke-linejoin:miter;stroke-opacity:1"
       d="m 50.660074,275.42354 c -0.04994,1.46482 -0.215738,0.84148 0.829654,2.37527 0.157946,0.23175 0.435425,0.3927 0.522798,0.65919 0.03089,0.0942 -0.196995,0.0228 -0.295494,0.0341"
       id="path613" />
    <path
       style="fill:none;stroke:#000000;stroke-width:0.264583px;stroke-linecap:butt;stroke-linejoin:miter;stroke-opacity:1"
       d="m 49.466735,278.95806 c 0.261397,0.39018 0.400981,0.89905 0.784196,1.17057 0.477768,0.33853 1.629118,0.22386 2.182106,0.20457"
       id="path615" />
    <path
       style="fill:none;stroke:#000000;stroke-width:0.264583px;stroke-linecap:butt;stroke-linejoin:miter;stroke-opacity:1"
       d="m 55.024286,272.4573 c 0.02273,1.9472 0.04887,3.89435 0.06819,5.84158 0.01476,1.48878 -0.0097,2.97822 0.0341,4.46643 0.02066,0.70254 0.05114,1.408 0.159112,2.10251 0.03362,0.21627 0.05211,0.6664 0.261398,0.60235 0.263715,-0.0807 0.22574,-0.50599 0.295494,-0.77282 0.169503,-0.64842 0.301752,-1.30654 0.420508,-1.96615 0.195781,-1.08736 0.377275,-2.17786 0.522798,-3.27308 0.142494,-1.07246 0.227301,-2.15178 0.340953,-3.22765"
       id="path617" />
    <path
       style="fill:none;stroke:#000000;stroke-width:0.264583px;stroke-linecap:butt;stroke-linejoin:miter;stroke-opacity:1"
       d="m 58.399729,271.21852 c 0.154774,0.469 1.061834,2.81813 0.977403,3.67088 -0.03305,0.33383 -0.30307,0.59854 -0.454605,0.89784"
       id="path619" />
    <path
       style="fill:none;stroke:#000000;stroke-width:0.264583px;stroke-linecap:butt;stroke-linejoin:miter;stroke-opacity:1"
       d="m 55.922131,275.95771 c 1.142318,0.40209 1.369346,0.64294 2.511695,0.53414 0.126492,-0.0119 0.227301,-0.11364 0.340953,-0.17047"
       id="path621" />
    <path
       style="fill:none;stroke:#000000;stroke-width:0.264583px;stroke-linecap:butt;stroke-linejoin:miter;stroke-opacity:1"
       d="m 60.047673,271.52536 c 0.144283,1.62832 0.124315,1.63954 0.568259,3.96639 0.567852,2.97627 1.022887,5.78366 2.136646,8.58052 0.285816,0.71776 0.580397,1.45164 1.04559,2.06843 0.09833,0.13036 0.453766,0.12541 0.488702,-0.0341 0.306443,-1.39928 0.357677,-2.84406 0.454604,-4.27321 0.08128,-1.19846 0.05646,-2.40173 0.07956,-3.6027 0.03869,-2.01162 0.03409,-1.78276 0.03409,-3.239"
       id="path623" />
    <path
       style="fill:none;stroke:#000000;stroke-width:0.264583px;stroke-linecap:butt;stroke-linejoin:miter;stroke-opacity:1"
       d="m 70.367214,264.2518 c 0.102288,0.4205 0.25304,0.83212 0.306861,1.26151 0.124733,0.9952 0.178581,1.99856 0.227301,3.00035 0.01199,0.2464 0.0024,0.49667 -0.04546,0.73871 -0.0085,0.0433 -0.101241,0.1106 -0.113652,0.0682 -0.140036,-0.47845 -0.311669,-0.96782 -0.295492,-1.46606 0.0553,-1.70315 0.699701,-2.985 1.875247,-4.23913 1.773719,-1.8923 3.434218,-2.88337 6.228094,-2.50031 0.519043,0.0712 0.943091,0.67554 1.02286,1.19332 0.563004,3.65454 -2.091841,5.23516 -4.773356,6.77352 -0.636595,0.36521 -1.631807,0.63667 -2.284391,0.67054 -0.06673,0.003 -1.012502,-0.0841 -0.909211,-0.53414 0.236659,-1.03114 3.698483,-1.7452 4.205099,-1.86386 0.749433,-0.17555 1.507337,-0.31279 2.261661,-0.46596 0.986036,-0.20024 2.06923,-0.54663 3.034491,-0.10229 0.03924,0.018 -0.005,0.0931 -0.03409,0.12502 -0.126344,0.13896 -0.280339,0.25003 -0.42051,0.37502"
       id="path625" />
    <path
       style="fill:none;stroke:#000000;stroke-width:0.264583px;stroke-linecap:butt;stroke-linejoin:miter;stroke-opacity:1"
       d="m 68.832922,275.25307 c 5.820161,-1.95482 4.478975,-1.30728 11.001449,-4.6028 0.729496,-0.36859 1.401699,-0.841 2.102551,-1.2615"
       id="path627" />
    <path
       style="fill:none;stroke:#000000;stroke-width:0.264583px;stroke-linecap:butt;stroke-linejoin:miter;stroke-opacity:1"
       d="m 76.447561,268.78642 c -1.84827,1.29913 -1.870561,0.95348 -2.773092,3.43222 -0.244279,0.67088 -0.5227,1.39761 -0.409144,2.10252 0.101997,0.63312 0.393869,1.46388 1.011497,1.63655 0.956807,0.26744 1.951159,-0.37743 2.932205,-0.53417 1.034825,-0.16534 2.070439,-0.52718 3.114045,-0.43185 2.00537,0.18317 2.047634,1.80943 2.022994,3.4322 -0.04048,2.66552 -1.502214,5.8524 -3.83005,7.27358 -0.493559,0.30134 -1.165699,-0.022 -1.727499,-0.15912 -0.23581,-0.0575 -0.442577,-0.2264 -0.602353,-0.40912 -1.137722,-1.30107 -1.394997,-1.77319 -2.136646,-2.96627"
       id="path629" />
    <path
       style="fill:none;stroke:#000000;stroke-width:0.264583px;stroke-linecap:butt;stroke-linejoin:miter;stroke-opacity:1"
       d="m 91.017663,268.45683 c -0.48264,1.40768 -0.149035,1.52373 -0.829654,0.65918"
       id="path631" />
    <path
       style="fill:none;stroke:#000000;stroke-width:0.264583px;stroke-linecap:butt;stroke-linejoin:miter;stroke-opacity:1"
       d="m 91.960968,280.73098 c -0.14017,-0.66675 -0.357978,-1.32178 -0.42051,-2.00023 -0.0411,-0.44592 0.895194,-1.16244 1.056958,-1.17059 0.267134,-0.0135 0.466018,0.36994 0.488701,0.63643 0.110014,1.29265 -0.425058,1.64957 -1.125149,2.53439 z"
       id="path633" />
    <path
       style="fill:none;stroke:#000000;stroke-width:0.264583px;stroke-linecap:butt;stroke-linejoin:miter;stroke-opacity:1"
       d="m 90.074357,269.38877 c -0.109863,-0.34476 -0.273463,-0.67678 -0.329589,-1.03423 -0.01857,-0.11835 0.07159,-0.22876 0.113652,-0.34094 0.201845,-0.53825 0.340741,-0.92769 0.704638,-1.39788 0.253347,-0.32737 0.704184,-0.86614 1.238798,-0.67053 0.283922,0.10385 0.306858,0.74422 0.306858,0.94329 0,1.35104 -0.997135,1.86108 -2.034357,2.50029 z"
       id="path635" />
    <path
       style="fill:none;stroke:#000000;stroke-width:0.264583px;stroke-linecap:butt;stroke-linejoin:miter;stroke-opacity:1"
       d="m 103.8148,281.12875 c -0.0758,-0.7766 -0.23473,-1.54956 -0.2273,-2.32981 0.024,-2.52103 1.71504,-9.06365 1.88661,-9.80795 0.19711,-0.8551 0.39452,-1.71278 0.67054,-2.54577 0.57337,-1.73032 1.17143,-3.45545 1.87525,-5.13693 0.13809,-0.32991 0.34979,-1.0776 0.63645,-0.86376 0.55824,0.41648 0.60558,1.26198 0.79556,1.93206 0.33126,1.1684 0.67015,3.20559 0.89784,4.6028 0.82551,5.0655 0.54548,3.355 1.5343,10.37619 0.19149,1.35972 0.4142,2.71555 0.56825,4.08004 0.11126,0.98538 0.18423,1.97553 0.2273,2.96624 0.006,0.14624 0.0398,0.51668 -0.0796,0.43188 -0.3805,-0.27048 -0.57584,-0.73493 -0.86375,-1.10241"
       id="path637" />
    <path
       style="fill:none;stroke:#000000;stroke-width:0.264583px;stroke-linecap:butt;stroke-linejoin:miter;stroke-opacity:1"
       d="m 104.93995,271.65037 c 2.83213,0.58441 1.48181,0.4784 4.4324,0.37505 0.21232,-0.007 0.42478,-0.0523 0.63645,-0.0341 0.4314,0.12824 0.27427,0.12502 0.4546,0.12502"
       id="path639" />
    <path
       style="fill:none;stroke:#000000;stroke-width:0.264583px;stroke-linecap:butt;stroke-linejoin:miter;stroke-opacity:1"
       d="m 119.8851,261.206 c -1.15799,4.42968 -0.76927,2.31714 -1.2388,8.71691 -0.2022,2.75598 -0.38441,5.51376 -0.5228,8.27368 -0.0481,0.95909 -0.20123,5.75532 0.11366,6.90991 0.10721,0.39312 0.49558,0.89471 0.89784,0.82963 0.73652,-0.11917 1.26516,-0.79865 1.84115,-1.27286 1.8597,-1.53115 2.96658,-3.16878 4.09145,-5.27336 0.55311,-1.03484 0.74224,-1.62086 0.63645,-2.86395 -0.0299,-0.35095 -0.0761,-0.76796 -0.34096,-1.00013 -1.73139,-1.51752 -2.30828,-1.53405 -4.23919,-1.73884 -0.51124,-0.0542 -1.665,0.17304 -1.9889,-0.10229 -0.037,-0.0314 0.0715,-0.0669 0.11365,-0.0909 0.28424,-0.16195 0.58454,-0.29549 0.86375,-0.46596 0.50939,-0.31102 1.02659,-0.6142 1.5002,-0.9774 1.70332,-1.30616 3.71554,-2.99831 5.06885,-4.72781 0.45079,-0.5761 1.9009,-2.3432 2.02299,-3.40947 0.0637,-0.55655 -0.0467,-1.12705 -0.18184,-1.67066 -0.0443,-0.17799 -0.19618,-0.31927 -0.34095,-0.43188 -0.47441,-0.36896 -0.93638,-0.792 -1.5002,-1.0001 -1.82607,-0.67397 -2.86609,-0.21161 -4.7279,0.20455 -1.64308,0.3673 -0.74317,0.47218 -2.06845,0.0909 z"
       id="path641" />
    <path
       style="fill:none;stroke:#000000;stroke-width:0.264583px;stroke-linecap:butt;stroke-linejoin:miter;stroke-opacity:1"
       d="m 144.95658,265.91108 c -0.28983,-1.62623 -0.19012,-2.82053 -1.53429,-4.00047 -1.39992,-1.22886 -3.21011,0.0665 -4.28466,1.03423 -2.82993,2.54865 -3.88648,6.16807 -4.64834,9.77384 -0.26951,1.27558 -0.36834,2.63094 -0.11365,3.90956 0.3176,1.59441 0.91736,3.16656 1.7957,4.53462 0.90276,1.4061 3.6687,1.90198 5.03475,1.39787 1.39727,-0.51559 2.31004,-2.68891 2.9322,-3.86408"
       id="path643" />
    <path
       style="fill:none;stroke:#000000;stroke-width:0.264583px;stroke-linecap:butt;stroke-linejoin:miter;stroke-opacity:1"
       d="m 153.07129,262.30838 c -0.20359,3.62167 -0.14441,7.25067 -0.2273,10.87628 -0.0445,1.94731 -0.0927,3.89454 -0.14775,5.84158 -0.0173,0.61225 -0.11365,2.81334 -0.11365,3.63678 0,0.0254 0.009,0.0682 0.0341,0.0682 0.0442,0 0.0729,-0.0512 0.11365,-0.0682 0.0962,-0.0401 0.19459,-0.0761 0.2955,-0.10229 0.32381,-0.0838 0.6501,-0.15827 0.9774,-0.22728 1.65756,-0.34948 1.52936,-0.10506 3.83005,-1.2388 1.4764,-0.72753 3.46203,-2.74188 4.31875,-3.86408 0.75713,-0.99174 3.26208,-4.53658 3.48909,-6.47801 0.32726,-2.79871 0.24847,-4.22315 -1.04559,-6.46665 -0.69256,-1.20071 -1.86935,-1.74967 -3.27315,-1.87524 -0.87996,-0.0787 -1.75621,0.20519 -2.62535,0.36367 -0.77942,0.14214 -1.92302,0.635 -2.7049,0.67054 -0.27188,0.0124 -0.5228,-0.15153 -0.7842,-0.22728"
       id="path645" />
    <path
       style="fill:none;stroke:#000000;stroke-width:0.264583px;stroke-linecap:butt;stroke-linejoin:miter;stroke-opacity:1"
       d="m 101.5986,285.425 c -0.24391,1.25 -0.0236,0.64146 -0.63645,1.73882 -0.0124,0.0222 -0.0341,0.0428 -0.0341,0.0682 0,0.14152 0.94077,0.31723 1.0456,0.32956 0.22603,0.0266 0.45531,0.0554 0.68191,0.0341 0.77703,-0.0728 1.59717,-0.25175 2.36395,-0.43188 0.27728,-0.0651 0.54959,-0.15261 0.82965,-0.20455 1.1618,-0.21556 2.80086,-0.48599 3.9778,-0.50006 0.35146,-0.004 0.69902,0.0778 1.04559,0.13636 0.3172,0.0536 0.76603,0.17595 1.05695,0.32959 0.18398,0.0972 0.3452,0.2326 0.5228,0.34095 0.0463,0.0283 0.10227,0.0386 0.14775,0.0682 0.17169,0.1116 0.68847,0.51847 0.9433,0.39777 0.15501,-0.0734 0.14428,-0.59589 0.14775,-0.63645"
       id="path647" />
    <path
       style="fill:none;stroke:#000000;stroke-width:0.264583px;stroke-linecap:butt;stroke-linejoin:miter;stroke-opacity:1"
       d="m 117.86211,287.33432 c 0.66296,0.008 1.32613,0.041 1.98889,0.0227 0.57712,-0.0159 1.15597,-0.0434 1.7275,-0.12501 0.88932,-0.12706 1.59287,-0.44329 2.4776,-0.46599 0.42477,-0.0109 0.84839,0.0499 1.2729,0.0682 0.27639,0.0119 0.5533,0.01 0.82965,0.0227 0.92619,0.0437 1.861,0.0172 2.7731,0.20458 0.0882,0.018 0.17927,0.0312 0.26139,0.0682 0.18824,0.0847 0.14606,0.17047 0.34096,0.17047 0.0254,0 0.0803,-0.0116 0.0682,-0.0341 -0.0793,-0.14634 -0.22304,-0.24717 -0.32959,-0.37505"
       id="path649" />
    <path
       style="fill:none;stroke:#000000;stroke-width:0.264583px;stroke-linecap:butt;stroke-linejoin:miter;stroke-opacity:1"
       d="m 134.52339,286.1978 c 0.35232,0.10988 0.6922,0.27347 1.05696,0.32959 0.74047,0.11393 3.03444,-0.0471 3.48909,-0.0682 1.94535,-0.0901 1.29804,-0.0225 3.4891,-0.29549 0.40246,-0.0501 0.80044,-0.13801 1.2047,-0.17047 1.73903,-0.13975 0.81879,0.0269 2.17074,-0.0341 0.34027,0.006 0.67301,-0.0859 1.0115,-0.10228 0.2119,-0.0103 0.4243,0 0.63645,0 0.027,0 0.24733,-0.0217 0.27276,0 0.0387,0.0332 -0.0632,0.10985 -0.11365,0.10228 -0.81072,-0.1216 0.25419,-0.19793 -0.9774,0"
       id="path651" />
    <path
       style="fill:none;stroke:#000000;stroke-width:0.264583px;stroke-linecap:butt;stroke-linejoin:miter;stroke-opacity:1"
       d="m 152.80989,285.62955 c 0.47355,0.25382 0.89285,0.66093 1.42064,0.76147 1.36013,0.25906 2.62928,-0.38047 3.86415,-0.76147 2.18209,-0.67323 1.78181,-0.56808 3.71639,-0.93191 0.99847,-0.18778 1.97856,-0.3383 3.0004,-0.30687 0.69545,0.0214 1.62775,0.13526 2.29576,0.37505 0.0208,0.007 0.0196,0.0402 0.0341,0.0568 0.10623,0.12139 0.0325,0.22109 -0.0341,0.34095 -0.0175,0.0314 -0.0148,0.072 -0.0341,0.10228 -0.0328,0.0515 -0.10673,0.0595 -0.15911,0.0909"
       id="path653" />
    <g
       id="g9">
      <path
         style="fill:none;fill-opacity:0.2;stroke:#000000;stroke-width:0.264583"
         d="m 84.470082,188.21983 c -6.599913,-4.96847 -13.199828,-9.93695 -16.314389,-14.83131 -3.114561,-4.89437 -2.743788,-9.71443 -1.557268,-11.49417 1.18652,-1.77974 3.188701,-0.51911 5.190924,0.74155"
         id="path7"
         inkscape:path-effect="#path-effect8"
         inkscape:original-d="m 84.470082,188.21983 c -6.599915,-4.96847 -13.199827,-9.93695 -19.799739,-14.90542 0.370787,-4.82026 0.741561,-9.64032 1.112343,-14.46048 2.00226,1.26068 4.004442,2.52131 6.006663,3.78197" />
    </g>
    <use
       x="0"
       y="0"
       xlink:href="#g9"
       id="use9"
       transform="matrix(-1,0,0,1,211.09298,9.5945585e-5)" />
    <circle
       style="fill:none;fill-opacity:0.2;stroke:#000000;stroke-width:0.264583"
       id="path10"
       cx="106.18781"
       cy="4.7671561"
       r="4.2269106" />
    <g
       id="g15">
      <path
         style="fill:none;fill-opacity:0.2;stroke:#000000;stroke-width:0.264583"
         d="M 90.699212,17.14119 74.681446,1.5683618"
         id="path11" />
      <path
         style="fill:none;fill-opacity:0.2;stroke:#000000;stroke-width:0.264583"
         d="M 87.139709,21.145631 71.34441,12.246872"
         id="path12" />
      <path
         style="fill:none;fill-opacity:0.2;stroke:#000000;stroke-width:0.264583"
         d="M 96.038467,12.024403 84.247612,-1.101266"
         id="path13" />
    </g>
    <use
       x="0"
       y="0"
       xlink:href="#g15"
       id="use15"
       transform="matrix(-1,0,0,1,211.86664,0)" />
    <path
       style="fill:none;fill-opacity:0.2;stroke:#000000;stroke-width:0.264583"
       d="m 67.56244,172.78107 c -17.945832,4.52353 -35.891664,9.04707 -36.039799,8.60207 -0.148136,-0.44499 17.500717,-5.85829 26.214083,-8.71331 8.713366,-2.85502 8.490902,-3.15164 -0.445112,-3.63367 -8.936014,-0.48202 -26.584867,-1.14941 -26.621769,-1.44604 -0.0369,-0.29662 17.537794,-0.22247 26.325318,-0.37078 8.787525,-0.14832 8.787525,-0.51909 0.259377,-2.89214 -8.528148,-2.37304 -25.583762,-6.74818 -25.62067,-7.11892 -0.03691,-0.37075 16.944551,3.26284 25.509608,4.89427 8.565058,1.63144 8.713368,1.26066 0.630165,-4.00454 -8.083203,-5.2652 -24.397267,-15.42441 -24.211709,-15.72094 0.185557,-0.29653 16.870394,9.26944 25.361298,13.97837 8.490904,4.70892 8.787523,4.56061 3.374,-2.37314 -5.413523,-6.93375 -16.536751,-20.6524 -16.091692,-20.50395 0.445059,0.14846 12.45814,14.16372 24.471466,28.17927"
       id="path19"
       inkscape:path-effect="#path-effect19"
       inkscape:original-d="m 67.56244,172.78107 c -17.945833,4.52353 -35.891663,9.04707 -53.837493,13.5706 17.649558,-5.41352 35.298411,-10.82682 52.947614,-16.24023 -0.222472,-0.29663 -0.444936,-0.59325 -0.667406,-0.88988 -17.649557,-0.66742 -35.29841,-1.33481 -52.947615,-2.00222 17.5754,0.0742 35.150097,0.14831 52.725146,0.22247 0,-0.37079 0,-0.74156 0,-1.11234 -17.056296,-4.37531 -34.111909,-8.75045 -51.167863,-13.12567 16.982138,3.63373 33.963596,7.26732 50.945396,10.90098 0.148315,-0.37079 0.296624,-0.74157 0.444936,-1.11235 -16.314716,-10.15962 -32.628782,-20.31883 -48.943174,-30.47825 16.685507,9.56636 33.370347,19.13233 50.05552,28.6985 0.296632,-0.14832 0.593251,-0.29663 0.889875,-0.44494 C 56.883706,147.04855 45.76048,133.3299 34.63703,119.61098 c 12.013566,14.01583 24.02665,28.03109 36.039974,42.04664" />
    <use
       x="0"
       y="0"
       xlink:href="#path19"
       id="use19"
       transform="matrix(-1,0,0,1,210.8542,0)" />
  </g>
</svg>
