<?xml version="1.0" encoding="UTF-8" standalone="no"?>
<!-- Created with Inkscape (http://www.inkscape.org/) -->

<svg
   width="123.79366mm"
   height="210.26424mm"
   viewBox="0 0 123.79366 210.26424"
   version="1.1"
   id="svg5"
   inkscape:version="1.2 (dc2aedaf03, 2022-05-15)"
   sodipodi:docname="调平点示意图.svg"
   xmlns:inkscape="http://www.inkscape.org/namespaces/inkscape"
   xmlns:sodipodi="http://sodipodi.sourceforge.net/DTD/sodipodi-0.dtd"
   xmlns:xlink="http://www.w3.org/1999/xlink"
   xmlns="http://www.w3.org/2000/svg"
   xmlns:svg="http://www.w3.org/2000/svg">
  <sodipodi:namedview
     id="namedview7"
     pagecolor="#ffffff"
     bordercolor="#666666"
     borderopacity="1.0"
     inkscape:showpageshadow="2"
     inkscape:pageopacity="0.0"
     inkscape:pagecheckerboard="0"
     inkscape:deskcolor="#d1d1d1"
     inkscape:document-units="mm"
     showgrid="false"
     inkscape:zoom="0.84096521"
     inkscape:cx="418.56666"
     inkscape:cy="519.04644"
     inkscape:window-width="1620"
     inkscape:window-height="1010"
     inkscape:window-x="-6"
     inkscape:window-y="-6"
     inkscape:window-maximized="1"
     inkscape:current-layer="layer1" />
  <defs
     id="defs2">
    <inkscape:path-effect
       effect="bspline"
       id="path-effect335"
       is_visible="true"
       lpeversion="1"
       weight="33.333333"
       steps="2"
       helper_size="0"
       apply_no_weight="true"
       apply_with_weight="true"
       only_selected="false" />
    <inkscape:path-effect
       effect="bspline"
       id="path-effect331"
       is_visible="true"
       lpeversion="1"
       weight="33.333333"
       steps="2"
       helper_size="0"
       apply_no_weight="true"
       apply_with_weight="true"
       only_selected="false" />
    <inkscape:path-effect
       effect="bspline"
       id="path-effect69"
       is_visible="true"
       lpeversion="1"
       weight="33.333333"
       steps="2"
       helper_size="0"
       apply_no_weight="true"
       apply_with_weight="true"
       only_selected="false" />
  </defs>
  <g
     inkscape:label="图层 1"
     inkscape:groupmode="layer"
     id="layer1"
     transform="translate(-38.103126,-53.201306)">
    <path
       style="fill:none;stroke:#000000;stroke-width:0.264583px;stroke-linecap:butt;stroke-linejoin:miter;stroke-opacity:1"
       d="m 99.999758,63.333294 c -6.666557,-6.666495 -3.333224,-9.999828 3.72e-4,-9.999696 3.3336,1.32e-4 6.66668,3.33321 -3.31e-4,9.999969 -6.667009,6.666759 -23.333068,16.666394 -38.333119,44.999813 -15.000052,28.33342 -28.333214,74.99949 -21.666277,106.6666 6.666937,31.66711 33.332991,48.33339 59.999787,48.33327 26.6668,-1.2e-4 53.33242,-16.66613 59.99929,-48.33356 6.66688,-31.66743 -6.66556,-78.33097 -21.66601,-106.66542 C 123.33303,79.999816 106.66632,69.999789 99.999758,63.333294 Z"
       id="path333"
       inkscape:path-effect="#path-effect335"
       inkscape:original-d="m 90,60 c 3.333465,-3.332936 6.666799,-6.66627 10,-10 3.33373,3.33373 6.66681,6.666807 10,10 -16.667023,10.000637 -33.333082,20.000273 -50,30 -13.333058,46.66689 -26.66622,93.33296 -40,140 26.667294,16.66716 53.333351,33.33344 80,50 26.66718,-16.66656 53.3328,-33.33257 80,-50 C 166.66653,183.33221 153.3341,136.66867 140,90 123.33298,79.999892 106.66627,69.999865 90,60 Z"
       sodipodi:nodetypes="ccccscccc" />
    <path
       style="fill:none;stroke:#000000;stroke-width:0.264583px;stroke-linecap:butt;stroke-linejoin:miter;stroke-opacity:1"
       d="M 83.821437,77.671061 69.583422,66.102673"
       id="path457" />
    <path
       style="fill:none;stroke:#000000;stroke-width:0.264583px;stroke-linecap:butt;stroke-linejoin:miter;stroke-opacity:1"
       d="M 75.342234,87.3358 62.883971,77.102225"
       id="path459" />
    <path
       style="fill:none;stroke:#000000;stroke-width:0.264583px;stroke-linecap:butt;stroke-linejoin:miter;stroke-opacity:1"
       d="M 90.989578,71.223647 78.086378,60.100199"
       id="path461" />
    <use
       x="0"
       y="0"
       xlink:href="#path461"
       id="use494"
       transform="matrix(-1,0,0,1,200.07596,0)" />
    <use
       x="0"
       y="0"
       xlink:href="#path457"
       id="use496"
       transform="matrix(-1,0,0,1,199.90486,0)" />
    <use
       x="0"
       y="0"
       xlink:href="#path459"
       id="use498"
       transform="matrix(-1,0,0,1,200.13908,0)" />
    <path
       style="fill:none;stroke:#000000;stroke-width:0.264583px;stroke-linecap:butt;stroke-linejoin:miter;stroke-opacity:1"
       d="M 100,120 V 220"
       id="path500"
       sodipodi:nodetypes="cc" />
    <path
       style="fill:none;stroke:#000000;stroke-width:0.264583px;stroke-linecap:butt;stroke-linejoin:miter;stroke-opacity:1"
       d="m 70,170 h 60"
       id="path502"
       sodipodi:nodetypes="cc" />
    <path
       style="fill:none;stroke:#000000;stroke-width:0.264583px;stroke-linecap:butt;stroke-linejoin:miter;stroke-opacity:1"
       d="m 60,220 h 80"
       id="path504"
       sodipodi:nodetypes="cc" />
    <path
       style="fill:none;stroke:#000000;stroke-width:0.264583"
       id="path560"
       sodipodi:type="arc"
       sodipodi:cx="67.263229"
       sodipodi:cy="98.790253"
       sodipodi:rx="8.3373938"
       sodipodi:ry="8.3373938"
       sodipodi:start="2.1189671"
       sodipodi:end="5.3021985"
       sodipodi:arc-type="arc"
       d="m 62.918389,105.90604 a 8.3373938,8.3373938 0 0 1 -3.986391,-7.436294 8.3373938,8.3373938 0 0 1 4.54592,-7.108057 8.3373938,8.3373938 0 0 1 8.422593,0.499801"
       sodipodi:open="true" />
    <use
       x="0"
       y="0"
       xlink:href="#path560"
       id="use626"
       transform="matrix(-1,0,0,1,200.08887,0)" />
    <path
       style="fill:none;stroke:#000000;stroke-width:0.264583px;stroke-linecap:butt;stroke-linejoin:miter;stroke-opacity:1"
       d="m 60.000126,153.20131 80.000004,0"
       id="path749"
       sodipodi:nodetypes="cc" />
    <circle
       style="fill:none;stroke:#000000;stroke-width:0.264583"
       id="path817"
       cx="121.97636"
       cy="153.20761"
       r="0.70789194" />
    <path
       style="fill:none;stroke:#000000;stroke-width:0.264583px;stroke-linecap:butt;stroke-linejoin:miter;stroke-opacity:1"
       d="m 95.878976,119.56939 c 0.0028,-0.11697 -0.0056,-0.23475 0.0085,-0.35089 0.04697,-0.38721 0.172204,-1.12852 0.262818,-1.56837 0.327665,-1.59052 0.23813,-1.16285 0.6194,-2.66082 0.06748,-0.26512 0.130358,-0.53144 0.201732,-0.79555 0.06455,-0.23886 0.132614,-0.47684 0.205991,-0.71315 0.169286,-0.54515 0.311372,-0.99315 0.525637,-1.50585 0.06897,-0.16504 0.145169,-0.32699 0.221621,-0.4887 0.168846,-0.35712 0.352811,-0.74416 0.637868,-1.02568 0.03749,-0.037 0.328501,-0.25715 0.478758,-0.17474 0.383535,0.21037 0.435729,0.37934 0.717423,0.80407 0.103735,0.15641 0.195286,0.32067 0.286966,0.48443 0.2119,0.37851 0.42049,0.75892 0.62367,1.14218 0.24127,0.45513 0.57356,1.16614 0.76004,1.60246 0.17725,0.41473 0.34085,0.83518 0.50717,1.25441 0.0458,0.11555 0.36153,0.94994 0.40772,1.08961 0.0826,0.2496 0.15987,0.50102 0.23015,0.75435 0.0628,0.22655 0.11527,0.45587 0.16905,0.68474 0.0149,0.0634 0.0246,0.12785 0.0369,0.19178 0.0327,0.16953 0.0598,0.34023 0.098,0.50858 0.029,0.12782 0.0663,0.25369 0.10371,0.37931 0.0208,0.0698 0.11392,0.32991 0.14064,0.40914 0.0196,0.058 0.039,0.11615 0.0568,0.17473 0.003,0.008 0.008,0.0335 0.004,0.0256 -0.0277,-0.0635 -0.0534,-0.14659 -0.0753,-0.21309"
       id="path869" />
    <path
       style="fill:none;stroke:#000000;stroke-width:0.264583px;stroke-linecap:butt;stroke-linejoin:miter;stroke-opacity:1"
       d="m 96.455757,115.84879 c 0.04072,0.0114 0.08005,0.0305 0.122177,0.0341 0.0422,0.004 0.08415,-0.0103 0.126436,-0.0128 0.126344,-0.007 0.253005,-0.009 0.379312,-0.017 0.249695,-0.016 0.49806,-0.0486 0.747257,-0.071 0.132501,-0.012 0.265505,-0.0184 0.397778,-0.0327 0.750411,-0.0808 0.850759,-0.11514 1.544238,-0.16764 0.521825,-0.0395 0.602625,-0.0364 1.102415,-0.0284 0.43067,0.007 0.16584,0.0101 0.63787,0.0242 0.0596,0.002 0.11982,0.008 0.179,0 0.0148,-0.002 0.34238,-0.0567 0.34238,-0.14491 0,-0.007 -0.014,0.006 -0.0185,0.0114 -0.0115,0.0142 -0.0204,0.0304 -0.0284,0.0469 -0.0333,0.0687 0.0145,0.0203 -0.0611,0.0753"
       id="path871" />
    <path
       style="fill:none;stroke:#000000;stroke-width:0.264583px;stroke-linecap:butt;stroke-linejoin:miter;stroke-opacity:1"
       d="m 101.2308,171.62517 c 0.0185,0.053 0.04,0.10512 0.0554,0.15911 0.0421,0.147 0.068,0.28377 0.0952,0.43329 0.0177,0.0974 0.0367,0.19468 0.0511,0.29265 0.0306,0.20799 0.0609,0.41611 0.0838,0.62507 0.0347,0.31619 0.0598,0.80751 0.0753,1.11803 0.0166,0.33332 0.0308,0.66677 0.0469,1.00011 0.0214,0.44356 0.0467,0.83138 0.0753,1.29419 0.0152,0.24579 0.027,0.49184 0.0469,0.7373 0.0242,0.29918 0.0496,0.59838 0.0852,0.89641 0.0246,0.20587 0.0246,0.34934 0.23866,0.44324 0.0598,0.0262 0.33493,-0.0951 0.34664,-0.10087 0.45263,-0.22206 0.46381,-0.24458 0.85949,-0.5171 1.01911,-0.70191 0.29102,-0.18928 0.79272,-0.56257 0.35086,-0.26106 0.56103,-0.39398 0.90494,-0.72167 0.0667,-0.0635 0.11719,-0.14283 0.1648,-0.22162 0.0204,-0.0337 0.0434,-0.0734 0.0369,-0.11223 -0.0243,-0.14572 -0.0541,-0.29597 -0.12644,-0.42476 -0.0605,-0.10774 -0.40241,-0.30498 -0.49722,-0.34237 -0.49109,-0.19366 -0.92642,-0.24697 -1.4448,-0.33385 -0.72211,-0.12102 -0.0435,-0.007 -0.6194,-0.0923 -0.0457,-0.007 -0.0944,-0.005 -0.13638,-0.0242 -0.0131,-0.006 -0.021,-0.0353 -0.009,-0.0426 0.0628,-0.0371 0.1369,-0.0505 0.206,-0.0739 0.29174,-0.0987 0.61495,-0.19123 0.90068,-0.31822 0.34621,-0.15386 0.55243,-0.28743 0.88648,-0.50432 0.0542,-0.0352 0.10583,-0.0744 0.15485,-0.11649 0.13107,-0.11244 0.2742,-0.21418 0.385,-0.34663 0.30849,-0.36878 0.42599,-0.78271 0.0384,-1.21321 -0.14325,-0.15909 -0.57337,-0.30415 -0.84102,-0.37078 -0.1815,-0.0452 -0.9145,-0.22318 -1.21038,-0.28839 -0.18249,-0.0402 -0.36619,-0.0749 -0.54837,-0.11649 -0.15542,-0.0355 -0.63939,-0.20487 -0.65207,-0.20883 -0.035,-0.0109 -0.18714,-0.0572 -0.24435,-0.0369 -0.0892,0.0315 -0.0367,0.16412 -0.0327,0.21167 0.002,0.0184 0.003,0.0369 0.004,0.0554"
       id="path873" />
    <path
       style="fill:none;stroke:#000000;stroke-width:0.264583px;stroke-linecap:butt;stroke-linejoin:miter;stroke-opacity:1"
       d="m 53.384277,149.13073 c -0.03348,0.13796 -0.07567,0.27409 -0.100454,0.41387 -0.05548,0.31292 -0.105366,0.69249 -0.1326,1.02663 -0.02739,0.33608 -0.06672,0.67155 -0.07836,1.00855 -0.02889,0.83716 0.0046,1.79109 0.05224,2.63588 0.02503,0.44423 0.05778,0.88799 0.08639,1.33201 0.03968,0.61581 0.04013,0.6443 0.08036,1.45858 0.03416,0.69137 0.0663,1.38299 0.0663,2.07535 0,0.028 -0.02847,0.39087 0.05826,0.40784 0.0652,0.0128 0.150136,-0.0522 0.1989,-0.0904 0.149286,-0.11709 0.298323,-0.23451 0.446018,-0.3536 1.574637,-1.2863 -0.327802,0.26065 1.054772,-0.8438 0.598472,-0.47809 0.82956,-0.67605 1.446546,-1.25567 0.09875,-0.0928 0.192166,-0.19155 0.279263,-0.29533 0.508629,-0.60606 0.812057,-0.94595 1.173309,-1.5972 0.150074,-0.27054 0.489711,-0.97548 0.5304,-1.30388 0.07677,-0.61964 0.09236,-1.24611 0.100455,-1.87043 0.0013,-0.10265 -0.03303,-0.20452 -0.07233,-0.29935 -0.112026,-0.27036 -0.226453,-0.54227 -0.379718,-0.79157 -0.269627,-0.43858 -0.728436,-0.73768 -1.1271,-1.03266 -0.08229,-0.0609 -0.167475,-0.11924 -0.259172,-0.16474 -0.151123,-0.075 -0.946426,-0.50646 -1.360155,-0.57861 -0.266378,-0.0465 -0.533237,-0.10993 -0.803636,-0.1105 -0.766882,-0.002 -1.086943,0.0998 -1.731836,0.27725"
       id="path887" />
    <path
       style="fill:none;stroke:#000000;stroke-width:0.264583px;stroke-linecap:butt;stroke-linejoin:miter;stroke-opacity:1"
       d="m 68.491889,145.29765 c 0.121217,-0.0683 0.235104,-0.15167 0.363646,-0.20492 0.27531,-0.11407 0.562515,-0.19698 0.843817,-0.29533 0.473642,-0.16561 0.891321,-0.31596 1.412391,-0.4199 0.38499,-0.0768 0.778344,-0.10495 1.169292,-0.14063 0.12338,-0.0113 0.24797,-0.007 0.371681,0 0.50219,0.0272 1.0838,0.0641 1.544992,0.2893 0.07329,0.0358 0.526492,0.32907 0.478163,0.5766 -0.153162,0.78447 -0.295722,0.80658 -0.875964,1.47465 -0.08384,0.0965 -0.175225,0.18678 -0.271227,0.27122 -0.674859,0.59363 -0.860737,0.76569 -1.587182,1.1974 -0.175869,0.10452 -0.379484,0.1623 -0.544463,0.28328 -0.05826,0.0427 0.141333,-0.0308 0.212964,-0.0402 0.108037,-0.0141 0.216521,-0.0293 0.325471,-0.0301 0.499264,-0.004 1.067076,0.10694 1.452574,0.45405 0.323349,0.29115 0.594791,0.85733 0.397801,1.30388 -0.136406,0.30921 -0.356429,0.58203 -0.596702,0.8197 -0.260646,0.25782 -0.58542,0.44194 -0.888016,0.64892 -0.109151,0.0747 -0.22538,0.13971 -0.345564,0.19488 -0.735378,0.33758 -0.939522,0.47281 -1.653482,0.54847 -0.364006,0.0386 -0.84887,0.0329 -1.179338,-0.15268 -0.292481,-0.16422 -0.419647,-0.38074 -0.584644,-0.62683"
       id="path893" />
    <path
       style="fill:none;stroke:#000000;stroke-width:0.264583px;stroke-linecap:butt;stroke-linejoin:miter;stroke-opacity:1"
       d="m 75.565898,147.42123 c -0.03261,0.67939 0.07,1.35387 0.124563,2.02915 0.03142,0.38888 0.04462,0.77935 0.08639,1.16726 0.0073,0.0676 2.64e-4,0.16277 0.06027,0.19488 0.04243,0.0227 0.04358,-0.0873 0.05224,-0.13461 0.03574,-0.19546 0.05635,-0.39342 0.08037,-0.59066 0.05801,-0.47651 0.111982,-1.1699 0.225018,-1.65748 0.139924,-0.60355 0.224874,-1.00513 0.610764,-1.48067 0.196283,-0.24189 0.241281,0.5305 0.279262,0.86791 0.02466,0.21905 0.02008,0.44055 0.02008,0.66098 0,1.10448 -0.0091,0.67179 -0.03415,1.2858 -0.0096,0.23569 -0.01987,0.47138 -0.02611,0.70719 -5.3e-4,0.0175 -0.0043,0.0664 0.006,0.0522 0.02856,-0.039 0.04345,-0.0875 0.05425,-0.1346 0.04964,-0.21675 0.07447,-0.43879 0.126571,-0.65496 0.0826,-0.34271 0.166008,-0.68608 0.277255,-1.0206 0.197619,-0.59424 0.560689,-1.24939 0.970391,-1.70368 0.131148,-0.14542 0.311753,-0.2656 0.504282,-0.30136 0.08592,-0.016 0.16456,0.0904 0.198901,0.17077 0.135458,0.31698 0.226586,0.6531 0.297344,0.99047 0.08635,0.41171 0.08281,1.57838 0.08639,1.88248 0.0021,0.18884 0,0.37771 0,0.56656 0,0.15135 0,0.3027 0,0.45405 0,0.0154 0.0085,0.0334 0,0.0462 -0.0057,0.008 -0.01109,-0.018 -0.01206,-0.0281 -0.0058,-0.0607 -0.0054,-0.12189 -0.008,-0.18283"
       id="path895" />
    <path
       style="fill:none;stroke:#000000;stroke-width:0.264583px;stroke-linecap:butt;stroke-linejoin:miter;stroke-opacity:1"
       d="m 80.695108,146.76627 c -0.04528,0.61304 -0.02725,0.10804 0.02008,0.86792 0.01543,0.24753 0.02429,0.49546 0.03215,0.74335 0.0099,0.3141 -0.02492,0.84575 -0.04018,1.07284 -0.01087,0.16176 -0.02761,0.32312 -0.04621,0.48418 -0.0024,0.0212 -0.0596,0.53461 -0.106482,0.67705 -0.0032,0.01 -0.0096,-0.0182 -0.01206,-0.0281 -0.01294,-0.0512 -0.02931,-0.10211 -0.03416,-0.15469 -0.0173,-0.18769 -0.03214,-0.37606 -0.03214,-0.56455 0,-0.75632 0.02537,-1.48025 0.285289,-2.19992 0.07834,-0.21691 0.190021,-0.42253 0.317437,-0.61477 0.02947,-0.0445 0.08783,-0.0839 0.140636,-0.0763 0.0525,0.007 0.09667,0.0619 0.112509,0.1125 0.06141,0.19631 0.09659,0.40166 0.112509,0.60674 0.06065,0.78141 0.0084,1.70032 -0.006,2.47717 -0.0074,0.39708 -0.01767,0.79424 -0.01405,1.19137 5.29e-4,0.0444 -0.0053,0.16198 0.02611,0.13059 0.04194,-0.0419 0.01426,-0.11778 0.02008,-0.1768 0.03836,-0.38766 0.04181,-0.78015 0.112509,-1.16324 0.114229,-0.61896 0.418854,-1.93271 0.783545,-2.58767 0.136983,-0.24601 0.2657,-0.54268 0.518345,-0.66701 0.130575,-0.0643 0.263464,0.13174 0.371682,0.22904 0.05012,0.0451 0.07232,0.1169 0.08639,0.18282 0.112255,0.52604 0.221917,1.05376 0.291317,1.58716 0.05097,0.39173 0.05016,0.97556 0.07233,1.42844 0.01029,0.21034 0.02384,0.4205 0.03415,0.63084 0.0097,0.19701 0.06692,0.1748 -0.02008,0.19488"
       id="path897" />
    <path
       style="fill:none;stroke:#000000;stroke-width:0.264583px;stroke-linecap:butt;stroke-linejoin:miter;stroke-opacity:1"
       d="m 142.1063,149.03249 c 0.0328,0.0529 0.0873,0.0975 0.0984,0.15872 0.0125,0.0687 -0.0213,0.13796 -0.0322,0.20693 -0.0175,0.11193 -0.0474,0.22243 -0.0542,0.33551 -0.0124,0.20593 -0.0121,0.41249 -0.0121,0.61879 0,0.22238 0.008,0.44467 0.0121,0.66701 0.0129,0.74622 0.0208,1.41774 0.0462,2.17581 0.009,0.27541 0.0264,0.55051 0.0402,0.82572 0.025,0.51174 0.0546,1.02324 0.0804,1.53493 0.0272,0.53837 0.0467,1.07715 0.0784,1.61528 0.0169,0.28737 0.0381,0.57447 0.0542,0.86189 0.006,0.0983 0.003,0.1969 0.006,0.29533 2.7e-4,0.0134 -0.0134,0.0402 0,0.0402 0.0198,0 0.0224,-0.0681 0.0342,-0.11854 0.0106,-0.0457 0.0261,-0.0592 0.0784,-0.0824 0.0422,-0.0188 0.089,-0.025 0.1326,-0.0402 0.0583,-0.0203 0.1148,-0.0452 0.17278,-0.0663 0.084,-0.0305 0.1724,-0.0501 0.25315,-0.0884 0.45547,-0.21605 0.54034,-0.2877 0.93423,-0.5545 0.13764,-0.0932 0.27986,-0.1802 0.41186,-0.28126 0.13624,-0.10431 0.92339,-0.75386 1.11504,-0.92618 0.29802,-0.26796 0.74799,-0.69428 0.97642,-1.0206 0.47555,-0.67934 0.7195,-1.16647 0.89606,-1.98294 0.087,-0.40237 0.2321,-0.82159 0.15269,-1.22553 -0.12004,-0.61063 -0.4707,-1.15263 -0.73131,-1.71775 -0.0502,-0.10879 -0.11502,-0.21381 -0.1989,-0.29935 -0.28973,-0.29546 -0.5642,-0.6201 -0.91614,-0.83777 -0.32982,-0.20398 -0.99634,-0.27899 -1.40034,-0.27123 -0.33013,0.006 -0.65945,0.0366 -0.98847,0.0643 -0.2374,0.0199 -0.47426,0.0573 -0.70319,0.12456 -0.25889,0.076 -0.52197,0.17746 -0.76345,0.29935 -0.0204,0.0103 -0.0388,0.0241 -0.0583,0.0362 -0.0268,0.0134 -0.0536,0.0268 -0.0804,0.0402"
       id="path899" />
    <path
       style="fill:none;stroke:#000000;stroke-width:0.264583px;stroke-linecap:butt;stroke-linejoin:miter;stroke-opacity:1"
       d="m 149.65646,147.83509 c -0.0174,0.0683 -0.0348,0.13662 -0.0522,0.20493 -0.0375,0.2009 -0.0652,0.4039 -0.11251,0.60271 -0.0372,0.156 -0.0994,0.3051 -0.14064,0.46008 -0.1633,0.61406 -0.20101,0.90271 -0.32346,1.56907 -0.1159,0.6307 -0.0135,0.40793 -0.17278,0.70719"
       id="path901" />
    <path
       style="fill:none;stroke:#000000;stroke-width:0.264583px;stroke-linecap:butt;stroke-linejoin:miter;stroke-opacity:1"
       d="m 111.19644,144.62663 c 0.34192,-0.33208 0.71832,-0.45972 1.16728,-0.60875 0.28529,-0.0947 0.57308,-0.18192 0.8619,-0.2652 0.41445,-0.11949 0.92237,-0.24537 1.3481,-0.31743 0.34538,-0.0584 1.12896,-0.2166 1.40637,0.14064 0.28716,0.3698 -0.0869,1.17507 -0.16475,1.38625 -0.11753,0.31896 -0.8409,1.40297 -0.94226,1.55099 -0.20428,0.2983 -0.43025,0.58128 -0.63688,0.87796 -0.0441,0.0633 -0.11452,0.12382 -0.11452,0.20091 0,0.0389 0.0773,-0.011 0.11452,-0.0221 0.0936,-0.0278 0.18365,-0.0666 0.27725,-0.0944 0.21792,-0.0647 0.43608,-0.1292 0.65697,-0.18283 0.28703,-0.0697 0.85875,-0.0512 1.03468,-0.0422 0.15891,0.008 0.32185,0.0181 0.47214,0.0703 0.16675,0.058 0.4062,0.0884 0.4641,0.25515 0.28072,0.80863 -0.34536,1.34075 -0.85587,1.81016 -0.41483,0.38143 -0.87683,0.70842 -1.326,1.04873 -0.22819,0.17289 -0.4623,0.33869 -0.70519,0.49021 -0.50723,0.31644 -1.15205,0.65492 -1.77001,0.40181 -0.13103,-0.0537 -0.19957,-0.2009 -0.29936,-0.30135"
       id="path903" />
    <path
       style="fill:none;stroke:#000000;stroke-width:0.264583px;stroke-linecap:butt;stroke-linejoin:miter;stroke-opacity:1"
       d="m 118.40305,145.0867 c 0.032,0.7148 0.0515,0.62413 -0.0402,1.45054 -0.0899,0.81081 -0.21409,1.61764 -0.29936,2.42895 -0.0253,0.24067 -0.0404,0.48342 -0.0321,0.72527 0.002,0.0481 0.0437,-0.0872 0.0522,-0.1346 0.0445,-0.24632 0.0699,-0.49574 0.10648,-0.74336 0.0585,-0.39528 0.0947,-0.79472 0.17882,-1.18534 0.0898,-0.41671 0.3412,-1.11445 0.55852,-1.49876 0.13331,-0.23574 0.2838,-0.46373 0.45808,-0.67102 0.0589,-0.0701 0.13963,-0.14302 0.23104,-0.14867 0.20165,-0.0125 0.2568,0.48082 0.25917,0.50226 0.0566,0.5118 0.0534,1.14602 0.0322,1.66953 -0.0124,0.30495 -0.0365,0.60932 -0.0522,0.91412 -0.008,0.16266 -0.0297,0.32561 -0.0201,0.4882 0.003,0.0506 0.0286,-0.0973 0.0402,-0.14666 0.14616,-0.6245 0.0919,-0.57484 0.40383,-1.38022 0.16345,-0.42199 0.60696,-1.47139 0.93624,-1.91665 0.22741,-0.30751 0.44009,-0.64838 0.75742,-0.86188 0.0834,-0.0561 0.17928,0.11136 0.22502,0.2009 0.098,0.1918 0.18429,1.04023 0.19287,1.14918 0.21068,2.67512 -5.3e-4,0.4212 0.11854,2.50731 0.058,1.01688 -0.0572,0.74248 0.11251,1.12106"
       id="path905" />
    <path
       style="fill:none;stroke:#000000;stroke-width:0.264583px;stroke-linecap:butt;stroke-linejoin:miter;stroke-opacity:1"
       d="m 125.08528,145.0204 c -0.0335,0.073 -0.0891,0.13949 -0.10045,0.21899 -0.0182,0.1267 0.009,0.25584 0.0141,0.38373 0.0102,0.24781 0.0245,0.49545 0.0321,0.74335 0.0264,0.85327 0.0103,1.70703 -0.0321,2.55954 -0.007,0.13739 -0.01,0.27524 -0.0261,0.41186 -0.009,0.0742 0.005,0.16614 -0.0482,0.21899 -0.0305,0.0305 -0.0455,-0.0759 -0.0522,-0.11854 -0.031,-0.19479 -0.0644,-0.39145 -0.0603,-0.58865 0.0113,-0.53614 0.0168,-1.07653 0.10648,-1.60524 0.17453,-1.0294 0.54463,-1.74969 1.17531,-2.58365 0.052,-0.0687 0.1777,-0.13608 0.24511,-0.0824 0.29859,0.23791 0.34557,0.95643 0.36566,1.23959 0.0983,1.38527 0.0944,1.696 0.0462,2.90108 -0.005,0.13611 -0.0188,0.27181 -0.0261,0.40784 -0.004,0.0743 -0.0202,0.29639 -0.008,0.223 0.0496,-0.29928 0.0619,-0.60444 0.12055,-0.90207 0.12094,-0.61331 0.26589,-1.22186 0.41789,-1.82824 0.11029,-0.44003 0.49951,-1.27131 0.63688,-1.54497 0.20956,-0.41745 0.31455,-0.52116 0.70921,-0.76746 0.0364,-0.0227 0.0953,-0.0535 0.12657,-0.0241 0.20023,0.18849 0.37491,0.40605 0.52437,0.63687 0.0725,0.11201 0.10217,0.24779 0.1326,0.37771 0.1265,0.54002 0.24535,1.08241 0.33753,1.62934 0.10015,0.59428 0.1603,1.1946 0.23908,1.79208 0.17136,1.32131 0.11016,0.85733 0.18082,1.39228"
       id="path907" />
    <path
       style="fill:none;stroke:#000000;stroke-width:0.264583px;stroke-linecap:butt;stroke-linejoin:miter;stroke-opacity:1"
       d="m 104.91076,153.86472 c -0.0204,8e-4 -0.0427,-0.007 -0.0611,0.002 -0.0196,0.009 -0.0334,0.0293 -0.044,0.0483 -0.0497,0.0884 -0.0793,0.21061 -0.0845,0.30828 -0.013,0.2431 -0.0113,0.48677 -0.0142,0.73019 -10e-4,0.0938 5.3e-4,0.18754 0.002,0.28129 0.003,0.20562 0.009,0.37209 0.0213,0.57748 0.0223,0.3606 0.0281,0.38821 0.0511,0.69894 0.0373,0.50421 0.0122,0.17064 0.0426,0.65278 0.002,0.0306 0.003,0.0612 0.007,0.0916 0.002,0.0153 -0.006,0.0492 0.009,0.0455 0.021,-0.005 0.0163,-0.0858 0.0163,-0.098"
       id="path909" />
    <path
       style="fill:none;stroke:#000000;stroke-width:0.264583px;stroke-linecap:butt;stroke-linejoin:miter;stroke-opacity:1"
       d="m 105.79298,156.53194 c 0.0142,0.0961 -0.002,0.0726 0.0327,0.12501 0.006,0.009 0.0155,0.0166 0.0192,0.027 0.002,0.004 -0.001,0.0153 -0.005,0.0128 -0.009,-0.006 -0.007,-0.0316 -0.007,-0.0398"
       id="path911" />
    <path
       style="fill:none;stroke:#000000;stroke-width:0.264583px;stroke-linecap:butt;stroke-linejoin:miter;stroke-opacity:1"
       d="m 107.2946,154.36549 c -0.058,0.10134 -0.12044,0.20027 -0.17403,0.30402 -0.0913,0.17683 -0.2306,0.67739 -0.24364,0.73659 -0.0803,0.3645 -0.12464,0.80975 -0.0895,1.18621 0.012,0.12852 0.0494,0.25367 0.0845,0.37789 0.008,0.0272 0.0964,0.25941 0.14774,0.28554 0.0605,0.0308 0.13582,0.043 0.20174,0.027 0.10439,-0.0254 0.32095,-0.38867 0.32177,-0.38996 0.12184,-0.19253 0.19059,-0.36188 0.27418,-0.57962 0.0523,-0.13631 0.11104,-0.332 0.0987,-0.47732 -0.0135,-0.15999 -0.24452,-0.0784 -0.30473,-0.0611 -0.14358,0.0413 -0.27917,0.10662 -0.41767,0.16266 -0.0453,0.0183 -0.0891,0.04 -0.13354,0.0604 -0.03,0.0138 -0.13912,0.0692 -0.18326,0.0774 -0.0539,0.01 -0.0485,0.007 -0.0448,-0.0185"
       id="path913" />
    <path
       style="fill:none;stroke:#000000;stroke-width:0.264583px;stroke-linecap:butt;stroke-linejoin:miter;stroke-opacity:1"
       d="m 108.61793,154.21065 c 0.0218,0.0836 0.062,0.16443 0.0653,0.25074 0.0212,0.55006 -0.0612,0.1692 -0.0703,0.54409 -0.003,0.13288 -0.005,0.26704 0.0142,0.39849 0.0291,0.19402 0.41519,0.0979 0.47592,0.0938 0.11173,-0.008 0.24181,-0.0195 0.35231,0.0128 0.0556,0.0162 0.11572,0.0339 0.15698,0.0746 0.0925,0.0911 0.17175,0.19739 0.23441,0.31112 0.0572,0.10387 0.0823,0.36214 0.0803,0.47306 -0.002,0.0839 1.2e-4,0.17115 -0.0284,0.25003 -0.0501,0.13852 -0.10187,0.2858 -0.20387,0.39209 -0.15613,0.16271 -0.32427,0.19196 -0.50432,0.10442 -0.26406,-0.12839 -0.44559,-0.41495 -0.6123,-0.64212"
       id="path915" />
    <path
       style="fill:none;stroke:#000000;stroke-width:0.264583px;stroke-linecap:butt;stroke-linejoin:miter;stroke-opacity:1"
       d="m 108.73726,154.61552 c 0.2712,-0.0712 0.55312,-0.0561 0.83037,-0.0668 0.10329,-0.004 0.2077,5.3e-4 0.3097,-0.0164 0.31637,-0.0523 0.38483,-0.0766 0.59382,-0.14419"
       id="path917" />
    <path
       style="fill:none;stroke:#000000;stroke-width:0.264583px;stroke-linecap:butt;stroke-linejoin:miter;stroke-opacity:1"
       d="m 111.10689,155.08859 c -0.007,0.16922 -0.0218,0.33803 -0.0305,0.50716 -0.008,0.16048 -0.0165,0.32097 -0.0213,0.48159 -0.003,0.10011 -0.003,0.20031 -0.002,0.30046 5.3e-4,0.0502 0.005,0.27715 0.0256,0.34379 0.004,0.0134 0.0114,-0.026 0.0142,-0.0398 0.007,-0.0378 0.011,-0.0762 0.0164,-0.11436 0.0143,-0.10227 0.0275,-0.2047 0.0426,-0.30685 0.0498,-0.3365 0.0683,-0.44852 0.16196,-0.81686 0.0218,-0.0856 0.0448,-0.17161 0.0795,-0.25287 0.0319,-0.0747 0.0752,-0.1442 0.11934,-0.21238 0.008,-0.0125 0.0211,-0.0308 0.0355,-0.027 0.0612,0.0162 0.093,0.0584 0.103,0.11436 0.0302,0.16919 0.0558,0.33919 0.0803,0.50929 0.006,0.0421 0.007,0.0848 0.0114,0.12715 0.007,0.0758 0.014,0.15155 0.0213,0.2273 0.002,0.0211 0.0219,0.28885 0.0447,0.36652 10e-4,0.004 0.0101,-5.3e-4 0.0114,-0.004 0.008,-0.0247 0.0121,-0.0509 0.0164,-0.0767 0.0192,-0.11724 0.0331,-0.23536 0.054,-0.35231 0.047,-0.26241 0.10595,-0.59204 0.24151,-0.83035 0.0302,-0.053 0.0626,-0.10703 0.10797,-0.14775 0.0141,-0.0126 0.0426,-0.0125 0.0568,0 0.0553,0.0489 0.0601,0.22228 0.0632,0.26282 0.006,0.0811 0.01,0.16235 0.0114,0.24363 0.005,0.24053 0.004,0.48113 0.007,0.72168 0.006,0.4418 0.01,0.19163 0.005,0.42334"
       id="path919" />
    <path
       style="fill:none;stroke:#000000;stroke-width:0.264583px;stroke-linecap:butt;stroke-linejoin:miter;stroke-opacity:1"
       d="m 113.2137,154.94724 c -0.002,0.032 -0.006,0.0639 -0.007,0.0959 -0.004,0.0861 -0.003,0.17241 -0.007,0.25855 -0.005,0.11533 -0.0128,0.23054 -0.0163,0.34592 -0.0108,0.35543 -0.006,0.37597 -0.007,0.67764 -2.6e-4,0.0772 -0.001,0.15438 -0.002,0.23156 -2.7e-4,0.0208 0.007,0.0813 -0.002,0.0625 -0.0128,-0.0264 -0.009,-0.0581 -0.01,-0.0874 -0.002,-0.0577 -5.3e-4,-0.11555 0,-0.17332 10e-4,-0.0888 10e-4,-0.17764 0.005,-0.26636 0.005,-0.11141 0.004,-0.22368 0.0213,-0.33385 0.0607,-0.38881 0.0889,-0.60162 0.25572,-0.91985 0.0163,-0.031 0.0872,-0.13679 0.14988,-0.12928 0.0231,0.003 0.0497,0.0212 0.054,0.044 0.0703,0.37069 0.0445,0.58771 0.0305,0.95892 -0.004,0.11246 -0.0233,0.45819 -0.0256,0.50077 -0.003,0.059 -0.007,0.11788 -0.01,0.17687 -5.3e-4,0.0111 0,0.0445 0,0.0334 0,-0.0664 -10e-4,-0.0476 0.01,-0.14774 0.007,-0.064 0.0135,-0.12815 0.0234,-0.19179 0.0143,-0.0915 0.0265,-0.18365 0.049,-0.27347 0.0842,-0.33524 0.14675,-0.53937 0.2955,-0.84029 0.0439,-0.0888 0.14993,-0.26224 0.28626,-0.2273 0.0672,0.0172 0.14852,0.28596 0.15059,0.29407 0.0354,0.13871 0.0623,0.27968 0.0838,0.42121 7.9e-4,0.004 0.0573,0.61997 0.0589,0.63786 0.008,0.08 0.0147,0.16015 0.0234,0.24008 0.003,0.0281 0.006,0.0563 0.0121,0.0838 0.009,0.0415 0.0232,0.0819 0.0348,0.12288"
       id="path921" />
    <path
       style="fill:none;stroke:#000000;stroke-width:0.264583px;stroke-linecap:butt;stroke-linejoin:miter;stroke-opacity:1"
       d="m 116.27013,155.10351 c 0.10661,0.15941 0.19749,0.32877 0.29762,0.49224 0.0975,0.15921 0.23574,0.34684 0.33101,0.48159 0.14865,0.21024 0.25787,0.34314 0.45745,0.56328 0.044,0.0485 0.16953,0.16696 0.25074,0.22942 0.0295,0.0227 0.0566,0.0493 0.0895,0.0668 0.006,0.003 0.005,-0.0147 0,-0.0192 -0.0161,-0.0155 -0.0379,-0.0237 -0.0568,-0.0355"
       id="path923" />
    <path
       style="fill:none;stroke:#000000;stroke-width:0.264583px;stroke-linecap:butt;stroke-linejoin:miter;stroke-opacity:1"
       d="m 116.35892,156.63635 c -8e-4,0.0466 -0.0138,0.0948 -0.002,0.13993 0.01,0.0371 0.0372,0.0678 0.0632,0.0959 0.0885,0.0953 0.185,0.18298 0.27915,0.27276 0.15739,0.15008 0.34589,0.32148 0.5093,0.47164 0.0626,0.0575 0.12385,0.11637 0.18753,0.17261 0.0233,0.0206 0.316,0.26183 0.36795,0.32745 0.0165,0.0209 0.0175,0.0502 0.0263,0.0753"
       id="path925" />
    <path
       style="fill:none;stroke:#000000;stroke-width:0.264583px;stroke-linecap:butt;stroke-linejoin:miter;stroke-opacity:1"
       d="m 117.18005,158.88875 c 0.071,0.15859 -0.004,-0.0261 0.0398,0.14561 7.9e-4,0.003 0.008,-0.001 0.009,-0.004 0.0663,-0.16109 0.13306,-0.32211 0.1925,-0.48585 0.0604,-0.16645 0.11028,-0.33655 0.16692,-0.50432 0.24052,-0.71238 0.0582,-0.15865 0.32107,-0.90494 0.0532,-0.15098 0.10323,-0.30306 0.15485,-0.45459"
       id="path927" />
    <path
       style="fill:none;stroke:#000000;stroke-width:0.264583px;stroke-linecap:butt;stroke-linejoin:miter;stroke-opacity:1"
       d="m 118.37694,154.54236 c 0.0679,0.0521 0.13591,0.10418 0.20386,0.15627 0.0689,0.0516 0.13826,0.10263 0.20671,0.15485 0.45497,0.34709 -0.19367,-0.14088 0.28554,0.2209 0.0694,0.0524 0.14102,0.10187 0.20884,0.15627 0.0388,0.0312 0.0875,0.0562 0.11081,0.10015 0.10202,0.19212 0.0914,0.2137 -0.007,0.35658 -0.016,0.0232 -0.0327,0.0479 -0.0568,0.0625 -0.25592,0.1552 -0.46398,0.24822 -0.73376,0.36296 -0.12675,0.0539 -0.19061,0.0595 -0.3097,0.14562 -0.0491,0.0355 -0.11638,0.067 -0.13141,0.12572 -0.008,0.0326 0.0684,0.002 0.10087,-0.006 0.12389,-0.0337 0.24387,-0.0805 0.36581,-0.12075 0.17521,-0.0578 0.34891,-0.12037 0.52564,-0.17332 0.23685,-0.071 0.54549,-0.13188 0.78348,-0.17758 0.0534,-0.0102 0.21395,-0.0322 0.25359,-0.008 0.022,0.0136 -0.004,0.0553 -0.0213,0.0746 -0.13065,0.1455 -0.36169,0.3184 -0.51854,0.434 -0.2077,0.15309 -0.41766,0.30307 -0.6265,0.4546"
       id="path929" />
    <path
       style="fill:none;stroke:#000000;stroke-width:0.264583px;stroke-linecap:butt;stroke-linejoin:miter;stroke-opacity:1"
       d="m 118.43732,157.34098 c 0.0189,-0.003 0.0386,-0.003 0.0568,-0.009 0.85397,-0.28023 0.4512,-0.19487 1.53856,-0.45815 0.0609,-0.0147 0.30971,-0.0505 0.38712,-0.0107 0.0211,0.0109 0.002,0.0473 0.003,0.071"
       id="path931" />
    <path
       style="fill:none;stroke:#000000;stroke-width:0.264583px;stroke-linecap:butt;stroke-linejoin:miter;stroke-opacity:1"
       d="m 118.30875,158.80706 c -0.004,0.0215 -0.0263,0.0479 -0.0121,0.0646 0.074,0.087 0.18421,0.0845 0.28413,0.0753 0.12327,-0.0114 0.24526,-0.0339 0.36795,-0.0504 0.17612,-0.0237 0.35267,-0.0443 0.52848,-0.0703 0.13015,-0.0192 0.25981,-0.0418 0.38925,-0.0654 0.52066,-0.0948 0.64492,-0.0944 1.04843,-0.23298 0.0988,-0.0339 0.30763,-0.0865 0.32391,-0.23583 0.006,-0.0577 -0.0592,-0.0999 -0.0888,-0.14987"
       id="path933" />
    <path
       style="fill:none;stroke:#000000;stroke-width:0.264583px;stroke-linecap:butt;stroke-linejoin:miter;stroke-opacity:1"
       d="m 119.25134,156.40692 c -0.003,-0.0528 0.004,-0.10711 -0.009,-0.15839 -0.002,-0.01 -0.0283,0.002 -0.0277,0.0121 0.003,0.0502 0.0353,0.096 0.0369,0.14632 0.002,0.0652 -0.0341,0.12928 -0.0256,0.19392 0.0356,0.26888 0.10319,0.53255 0.15698,0.79839 0.0277,0.13668 0.0572,0.27299 0.0874,0.40914 0.0835,0.37616 0.14309,0.63306 0.27418,1.01787 0.0328,0.0964 0.0753,0.18987 0.12431,0.27915 0.0165,0.0301 0.0361,0.078 0.0703,0.0753 0.1067,-0.008 0.13426,-0.23454 0.14562,-0.2756"
       id="path935" />
    <path
       style="fill:none;stroke:#000000;stroke-width:0.264583px;stroke-linecap:butt;stroke-linejoin:miter;stroke-opacity:1"
       d="m 122.01804,154.82649 c 0.0516,-0.0223 0.0994,-0.0578 0.15485,-0.0668 0.0146,-0.002 -5.2e-4,0.0319 -0.01,0.0433 -0.10503,0.12792 -0.26721,0.29047 -0.39423,0.40913 -0.14743,0.13773 -0.25795,0.22979 -0.42406,0.35871 -0.0346,0.0268 -0.0739,0.0472 -0.10797,0.0746 -0.0164,0.0131 -0.0381,0.0257 -0.0426,0.0462 -0.003,0.015 0.0157,0.0265 0.0234,0.0398 0.0569,0.0974 0.1022,0.16341 0.13638,0.27276 0.075,0.23993 0.10155,0.3718 0.13141,0.61299 0.0238,0.19196 0.0528,0.44673 0.0469,0.64852 -0.007,0.22513 -0.0473,0.35217 -0.0987,0.586 -0.009,0.0399 -0.0202,0.0792 -0.0277,0.11934 -0.004,0.022 -0.0173,0.0468 -0.007,0.0668 0.01,0.0188 0.0359,0.0351 0.0561,0.0291 0.1231,-0.0364 0.23555,-0.1022 0.35445,-0.15059 0.13437,-0.0547 0.32047,-0.0823 0.44324,-0.10583 0.14836,-0.0284 0.36312,-0.0606 0.51356,-0.071 0.0836,-0.006 0.16764,-0.009 0.25146,-0.006 0.38396,0.0106 0.0407,0.0309 0.43827,0.0334 0.004,2e-5 0.002,-0.009 0,-0.0128 -0.004,-0.007 -0.0109,-0.0109 -0.0163,-0.0164"
       id="path937" />
    <path
       style="fill:none;stroke:#000000;stroke-width:0.264583px;stroke-linecap:butt;stroke-linejoin:miter;stroke-opacity:1"
       d="m 121.32335,155.87064 c 0.26408,-0.0854 0.52762,-0.182 0.80479,-0.21664 0.18221,-0.0228 0.41399,-0.0299 0.58673,0.0334 0.10133,0.0371 0.19554,0.0994 0.27205,0.17545 0.15429,0.15345 0.22996,0.59292 0.24577,0.73375 0.0353,0.3147 0.0328,0.63252 0.0447,0.94897 0.011,0.29073 0.0146,0.75803 -0.002,1.03847 -0.005,0.0862 -0.0174,0.17243 -0.0376,0.25642 -0.0271,0.11254 -0.0923,0.30902 -0.28626,0.22517 -0.26963,-0.11656 -0.47656,-0.45233 -0.62153,-0.68616 -0.11664,-0.18813 -0.22352,-0.38214 -0.33527,-0.57322"
       id="path939" />
    <path
       style="fill:none;stroke:#000000;stroke-width:0.264583px;stroke-linecap:butt;stroke-linejoin:miter;stroke-opacity:1"
       d="m 121.54142,156.53407 c 0.009,-0.0277 -0.003,-0.0779 0.0256,-0.0831 0.064,-0.0118 0.12529,0.0436 0.19037,0.0433 0.13968,-5.3e-4 0.40138,-0.073 0.54695,-0.0916 0.1472,-0.0189 0.29523,-0.031 0.44324,-0.0419 0.0671,-0.005 0.1345,-0.008 0.20173,-0.006 0.0163,5.2e-4 0.0532,-8e-4 0.0469,0.0142 -0.0354,0.0836 -0.21174,0.25143 -0.27916,0.2962 -0.26317,0.3458 -0.6919,0.41099 -1.03209,0.62578 -0.005,0.003 -0.009,0.0189 -0.003,0.0185 0.0578,-0.004 0.11509,-0.0149 0.17119,-0.0291 0.16793,-0.0426 0.534,-0.163 0.6947,-0.21451 0.0291,-0.009 0.3019,-0.10108 0.35658,-0.10442 0.0246,-0.002 0.13181,-0.005 0.14348,0.0519 0.035,0.17093 -0.0534,0.19974 -0.14561,0.39849 -0.009,0.0189 -0.0112,0.0402 -0.0164,0.0604 -0.0144,0.0568 -0.0683,0.30127 -0.10584,0.36723 -0.14418,0.25339 -0.15691,0.22589 -0.33314,0.39849 -0.1811,0.17736 -0.36617,0.35093 -0.53985,0.53557 -0.14415,0.15325 -0.30609,0.40001 -0.45744,0.55049 -0.17473,0.17372 -0.24452,0.2844 -0.48515,0.24008 -0.0372,-0.007 -0.0611,-0.0445 -0.0916,-0.0668"
       id="path941" />
    <path
       style="fill:none;stroke:#000000;stroke-width:0.264583px;stroke-linecap:butt;stroke-linejoin:miter;stroke-opacity:1"
       d="m 123.254,156.35294 c 0.20668,-0.0592 0.16433,-0.0999 0.29336,-0.0256 0.0324,0.0187 0.006,0.0312 0.0632,0.0291 0.0371,-0.001 0.2703,-0.0425 0.29123,-0.0455 0.11086,-0.0154 0.22174,-0.0312 0.33314,-0.0419 0.14407,-0.0139 0.427,-0.0215 0.56755,-0.0291 0.0938,-0.005 0.18817,-0.006 0.28129,-0.0185 0.1833,-0.0249 0.37141,-0.0354 0.54695,-0.0938 0.13378,-0.0445 0.21475,-0.12556 0.14348,-0.23796 -0.0254,-0.04 -0.0658,-0.0682 -0.0987,-0.10228"
       id="path943" />
    <path
       style="fill:none;stroke:#000000;stroke-width:0.264583px;stroke-linecap:butt;stroke-linejoin:miter;stroke-opacity:1"
       d="m 124.58656,154.85774 c -0.0336,0.0201 -0.0875,0.0236 -0.10086,0.0604 -0.0408,0.11257 -0.0155,0.41828 -0.004,0.53557 0.0186,0.19488 0.0396,0.38954 0.0632,0.58387 0.0179,0.14713 0.0401,0.29369 0.0611,0.4404 0.0902,0.62913 0.10299,0.6747 0.18255,1.29063 0.0163,0.12626 0.0321,0.25262 0.0447,0.3793 0.025,0.25005 0.0534,0.49994 0.0682,0.7508 0.006,0.0951 -0.003,0.19044 -0.007,0.28554 -5.3e-4,0.0136 -0.0134,0.15064 -0.0611,0.13141 -0.0577,-0.0233 -0.089,-0.088 -0.1243,-0.13922 -0.10196,-0.14798 -0.24556,-0.45849 -0.3097,-0.60305 -0.0653,-0.14718 -0.37499,-0.80352 -0.42904,-1.09459 -0.0302,-0.16284 -0.0409,-0.32899 -0.0497,-0.49437 -0.003,-0.0579 -0.009,-0.12002 0.0142,-0.17332 0.008,-0.0195 0.0446,-0.018 0.0632,-0.008 0.0351,0.0192 0.057,0.0564 0.0824,0.0874 0.0953,0.11639 0.18512,0.23708 0.27916,0.35445 0.0262,0.0328 0.0504,0.0679 0.0817,0.0959 0.22589,0.202 0.34758,0.37634 0.66202,0.36084 0.0474,-0.002 0.0781,-0.054 0.1172,-0.081"
       id="path945" />
    <path
       style="fill:none;stroke:#000000;stroke-width:0.264583px;stroke-linecap:butt;stroke-linejoin:miter;stroke-opacity:1"
       d="m 126.93275,154.72846 c 0.0313,-0.008 0.0644,-0.0366 0.0938,-0.0234 0.14064,0.063 0.0888,0.38844 0.0895,0.434 0.002,0.11774 -0.0117,0.66578 -0.0121,0.70249 -10e-4,0.12667 -10e-4,0.25335 0,0.38002 5.3e-4,0.0576 0.003,0.11508 0.005,0.17261 0.001,0.0412 -0.002,0.0829 0.004,0.12359 0.002,0.0128 0.008,-0.0249 0.01,-0.0377 0.0149,-0.0791 0.0215,-0.16005 0.0419,-0.23795 0.0705,-0.26867 0.0856,-0.39339 0.32604,-0.5235 0.0871,-0.0471 0.30933,-0.0834 0.39636,-0.0959 0.21622,-0.0309 0.37804,-0.0352 0.60306,-0.0476 0.0964,-0.005 0.19307,-0.005 0.2891,-0.0149 0.0537,-0.005 0.12793,0.0149 0.15912,-0.0291 0.0539,-0.0761 -0.13766,-0.0226 -0.19676,-0.009"
       id="path947" />
    <path
       style="fill:none;stroke:#000000;stroke-width:0.264583px;stroke-linecap:butt;stroke-linejoin:miter;stroke-opacity:1"
       d="m 126.64436,156.61149 c -0.0246,0.29218 -0.0291,0.16225 0.0376,0.53984 0.0124,0.0701 0.0322,0.13869 0.044,0.20883 0.0109,0.0642 0.0159,0.12931 0.0242,0.19391 0.001,0.009 0.004,0.0361 0.004,0.027 0.007,-0.12916 -0.0135,-0.12833 0.007,-0.28199 0.0197,-0.14656 0.0432,-0.26747 0.13141,-0.38783 0.0421,-0.0574 0.0907,-0.11155 0.14774,-0.15413 0.0967,-0.0722 0.19735,-0.14346 0.3097,-0.18753 0.21119,-0.0828 0.44363,-0.0932 0.66131,-0.0334 0.18525,0.0509 0.27945,0.11715 0.33812,0.30046 0.0269,0.0841 -0.0147,0.22854 -0.0653,0.29407 -0.11237,0.14548 -0.26135,0.26667 -0.42478,0.35018 -0.10946,0.0559 -0.41049,0.14763 -0.5093,0.17332 -0.0609,0.0158 -0.12284,0.0284 -0.18539,0.0348 -0.0328,0.003 -0.13064,0.003 -0.0987,-0.006 0.11322,-0.0295 0.21413,-0.0232 0.32603,-0.0291 0.54507,-0.0285 0.53382,0.004 0.95752,-0.10654 0.0555,-0.0145 0.14729,-0.0679 0.16195,-0.12502 0.005,-0.0205 -0.0407,-0.0114 -0.0611,-0.017"
       id="path949" />
    <path
       style="fill:none;stroke:#000000;stroke-width:0.264583px;stroke-linecap:butt;stroke-linejoin:miter;stroke-opacity:1"
       d="m 126.32969,157.76006 c -0.0618,0.10442 -0.12264,0.20941 -0.18539,0.31325 -0.25234,0.41752 -0.0824,0.10176 -0.39139,0.69184 -0.0415,0.0793 -0.0799,0.16011 -0.12004,0.24009 -0.0879,0.17526 -0.17421,0.35195 -0.26921,0.52349"
       id="path951" />
    <path
       style="fill:none;stroke:#000000;stroke-width:0.264583px;stroke-linecap:butt;stroke-linejoin:miter;stroke-opacity:1"
       d="m 126.01786,158.49026 c 0.0748,0.13743 0.16681,-0.22454 0.26992,-0.18752 0.17511,0.0629 0.35517,0.12962 0.5022,0.24364 0.11133,0.0863 0.16625,0.2275 0.25074,0.34023 0.11752,0.15681 0.26095,0.37535 0.43614,0.48586 0.022,0.0139 0.0552,0.003 0.0774,-0.0107 0.0714,-0.0436 0.0983,-0.14504 0.12715,-0.21238"
       id="path953" />
    <path
       style="fill:none;stroke:#000000;stroke-width:0.264583px;stroke-linecap:butt;stroke-linejoin:miter;stroke-opacity:1"
       d="m 127.80574,158.21679 c 0.39067,0.19186 0.15164,0.0184 0.4198,0.66982 0.0513,0.12474 0.0988,0.25223 0.16692,0.36866 0.0378,0.0646 0.079,0.13957 0.14775,0.16905 0.0937,0.0402 0.14119,-0.20151 0.14277,-0.20812 0.0236,-0.0986 0.0382,-0.19912 0.059,-0.29833 0.0176,-0.0838 0.0372,-0.1672 0.0561,-0.25074 0.016,-0.0705 0.0579,-0.25866 0.0824,-0.30827 0.0419,-0.0849 0.0853,-0.1738 0.15485,-0.23796 0.0247,-0.0228 0.0752,-0.0196 0.10087,0.002 0.15988,0.13535 0.29754,0.29538 0.43614,0.45247 0.0589,0.0667 0.10266,0.14531 0.15485,0.21735 0.0636,0.0878 0.12705,0.17569 0.19249,0.2621 0.0151,0.02 0.0293,0.0414 0.049,0.0568 0.0379,0.0296 0.0742,0.0734 0.12218,0.0767 0.0574,0.004 0.0525,-0.089 0.054,-0.11649"
       id="path955" />
    <path
       style="fill:none;stroke:#000000;stroke-width:0.264583px;stroke-linecap:butt;stroke-linejoin:miter;stroke-opacity:1"
       d="m 94.882137,222.63884 c 0.0087,-0.0536 -0.0082,-0.11868 0.02611,-0.16073 0.03445,-0.0422 0.100129,-0.0439 0.152692,-0.0583 0.240606,-0.0655 0.69692,-0.16689 0.942263,-0.18282 0.351613,-0.0228 0.704855,-0.0414 1.056783,-0.0241 0.460179,0.0226 2.020485,0.333 2.274289,0.37168 1.763106,0.26871 2.165166,0.42202 3.664586,0.30136 0.16823,-0.0136 0.33083,-0.067 0.49625,-0.10046"
       id="path957" />
    <path
       style="fill:none;stroke:#000000;stroke-width:0.264583px;stroke-linecap:butt;stroke-linejoin:miter;stroke-opacity:1"
       d="m 99.267984,222.16068 c 0.226925,1.62117 0.27118,3.26168 0.305382,4.89608 0.03195,1.5268 -0.01275,1.03178 0.05425,2.5294 0.03995,0.893 0.08385,1.78587 0.138626,2.67808 0.02924,0.47625 0.06538,0.95207 0.09242,1.42844 0.02588,0.45586 0.05246,0.91179 0.0663,1.36817 0.0047,0.15546 0.01543,0.77142 -0.05826,0.99047 -0.01214,0.0361 -0.06295,0.0429 -0.09443,0.0643"
       id="path959" />
    <path
       style="fill:none;stroke:#000000;stroke-width:0.264583px;stroke-linecap:butt;stroke-linejoin:miter;stroke-opacity:1"
       d="m 94.464246,235.55508 c 0.0067,0.077 -0.04053,0.18307 0.02008,0.23104 0.155636,0.12314 0.992807,0.0131 1.002535,0.0121 0.797267,-0.0878 1.590062,-0.21618 2.38881,-0.28931 0.471223,-0.0431 2.352439,-0.0164 2.613829,-0.0121 0.80198,0.0134 1.29184,0.0401 2.11155,0.12456 0.26047,0.0269 1.11468,0.21725 1.51888,0.0984 0.0829,-0.0244 0.13661,-0.10581 0.20492,-0.15871"
       id="path961" />
  </g>
</svg>
