<?xml version="1.0" encoding="UTF-8" standalone="no"?>
<!-- Created with Inkscape (http://www.inkscape.org/) -->

<svg
   width="123.79366mm"
   height="210.26424mm"
   viewBox="0 0 123.79366 210.26424"
   version="1.1"
   id="svg5"
   inkscape:version="1.3 (0e150ed6c4, 2023-07-21)"
   sodipodi:docname="调平点示意图.svg"
   xmlns:inkscape="http://www.inkscape.org/namespaces/inkscape"
   xmlns:sodipodi="http://sodipodi.sourceforge.net/DTD/sodipodi-0.dtd"
   xmlns:xlink="http://www.w3.org/1999/xlink"
   xmlns="http://www.w3.org/2000/svg"
   xmlns:svg="http://www.w3.org/2000/svg">
  <sodipodi:namedview
     id="namedview7"
     pagecolor="#ffffff"
     bordercolor="#666666"
     borderopacity="1.0"
     inkscape:showpageshadow="2"
     inkscape:pageopacity="0.0"
     inkscape:pagecheckerboard="0"
     inkscape:deskcolor="#d1d1d1"
     inkscape:document-units="mm"
     showgrid="false"
     inkscape:zoom="1.6819304"
     inkscape:cx="200.06773"
     inkscape:cy="539.55859"
     inkscape:window-width="1366"
     inkscape:window-height="697"
     inkscape:window-x="-8"
     inkscape:window-y="-8"
     inkscape:window-maximized="1"
     inkscape:current-layer="layer1" />
  <defs
     id="defs2">
    <inkscape:path-effect
       effect="bspline"
       id="path-effect335"
       is_visible="true"
       lpeversion="1"
       weight="33.333333"
       steps="2"
       helper_size="0"
       apply_no_weight="true"
       apply_with_weight="true"
       only_selected="false" />
    <inkscape:path-effect
       effect="bspline"
       id="path-effect331"
       is_visible="true"
       lpeversion="1"
       weight="33.333333"
       steps="2"
       helper_size="0"
       apply_no_weight="true"
       apply_with_weight="true"
       only_selected="false" />
    <inkscape:path-effect
       effect="bspline"
       id="path-effect69"
       is_visible="true"
       lpeversion="1"
       weight="33.333333"
       steps="2"
       helper_size="0"
       apply_no_weight="true"
       apply_with_weight="true"
       only_selected="false" />
  </defs>
  <g
     inkscape:label="图层 1"
     inkscape:groupmode="layer"
     id="layer1"
     transform="translate(-38.103126,-53.201306)">
    <path
       style="fill:none;stroke:#000000;stroke-width:0.264583px;stroke-linecap:butt;stroke-linejoin:miter;stroke-opacity:1"
       d="m 99.999758,63.333294 c -6.666557,-6.666495 -3.333224,-9.999828 3.72e-4,-9.999696 3.3336,1.32e-4 6.66668,3.33321 -3.31e-4,9.999969 -6.667009,6.666759 -23.333068,16.666394 -38.333119,44.999813 -15.000052,28.33342 -28.333214,74.99949 -21.666277,106.6666 6.666937,31.66711 33.332991,48.33339 59.999787,48.33327 26.6668,-1.2e-4 53.33242,-16.66613 59.99929,-48.33356 6.66688,-31.66743 -6.66556,-78.33097 -21.66601,-106.66542 C 123.33303,79.999816 106.66632,69.999789 99.999758,63.333294 Z"
       id="path333"
       inkscape:path-effect="#path-effect335"
       inkscape:original-d="m 90,60 c 3.333465,-3.332936 6.666799,-6.66627 10,-10 3.33373,3.33373 6.66681,6.666807 10,10 -16.667023,10.000637 -33.333082,20.000273 -50,30 -13.333058,46.66689 -26.66622,93.33296 -40,140 26.667294,16.66716 53.333351,33.33344 80,50 26.66718,-16.66656 53.3328,-33.33257 80,-50 C 166.66653,183.33221 153.3341,136.66867 140,90 123.33298,79.999892 106.66627,69.999865 90,60 Z"
       sodipodi:nodetypes="ccccscccc" />
    <path
       style="fill:none;stroke:#000000;stroke-width:0.264583px;stroke-linecap:butt;stroke-linejoin:miter;stroke-opacity:1"
       d="M 83.821437,77.671061 69.583422,66.102673"
       id="path457" />
    <path
       style="fill:none;stroke:#000000;stroke-width:0.264583px;stroke-linecap:butt;stroke-linejoin:miter;stroke-opacity:1"
       d="M 75.342234,87.3358 62.883971,77.102225"
       id="path459" />
    <path
       style="fill:none;stroke:#000000;stroke-width:0.264583px;stroke-linecap:butt;stroke-linejoin:miter;stroke-opacity:1"
       d="M 90.989578,71.223647 78.086378,60.100199"
       id="path461" />
    <use
       x="0"
       y="0"
       xlink:href="#path461"
       id="use494"
       transform="matrix(-1,0,0,1,200.07596,0)" />
    <use
       x="0"
       y="0"
       xlink:href="#path457"
       id="use496"
       transform="matrix(-1,0,0,1,199.90486,0)" />
    <use
       x="0"
       y="0"
       xlink:href="#path459"
       id="use498"
       transform="matrix(-1,0,0,1,200.13908,0)" />
    <path
       style="fill:none;stroke:#000000;stroke-width:0.264583px;stroke-linecap:butt;stroke-linejoin:miter;stroke-opacity:1"
       d="M 100,120 V 220"
       id="path500"
       sodipodi:nodetypes="cc" />
    <path
       style="fill:none;stroke:#000000;stroke-width:0.264583px;stroke-linecap:butt;stroke-linejoin:miter;stroke-opacity:1"
       d="m 70,170 h 60"
       id="path502"
       sodipodi:nodetypes="cc" />
    <path
       style="fill:none;stroke:#000000;stroke-width:0.352867px;stroke-linecap:butt;stroke-linejoin:miter;stroke-opacity:1"
       d="M 46.569328,194.61974 H 153.29019"
       id="path502-2"
       sodipodi:nodetypes="cc" />
    <path
       style="fill:none;stroke:#000000;stroke-width:0.264583px;stroke-linecap:butt;stroke-linejoin:miter;stroke-opacity:1"
       d="m 60,220 h 80"
       id="path504"
       sodipodi:nodetypes="cc" />
    <path
       style="fill:none;stroke:#000000;stroke-width:0.264583"
       id="path560"
       sodipodi:type="arc"
       sodipodi:cx="67.263229"
       sodipodi:cy="98.790253"
       sodipodi:rx="8.3373938"
       sodipodi:ry="8.3373938"
       sodipodi:start="2.1189671"
       sodipodi:end="5.3021985"
       sodipodi:arc-type="arc"
       d="m 62.918389,105.90604 a 8.3373938,8.3373938 0 0 1 -3.986391,-7.436294 8.3373938,8.3373938 0 0 1 4.54592,-7.108057 8.3373938,8.3373938 0 0 1 8.422593,0.499801"
       sodipodi:open="true" />
    <use
       x="0"
       y="0"
       xlink:href="#path560"
       id="use626"
       transform="matrix(-1,0,0,1,200.08887,0)" />
    <path
       style="fill:none;stroke:#000000;stroke-width:0.264583px;stroke-linecap:butt;stroke-linejoin:miter;stroke-opacity:1"
       d="m 95.878976,119.56939 c 0.0028,-0.11697 -0.0056,-0.23475 0.0085,-0.35089 0.04697,-0.38721 0.172204,-1.12852 0.262818,-1.56837 0.327665,-1.59052 0.23813,-1.16285 0.6194,-2.66082 0.06748,-0.26512 0.130358,-0.53144 0.201732,-0.79555 0.06455,-0.23886 0.132614,-0.47684 0.205991,-0.71315 0.169286,-0.54515 0.311372,-0.99315 0.525637,-1.50585 0.06897,-0.16504 0.145169,-0.32699 0.221621,-0.4887 0.168846,-0.35712 0.352811,-0.74416 0.637868,-1.02568 0.03749,-0.037 0.328501,-0.25715 0.478758,-0.17474 0.383535,0.21037 0.435729,0.37934 0.717423,0.80407 0.103735,0.15641 0.195286,0.32067 0.286966,0.48443 0.2119,0.37851 0.42049,0.75892 0.62367,1.14218 0.24127,0.45513 0.57356,1.16614 0.76004,1.60246 0.17725,0.41473 0.34085,0.83518 0.50717,1.25441 0.0458,0.11555 0.36153,0.94994 0.40772,1.08961 0.0826,0.2496 0.15987,0.50102 0.23015,0.75435 0.0628,0.22655 0.11527,0.45587 0.16905,0.68474 0.0149,0.0634 0.0246,0.12785 0.0369,0.19178 0.0327,0.16953 0.0598,0.34023 0.098,0.50858 0.029,0.12782 0.0663,0.25369 0.10371,0.37931 0.0208,0.0698 0.11392,0.32991 0.14064,0.40914 0.0196,0.058 0.039,0.11615 0.0568,0.17473 0.003,0.008 0.008,0.0335 0.004,0.0256 -0.0277,-0.0635 -0.0534,-0.14659 -0.0753,-0.21309"
       id="path869" />
    <path
       style="fill:none;stroke:#000000;stroke-width:0.264583px;stroke-linecap:butt;stroke-linejoin:miter;stroke-opacity:1"
       d="m 96.455757,115.84879 c 0.04072,0.0114 0.08005,0.0305 0.122177,0.0341 0.0422,0.004 0.08415,-0.0103 0.126436,-0.0128 0.126344,-0.007 0.253005,-0.009 0.379312,-0.017 0.249695,-0.016 0.49806,-0.0486 0.747257,-0.071 0.132501,-0.012 0.265505,-0.0184 0.397778,-0.0327 0.750411,-0.0808 0.850759,-0.11514 1.544238,-0.16764 0.521825,-0.0395 0.602625,-0.0364 1.102415,-0.0284 0.43067,0.007 0.16584,0.0101 0.63787,0.0242 0.0596,0.002 0.11982,0.008 0.179,0 0.0148,-0.002 0.34238,-0.0567 0.34238,-0.14491 0,-0.007 -0.014,0.006 -0.0185,0.0114 -0.0115,0.0142 -0.0204,0.0304 -0.0284,0.0469 -0.0333,0.0687 0.0145,0.0203 -0.0611,0.0753"
       id="path871" />
    <path
       style="fill:none;stroke:#000000;stroke-width:0.264583px;stroke-linecap:butt;stroke-linejoin:miter;stroke-opacity:1"
       d="m 101.2308,171.62517 c 0.0185,0.053 0.04,0.10512 0.0554,0.15911 0.0421,0.147 0.068,0.28377 0.0952,0.43329 0.0177,0.0974 0.0367,0.19468 0.0511,0.29265 0.0306,0.20799 0.0609,0.41611 0.0838,0.62507 0.0347,0.31619 0.0598,0.80751 0.0753,1.11803 0.0166,0.33332 0.0308,0.66677 0.0469,1.00011 0.0214,0.44356 0.0467,0.83138 0.0753,1.29419 0.0152,0.24579 0.027,0.49184 0.0469,0.7373 0.0242,0.29918 0.0496,0.59838 0.0852,0.89641 0.0246,0.20587 0.0246,0.34934 0.23866,0.44324 0.0598,0.0262 0.33493,-0.0951 0.34664,-0.10087 0.45263,-0.22206 0.46381,-0.24458 0.85949,-0.5171 1.01911,-0.70191 0.29102,-0.18928 0.79272,-0.56257 0.35086,-0.26106 0.56103,-0.39398 0.90494,-0.72167 0.0667,-0.0635 0.11719,-0.14283 0.1648,-0.22162 0.0204,-0.0337 0.0434,-0.0734 0.0369,-0.11223 -0.0243,-0.14572 -0.0541,-0.29597 -0.12644,-0.42476 -0.0605,-0.10774 -0.40241,-0.30498 -0.49722,-0.34237 -0.49109,-0.19366 -0.92642,-0.24697 -1.4448,-0.33385 -0.72211,-0.12102 -0.0435,-0.007 -0.6194,-0.0923 -0.0457,-0.007 -0.0944,-0.005 -0.13638,-0.0242 -0.0131,-0.006 -0.021,-0.0353 -0.009,-0.0426 0.0628,-0.0371 0.1369,-0.0505 0.206,-0.0739 0.29174,-0.0987 0.61495,-0.19123 0.90068,-0.31822 0.34621,-0.15386 0.55243,-0.28743 0.88648,-0.50432 0.0542,-0.0352 0.10583,-0.0744 0.15485,-0.11649 0.13107,-0.11244 0.2742,-0.21418 0.385,-0.34663 0.30849,-0.36878 0.42599,-0.78271 0.0384,-1.21321 -0.14325,-0.15909 -0.57337,-0.30415 -0.84102,-0.37078 -0.1815,-0.0452 -0.9145,-0.22318 -1.21038,-0.28839 -0.18249,-0.0402 -0.36619,-0.0749 -0.54837,-0.11649 -0.15542,-0.0355 -0.63939,-0.20487 -0.65207,-0.20883 -0.035,-0.0109 -0.18714,-0.0572 -0.24435,-0.0369 -0.0892,0.0315 -0.0367,0.16412 -0.0327,0.21167 0.002,0.0184 0.003,0.0369 0.004,0.0554"
       id="path873" />
    <path
       style="fill:none;stroke:#000000;stroke-width:0.264583px;stroke-linecap:butt;stroke-linejoin:miter;stroke-opacity:1"
       d="m 94.882137,222.63884 c 0.0087,-0.0536 -0.0082,-0.11868 0.02611,-0.16073 0.03445,-0.0422 0.100129,-0.0439 0.152692,-0.0583 0.240606,-0.0655 0.69692,-0.16689 0.942263,-0.18282 0.351613,-0.0228 0.704855,-0.0414 1.056783,-0.0241 0.460179,0.0226 2.020485,0.333 2.274289,0.37168 1.763106,0.26871 2.165166,0.42202 3.664586,0.30136 0.16823,-0.0136 0.33083,-0.067 0.49625,-0.10046"
       id="path957" />
    <path
       style="fill:none;stroke:#000000;stroke-width:0.264583px;stroke-linecap:butt;stroke-linejoin:miter;stroke-opacity:1"
       d="m 99.267984,222.16068 c 0.226925,1.62117 0.27118,3.26168 0.305382,4.89608 0.03195,1.5268 -0.01275,1.03178 0.05425,2.5294 0.03995,0.893 0.08385,1.78587 0.138626,2.67808 0.02924,0.47625 0.06538,0.95207 0.09242,1.42844 0.02588,0.45586 0.05246,0.91179 0.0663,1.36817 0.0047,0.15546 0.01543,0.77142 -0.05826,0.99047 -0.01214,0.0361 -0.06295,0.0429 -0.09443,0.0643"
       id="path959" />
    <path
       style="fill:none;stroke:#000000;stroke-width:0.264583px;stroke-linecap:butt;stroke-linejoin:miter;stroke-opacity:1"
       d="m 94.464246,235.55508 c 0.0067,0.077 -0.04053,0.18307 0.02008,0.23104 0.155636,0.12314 0.992807,0.0131 1.002535,0.0121 0.797267,-0.0878 1.590062,-0.21618 2.38881,-0.28931 0.471223,-0.0431 2.352439,-0.0164 2.613829,-0.0121 0.80198,0.0134 1.29184,0.0401 2.11155,0.12456 0.26047,0.0269 1.11468,0.21725 1.51888,0.0984 0.0829,-0.0244 0.13661,-0.10581 0.20492,-0.15871"
       id="path961" />
    <path
       style="fill:none;stroke:#000000;stroke-width:0.264583;stroke-opacity:1"
       d="m 105.73731,197.04289 c -2.79066,-2.44341 -5.15414,2.02022 -3.70518,4.31649 0.56358,0.89316 1.88976,2.0313 3.06928,1.61138 0.24452,-0.0871 0.48646,-0.19647 0.69525,-0.35066 0.22373,-0.16524 1.087,-1.62995 0.89874,-1.65313"
       id="path1" />
    <path
       style="fill:none;stroke:#000000;stroke-width:0.264583;stroke-opacity:1"
       d="m 155.39945,190.89628 c -0.21184,1.0115 -0.46749,2.01481 -0.63551,3.03451 -0.19998,1.21365 -0.31044,2.44037 -0.46763,3.6603 -0.0797,0.61839 0.62022,0.31461 1.00721,0.20073 1.32003,-0.38847 3.53688,-1.29031 3.72909,-2.89282 0.14448,-1.20456 -1.57581,-3.01256 -2.42211,-3.61307 -0.50138,-0.35577 -0.57033,-0.28449 -1.21105,-0.38965 z"
       id="path2" />
    <path
       style="fill:none;stroke:#000000;stroke-width:0.264583;stroke-opacity:1"
       d="m 40.085315,190.15241 c 0.07594,0.73206 0.157711,1.46354 0.227822,2.19618 0.197684,2.06575 0.245742,4.15009 0.575552,6.1989 0.05161,0.32058 0.23186,0.74618 0.55157,0.80291 0.316284,0.0561 0.595283,-0.30353 0.779392,-0.56676 0.660009,-0.94364 1.16874,-1.98517 1.714664,-2.99909 0.655006,-1.21651 3.003942,-4.88538 1.294991,-6.13986 -1.025626,-0.75287 -3.238223,0.87017 -4.38858,0.81472 -0.271488,-0.0131 -0.503608,-0.20467 -0.755411,-0.307 z"
       id="path3" />
    <path
       style="fill:none;stroke:#000000;stroke-width:0.264583;stroke-opacity:1"
       d="m 120.33877,185.98439 c 0.68813,-0.2541 0.0874,-0.0211 0.92328,-0.38964 0.0867,-0.0383 0.3581,-0.11627 0.2638,-0.10627 -2.45445,0.25442 -7.27689,3.79399 -9.02897,4.86466 -0.65826,0.40225 -1.25467,0.94889 -1.99045,1.18074 -0.27415,0.0864 0.32457,-0.47453 0.49162,-0.70844 1.57561,-2.20631 3.15754,-4.40811 4.73631,-6.61216 0.0949,2.29647 0.77644,4.55168 0.67148,6.86011 -0.0178,0.3909 -0.0953,0.77784 -0.10792,1.16894 -0.003,0.10807 -0.004,0.40578 0.06,0.3188 0.19491,-0.2639 0.34051,-0.93144 0.21583,-1.2752"
       id="path10" />
    <path
       style="fill:none;stroke:#000000;stroke-width:0.264583;stroke-opacity:1"
       d="m 121.53784,186.23235 c 0.2558,1.61368 0.39607,3.24997 0.7674,4.84104 0.0792,0.33953 0.0178,-0.70569 0.1199,-1.03905 0.34374,-1.12217 0.70168,-2.24874 1.21106,-3.30608 0.20271,-0.42077 0.43707,-1.14141 0.8993,-1.07448 0.64714,0.0937 0.20262,3.21458 0.17986,3.41235 -0.13897,1.20742 -0.0663,0.54178 0.31176,-0.22434 0.32118,-0.65079 0.63578,-1.30595 0.99522,-1.93642 0.1533,-0.26888 0.35252,-0.50908 0.53958,-0.75567 0.0766,-0.101 0.18601,-0.40998 0.23981,-0.29519 0.46543,0.99302 -0.0191,2.73217 -0.14389,3.74296 -0.0595,0.48247 -0.0958,1.90838 -0.22782,1.4405 -0.11513,-0.40816 -0.0631,-0.81304 -0.52759,-1.00363"
       id="path11" />
    <path
       style="fill:none;stroke:#000000;stroke-width:0.264583;stroke-opacity:1"
       d="m 129.16389,186.12608 c -0.1239,1.34211 -0.18077,2.69211 -0.37171,4.02633 -0.0196,0.13713 -0.26745,0.46825 -0.2518,0.33061 0.14202,-1.24901 0.36573,-4.13469 1.67869,-5.19527 0.18857,-0.15231 0.39633,0.33173 0.45564,0.56676 0.10815,0.42857 -0.0125,2.58327 -0.024,2.94005 -0.0113,0.3502 -0.024,0.70048 -0.024,1.05086 0,0.14259 -0.0536,0.52511 0.048,0.42507 0.30484,-0.30018 0.27235,-0.81233 0.44366,-1.20436 0.45077,-1.03157 1.67985,-3.2615 2.6859,-3.77838 0.51605,-0.26512 0.66853,0.83933 0.69546,1.08629 0.11797,1.08177 0.12318,2.41741 -0.6355,3.28246"
       id="path12" />
    <path
       style="fill:none;stroke:#000000;stroke-width:0.264583;stroke-opacity:1"
       d="m 66.764523,182.90266 c -1.031198,1.99939 -2.062393,3.99878 -3.09359,5.99817 0.01998,0.24795 -0.177661,0.81749 0.05995,0.74386 0.924954,-0.28659 4.659027,-2.93553 5.407784,-3.43595 0.09487,-0.0634 0.408557,-0.19974 0.299768,-0.16531 -2.819638,0.89246 1.410909,-0.28161 -1.247029,0.43688"
       id="path13" />
    <path
       style="fill:none;stroke:#000000;stroke-width:0.264583;stroke-opacity:1"
       d="m 66.105036,185.5121 c 1.250288,0.65604 1.089903,10.14591 0.815366,6.19889"
       id="path14" />
    <path
       style="fill:none;stroke:#000000;stroke-width:0.264583;stroke-opacity:1"
       d="m 71.057178,185.78367 c -0.243811,2.1214 -0.437975,4.24909 -0.73143,6.3642 -0.0089,0.0639 -0.13938,-0.0776 -0.131897,-0.14169 0.115199,-0.98692 0.226406,-1.98247 0.491617,-2.94005 0.217627,-0.78578 0.549666,-1.54337 0.947261,-2.25522 0.06284,-0.11251 0.311026,-0.21995 0.37171,-0.10626 0.243851,0.45682 0.245724,2.74282 0.323747,3.41234 0.06481,0.55616 0.156075,0.6136 0.16787,0.59037 0.368795,-0.72632 0.584584,-2.38337 0.92328,-3.27065 0.126778,-0.33212 0.400915,-1.16015 0.611523,-0.87375 0.497184,0.67609 0.18872,2.67395 0.119907,3.42415 -0.05876,0.64057 -0.123031,1.09655 -0.143888,1.08628 -0.09699,-0.0477 -0.143389,-0.44784 -0.227823,-0.59037"
       id="path15" />
    <path
       style="fill:none;stroke:#000000;stroke-width:0.264583;stroke-opacity:1"
       d="m 75.913394,186.49211 c 1.731801,1.3254 -0.06834,3.90734 0.671475,5.65576 0.06793,0.16054 -0.0524,-0.34537 -0.05996,-0.51953 -0.02045,-0.47192 -0.06322,-0.94616 -0.02397,-1.41689 0.148249,-1.77834 0.700688,-3.35378 1.738643,-4.80562 0.170037,-0.23784 0.231437,0.55818 0.215834,0.85013 -0.04539,0.84914 -0.149995,1.69437 -0.251804,2.5386 -0.05014,0.4158 -0.139194,0.82599 -0.203843,1.23978 -0.07828,0.50104 -0.06733,0.66957 -0.107915,0.6376 -0.06191,-0.0488 -0.01741,-0.15752 -0.01199,-0.23615 0.117568,-1.70348 0.58165,-3.63328 1.82258,-4.88827 0.116358,-0.11768 0.609573,-0.59177 0.875318,-0.30699 0.459243,0.49212 0.779277,4.47524 0.515599,4.99454 -0.03115,0.0613 -0.01849,-0.13857 -0.04796,-0.20073 -0.08853,-0.18681 -0.19459,-0.2222 -0.359719,-0.33061"
       id="path16" />
    <path
       style="fill:none;stroke:#000000;stroke-width:0.264583;stroke-opacity:1"
       d="m 46.884016,184.93156 c 0.879662,1.58474 -0.01146,2.41494 -1.031196,3.57765 -0.417317,0.47583 -0.815365,0.96821 -1.223047,1.45232"
       id="path17" />
  </g>
</svg>
